<?xml version="1.0" encoding="UTF-8"?>
<svg width="64px" height="37px" viewBox="0 0 64 37" version="1.1" xmlns="http://www.w3.org/2000/svg" xmlns:xlink="http://www.w3.org/1999/xlink">
    <!-- Generator: Sketch 57.1 (83088) - https://sketch.com -->
    <title>Icon/bike</title>
    <desc>Created with Sketch.</desc>
    <g id="Symbols" stroke="none" stroke-width="1" fill="none" fill-rule="evenodd">
        <g id="Web/Amenities" transform="translate(-26.000000, -306.000000)">
            <g id="Bike-locker" transform="translate(18.000000, 282.666667)">
                <g id="Icon/bike">
                    <g>
                        <rect id="Rectangle-Copy-20" x="0" y="0" width="80" height="80"></rect>
                        <g id="Icon-bike" transform="translate(6.000000, 24.000000)" fill-rule="nonzero">
                            <path d="M54.44,13.6997933 C53.4460241,13.693769 52.4561814,13.8284414 51.5,14.1 C50.9899952,14.2349983 50.4890028,14.4019958 50,14.6 C44.7792663,16.8433384 42.1018439,22.6724711 43.8017118,28.0945626 C45.5015796,33.5166542 51.0276601,36.7739249 56.5947024,35.6352117 C62.1617447,34.4964985 65.9649776,29.3309591 65.3992654,23.6768812 C64.8335531,18.0228033 60.082293,13.7131739 54.4,13.6997933 L54.44,13.6997933 Z M54.44,33.06 C50.4479806,33.149223 46.9528177,30.3963845 46.1041777,26.4945914 C45.2555377,22.5927982 47.2915563,18.6369277 50.96,17.06 C51.4037064,16.8513974 51.8656501,16.6840265 52.34,16.56 C56.8024608,15.4057249 61.3557249,18.0875392 62.51,22.55 C63.6642751,27.0124608 60.9824608,31.5657249 56.52,32.72 C55.8675406,32.8959909 55.1957048,32.9900479 54.52,33 L54.44,33.06 Z" id="Shape" fill="#CAE5E3"></path>
                            <path d="M37,3.02 C36.4906211,2.5245501 36.3987734,1.73966969 36.78,1.14" id="Path" fill="#CAE5E3"></path>
                            <path d="M47.38,1.6 C43.9635559,2.35023775 40.4924145,2.82509525 37,3.02 C36.4906211,2.5245501 36.3987734,1.73966969 36.78,1.14 C36.78,1.14 43.7,0.24 47.38,1.6" id="Path" fill="#CAE5E3"></path>
                            <path d="M26.86,5.12 C25.8,4.92 23.14,4.7 22.4,5.42 C21.66,6.14 21.8,8 24.22,8.14 C26.5624604,8.326105 28.9173071,7.99847415 31.12,7.18 C31.2296736,7.11524657 31.2969699,6.99736288 31.2969699,6.87 C31.2969699,6.74263712 31.2296736,6.62475343 31.12,6.56 C29.7673298,5.9000273 28.3356737,5.41608723 26.86,5.12 Z" id="Path" fill="#CAE5E3"></path>
                            <path d="M47.52,7.04 C47.52,7.04 27.72,13.8 27.52,13.88 C27.4185754,13.9345431 27.3244892,14.0017475 27.24,14.08 L15.68,24.68 L15.08,23.56 L27.08,11.66 C27.2049085,11.5453269 27.3559613,11.4629344 27.52,11.42 L46.76,5.42" id="Path" fill="#CAE5E3"></path>
                            <polyline id="Path" fill="#CAE5E3" points="33.84 21.16 47.62 7.58 48.16 9.12 35.24 22.58"></polyline>
                            <path d="M52.32,16.62 C51.843077,16.7356249 51.3803007,16.9032975 50.94,17.12 L50,14.6 C50.4759578,14.4035643 50.9635446,14.2365826 51.46,14.1 L52.32,16.62 Z" id="Path" fill="#CAE5E3"></path>
                            <polyline id="Path" fill="#CAE5E3" points="48.26 3.54 54.82 24 53.78 24.6 46.44 4.08"></polyline>
                            <path d="M37.08,5.12 L47.38,1.6 C47.38,1.6 49.18,1.82 48.5,3.32 L38.12,6.4 C38.12,6.4 36.56,6.56 37.08,5.12 Z" id="Path" fill="#CAE5E3"></path>
                            <path d="M25.2,22.28 C24.8207979,20.6055344 24.0535187,19.0435732 22.96,17.72 C22.5601589,17.2167391 22.1112858,16.7544668 21.62,16.34 C16.9921906,12.3537566 10.0091862,12.8735644 6.02257454,17.5010565 C2.03596292,22.1285487 2.55521504,29.1115945 7.18238996,33.0985743 C11.8095649,37.0855541 18.792652,36.5668577 22.78,31.94 C24.120264,30.3675703 25.0054653,28.4588549 25.34,26.42 C25.4204478,25.8502072 25.4605476,25.2754436 25.4600055,24.7 C25.4526449,23.8867739 25.3655615,23.0762287 25.2,22.28 Z M14.36,33.0200156 C9.75656483,33.0089606 6.03265542,29.2701412 6.03999977,24.6666986 C6.04736587,20.0632561 9.78320374,16.3363556 14.3866507,16.3400239 C18.9900976,16.3436976 22.72,20.0765516 22.72,24.68 C22.7130307,25.1829132 22.6662175,25.6844833 22.58,26.18 C21.8545501,30.1477687 18.3935352,33.0277373 14.36,33.0200156 Z" id="Shape" fill="#CAE5E3"></path>
                            <path d="M25.46,24.72 C25.4605476,25.2954436 25.4204478,25.8702072 25.34,26.44 C24.42,26.44 23.5,26.28 22.58,26.18 C22.8101349,25.0650853 22.8101349,23.9149147 22.58,22.8 L25.26,22.28 C25.4064735,23.0848129 25.4734624,23.9020776 25.46,24.72 L25.46,24.72 Z" id="Path" fill="#CAE5E3"></path>
                            <path d="M30.92,26.56 C27.24,27.26 17.42,25.06 15.92,24.72 C15.92,24.72 15.92,24.72 15.92,24.72 C17.54,24.26 28.74,21.14 30.92,22.08" id="Path" fill="#CAE5E3"></path>
                            <path d="M21.62,16.34 C22.1112858,16.7544668 22.5601589,17.2167391 22.96,17.72 L20.96,19.54 C20.6015886,19.0883525 20.1996568,18.673023 19.76,18.3" id="Path" fill="#CAE5E3"></path>
                            <circle id="Oval" fill="#CAE5E3" cx="14.52" cy="24.68" r="1.2"></circle>
                            <circle id="Oval" fill="#CAE5E3" cx="14.38" cy="24.68" r="1.2"></circle>
                            <circle id="Oval" fill="#CAE5E3" cx="54.34" cy="24.56" r="1.2"></circle>
                            <circle id="Oval" fill="#CAE5E3" cx="54.42" cy="24.72" r="1.2"></circle>
                            <circle id="Oval" fill="#CAE5E3" cx="33.02" cy="23.48" r="2.4"></circle>
                            <circle id="Oval" fill="#CAE5E3" cx="33.16" cy="23.48" r="2.4"></circle>
                            <path d="M33.84,26 L32.4,24.1 C32.1945111,23.8157699 32.247219,23.4204607 32.52,23.2 L32.52,23.2 C32.8092907,22.9990147 33.2054303,23.0606364 33.42,23.34 L35.32,26" id="Path" fill="#CAE5E3"></path>
                            <rect id="Rectangle" fill="#CAE5E3" x="30.64" y="26.08" width="5.64" height="1.78"></rect>
                            <rect id="Rectangle" fill="#CAE5E3" x="30.64" y="26.08" width="5.64" height="1.78"></rect>
                            <path d="M27.76,8.24 L27.76,11.36" id="Path" fill="#CAE5E3"></path>
                            <path d="M26.14,12.74 L26.14,8.34" id="Path" fill="#CAE5E3"></path>
                            <path d="M26.14,15.16 L26.14,22.26" id="Path" fill="#CAE5E3"></path>
                            <path d="M27.76,21.86 L27.76,13.86" id="Path" fill="#CAE5E3"></path>
                            <path d="M53.48,35.72 C47.9665822,35.8498899 43.1480209,32.0211241 42.0287136,26.6209575 C40.9094064,21.220791 43.8091754,15.7922258 48.92,13.72 C49.4076069,13.507275 49.9086906,13.3268848 50.42,13.18 C51.4120597,12.9172207 52.4337312,12.7827902 53.46,12.78 C58.9694157,12.6604312 63.7783775,16.4922783 64.8921207,21.8892715 C66.0058638,27.2862646 63.106669,32.7087949 58,34.78 C56.5746064,35.4027148 55.0354783,35.7227989 53.48,35.72 Z M53.48,13.5999987 C52.5194758,13.6025555 51.5638628,13.7371489 50.64,14 C50.1635597,14.129932 49.6959349,14.2902605 49.24,14.48 C44.2142569,16.6571126 41.6500383,22.2831758 43.3037138,27.5046 C44.9573893,32.7260241 50.2928841,35.8501717 55.6556345,34.7371481 C61.0183849,33.6241244 64.6699392,28.6347402 64.1091539,23.1864897 C63.5483686,17.7382393 58.9570344,13.5972908 53.48,13.5999987 L53.48,13.5999987 Z M53.48,32.98 C49.3604971,33.0158569 45.7779186,30.1638301 44.8893531,26.1411393 C44.0007875,22.1184485 46.0486866,18.0227148 49.8,16.32 C50.2655811,16.1090747 50.7470744,15.9352021 51.24,15.8 C54.2684053,14.9795207 57.5041191,15.8492629 59.713044,18.0775079 C61.9219689,20.3057529 62.763501,23.5489178 61.916681,26.5700635 C61.069861,29.5912091 58.6652639,31.9244917 55.62,32.68 C54.9101623,32.8777319 54.176862,32.9786448 53.44,32.98 L53.48,32.98 Z M53.48,16.279999 C52.8061314,16.2796799 52.1346609,16.3602563 51.48,16.52 C51.0288918,16.6476223 50.5877162,16.8080498 50.16,17 C46.8067301,18.5991034 44.9955565,22.2962412 45.7873159,25.9259337 C46.5790754,29.5556262 49.765399,32.1626398 53.48,32.2200454 C54.1552419,32.2223311 54.827798,32.1348988 55.48,31.96 C59.2640458,30.8623286 61.6854693,27.1728927 61.1869525,23.2645214 C60.6884358,19.35615 57.4184251,16.3926623 53.48,16.279999 Z" id="Shape" fill="#297373"></path>
                            <path d="M35.76,2.82 C35.1107443,2.20329546 34.9930744,1.21150571 35.48,0.46 L36.1,0.88 C35.8151866,1.33956189 35.8993307,1.93698496 36.3,2.3 L35.76,2.82 Z" id="Path" fill="#297373"></path>
                            <path d="M35.88,2.94 L35.76,2.82 C35.1107443,2.20329546 34.9930744,1.21150571 35.48,0.46 L35.58,0.32 L35.74,0.32 C36.04,0.32 42.8,-0.58 46.52,0.8 L47.6,1.2 L46.5,1.52 C43.0445062,2.27846124 39.5328277,2.75337394 36,2.94 L35.88,2.94 Z M36.02,0.94 C35.8508556,1.32597568 35.9126832,1.77422586 36.18,2.1 C39.103447,1.93426516 42.0149297,1.60037954 44.9,1.1 C41.9493818,0.68713619 38.9575631,0.660243438 36,1.02 L36.02,0.94 Z" id="Shape" fill="#297373"></path>
                            <path d="M24.34,8.1 C23.9603206,8.12207564 23.5796794,8.12207564 23.2,8.1 C21.42,7.94 20.86,7.1 20.68,6.62 C20.4681506,5.95930665 20.6548948,5.23567282 21.16,4.76 C22.2,3.74 25.62,4.3 25.92,4.36 C27.4577385,4.64939908 28.9506048,5.14029657 30.36,5.82 C30.5823365,5.96640049 30.717285,6.21380595 30.72,6.48 C30.709496,6.74914182 30.5573223,6.99261961 30.32,7.12 C28.408697,7.82992892 26.3779262,8.16273082 24.34,8.1 L24.34,8.1 Z M23.68,4.84 C22.9879914,4.76288268 22.2891166,4.90265764 21.68,5.24 C21.3686761,5.50485645 21.2498806,5.93252041 21.38,6.32 C21.56,6.84 22.24,7.2 23.26,7.3 C25.5468513,7.48763621 27.8470937,7.17365653 30,6.38 C28.6828943,5.77605562 27.3003834,5.32640399 25.88,5.04 L25.88,5.04 C25.1547326,4.90325692 24.4180364,4.83628454 23.68,4.84 L23.68,4.84 Z" id="Shape" fill="#297373"></path>
                            <path d="M14.64,24.82 L13.68,23.02 L13.88,22.82 L25.88,10.92 C26.0520259,10.7675956 26.2576013,10.6579554 26.48,10.6 L45.72,4.6 L45.94,5.32 L26.7,11.32 C26.52,11.32 26.48,11.32 26.4,11.48 L14.6,23.16 L14.84,23.6 L26,13.34 C26.1091537,13.2448175 26.230157,13.1641486 26.36,13.1 C26.52,13.1 37.34,9.3 46.36,6.22 L46.6,6.92 L26.6,13.76 L26.54,14 L14.64,24.82 Z" id="Path" fill="#297373"></path>
                            <polygon id="Path" fill="#297373" points="34.54 22.38 34 21.86 46.76 8.56 46.48 7.8 33.12 20.96 32.58 20.44 46.8 6.44 47.62 8.74"></polygon>
                            <path d="M49.76,17.16 L48.6,14 L48.92,13.86 C49.4073,13.646504 49.9084357,13.4660952 50.42,13.32 L50.76,13.32 L51.82,16.58 L51.44,16.58 C50.9865572,16.7002871 50.5447939,16.8609283 50.12,17.06 L49.76,17.16 Z M49.54,14.36 L50.18,16.14 L50.86,16 L50.28,14.2 L49.54,14.36 Z" id="Shape" fill="#297373"></path>
                            <polygon id="Path" fill="#297373" points="52.6 24.7 45.1 3.74 45.82 3.5 53 23.58 53.4 23.36 46.92 3.18 47.64 2.96 54.3 23.72"></polygon>
                            <path d="M37,6.32 C36.5607718,6.34289234 36.1346284,6.16655711 35.84,5.84 C35.567624,5.45893861 35.5291084,4.95823581 35.74,4.54 L35.74,4.36 L46.36,0.74 L46.36,0.74 C46.9428235,0.801825439 47.4691967,1.11618724 47.8,1.6 C48.0421177,2.03526256 48.0421177,2.56473744 47.8,3 L47.8,3.16 L37.26,6.3 L37,6.32 Z M36.4,4.96 C36.3383494,5.09321286 36.3383494,5.24678714 36.4,5.38 C36.5990073,5.53298146 36.8518815,5.59800626 37.1,5.56 L47.22,2.56 C47.3013141,2.37521665 47.3013141,2.16478335 47.22,1.98 C47.0149174,1.72819645 46.7217903,1.56375928 46.4,1.52 L36.4,4.96 Z" id="Shape" fill="#297373"></path>
                            <path d="M13.42,35.6800387 C7.41973784,35.6954867 2.43082339,31.0647955 2,25.08 C1.76937362,22.0516337 2.7718854,19.058523 4.78,16.78 C6.75685427,14.4790254 9.56927448,13.0608481 12.5947314,12.8393816 C15.6201883,12.6179152 18.6091465,13.6114258 20.9,15.6 C21.3946448,16.0383859 21.8559228,16.5130343 22.28,17.02 C23.4098354,18.388862 24.198163,20.0066472 24.58,21.74 L24.58,21.74 C24.7606651,22.5612217 24.854514,23.3991582 24.860085,24.24 C24.862361,24.8361737 24.8155355,25.431526 24.72,26.02 C23.8517495,31.5864927 19.053794,35.6881078 13.42,35.6800387 L13.42,35.6800387 Z M13.42,13.68 L12.62,13.68 C7.79837979,14.0363211 3.81751101,17.5872979 2.91488796,22.3370618 C2.0122649,27.0868258 4.41304809,31.850542 8.76784901,33.9507075 C13.1226499,36.050873 18.3451576,34.9635987 21.5,31.3 C22.8023727,29.7952246 23.6670725,27.9620609 24,26 C24.0790212,25.4501808 24.119121,24.895468 24.12,24.34 C24.1149438,23.5519534 24.0210168,22.7669915 23.84,22 L23.84,22 C23.4823913,20.3855274 22.7492301,18.8780931 21.7,17.6 C21.3080426,17.1149734 20.8729292,16.6664719 20.4,16.26 C18.4793346,14.5561878 16.0073604,13.6043356 13.44,13.58 L13.42,13.68 Z M13.42,33.04 L13.42,33.04 C8.60407698,33.04 4.7,29.135923 4.7,24.32 C4.7,19.504077 8.60407698,15.6 13.42,15.6 C18.235923,15.6 22.14,19.504077 22.14,24.32 C22.1383389,24.8422403 22.0982305,25.3636497 22.02,25.88 C21.2122042,30.0046715 17.5829196,32.9702675 13.38,32.94 L13.42,33.04 Z M13.42,16.36 C9.17611625,16.3387492 5.65416179,19.6351426 5.39488502,23.8711521 C5.13560825,28.1071616 8.22924821,31.8084808 12.4440438,32.3049671 C16.6588395,32.8014534 20.5278677,29.920309 21.26,25.74 C21.3388534,25.2707559 21.3789887,24.7958223 21.38,24.32 C21.3959718,22.1913533 20.5629193,20.1441164 19.0652225,18.6314051 C17.5675256,17.1186937 15.5287001,16.2652618 13.4,16.26 L13.42,16.36 Z" id="Shape" fill="#297373"></path>
                            <path d="M24.68,26.38 L24.32,26.38 L21.58,26.14 L21.16,26.14 L21.16,25.74 C21.3897924,24.6722233 21.3897924,23.5677767 21.16,22.5 L21.16,22.14 L21.54,22.14 L24.24,21.6 L24.6,21.6 L24.6,21.96 C24.7734548,22.7887679 24.8605865,23.6332754 24.86,24.48 C24.8623578,25.0695391 24.8155287,25.6582473 24.72,26.24 L24.68,26.38 Z M22,25.38 L24,25.58 C24.0286695,25.140467 24.0286695,24.699533 24,24.26 C23.9987397,23.589346 23.9385077,22.9201018 23.82,22.26 L21.82,22.64 C22.0194834,23.5387948 22.0801867,24.4628328 22,25.38 Z" id="Shape" fill="#297373"></path>
                            <path d="M28.14,26.6 C23.6623758,26.3323352 19.217848,25.6629786 14.86,24.6 L14.56,24.6 L14.56,24.26 C14.5543255,24.0620711 14.6876643,23.887064 14.88,23.84 C17.86,22.94 28,20.22 30,21.18 L29.7,21.86 C28.34,21.28 22.14,22.56 16.22,24.18 C19.3,24.84 26.76,26.3 29.78,25.72 L29.92,26.46 C29.3318872,26.5585061 28.7362814,26.6053514 28.14,26.6 L28.14,26.6 Z" id="Path" fill="#297373"></path>
                            <path d="M20,19.64 L19.76,19.32 C19.4153643,18.8814039 19.026665,18.4793011 18.6,18.12 L19.1,17.54 C19.4530263,17.8530408 19.7869592,18.1869737 20.1,18.54 L21.54,17.22 C21.2223327,16.8387596 20.8672215,16.4903486 20.48,16.18 L20.96,15.6 C21.4802715,16.0173108 21.9501105,16.4938618 22.36,17.02 L22.58,17.3 L20,19.64 Z" id="Path" fill="#297373"></path>
                            <path d="M13.54,25.8 C12.9009497,25.8 12.3248243,25.4150454 12.0802703,24.8246398 C11.8357164,24.2342343 11.9708945,23.5546481 12.4227713,23.1027713 C12.8746481,22.6508945 13.5542343,22.5157164 14.1446398,22.7602703 C14.7350454,23.0048243 15.12,23.5809497 15.12,24.22 C15.12,25.0926099 14.4126099,25.8 13.54,25.8 L13.54,25.8 Z M13.54,23.38 C13.3190125,23.3799343 13.1073531,23.4690669 12.9529852,23.6271998 C12.7986173,23.7853328 12.7146101,23.9990782 12.72,24.22 C12.72,24.6728735 13.0871265,25.04 13.54,25.04 C13.9928735,25.04 14.36,24.6728735 14.36,24.22 C14.3653899,23.9990782 14.2813827,23.7853328 14.1270148,23.6271998 C13.9726469,23.4690669 13.7609875,23.3799343 13.54,23.38 L13.54,23.38 Z" id="Shape" fill="#297373"></path>
                            <path d="M13.4,25.8 L13.14,25.8 C12.728849,25.7296711 12.3621899,25.4996106 12.12,25.16 C11.8656948,24.8308691 11.7638398,24.4088984 11.84,24 L11.84,24 C11.9830807,23.1470589 12.7853267,22.567659 13.64,22.7 C14.5010544,22.8333881 15.0915942,23.6386696 14.96,24.5 C14.888497,24.916127 14.6592558,25.2886439 14.32,25.54 C14.047541,25.719593 13.7261579,25.8104186 13.4,25.8 L13.4,25.8 Z M13.4,23.4 C13.2291516,23.3941839 13.0609326,23.4432477 12.92,23.54 C12.7430972,23.671122 12.6217807,23.8638011 12.58,24.08 L12.58,24.08 C12.5436569,24.2970265 12.5939264,24.5196483 12.72,24.7 C12.851122,24.8769028 13.0438011,24.9982193 13.26,25.04 C13.4795573,25.0684597 13.7016323,25.01115 13.88,24.88 C14.0615952,24.75329 14.184226,24.5585234 14.22,24.34 C14.2452628,24.1269049 14.1880139,23.9122213 14.06,23.74 C13.93329,23.5584048 13.7385234,23.435774 13.52,23.4 L13.4,23.4 Z" id="Shape" fill="#297373"></path>
                            <path d="M53.36,25.68 C52.4873901,25.68 51.78,24.9726099 51.78,24.1 C51.78,23.2273901 52.4873901,22.52 53.36,22.52 C54.2326099,22.52 54.9399999,23.2273901 54.9399999,24.1 C54.9399999,24.9726099 54.2326099,25.68 53.36,25.68 L53.36,25.68 Z M53.36,23.28 C52.9071265,23.28 52.54,23.6471265 52.54,24.1 C52.54,24.5528735 52.9071265,24.92 53.36,24.92 C53.8128735,24.92 54.18,24.5528735 54.18,24.1 C54.18,23.6471265 53.8128735,23.28 53.36,23.28 L53.36,23.28 Z" id="Shape" fill="#297373"></path>
                            <path d="M53.44,25.84 C52.5673901,25.84 51.86,25.1326099 51.86,24.26 C51.86,23.3873901 52.5673901,22.68 53.44,22.68 C54.3126099,22.68 55.02,23.3873901 55.02,24.26 C55.02,24.6790421 54.8535362,25.0809212 54.5572287,25.3772287 C54.2609212,25.6735362 53.8590421,25.84 53.44,25.84 Z M53.44,23.42 C53.0985492,23.4118679 52.7861702,23.611291 52.6498292,23.9244457 C52.5134882,24.2376005 52.5803341,24.6021301 52.8189177,24.8465327 C53.0575013,25.0909354 53.4203145,25.1665445 53.7366632,25.0377879 C54.0530119,24.9090312 54.2599032,24.6015476 54.26,24.26 C54.2601293,23.8037804 53.8960903,23.4308624 53.44,23.42 Z" id="Shape" fill="#297373"></path>
                            <path d="M32,25.8 C30.4646484,25.8 29.22,24.5553516 29.22,23.02 C29.22,21.4846484 30.4646484,20.24 32,20.24 C33.5353516,20.24 34.78,21.4846484 34.78,23.02 C34.78,24.5553516 33.5353516,25.8 32,25.8 Z M32,20.98 C30.8954305,20.98 30,21.8754305 30,22.98 C30,24.0845695 30.8954305,24.98 32,24.98 C33.1045695,24.98 34,24.0845695 34,22.98 C34,21.8754305 33.1045695,20.98 32,20.98 Z" id="Shape" fill="#297373"></path>
                            <path d="M32.18,25.8 C30.6473003,25.7889731 29.4126938,24.5394843 29.4199993,23.0067625 C29.4273699,21.4740407 30.6738837,20.2364306 32.2066188,20.2400718 C33.7393538,20.243729 34.98,21.4872606 34.98,23.02 C34.9690099,24.5585811 33.7186204,25.8 32.18,25.8 L32.18,25.8 Z M32.18,20.98 C31.0754305,20.98 30.18,21.8754305 30.18,22.98 C30.18,24.0845695 31.0754305,24.98 32.18,24.98 C33.2845695,24.98 34.18,24.0845695 34.18,22.98 C34.18,21.8754305 33.2845695,20.98 32.18,20.98 Z" id="Shape" fill="#297373"></path>
                            <path d="M32.56,25.86 L31.12,23.86 C30.8658665,23.5339746 30.8385264,23.0851863 31.0512045,22.7307227 C31.2638827,22.3762592 31.6727383,22.1891883 32.08,22.26 C32.3471149,22.2927114 32.5874002,22.4383388 32.74,22.66 L34.74,25.2 L34.12,25.66 L32.22,23.1 C32.1802654,23.038912 32.1128591,23.001464 32.04,23 C31.9827453,22.9743315 31.9172547,22.9743315 31.86,23 C31.7608929,23.1072807 31.7608929,23.2727193 31.86,23.38 L33.3,25.28 L32.56,25.86 Z" id="Path" fill="#297373"></path>
                            <path d="M35.68,27.78 L29.3,27.78 L29.3,25.24 L35.68,25.24 L35.68,27.78 Z M30,27.04 L34.9,27.04 L34.9,26 L30,26 L30,27.04 Z" id="Shape" fill="#297373"></path>
                            <path d="M35.68,27.78 L29.3,27.78 L29.3,25.24 L35.68,25.24 L35.68,27.78 Z M30,27.04 L34.9,27.04 L34.9,26 L30,26 L30,27.04 Z" id="Shape" fill="#297373"></path>
                            <rect id="Rectangle" fill="#297373" x="26.44" y="7.72" width="1" height="3.12"></rect>
                            <rect id="Rectangle" fill="#297373" x="24.8" y="7.82" width="1" height="4.38"></rect>
                            <rect id="Rectangle" fill="#297373" x="24.8" y="14.64" width="1" height="7.1"></rect>
                            <rect id="Rectangle" fill="#297373" x="26.44" y="13.34" width="1" height="8"></rect>
                        </g>
                    </g>
                </g>
            </g>
        </g>
    </g>
</svg>