<?xml version="1.0" encoding="UTF-8"?>
<svg width="66px" height="44px" viewBox="0 0 66 44" version="1.1" xmlns="http://www.w3.org/2000/svg" xmlns:xlink="http://www.w3.org/1999/xlink">
    <!-- Generator: Sketch 57.1 (83088) - https://sketch.com -->
    <title>Icon/calendar</title>
    <desc>Created with Sketch.</desc>
    <g id="Symbols" stroke="none" stroke-width="1" fill="none" fill-rule="evenodd">
        <g id="Web/Amenities" transform="translate(-427.000000, -442.000000)">
            <g id="Meeting-&amp;-event-booking" transform="translate(419.000000, 424.000000)">
                <g id="Icon/calendar">
                    <g>
                        <rect id="Rectangle-Copy-16" x="0" y="0" width="80" height="80"></rect>
                        <g id="Icon-calendar" transform="translate(8.000000, 18.000000)" fill-rule="nonzero">
                            <rect id="Rectangle" fill="#CAE5E3" x="1.9" y="1.76" width="63.32" height="41.88" rx="1.5"></rect>
                            <rect id="Rectangle" fill="#CAE5E3" x="3.32" y="9.28" width="60.48" height="31.1" rx="0.95"></rect>
                            <g id="Group" opacity="0.5" transform="translate(4.000000, 8.000000)" fill="#CAE5E3">
                                <rect id="Rectangle" x="0.08" y="1.84" width="7.28" height="5.82"></rect>
                            </g>
                            <rect id="Rectangle" fill="#CAE5E3" x="11.44" y="9.84" width="7.28" height="5.82"></rect>
                            <g id="Group" opacity="0.2" transform="translate(18.000000, 8.000000)" fill="#CAE5E3">
                                <rect id="Rectangle" x="0.8" y="1.84" width="7.28" height="5.82"></rect>
                            </g>
                            <rect id="Rectangle" fill="#CAE5E3" x="26.16" y="9.84" width="7.28" height="5.82"></rect>
                            <rect id="Rectangle" fill="#CAE5E3" x="33.52" y="9.84" width="7.28" height="5.82"></rect>
                            <g id="Group" opacity="0.5" transform="translate(40.000000, 8.000000)" fill="#CAE5E3">
                                <rect id="Rectangle" x="0.88" y="1.84" width="7.28" height="5.82"></rect>
                            </g>
                            <rect id="Rectangle" fill="#CAE5E3" x="48.24" y="9.84" width="7.28" height="5.82"></rect>
                            <g id="Group" opacity="0.2" transform="translate(54.000000, 8.000000)" fill="#CAE5E3">
                                <rect id="Rectangle" x="1.6" y="1.84" width="7.28" height="5.82"></rect>
                            </g>
                            <g id="Group" opacity="0.2" transform="translate(4.000000, 14.000000)" fill="#CAE5E3">
                                <rect id="Rectangle" x="0.08" y="1.78" width="7.28" height="5.82"></rect>
                            </g>
                            <g id="Group" opacity="0.2" transform="translate(10.000000, 14.000000)" fill="#CAE5E3">
                                <rect id="Rectangle" x="1.44" y="1.78" width="7.28" height="5.82"></rect>
                            </g>
                            <rect id="Rectangle" fill="#CAE5E3" x="18.8" y="15.78" width="7.28" height="5.82"></rect>
                            <g id="Group" opacity="0.5" transform="translate(26.000000, 14.000000)" fill="#CAE5E3">
                                <rect id="Rectangle" x="0.16" y="1.78" width="7.28" height="5.82"></rect>
                            </g>
                            <rect id="Rectangle" fill="#CAE5E3" x="33.52" y="15.78" width="7.28" height="5.82"></rect>
                            <g id="Group" opacity="0.2" transform="translate(40.000000, 14.000000)" fill="#CAE5E3">
                                <rect id="Rectangle" x="0.88" y="1.78" width="7.28" height="5.82"></rect>
                            </g>
                            <g id="Group" opacity="0.5" transform="translate(48.000000, 14.000000)" fill="#CAE5E3">
                                <rect id="Rectangle" x="0.24" y="1.78" width="7.28" height="5.82"></rect>
                            </g>
                            <rect id="Rectangle" fill="#CAE5E3" x="55.6" y="15.78" width="7.28" height="5.82"></rect>
                            <rect id="Rectangle" fill="#CAE5E3" x="4.08" y="21.64" width="7.28" height="5.82"></rect>
                            <rect id="Rectangle" fill="#CAE5E3" x="11.44" y="21.64" width="7.28" height="5.82"></rect>
                            <g id="Group" opacity="0.2" transform="translate(18.000000, 20.000000)" fill="#CAE5E3">
                                <rect id="Rectangle" x="0.8" y="1.64" width="7.28" height="5.82"></rect>
                            </g>
                            <rect id="Rectangle" fill="#CAE5E3" x="26.16" y="21.64" width="7.28" height="5.82"></rect>
                            <g id="Group" opacity="0.2" transform="translate(32.000000, 20.000000)" fill="#CAE5E3">
                                <rect id="Rectangle" x="1.52" y="1.64" width="7.28" height="5.82"></rect>
                            </g>
                            <rect id="Rectangle" fill="#CAE5E3" x="40.88" y="21.64" width="7.28" height="5.82"></rect>
                            <rect id="Rectangle" fill="#CAE5E3" x="48.24" y="21.64" width="7.28" height="5.82"></rect>
                            <g id="Group" opacity="0.2" transform="translate(54.000000, 20.000000)" fill="#CAE5E3">
                                <rect id="Rectangle" x="1.6" y="1.64" width="7.28" height="5.82"></rect>
                            </g>
                            <rect id="Rectangle" fill="#CAE5E3" x="4.08" y="27.48" width="7.28" height="5.82"></rect>
                            <g id="Group" opacity="0.5" transform="translate(10.000000, 26.000000)" fill="#CAE5E3">
                                <rect id="Rectangle" x="1.44" y="1.48" width="7.28" height="5.82"></rect>
                            </g>
                            <g id="Group" opacity="0.5" transform="translate(18.000000, 26.000000)" fill="#CAE5E3">
                                <rect id="Rectangle" x="0.8" y="1.48" width="7.28" height="5.82"></rect>
                            </g>
                            <rect id="Rectangle" fill="#CAE5E3" x="26.16" y="27.48" width="7.28" height="5.82"></rect>
                            <rect id="Rectangle" fill="#CAE5E3" x="33.52" y="27.48" width="7.28" height="5.82"></rect>
                            <g id="Group" opacity="0.5" transform="translate(40.000000, 26.000000)" fill="#CAE5E3">
                                <rect id="Rectangle" x="0.88" y="1.48" width="7.28" height="5.82"></rect>
                            </g>
                            <rect id="Rectangle" fill="#CAE5E3" x="48.24" y="27.48" width="7.28" height="5.82"></rect>
                            <g id="Group" opacity="0.5" transform="translate(54.000000, 26.000000)" fill="#CAE5E3">
                                <rect id="Rectangle" x="1.6" y="1.48" width="7.28" height="5.82"></rect>
                            </g>
                            <g id="Group" opacity="0.5" transform="translate(4.000000, 32.000000)" fill="#CAE5E3">
                                <rect id="Rectangle" x="0.08" y="1.42" width="7.28" height="5.82"></rect>
                            </g>
                            <g id="Group" opacity="0.2" transform="translate(10.000000, 32.000000)" fill="#CAE5E3">
                                <rect id="Rectangle" x="1.44" y="1.42" width="7.28" height="5.82"></rect>
                            </g>
                            <rect id="Rectangle" fill="#CAE5E3" x="18.8" y="33.42" width="7.28" height="5.82"></rect>
                            <g id="Group" opacity="0.5" transform="translate(26.000000, 32.000000)" fill="#CAE5E3">
                                <rect id="Rectangle" x="0.16" y="1.42" width="7.28" height="5.82"></rect>
                            </g>
                            <g id="Group" opacity="0.2" transform="translate(32.000000, 32.000000)" fill="#CAE5E3">
                                <rect id="Rectangle" x="1.52" y="1.42" width="7.28" height="5.82"></rect>
                            </g>
                            <rect id="Rectangle" fill="#CAE5E3" x="40.88" y="33.42" width="7.28" height="5.82"></rect>
                            <g id="Group" opacity="0.2" transform="translate(48.000000, 32.000000)" fill="#CAE5E3">
                                <rect id="Rectangle" x="0.24" y="1.42" width="7.28" height="5.82"></rect>
                            </g>
                            <rect id="Rectangle" fill="#CAE5E3" x="55.6" y="33.42" width="7.28" height="5.82"></rect>
                            <path d="M60.68,42.58 L3.36,42.58 C1.51210575,42.58 0.0109993702,41.0878615 0,39.24 L0,3.36 C0,1.50432324 1.50432324,0 3.36,0 L60.68,0 C62.520037,0.0219067498 64,1.51983264 64,3.36 L64,39.24 C63.9892223,41.0723713 62.5122735,42.5582174 60.68,42.58 Z M3.36,0.72 C1.90196826,0.72 0.72,1.90196826 0.72,3.36 L0.72,39.24 C0.730888081,40.6934979 1.90650214,41.8691119 3.36,41.88 L60.68,41.88 C62.1334979,41.8691119 63.3091119,40.6934979 63.32,39.24 L63.32,3.36 C63.32,1.90196826 62.1380317,0.72 60.68,0.72 L3.36,0.72 Z" id="Shape" fill="#297373"></path>
                            <path d="M60.36,39.34 L3.68,39.34 C2.43960542,39.34 1.43097694,38.340346 1.42,37.1 L1.42,9.76 C1.43097694,8.51965399 2.43960542,7.52 3.68,7.52 L60.36,7.52 C61.6003946,7.52 62.6090231,8.51965399 62.62,9.76 L62.62,37.1 C62.6090231,38.340346 61.6003946,39.34 60.36,39.34 L60.36,39.34 Z M3.68,8.23986824 C3.27341686,8.23464976 2.88164098,8.39242711 2.59224534,8.67806436 C2.30284971,8.96370161 2.13999999,9.35338166 2.13999999,9.76 L2.13999999,37.1 C2.13999999,37.5066183 2.30284971,37.8962984 2.59224534,38.1819356 C2.88164098,38.4675729 3.27341686,38.6253502 3.68,38.6201318 L60.36,38.6201318 C60.7665831,38.6253502 61.158359,38.4675729 61.4477547,38.1819356 C61.7371503,37.8962984 61.9,37.5066183 61.9,37.1 L61.9,9.76 C61.9,9.35338166 61.7371503,8.96370161 61.4477547,8.67806436 C61.158359,8.39242711 60.7665831,8.23464976 60.36,8.23986824 L3.68,8.23986824 Z" id="Shape" fill="#297373"></path>
                            <path d="M32.26,14.6 L24.26,14.6 L24.26,8 L32.26,8 L32.26,14.6 Z M24.98,14 L31.54,14 L31.54,8.78 L24.98,8.78 L24.98,14 Z" id="Shape" fill="#297373"></path>
                            <path d="M61.7,20.54 L53.7,20.54 L53.7,14 L61.7,14 L61.7,20.54 Z M54.42,19.82 L60.98,19.82 L60.98,14.72 L54.42,14.72 L54.42,19.82 Z" id="Shape" fill="#297373"></path>
                            <path d="M10.18,26.4 L2.18,26.4 L2.18,19.86 L10.18,19.86 L10.18,26.4 Z M2.88,25.68 L9.46,25.68 L9.46,20.58 L2.88,20.58 L2.88,25.68 Z" id="Shape" fill="#297373"></path>
                            <path d="M32.26,26.4 L24.26,26.4 L24.26,19.86 L32.26,19.86 L32.26,26.4 Z M24.98,25.68 L31.54,25.68 L31.54,20.58 L24.98,20.58 L24.98,25.68 Z" id="Shape" fill="#297373"></path>
                            <path d="M54.34,26.4 L46.34,26.4 L46.34,19.86 L54.34,19.86 L54.34,26.4 Z M47.06,25.68 L53.62,25.68 L53.62,20.58 L47.06,20.58 L47.06,25.68 Z" id="Shape" fill="#297373"></path>
                            <path d="M24.9,38.2 L16.9,38.2 L16.9,31.66 L24.9,31.66 L24.9,38.2 Z M17.62,37.48 L24.18,37.48 L24.18,32.38 L17.62,32.38 L17.62,37.48 Z" id="Shape" fill="#297373"></path>
                            <path d="M46.98,38.2 L38.98,38.2 L38.98,31.66 L46.98,31.66 L46.98,38.2 Z M39.7,37.48 L46.26,37.48 L46.26,32.38 L39.7,32.38 L39.7,37.48 Z" id="Shape" fill="#297373"></path>
                        </g>
                    </g>
                </g>
            </g>
        </g>
    </g>
</svg>