<?xml version="1.0" encoding="UTF-8"?>
<svg width="63px" height="61px" viewBox="0 0 63 61" version="1.1" xmlns="http://www.w3.org/2000/svg" xmlns:xlink="http://www.w3.org/1999/xlink">
    <!-- Generator: Sketch 57.1 (83088) - https://sketch.com -->
    <title>Icon/clock</title>
    <desc>Created with Sketch.</desc>
    <g id="Symbols" stroke="none" stroke-width="1" fill="none" fill-rule="evenodd">
        <g id="Web/Amenities" transform="translate(-428.000000, -10.000000)">
            <g id="24/7" transform="translate(418.500000, 0.000000)">
                <g id="Icon/clock">
                    <g id="Group-2">
                        <rect id="Rectangle-Copy-21" x="0" y="0" width="80" height="80"></rect>
                        <g id="Icon-clock" transform="translate(10.000000, 10.000000)" fill-rule="nonzero">
                            <circle id="Oval" fill="#CAE5E3" cx="32.84" cy="31.14" r="29.12"></circle>
                            <path d="M57.24,34 C56.085296,43.8799787 49.0896366,52.0900189 39.5181604,54.7981849 C29.9466842,57.5063508 19.6865332,54.178692 13.5265075,46.3683525 C7.36648185,38.5580129 6.52111135,27.8049036 11.3849624,19.1279068 C16.2488134,10.4509101 25.8629139,5.56080957 35.74,6.74 C49.2016433,8.33604366 58.8245541,20.5369994 57.24,34 L57.24,34 Z" id="Path" fill="#CAE5E3"></path>
                            <path d="M58.48,34.12 C56.7893166,48.3123834 43.9138248,58.4472059 29.7213748,56.7570818 C15.5289247,55.0669578 5.39359476,42.1918656 7.08315938,27.9993489 C8.772724,13.8068322 21.6474167,3.6709948 35.84,5.36 C42.6562353,6.17117417 48.8709885,9.6570664 53.1168891,15.0507104 C57.3627896,20.4443544 59.2919802,27.3038607 58.48,34.12 Z" id="Path" fill="#CAE5E3"></path>
                            <circle id="Oval" fill="#CAE5E3" cx="32.84" cy="31.14" r="1.58"></circle>
                            <circle id="Oval" fill="#CAE5E3" cx="32.84" cy="31.14" r="1.58"></circle>
                            <path d="M32.7,12.48 L32.7,12.48 C32.9935581,12.5010212 33.2207517,12.7456911 33.22,13.04 L33.22,13.04 L33.22,31.58 L32.18,31.58 L32.18,13.04 C32.1792483,12.7456911 32.4064419,12.5010212 32.7,12.48 L32.7,12.48 Z" id="Path" fill="#CAE5E3"></path>
                            <path d="M32.72,30.56 L45.68,30.56 C45.9593487,30.5707521 46.1802068,30.8004445 46.1800001,31.08 L46.1800001,31.08 C46.1800001,31.3561424 45.9561424,31.58 45.68,31.58 L32.72,31.58 C32.4404445,31.5802068 32.2107521,31.3593487 32.2,31.08 L32.2,31.08 C32.2,30.7928119 32.4328119,30.56 32.72,30.56 L32.72,30.56 Z" id="Path" fill="#CAE5E3"></path>
                            <path d="M32.78,52.9 L32.78,52.9 C33.1003252,52.9 33.36,53.1596748 33.36,53.48 L33.36,54.28 C33.36,54.6003252 33.1003252,54.86 32.78,54.86 L32.78,54.86 C32.4596748,54.86 32.2,54.6003252 32.2,54.28 L32.2,53.48 C32.2,53.1596748 32.4596748,52.9 32.78,52.9 Z" id="Path" fill="#CAE5E3"></path>
                            <path d="M32.78,7.6 L32.78,7.6 C33.1003252,7.6 33.36,7.85967485 33.36,8.18 L33.36,8.98 C33.360097,9.1320523 33.2983597,9.27760737 33.188973,9.38322208 C33.0795864,9.48883679 32.9319553,9.54543047 32.78,9.54 L32.78,9.54 C32.6280447,9.54543047 32.4804136,9.48883679 32.371027,9.38322208 C32.2616403,9.27760737 32.199903,9.1320523 32.2,8.98 L32.2,8.18 C32.2,7.85967485 32.4596748,7.6 32.78,7.6 Z" id="Path" fill="#CAE5E3"></path>
                            <path d="M32.78,52.9 L32.78,52.9 C33.1003252,52.9 33.36,53.1596748 33.36,53.48 L33.36,54.28 C33.36,54.6003252 33.1003252,54.86 32.78,54.86 L32.78,54.86 C32.4596748,54.86 32.2,54.6003252 32.2,54.28 L32.2,53.48 C32.2,53.1596748 32.4596748,52.9 32.78,52.9 Z" id="Path" fill="#CAE5E3"></path>
                            <path d="M16,14.52 L16,14.52 C16.2306938,14.3040852 16.5893062,14.3040852 16.82,14.52 L17.38,15.1 C17.5959148,15.3306938 17.5959148,15.6893062 17.38,15.92 L17.38,15.92 C17.1493062,16.1359148 16.7906938,16.1359148 16.56,15.92 L16,15.34 C15.7840852,15.1093062 15.7840852,14.7506938 16,14.52 Z" id="Path" fill="#CAE5E3"></path>
                            <path d="M48.1,46.54 L48.1,46.54 C48.3306938,46.3240852 48.6893062,46.3240852 48.92,46.54 L49.5,47.12 C49.7159148,47.3506938 49.7159148,47.7093062 49.5,47.94 L49.5,47.94 C49.2693062,48.1559148 48.9106938,48.1559148 48.68,47.94 L48.1,47.36 C47.8840852,47.1293062 47.8840852,46.7706938 48.1,46.54 Z" id="Path" fill="#CAE5E3"></path>
                            <path d="M9.16,31.24 L9.16,31.24 C9.16,30.9196748 9.41967485,30.66 9.74,30.66 L10.54,30.66 C10.6920523,30.659903 10.8376074,30.7216403 10.9432221,30.831027 C11.0488368,30.9404136 11.1054305,31.0880447 11.1,31.24 L11.1,31.24 C11.1,31.5492795 10.8492795,31.8 10.54,31.8 L9.74,31.8 C9.42732552,31.8001859 9.17078183,31.5524886 9.16,31.24 L9.16,31.24 Z" id="Path" fill="#CAE5E3"></path>
                            <path d="M54.46,31.24 L54.46,31.24 C54.4545695,31.0880447 54.5111632,30.9404136 54.6167779,30.831027 C54.7223926,30.7216403 54.8679477,30.659903 55.02,30.66 L55.82,30.66 C56.1403252,30.66 56.4,30.9196748 56.4,31.24 L56.4,31.24 C56.3892182,31.5524886 56.1326745,31.8001859 55.82,31.8 L55.02,31.8 C54.7107205,31.8 54.46,31.5492795 54.46,31.24 L54.46,31.24 Z" id="Path" fill="#CAE5E3"></path>
                            <path d="M16,48 L16,48 C15.7840852,47.7693062 15.7840852,47.4106938 16,47.18 L16.56,46.6 C16.7906938,46.3840852 17.1493062,46.3840852 17.38,46.6 L17.38,46.6 C17.5959148,46.8306938 17.5959148,47.1893062 17.38,47.42 L16.9,48 C16.7861002,48.1291503 16.6222003,48.2031373 16.45,48.2031373 C16.2777997,48.2031373 16.1138998,48.1291503 16,48 Z" id="Path" fill="#CAE5E3"></path>
                            <path d="M48.1,16 L48.1,16 C47.8840852,15.7693062 47.8840852,15.4106938 48.1,15.18 L48.68,14.62 C48.9106938,14.4040852 49.2693062,14.4040852 49.5,14.62 L49.5,14.62 C49.7159148,14.8506938 49.7159148,15.2093062 49.5,15.44 L48.92,16 C48.6893062,16.2159148 48.3306938,16.2159148 48.1,16 Z" id="Path" fill="#CAE5E3"></path>
                            <path d="M29.7,59.4 C13.2971429,59.4 0,46.1028571 0,29.7 C0,13.2971429 13.2971429,0 29.7,0 C46.1028571,0 59.4,13.2971429 59.4,29.7 C59.3889685,46.0982855 46.0982855,59.3889685 29.7,59.4 Z M29.7,1.16 C13.9377932,1.16 1.16,13.9377932 1.16,29.7 C1.16,45.4622068 13.9377932,58.24 29.7,58.24 C45.4622068,58.24 58.24,45.4622068 58.24,29.7 C58.2289691,13.9423647 45.4576353,1.1710309 29.7,1.16 Z" id="Shape" fill="#297373"></path>
                            <path d="M29.7,56.1000697 C28.6301326,56.1025388 27.5612255,56.0357321 26.5,55.9 C12.0108868,54.1221272 1.69880304,40.9460307 3.4546944,26.4542372 C5.21058575,11.9624436 18.3710242,1.63038419 32.8654646,3.36429009 C47.3599051,5.09819599 57.7119165,18.242946 56,32.74 L56,32.74 C54.4103422,46.0614039 43.1159148,56.0932603 29.7,56.1000697 Z M29.7,4.32 C16.0863344,4.4072422 5.00732064,15.2991807 4.68827634,28.9093869 C4.36923204,42.5195931 14.9257092,53.918701 28.5203335,54.6437476 C42.1149577,55.3687943 53.8240067,45.1571811 54.9544098,31.5902474 C56.084813,18.0233137 46.2271592,6.01475285 32.7,4.48 C31.6775343,4.36417995 30.648963,4.31074767 29.62,4.32 L29.7,4.32 Z" id="Shape" fill="#297373"></path>
                            <path d="M29.7,31.84 C28.5181106,31.84 27.56,30.8818894 27.56,29.7 C27.56,28.5181106 28.5181106,27.56 29.7,27.56 C30.8818894,27.56 31.84,28.5181106 31.84,29.7 C31.84,30.8818894 30.8818894,31.84 29.7,31.84 Z M29.7,28.7 C29.1477153,28.7 28.7,29.1477153 28.7,29.7 C28.7,30.2522847 29.1477153,30.7 29.7,30.7 C30.2522847,30.7 30.7,30.2522847 30.7,29.7 C30.6893598,29.1521831 30.2478169,28.7106402 29.7,28.7 L29.7,28.7 Z" id="Shape" fill="#297373"></path>
                            <path d="M29.7,31.84 C28.5181106,31.84 27.56,30.8818894 27.56,29.7 C27.56,28.5181106 28.5181106,27.56 29.7,27.56 C30.8818894,27.56 31.84,28.5181106 31.84,29.7 C31.84,30.8818894 30.8818894,31.84 29.7,31.84 Z M29.7,28.7 C29.1477153,28.7 28.7,29.1477153 28.7,29.7 C28.7,30.2522847 29.1477153,30.7 29.7,30.7 C30.2522847,30.7 30.7,30.2522847 30.7,29.7 C30.6893598,29.1521831 30.2478169,28.7106402 29.7,28.7 L29.7,28.7 Z" id="Shape" fill="#297373"></path>
                            <path d="M30.64,30.72 L28.48,30.72 L28.48,11.6 C28.48,11.0035325 28.9635325,10.52 29.56,10.52 C30.1564675,10.52 30.64,11.0035325 30.64,11.6 L30.64,30.72 Z" id="Path" fill="#297373"></path>
                            <path d="M42.54,30.72 L29.58,30.72 C28.9724868,30.72 28.48,30.2275132 28.48,29.62 C28.4909052,29.0203115 28.9802123,28.5399009 29.58,28.54 L42.54,28.54 C42.8264338,28.54 43.101136,28.6537854 43.3036753,28.8563247 C43.5062146,29.058864 43.62,29.3335662 43.62,29.62 C43.62,30.2197877 43.1396885,30.7090948 42.54,30.72 L42.54,30.72 Z" id="Path" fill="#297373"></path>
                            <path d="M29.64,54.0000002 C29.0070796,54.0000941 28.4909124,53.4928263 28.48,52.86 L28.48,52 C28.4909124,51.3671737 29.0070796,50.8599059 29.64,50.86 C30.2696046,50.86 30.78,51.3703954 30.78,52 L30.78,52.82 C30.7908564,53.1292161 30.6755596,53.4295633 30.4605802,53.6520859 C30.2456007,53.8746085 29.9494066,54.0001905 29.64,54.0000002 Z" id="Path" fill="#297373"></path>
                            <path d="M29.64,8.68000001 C28.9993497,8.68000001 28.48,8.16065031 28.48,7.52 L28.48,6.72 C28.4909124,6.08717367 29.0070796,5.57990592 29.64,5.58 C30.2696046,5.58 30.78,6.09039539 30.78,6.72 L30.78,7.52 C30.7853657,7.82579707 30.6676318,8.12092517 30.453256,8.33906195 C30.2388802,8.55719874 29.9458441,8.68004707 29.64,8.68000001 Z" id="Path" fill="#297373"></path>
                            <path d="M29.64,54.0000002 C29.0070796,54.0000941 28.4909124,53.4928263 28.48,52.86 L28.48,52 C28.4909124,51.3671737 29.0070796,50.8599059 29.64,50.86 C30.2696046,50.86 30.78,51.3703954 30.78,52 L30.78,52.82 C30.7908564,53.1292161 30.6755596,53.4295633 30.4605802,53.6520859 C30.2456007,53.8746085 29.9494066,54.0001905 29.64,54.0000002 Z" id="Path" fill="#297373"></path>
                            <path d="M14,15.2 C13.6956242,15.203089 13.401829,15.0884372 13.18,14.88 L12.6,14.3 C12.1604818,13.8494334 12.1604818,13.1305666 12.6,12.68 L12.6,12.68 C13.0547054,12.2507723 13.7652946,12.2507723 14.22,12.68 L14.8,13.26 C15.2395182,13.7105666 15.2395182,14.4294334 14.8,14.88 C14.5892719,15.0930276 14.2995118,15.2089316 14,15.2 Z" id="Path" fill="#297373"></path>
                            <path d="M46,47.22 C45.7017394,47.2220961 45.4145363,47.1072148 45.2,46.9 L44.62,46.32 C44.1907723,45.8652946 44.1907723,45.1547054 44.62,44.7 L44.62,44.7 C45.0705666,44.2604818 45.7894334,44.2604818 46.24,44.7 L46.82,45.28 C47.2492277,45.7347054 47.2492277,46.4452946 46.82,46.9 C46.5993242,47.1102566 46.3047598,47.2252085 46,47.22 Z M45.44,45.52 L45.44,45.52 L46,46 L45.44,45.52 Z" id="Shape" fill="#297373"></path>
                            <path d="M7.4,30.94 L6.6,30.94 C6.15293511,30.9990852 5.71214333,30.7937199 5.46978323,30.413431 C5.22742313,30.0331421 5.22742313,29.5468579 5.46978323,29.166569 C5.71214333,28.7862801 6.15293511,28.5809148 6.6,28.64 L7.4,28.64 C7.97688645,28.7162427 8.40801316,29.2080971 8.40801316,29.79 C8.40801316,30.3719029 7.97688645,30.8637573 7.4,30.94 L7.4,30.94 Z" id="Path" fill="#297373"></path>
                            <path d="M52.68,30.94 L51.88,30.94 C51.3031136,30.8637573 50.8719868,30.3719029 50.8719868,29.79 C50.8719868,29.2080971 51.3031136,28.7162427 51.88,28.64 L52.68,28.64 C53.1270649,28.5809148 53.5678567,28.7862801 53.8102168,29.166569 C54.0525769,29.5468579 54.0525769,30.0331421 53.8102168,30.413431 C53.5678567,30.7937199 53.1270649,30.9990852 52.68,30.94 L52.68,30.94 Z" id="Path" fill="#297373"></path>
                            <path d="M13.34,47.22 C13.0417394,47.2220961 12.7545363,47.1072148 12.54,46.9 L12.54,46.9 C12.1004818,46.4494334 12.1004818,45.7305666 12.54,45.28 L13.12,44.7 C13.5705666,44.2604818 14.2894334,44.2604818 14.74,44.7 C15.1819625,45.1573385 15.1819625,45.8826615 14.74,46.34 L14.16,46.92 C13.9373124,47.1248618 13.6423154,47.2327876 13.34,47.22 L13.34,47.22 Z M14,45.5 L13.34,46 L13.34,46 L14,45.5 Z" id="Shape" fill="#297373"></path>
                            <path d="M45.36,15.2000004 C45.0593445,15.1946413 44.7725183,15.0727402 44.56,14.86 L44.56,14.86 C44.1307723,14.4052946 44.1307723,13.6947054 44.56,13.24 L45.16,12.66 C45.6147054,12.2307723 46.3252946,12.2307723 46.78,12.66 C47.2118295,13.1213877 47.2118295,13.8386123 46.78,14.3 L46.2,14.88 C45.9688648,15.0863122 45.6698195,15.2002342 45.36,15.2000004 Z" id="Path" fill="#297373"></path>
                        </g>
                    </g>
                </g>
            </g>
        </g>
    </g>
</svg>