<?xml version="1.0" encoding="UTF-8"?>
<svg width="43px" height="48px" viewBox="0 0 43 48" version="1.1" xmlns="http://www.w3.org/2000/svg" xmlns:xlink="http://www.w3.org/1999/xlink">
    <!-- Generator: Sketch 57.1 (83088) - https://sketch.com -->
    <title>Icon/coffee</title>
    <desc>Created with Sketch.</desc>
    <g id="Symbols" stroke="none" stroke-width="1" fill="none" fill-rule="evenodd">
        <g id="Web/Amenities" transform="translate(-437.000000, -157.000000)">
            <g id="Tea-&amp;-coffee" transform="translate(419.000000, 141.000000)">
                <g id="Icon/coffee">
                    <g>
                        <g id="Rectangle-Copy-24">
                            <rect id="Rectangle-Copy-15" x="0" y="0" width="80" height="80"></rect>
                        </g>
                        <g id="Icon-coffee" transform="translate(18.000000, 16.000000)" fill-rule="nonzero">
                            <path d="M38.8,9.50019105 C38.7908282,9.56301513 38.7908282,9.62686479 38.8,9.68968887 L38.6597425,10.7161354 L38.5350691,11.5688755 L36.9766522,23.0966594 L34.4520168,41.9516922 L33.8130659,46.6891376 C33.6893324,47.4205404 33.0797208,47.9659752 32.348154,48 L15.4237462,48 C14.656725,48.0111311 13.9956556,47.4551444 13.8653293,46.6891376 L13.2263784,41.9516922 L10.6238221,23.0019105 L9.06540519,11.4583352 L8.94073184,10.6213865 L8.80047432,9.59493996 C8.78152992,8.81178198 9.33206509,8.13294161 10.0939604,8 L37.3350881,8 C38.1298848,8.0474657 38.7615704,8.69436403 38.8,9.50019105 L38.8,9.50019105 Z" id="Path" fill="#CAE5E3"></path>
                            <path d="M9.8,6.94 L9.8,7.06 L9.8,6.94 Z" id="Path" fill="#CAE5E3"></path>
                            <path d="M36.28,6.89 C36.3921382,6.75618336 36.4862717,6.60825932 36.56,6.45 C36.4974689,6.60965035 36.4096825,6.75821183 36.3,6.89 C36.0516041,7.22675133 35.6889647,7.46140037 35.28,7.55 L35.04,7.55 L35.28,7.55 C35.6729483,7.43736281 36.0219468,7.20702378 36.28,6.89 Z" id="Path" fill="#CAE5E3"></path>
                            <path d="M36.798435,3.45884181 L36.798435,5.43529818 C36.7979068,5.63039175 36.7530335,5.82305473 36.6669098,6 C36.7477362,5.81644438 36.7869561,5.61865298 36.7819944,5.41961202 L36.7819944,4.29020838 L34.9406411,4.46275616 L34.9406411,4.46275616 L33.9542018,4.46275616 L33.9542018,4.46275616 C29.0867245,4.82612332 24.2026702,4.94654811 19.322019,4.82353788 C15.7872783,4.80785172 12.2525375,4.58824545 8.8,4.29020838 L8.8,3.45884181 C8.82592929,3.30401315 8.88167033,3.15510082 8.96440655,3.01962929 C9.1721373,2.40849072 9.77070213,1.99603282 10.4440655,2 L35.2694542,2 C35.9332706,2.02348227 36.5170731,2.42576773 36.7491131,3.01962929 C36.7888247,3.16279611 36.805456,3.31089771 36.798435,3.45884181 Z" id="Path" fill="#CAE5E3"></path>
                            <polygon id="Path" fill="#CAE5E3" points="11.92 7 11.68 7 11.9 7"></polygon>
                            <path d="M35.0487691,4.2 L35.0487691,4.2 L34.1108227,4.2 L34.1108227,4.2 C29.4826286,4.62117861 24.8386725,4.76076289 20.1979522,4.61818182 C16.8369779,4.6 13.4760035,4.34545455 10.1931914,4 L10.1931914,4.63636364 L8.48925555,4.43636364 L8.48925555,4.43636364 L7.50441191,4.34545455 L6.36324388,4.16363636 C5.49988812,4.16363636 4.8,4.97766409 4.8,5.98181818 L4.8,8.18181818 C4.8,8.18181818 4.8,8.18181818 4.8,8.18181818 C4.81598158,8.60721107 4.95982194,9.01258752 5.20644341,9.32727273 C5.40507098,9.57651829 5.66879646,9.74266616 5.95680047,9.8 C6.09124841,9.82752142 6.22879594,9.82752142 6.36324388,9.8 L6.92601168,9.8 L8.48925555,10 L8.34856361,8.81818182 C8.37156333,7.93327322 8.93922281,7.19626683 9.69295334,7.07272727 L35.5021098,7.07272727 L35.6896991,7.07272727 C35.9968361,6.97032983 36.269621,6.76093071 36.471321,6.47272727 C36.5589707,6.35107578 36.6325475,6.21659938 36.6901751,6.07272727 L36.6901751,6.07272727 C36.7670281,5.85996809 36.80432,5.63070823 36.7996022,5.4 L36.7996022,4 L35.0487691,4.2 Z M11.178035,6.94545455 L11.3499919,6.94545455 L11.3499919,6.94545455 L11.178035,6.94545455 Z" id="Shape" fill="#CAE5E3"></path>
                            <polygon id="Path" fill="#CAE5E3" points="9.8 7.06 9.8 6.94 9.8 6.94"></polygon>
                            <polygon id="Path" fill="#CAE5E3" points="11.92 7 11.68 7 11.9 7"></polygon>
                            <path d="M42.8,5.49560393 L42.8,7.50582427 C42.8,8.3939955 42.0944046,9.11400054 41.2240086,9.11400054 C40.4675327,9.21049112 39.6480172,9.27481817 38.938821,9.35522698 L36.9845917,9.53212637 L36.0232369,9.53212637 C27.0074492,10.2281662 17.9502075,10.1474717 8.94770439,9.29089993 L8.80586516,8.24558536 C8.73607902,7.41739152 9.29632762,6.67140582 10.0981781,6.52483675 L36.1177964,6.52483675 L36.3069154,6.52483675 C36.6165569,6.43426652 36.8915663,6.24905363 37.0949111,5.99413858 C37.1832755,5.88653821 37.2574523,5.76759424 37.3155499,5.6403398 L37.3155499,5.6403398 C37.3930296,5.45215495 37.4306255,5.2493753 37.4258693,5.04531458 L37.4258693,4.36988054 L37.4258693,4.36988054 L40.0104952,4.11257234 L40.97185,4 L41.2870482,4 C42.0917546,4.03089371 42.7442,4.6758581 42.8,5.49560393 Z" id="Path" fill="#CAE5E3"></path>
                            <path d="M35.7964593,8.06280992 L35.6669702,9.02066116 L35.5536672,9.74297521 L30.7140111,44.2884298 C30.6343117,44.792859 30.1879477,45.1659276 29.661912,45.1677686 L12.0352049,45.1677686 C11.5100617,45.1717625 11.0649206,44.7939028 10.9992919,44.2884298 L5.93302984,9.3661157 L5.93302984,9.00495868 L5.78735458,8.04710744 L4.8,8.04710744 L4.92948912,8.9892562 L4.92948912,9.33471074 L10.0281234,44.2884298 C10.1650208,45.2639287 11.020406,45.9933719 12.0352049,46 L29.661912,46 C30.6802407,45.994413 31.5408635,45.2663746 31.6851796,44.2884298 L36.5572079,9.74297521 L36.6543247,8.95785124 L36.8,8 L35.7964593,8.06280992 Z" id="Shape" fill="#297373"></path>
                            <path d="M34.7523269,2.03225806 C34.7611937,0.924985186 33.8885608,0.0176803784 32.7977299,0 L8.78637911,0 C7.6867667,0.0088580662 6.8,0.916141654 6.8,2.03225806 L6.8,3.90322581 C7.11782066,3.90322581 7.43564132,3.90322581 7.75346198,4 L7.75346198,2.03225806 C7.75339619,1.45058365 8.21335365,0.97655518 8.78637911,0.967741935 L32.7977299,0.967741935 C33.2025905,0.964413977 33.5708341,1.20513996 33.7353008,1.58064516 C33.8128271,1.7178398 33.8513341,1.87417458 33.846538,2.03225806 L33.846538,4 L34.8,3.90322581" id="Path" fill="#297373"></path>
                            <path d="M33.8470788,3.81981982 L34.8,3.71171171 L34.8,2 L34.2600113,2 L33.8470788,2 C25.7983962,2.84077357 17.7014232,2.90707635 9.64288145,2.1981982 L7.75292116,2.09009009 L7.30822462,2.09009009 L6.8,2.09009009 L6.8,3.89189189 C7.11764039,3.89189189 7.43528077,3.89189189 7.75292116,4 L7.75292116,3.18918919 C8.34055587,3.18918919 8.9440726,3.31531532 9.54758934,3.35135135 C17.6258565,4.09014894 25.7452793,4.03589321 33.8153148,3.18918919" id="Path" fill="#297373"></path>
                            <path d="M9.2159803,2.88700594 C8.59379741,2.88700594 7.97161453,2.81772417 7.36580488,2.76229876 L7.36580488,3.2472711 C7.97161453,3.2472711 8.59379741,3.34426557 9.2159803,3.37197827 C12.6871059,3.62139262 16.1691469,3.75071857 19.6621035,3.75995614 C24.5740736,3.75995614 29.4041776,3.62139262 34.2342816,3.2472711 L34.2342816,2.76229876 C25.9146481,3.4134375 17.5440999,3.45516165 9.2159803,2.88700594 L9.2159803,2.88700594 Z M9.2159803,2.88700594 C8.59379741,2.88700594 7.97161453,2.81772417 7.36580488,2.76229876 L7.36580488,3.2472711 C7.97161453,3.2472711 8.59379741,3.34426557 9.2159803,3.37197827 C12.6871059,3.62139262 16.1691469,3.75071857 19.6621035,3.75995614 C24.5740736,3.75995614 29.4041776,3.62139262 34.2342816,3.2472711 L34.2342816,2.76229876 C25.9146481,3.4134375 17.5440999,3.45516165 9.2159803,2.88700594 L9.2159803,2.88700594 Z M9.2159803,2.54059712 L7.34943164,2.4020336 L7.34943164,3.2472711 C7.95524129,3.2472711 8.57742418,3.34426557 9.19960706,3.37197827 C12.6707326,3.62139262 16.1527737,3.75071857 19.6457302,3.75995614 C24.5577004,3.75995614 29.3878044,3.62139262 34.2179083,3.2472711 L34.2179083,3.2472711 L34.2179083,2.4020336 C25.9051212,3.06320072 17.540864,3.12346309 9.2159803,2.58216618 L9.2159803,2.54059712 Z M40.7508286,3.38583463 C40.5405021,2.56728585 39.677525,1.98766606 38.6878012,2.00019938 L38.6878012,2.00019938 C38.1474845,2.00019938 37.6071677,2.1110502 37.0504778,2.16647561 L35.1839291,2.31889548 L35.1839291,2.31889548 L34.2015351,2.4020336 C25.8941719,3.06241225 17.5354321,3.12267433 9.2159803,2.58216618 L7.34943164,2.4020336 C7.02196697,2.4020336 6.69450229,2.37432089 6.36703761,2.31889548 C5.20453801,2.23575737 4.07478488,2.12490655 2.84679234,2.00019938 C2.3011371,2.0001846 1.77806582,2.18456814 1.39376955,2.51239246 C1.00947327,2.84021678 0.795772872,3.28433704 0.800068532,3.74609979 L0.800068532,5.4920002 C0.791001471,6.43559952 1.68278403,7.20885609 2.79767264,7.22404426 L2.79767264,7.22404426 L4.07478488,7.33489508 L4.713341,7.33489508 C5.05717891,7.33489508 5.38464358,7.33489508 5.72848149,7.4180332 C6.0723194,7.50117131 6.85823463,7.51502766 7.36580488,7.54274037 C11.8029512,7.84758012 16.2728441,8 20.7263637,8 C25.7365732,8 30.7467828,7.80601107 35.7242458,7.43188955 L36.8212525,7.40417684 L38.8024138,7.23790061 L38.8024138,7.23790061 C39.9161368,7.2079643 40.80051,6.43499767 40.799975,5.4920002 L40.799975,3.74609979 C40.8007327,3.62477769 40.7842406,3.50381754 40.7508286,3.38583463 L40.7508286,3.38583463 Z M39.8175544,5.4920002 C39.8175544,5.98644775 39.3536586,6.39153626 38.7696673,6.40651947 L38.6878012,6.40651947 L36.9358651,6.55893934 L35.9207247,6.64207746 C26.4178408,7.36722942 16.8588841,7.39968038 7.34943164,6.73907192 L5.58112239,6.6005084 L4.58235513,6.6005084 L3.63270756,6.51737029 L2.84679234,6.51737029 C2.53883722,6.51534407 2.24653328,6.40221904 2.04329494,6.20640741 C1.84005659,6.01059578 1.74519382,5.75070192 1.78253214,5.4920002 L1.78253214,3.74609979 C1.77306838,3.2591194 2.22276856,2.85399373 2.79767264,2.8315794 C3.99837645,2.95166891 5.19362252,3.06251973 6.38341085,3.16413299 C6.71087552,3.16413299 7.0383402,3.16413299 7.36580488,3.2472711 C7.97161453,3.2472711 8.59379741,3.34426557 9.2159803,3.37197827 C12.6871059,3.62139262 16.1691469,3.75071857 19.6621035,3.75995614 C24.5740736,3.75995614 29.4041776,3.62139262 34.2342816,3.2472711 L34.2342816,3.2472711 L35.2166756,3.16413299 L35.2166756,3.16413299 L37.066851,2.9840004 L38.7041744,2.8315794 C39.1754623,2.83095668 39.592874,3.08888341 39.7356881,3.46897274 C39.7448002,3.56118749 39.7448002,3.65388504 39.7356881,3.74609979 L39.8175544,5.4920002 Z M9.2159803,2.58216618 L7.34943164,2.4020336 L7.34943164,3.2472711 C7.95524129,3.2472711 8.57742418,3.34426557 9.19960706,3.37197827 C12.6707326,3.62139262 16.1527737,3.75071857 19.6457302,3.75995614 C24.5577004,3.75995614 29.3878044,3.62139262 34.2179083,3.2472711 L34.2179083,3.2472711 L34.2179083,2.4020336 C25.9051212,3.06320072 17.540864,3.12346309 9.2159803,2.58216618 L9.2159803,2.58216618 Z M9.2159803,2.92857499 C8.59379741,2.92857499 7.97161453,2.85929323 7.36580488,2.80386782 L7.36580488,3.28884016 C7.97161453,3.28884016 8.59379741,3.38583463 9.2159803,3.41354733 C12.6871059,3.66296167 16.1691469,3.79228763 19.6621035,3.8015252 C24.5740736,3.8015252 29.4041776,3.66296167 34.2342816,3.28884016 L34.2342816,2.76229876 C25.9146481,3.4134375 17.5440999,3.45516165 9.2159803,2.88700594 L9.2159803,2.92857499 Z" id="Shape" fill="#297373"></path>
                        </g>
                    </g>
                </g>
            </g>
        </g>
    </g>
</svg>