<?xml version="1.0" encoding="UTF-8"?>
<svg width="361px" height="262px" viewBox="0 0 361 262" version="1.1" xmlns="http://www.w3.org/2000/svg" xmlns:xlink="http://www.w3.org/1999/xlink">
    <!-- Generator: Sketch 57.1 (83088) - https://sketch.com -->
    <title>Values / Collaboration</title>
    <desc>Created with Sketch.</desc>
    <g id="Symbols" stroke="none" stroke-width="1" fill="none" fill-rule="evenodd">
        <g id="Values" transform="translate(-389.000000, 1.000000)">
            <g id="Values-/-Collaboration" transform="translate(390.000000, 0.000000)">
                <g id="Collaboration" transform="translate(87.000000, 32.000000)" fill-rule="nonzero">
                    <path d="M89.6372859,94.0552995 C65.7431179,94.0552995 46.313253,74.4251556 46.313253,50.2846915 C46.313253,26.1442273 65.7431179,6.51152074 89.6372859,6.51152074 C113.531454,6.51152074 132.963855,26.1442273 132.963855,50.2846915 C132.963855,74.4251556 113.531454,94.0552995 89.6372859,94.0552995 Z M89.6372859,6.93692594 C65.9739427,6.93692594 46.734318,26.3774314 46.734318,50.2846915 C46.734318,74.1919516 65.9739427,93.6298943 89.6372859,93.6298943 C113.300629,93.6298943 132.54279,74.1688874 132.54279,50.2846915 C132.54279,26.4004955 113.300629,6.93692594 89.6372859,6.93692594 Z" id="Shape" fill="#B1EDE8"></path>
                    <path d="M89.6385542,83.202765 C71.1132981,83.202765 56.0240964,68.1084346 56.0240964,49.5599078 C56.0240964,31.0113811 71.105685,15.9170507 89.6385542,15.9170507 C108.171423,15.9170507 123.253012,30.9986818 123.253012,49.5599078 C123.253012,68.1211339 108.173961,83.202765 89.6385542,83.202765 Z M89.6385542,16.3386658 C71.3366163,16.3386658 56.4453556,31.2399676 56.4453556,49.5599078 C56.4453556,67.8798481 71.3366163,82.7811498 89.6385542,82.7811498 C107.940492,82.7811498 122.831753,67.8773082 122.831753,49.5599078 C122.812171,31.2204464 107.962535,16.3582638 89.6385542,16.3386658 Z" id="Shape" fill="#B1EDE8"></path>
                    <path d="M89.6388858,73.0737277 C80.2728136,73.0737277 71.8290328,67.4327102 68.2450291,58.7811901 C64.6610254,50.12967 66.6426435,40.171499 73.2658193,33.55035 C79.8889952,26.929201 89.8493405,24.9490631 98.5021684,28.5333101 C107.154996,32.1175571 112.796193,40.5602964 112.79517,49.924528 C112.798534,56.0655471 110.359862,61.955976 106.016414,66.2980951 C101.672965,70.6402142 95.7811115,73.077762 89.6388858,73.0737277 L89.6388858,73.0737277 Z M89.6388858,27.193738 C77.0825496,27.193738 66.903628,37.3706593 66.903628,49.924528 C66.903628,62.4783966 77.0825496,72.6553179 89.6388858,72.6553179 C102.195222,72.6553179 112.374144,62.4783966 112.374144,49.924528 C112.367147,37.3735579 102.192323,27.200733 89.6388858,27.193738 L89.6388858,27.193738 Z" id="Shape" fill="#B1EDE8"></path>
                    <g id="Group" opacity="0.1" transform="translate(0.000000, 47.027650)" fill="#000000">
                        <path d="M56.2196483,0.198805851 L2.7923999,0.198805851 C1.25020002,0.198805851 -1.1308678e-06,1.45168374 -1.1308678e-06,2.99718694 L-1.1308678e-06,36.9074254 C-0.00066639022,37.6500381 0.293237829,38.3624639 0.816986638,38.8878066 C1.34073545,39.4131493 2.05137411,39.7083233 2.7923999,39.708323 L44.7135545,39.708323 C44.7135545,39.708323 45.7958605,45.4963414 42.2325373,46.1103747 C42.2325373,46.1103747 50.2154863,46.6967261 48.8192863,39.708323 L56.2196483,39.708323 C56.9606741,39.7083233 57.6713127,39.4131493 58.1950616,38.8878066 C58.7188104,38.3624639 59.0127146,37.6500381 59.0120493,36.9074254 L59.0120493,2.99718694 C59.0120493,1.45168374 57.7618482,0.198805851 56.2196483,0.198805851 Z" id="Path"></path>
                        <g opacity="0.2" transform="translate(7.533453, 9.059507)" id="Path">
                            <path d="M0.250793083,1.38912442 C0.252496382,0.732303855 0.783472818,0.200190092 1.43888952,0.198805851 L42.2576488,0.198805851 C42.5791276,0.205405748 42.8847736,0.339926929 43.1071406,0.572684832 C43.3295076,0.805442736 43.4503177,1.11730554 43.4432335,1.43945502 L43.4432335,1.72382288 C43.4569476,2.39464131 42.9269784,2.95050051 42.2576488,2.96698858 L1.43637836,2.96698858 C1.11467355,2.95972993 0.809032416,2.82465515 0.58673476,2.59149782 C0.364437104,2.35834048 0.243705102,2.04621297 0.250793083,1.72382288 L0.250793083,1.38912442 Z"></path>
                            <path d="M1.43637836,12.0264957 L42.2576488,12.0264957 C42.5791276,12.0330956 42.8847736,12.1676168 43.1071406,12.4003747 C43.3295076,12.6331326 43.4503177,12.9449954 43.4432335,13.2671449 L43.4432335,13.5515127 C43.4569476,14.2223312 42.9269784,14.7781903 42.2576488,14.7946784 L1.43637836,14.7946784 C1.11467355,14.7874198 0.809032416,14.652345 0.58673476,14.4191877 C0.364437104,14.1860303 0.243705102,13.8739028 0.250793083,13.5515127 L0.250793083,13.2671449 C0.243709456,12.9449954 0.364519604,12.6331326 0.586886571,12.4003747 C0.809253538,12.1676168 1.1148996,12.0330956 1.43637836,12.0264957 Z"></path>
                            <path d="M1.44140067,17.8145141 L35.4725188,17.8145141 C35.7946582,17.8204603 36.1011991,17.9546103 36.3245051,18.1873649 C36.5478111,18.4201195 36.6695297,18.7323495 36.663069,19.0551633 L36.663069,19.3395312 C36.6754235,20.0117249 36.1432247,20.5675675 35.4725188,20.5826969 L1.44140067,20.5826969 C1.11903481,20.5760911 0.812499041,20.4413869 0.589262587,20.2082328 C0.366026134,19.9750788 0.24438587,19.6625847 0.250850051,19.3395312 L0.250850051,19.0551633 C0.244389777,18.7323495 0.366108363,18.4201195 0.589414409,18.1873649 C0.812720454,17.9546103 1.11926132,17.8204603 1.44140067,17.8145141 L1.44140067,17.8145141 Z"></path>
                            <path d="M1.44140067,5.98682428 L17.8944619,5.98682428 C18.2166013,5.99277041 18.5231421,6.12692047 18.7464482,6.35967508 C18.9697542,6.5924297 19.0914728,6.90465969 19.0847475,7.22747345 L19.0847475,7.51184131 C19.0973666,8.18403505 18.5651677,8.73987763 17.8944619,8.75500701 L1.44140067,8.75500701 C1.11903481,8.74840128 0.812499041,8.61369703 0.589262587,8.38054298 C0.366026134,8.14738893 0.24438587,7.83489481 0.251115099,7.51184131 L0.251115099,7.22747345 C0.244389777,6.90465969 0.366108363,6.5924297 0.589414409,6.35967508 C0.812720454,6.12692047 1.11926132,5.99277041 1.44140067,5.98682428 L1.44140067,5.98682428 Z"></path>
                        </g>
                    </g>
                    <path d="M56.9965566,46.3041475 L3.53937833,46.3041475 C2.79879065,46.3041475 2.08853552,46.6014187 1.56486096,47.1305648 C1.04118639,47.659711 0.746987952,48.3773871 0.746987952,49.1257128 L0.746987952,83.3168931 C0.746322695,84.0656583 1.04022579,84.7839865 1.5639726,85.3136815 C2.08771941,85.8433766 2.79835536,86.1409961 3.53937833,86.1409958 L45.4603729,86.1409958 C45.4603729,86.1409958 46.5426749,91.9769672 42.9793652,92.5960876 C42.9793652,92.5960876 50.9622838,93.1872969 49.5660891,86.1409958 L56.9664229,86.1409958 C57.7074458,86.1409961 58.4180818,85.8433766 58.9418286,85.3136815 C59.4655754,84.7839865 59.7590361,84.0656583 59.7590361,83.3168931 L59.7590361,49.1307875 C59.7682141,48.3844017 59.4813475,47.66531 58.9623015,47.1341658 C58.4432556,46.6030216 57.7352843,46.3041475 56.9965566,46.3041475 Z" id="Path" fill="#FFFFFF"></path>
                    <g id="Group" opacity="0.2" transform="translate(8.216867, 55.709677)" fill="#297373">
                        <path d="M1.44881318,0.202139485 L42.623476,0.202139485 C42.9477378,0.208850052 43.2560299,0.345626923 43.4803219,0.582287779 C43.7046139,0.818948635 43.8264699,1.13604085 43.8193244,1.46359222 L43.8193244,1.75272845 C43.8331571,2.43479536 43.2986,2.99997536 42.623476,3.01673991 L1.44881318,3.01673991 C1.12432335,3.00935954 0.816036261,2.87201979 0.59181416,2.63495281 C0.367592059,2.39788583 0.245814873,2.08052446 0.252964215,1.75272845 L0.252964215,1.46359222 C0.244684541,0.784155386 0.776499558,0.223012811 1.44881318,0.202139485 Z" id="Path"></path>
                        <path d="M1.44881318,12.2281595 L42.623476,12.2281595 C42.9477378,12.2348701 43.2560299,12.3716469 43.4803219,12.6083078 C43.7046139,12.8449686 43.8264699,13.1620609 43.8193244,13.4896122 L43.8193244,13.7787485 C43.8331571,14.4608154 43.2986,15.0259954 42.623476,15.0427599 L1.44881318,15.0427599 C1.12432335,15.0353796 0.816036261,14.8980398 0.59181416,14.6609728 C0.367592059,14.4239058 0.245814873,14.1065445 0.252964215,13.7787485 L0.252964215,13.4896122 C0.244684541,12.8101754 0.776499558,12.2490328 1.44881318,12.2281595 Z" id="Path"></path>
                        <path d="M1.45387896,18.1132331 L35.7796067,18.1132331 C36.1045348,18.1192789 36.4137294,18.2556785 36.6389687,18.492336 C36.8642079,18.7289935 36.9869802,19.0464591 36.9804635,19.3746858 L36.9804635,19.6638221 C36.992925,20.3472874 36.4561189,20.9124505 35.7796067,20.9278335 L1.45387896,20.9278335 C1.12872237,20.921117 0.819532897,20.784154 0.594363871,20.5470904 C0.369194846,20.3100267 0.246501535,19.9922926 0.253021676,19.6638221 L0.253021676,19.3746858 C0.246107076,18.6938603 0.780166305,18.1327274 1.45387896,18.1132331 Z" id="Path"></path>
                        <path d="M1.45387896,6.08721311 L18.0493754,6.08721311 C18.3743036,6.09325894 18.6834982,6.22965846 18.9087374,6.46631598 C19.1339766,6.70297349 19.2567489,7.02043904 19.2499654,7.34866584 L19.2499654,7.63780207 C19.2626938,8.32126735 18.7258876,8.88643046 18.0493754,8.90181353 L1.45387896,8.90181353 C1.12872237,8.89509703 0.819532897,8.75813402 0.594363871,8.52107037 C0.369194846,8.28400673 0.246501535,7.96627262 0.253289018,7.63780207 L0.253289018,7.34866584 C0.246107076,6.6678403 0.780166305,6.10670744 1.45387896,6.08721311 Z" id="Path"></path>
                    </g>
                    <path d="M37.51203,46.1376168 L34.5807024,52.4071243 C34.5807024,52.4071243 34.1452335,53.5904751 33.8565799,53.7981244 C33.5679262,54.0057737 32.3486134,57.743461 32.3486134,57.743461 L29.2107491,62.614463 L29.2107491,62.614463 L29.0042124,62.9447005 L27.7600156,62.614463 L26.8915663,59.3621247 L26.9537761,58.426452 L26.9537761,58.3013621 C26.9537761,58.3013621 28.8947231,56.2473853 29.3277036,56.102281 C29.3277036,56.102281 29.6586599,56.1423098 30.323061,54.5436604 C30.9874621,52.9450111 31.5672578,52.6122718 31.5672578,52.6122718 L31.8982141,51.4714516 L35.5536643,45.6372571 C35.5536643,45.6372571 38.6094116,41.2340913 39.4355583,43.1854943 C40.2617049,45.1368973 37.51203,46.1376168 37.51203,46.1376168 Z" id="Path" fill="#FFD2C6"></path>
                    <path d="M23.89262,92.2810182 C23.8865404,92.3947855 23.8511317,92.5046713 23.7901867,92.5989049 C23.4658148,93.1116254 21.5951886,103.514724 21.5951886,103.514724 C21.7366441,104.217151 21.3342277,105.622006 21.048878,106.260343 C20.7635282,106.89868 20.1781954,110.195472 20.1781954,110.195472 C20.1781954,110.195472 20.03674,117.324851 19.6318848,118.429764 C19.2270296,119.534676 19.7538291,121.941899 19.7538291,121.941899 C19.7148069,123.046812 20.3416008,124.195306 20.7293838,124.792625 C20.7439937,124.836301 20.7723986,124.873396 20.8098671,124.897733 C20.8694609,124.996104 20.9371996,125.088753 21.0122947,125.174602 C21.1118631,125.390691 21.2569972,125.580071 21.436661,125.72834 C21.4561721,125.748849 21.4976332,125.769357 21.5171443,125.79243 C22.0336801,126.156804 22.6140169,126.409523 23.224365,126.535875 L23.2853372,126.558947 C23.5292258,126.620473 23.6901924,126.643546 23.6901924,126.643546 L23.8316478,127.494662 L22.212227,127.830494 L19.153863,128.043273 C19.153863,128.043273 15.5516272,128.317578 16.3613376,126.638419 C16.4207473,126.523641 16.4681749,126.402448 16.5027931,126.276951 L16.5027931,126.276951 C16.524743,126.189788 16.5637652,126.105189 16.5832763,126.02059 C17.0710537,124.402957 16.7466817,122.431547 16.7466817,122.431547 L16.0369657,116.709586 C14.8833723,111.369602 16.9491093,105.41179 16.9491093,105.41179 C16.9491093,105.41179 16.7661928,104.942651 17.171048,103.730067 C17.5759032,102.517483 17.171048,99.8846632 17.171048,99.8846632 C17.171048,99.8846632 16.9686204,96.4801991 16.6832707,94.7984758 C16.5781769,94.0880657 16.5438468,93.3680725 16.5808374,92.650177 C16.6027874,92.2246189 16.6222985,91.8195698 16.6832707,91.3940117 L23.5853202,90.437788 C23.5853202,90.437788 23.9731032,91.5990999 23.89262,92.2810182 Z" id="Path" fill="#FFD2C6"></path>
                    <path d="M25.3762473,127.307365 C25.2496921,127.916317 21.7415823,128.095741 21.7415823,128.095741 C21.7415823,128.095741 19.7875701,127.894569 19.2408517,128.389343 C18.6941333,128.884117 17.0792891,128.772657 17.0160115,128.772657 C16.9527339,128.772657 16.125063,128.731879 15.7757706,127.100756 C15.4264783,125.469633 16.2161827,125.227683 16.2389626,125.227683 L16.2389626,125.227683 C16.9142486,125.237931 17.5825645,125.375971 18.2132236,125.635464 C19.2838805,126.086741 20.0811782,124.934081 20.0811782,124.934081 L20.6810498,123.718894 C20.7428969,123.82321 20.8131969,123.921459 20.8911314,124.012496 C21.0062769,124.278536 21.1875867,124.505258 21.4150699,124.667664 L20.8278538,125.997029 C20.8278538,125.997029 21.4783475,126.064993 22.3465161,126.222668 C22.5581717,126.272172 22.7793061,126.215764 22.9476354,126.069331 C23.1159647,125.922898 23.2132733,125.702287 23.2121536,125.469633 L23.2121536,125.355454 C23.2121536,125.355454 23.758872,125.534878 24.4296145,125.738768 C25.0829432,125.908639 25.4986371,126.597455 25.3762473,127.307365 L25.3762473,127.307365 Z" id="Path" fill="#626696"></path>
                    <path d="M33.4725216,99.326862 C33.3860097,99.8430906 33.2994978,101.167217 33.2994978,101.167217 C33.6036003,102.28227 32.8197497,104.917617 32.8197497,104.917617 L32.4291352,106.417261 C32.6021591,108.345374 31.3621547,113.035311 31.3621547,113.035311 C31.3621547,113.035311 30.5363589,117.384536 30.1011776,119.26877 C29.8444099,120.316464 29.9203586,121.416502 30.3187683,122.420345 L30.3607135,122.505523 C30.3607135,122.546821 30.3843076,122.570051 30.3843076,122.61135 C30.3880878,122.663493 30.4023451,122.714379 30.4262528,122.761056 C30.5241823,123.021965 30.671897,123.262023 30.8614341,123.468289 C30.9296613,123.557834 31.0109309,123.636981 31.1026189,123.703173 L31.1235915,123.726403 C31.529933,124.088418 32.0022895,124.371315 32.5156472,124.560112 L32.5156472,124.560112 L32.7332378,124.647871 C32.9614756,124.731941 33.1942805,124.803463 33.4305764,124.862106 L33.4305764,124.862106 C33.451549,124.862106 33.4725216,124.882755 33.5170884,124.882755 L33.3414429,125.889401 L31.0370795,125.311225 L27.9672165,124.325228 L26.4440821,123.468289 C26.4635301,123.390907 26.4784106,123.312481 26.4886489,123.233405 L26.4886489,123.212756 C26.5096215,123.148227 26.5096215,123.06305 26.5332156,122.975291 C26.795373,121.669233 27.379984,117.962712 27.0758814,115.231863 C26.7062395,111.847985 28.142862,107.199347 28.4915313,106.084293 C28.6968912,105.448334 28.785661,104.781466 28.7536887,104.114882 C28.1874287,103.299241 28.0589716,100.065069 28.0589716,100.065069 C28.0589716,100.065069 27.0103421,97.9665999 26.1661953,95.7390738 C25.8801083,95.0113716 25.6684608,94.2573869 25.534396,93.4883174 C25.4247858,92.9455483 25.380787,92.3919165 25.4033173,91.8389673 C25.4033173,91.8389673 32.3871901,85.5616284 33.150068,91.6453816 C33.1710406,91.8596164 33.1920132,92.0532021 33.2156074,92.2467878 C33.8421635,97.8091502 33.5668983,98.8416072 33.4725216,99.326862 Z" id="Path" fill="#FFD2C6"></path>
                    <path d="M31.596519,126.54582 C31.0185393,126.375995 29.6513504,126.077514 29.4401208,126.288509 C29.2288913,126.499504 27.320862,126.288509 27.320862,126.288509 C26.9150188,126.279972 26.5426898,126.037015 26.3389929,125.647806 C25.9536731,124.963359 26.260072,122.763353 26.260072,122.763353 L26.397023,122.742768 L26.6291433,122.722183 L26.647713,122.722183 C27.0335561,122.682382 27.4225102,122.740458 27.7851027,122.892008 C28.2284526,123.084991 28.8064323,123.275401 28.9224925,123.190489 C29.1268725,123.085205 29.3524974,123.040859 29.5770719,123.061833 L29.9043616,122.271889 C29.9907055,122.532182 30.1215357,122.771566 30.2896814,122.976921 C30.3555262,123.067163 30.4260554,123.153079 30.5009109,123.234231 L30.4823412,123.831192 C30.7869888,124.045721 31.1175801,124.211195 31.4642104,124.322656 C31.6354893,124.402844 31.8338674,124.330274 31.9284511,124.152831 C31.9493419,124.129673 31.9493419,124.088503 31.9679115,124.065345 L31.9679115,124.065345 C31.9864812,124.109088 32.1791411,124.173415 32.7780116,124.366398 L32.7780116,124.366398 C33.432591,124.322656 34.0477099,124.641721 34.3378604,125.624648 C34.6280108,126.607574 32.155929,126.718218 31.596519,126.54582 Z" id="Path" fill="#626696"></path>
                    <path d="M30.626506,90.1733017 C30.626506,90.1733017 28.0511971,90.5737637 25.9522458,91.0578666 C25.3327443,91.1832058 24.7206205,91.3439816 24.1187648,91.5394348 C23.8221632,91.6265895 23.5193991,91.6901438 23.2131889,91.7295276 C20.885983,92.0666254 16.727777,91.7498041 16.727777,91.7498041 C15.5939464,87.9859679 18.1047485,83.2311148 18.1047485,83.2311148 C18.0427228,82.8534639 18.6381699,81.6951655 18.6381699,81.6951655 L18.6604992,81.6546124 L19.0103244,80.3087558 L28.5846185,80.3087558 L28.70867,80.896776 L28.956773,82.075351 L30.4453908,89.3749122 L30.626506,90.1733017 Z" id="Path" fill="#B1EDE8"></path>
                    <path d="M32.8674699,92.0156932 L32.6406831,92.1204704 L31.5363301,92.6315788 C30.3037932,93.2244645 26.5864619,93.3087974 25.3982964,93.3317972 L25.0926272,93.3317972 C24.5404507,93.3087974 23.9882742,92.7798002 23.9882742,92.6315788 C23.9882742,92.5446903 23.9266474,92.1843589 23.8847411,91.8470274 C23.8452999,91.5914732 23.8033937,91.3589189 23.8033937,91.3589189 C23.8033937,91.3589189 21.3383199,90.2549248 20.105783,89.3630407 C19.1641249,88.7062664 19.4106322,84.0194026 19.5930477,81.6657485 C19.6546745,80.8581973 19.7163014,80.3087558 19.7163014,80.3087558 L29.3522747,80.9016415 L30.7031351,80.9859744 L31.4796334,81.1571957 L31.6842345,81.1980843 C31.6842345,81.1980843 32.236411,85.3763953 32.502639,85.7367267 C32.7688669,86.0970581 32.6061721,87.2700519 32.5642658,87.9217151 C32.5579045,88.2062553 32.5307105,88.489884 32.4829184,88.770155 C32.4829184,88.770155 32.8724,89.9380376 32.7910526,90.5948119 C32.7111472,91.0682512 32.7372929,91.554397 32.8674699,92.0156932 Z" id="Path" fill="#B1EDE8"></path>
                    <ellipse id="Oval" fill="#FFD2C6" cx="22.0361446" cy="52.4539171" rx="4.10843373" ry="3.97926267"></ellipse>
                    <path d="M19.7364953,54.9985505 C19.7364953,54.9985505 20.0067212,58.7792214 19.2360771,59.648427 C18.465433,60.5176326 16.4337349,62.1389875 16.4337349,62.1389875 L17.0567556,64.7017743 L20.5596833,65.1152074 L24.6506024,60.7542359 L23.7148203,59.6185403 C23.7148203,59.6185403 23.0092306,57.200206 23.5897157,55.9997558 C24.1702009,54.7993056 19.7364953,54.9985505 19.7364953,54.9985505 Z" id="Path" fill="#FFD2C6"></path>
                    <path d="M26.4070977,58.6036866 C26.4070977,58.6036866 27.7672102,58.6238428 27.7051613,59.878564 C27.6431123,61.1332853 28.4497484,63.2874754 28.4497484,63.2874754 L28.1395038,63.9979802 C28.1395038,63.9979802 27.7076432,65.7616446 28.0575992,66.1924826 C28.4075551,66.6233206 29.6237142,66.6333987 28.9238022,70.2237155 C28.9238022,70.2237155 28.7798487,72.9221221 29.1496603,73.7787591 C29.519472,74.6353961 29.519472,76.7492738 30.0779123,77.626067 C30.6363527,78.5028602 31.373494,80.5335937 31.373494,80.5335937 C31.373494,80.5335937 27.375061,81.4381016 26.3351209,80.810741 C25.2951808,80.1833804 18.8569839,80.4958009 18.8569839,80.4958009 C18.8569839,80.4958009 18.8793215,79.4098876 18.8569839,79.2839115 C18.7961996,79.0074007 18.8568947,78.7177246 19.023275,78.4902626 C19.2292775,78.1954786 19.5792334,77.694094 19.3930867,77.2556975 C19.2069399,76.8173009 19.8472848,76.1672646 19.5171845,75.4920331 C19.1870842,74.8168016 18.7725974,74.6757084 18.8569839,74.3002998 C18.8970655,73.868685 18.7637078,73.4389342 18.4871723,73.1085666 C18.2389766,72.7936265 16.5711013,69.4905351 16.5711013,69.4905351 L16.2931221,67.9611861 C16.2931221,67.9611861 14.1511931,66.3713686 14.1933864,65.6180319 C14.2355796,64.8646953 14.9950585,63.8190942 14.9950585,63.8190942 L17.055083,61.770724 C17.055083,61.770724 18.1893374,63.0304843 19.2888445,62.5870487 C20.3883515,62.143613 22.790886,60.0675281 22.790886,60.0675281 C22.790886,60.0675281 23.6347515,59.6089753 23.6968004,59.2537229 C23.7588493,58.8984705 24.2726145,59.2310473 24.2726145,59.2310473 C24.2726145,59.2310473 25.0345753,58.8128068 25.2008665,58.958939 C25.3671576,59.1050712 26.0248762,59.2310473 26.0248762,59.2310473 L26.4070977,58.6036866 Z" id="Path" fill="#FF6978"></path>
                    <path d="M14.6669428,65.1152074 L13.9878001,65.6389019 C13.9878001,65.6389019 13.3112106,66.858326 13.1401484,69.0618911 C12.9566462,70.8469677 12.6736636,72.6206233 12.2924966,74.3747345 L10.959743,76.7250353 C10.959743,76.7250353 8.75380598,81.2789011 8.47806385,82.4806157 C8.20232171,83.6823302 6.90531243,85.7340998 6.90531243,85.7340998 C6.90531243,85.7340998 2.49854468,89.6605441 5.57000564,90.3537437 C8.64146659,91.0469432 8.7282743,87.2242259 8.7282743,87.2242259 C8.7282743,87.2242259 9.45848031,86.4500687 9.56060702,85.9010749 C9.66273374,85.352081 13.5639742,78.531402 13.5639742,78.531402 C13.5639742,78.531402 14.9222596,76.6845565 14.6465174,75.7181249 C14.6465174,75.7181249 16.4337349,71.5816968 16.4337349,70.5520172 C16.392645,69.6902605 16.2979984,68.831832 16.1503333,67.9816129 L16.4260754,65.8185266 L14.6669428,65.1152074 Z" id="Path" fill="#FFD2C6"></path>
                    <path d="M21.5965416,44.9518583 C20.5492379,44.7372764 19.400662,44.8665426 18.5806035,45.5542389 C17.9655596,46.0713037 17.5555303,46.846901 16.8515644,47.2062611 C16.4837178,47.3643834 16.1076772,47.5007585 15.7252189,47.6147423 C14.3385218,48.2031175 13.5204105,49.7123277 13.7491743,51.2600496 C13.8529166,51.9037953 14.1394431,52.4854933 14.2827063,53.1059711 C14.5297119,54.2228312 14.3024668,55.4017391 14.0357008,56.5185992 C13.277006,59.6083096 12.1334487,62.5801901 10.6344339,65.3578229 C10.5143329,65.4941623 10.4510016,65.6749188 10.4584162,65.8602027 C10.4658307,66.0454865 10.5433817,66.2200669 10.6739548,66.3454168 C12.0892968,68.0620721 14.4062091,68.6411848 16.5576277,68.7265005 C17.3579258,68.7497684 18.1977448,68.7265005 18.8943005,68.3206046 C19.3469044,68.0443248 19.7383765,67.6707118 20.0428765,67.2244271 C20.8014775,66.1482391 21.1716168,64.8257251 21.0877101,63.4912188 C21.0259587,62.4183092 20.6776808,61.324717 20.9444469,60.2724901 C20.9635593,60.1260981 21.028746,59.9905503 21.1297011,59.8872767 C21.3544761,59.6287443 21.744745,59.6933774 22.0732624,59.6726948 C22.9748327,59.5641112 23.5552959,58.5791026 23.651628,57.632874 C23.7479602,56.6866453 23.5281252,55.7455872 23.5281252,54.8019439 C23.5223365,53.5473352 23.8958386,52.3229577 24.5951894,51.3040001 C24.9014763,50.8748363 25.2695146,50.4456724 25.3732569,49.9105103 C25.4967597,49.2434966 25.1262514,48.7290171 24.800204,48.193855 C24.3061928,47.3562099 24.0591872,46.384128 23.2811197,45.7455529 C22.7905966,45.339846 22.2119396,45.0672099 21.5965416,44.9518583 L21.5965416,44.9518583 Z" id="Path" fill="#985C7E"></path>
                    <g id="Group" opacity="0.1" transform="translate(20.915663, 85.373272)" fill="#B1EDE8">
                        <path d="M0.0277452668,0.0241167435 C0.0277452668,0.0241167435 0.542099828,2.67695853 1.37445783,3.42698925 L0.0277452668,0.0241167435 Z" id="Path"></path>
                    </g>
                    <path d="M38.6922847,12.3093579 C38.6922847,12.3093579 30.5020149,11.83993 31.4498426,17.392735 C31.3459132,17.9695762 31.6427987,18.544591 32.1821368,18.8110599 C32.1821368,18.8110599 32.2029111,18.3943485 33.0234962,18.5399465 C33.3154317,18.5841475 33.6114648,18.5976145 33.9064041,18.5801114 C34.3115001,18.5520225 34.6965547,18.398906 35.0048455,18.1433175 L35.0048455,18.1433175 C35.0048455,18.1433175 37.3107934,17.2270545 38.1962981,13.5795746 C38.1962981,13.5795746 38.8636727,12.788827 38.8428984,12.5754507 L37.4640039,13.1377601 C37.4640039,13.1377601 37.9366193,14.0966984 37.5704722,14.9100387 C37.5704722,14.9100387 37.5263268,13.1804353 37.2692448,13.2206003 C37.2250994,13.2206003 36.5577248,13.5544715 36.5577248,13.5544715 C36.5577248,13.5544715 37.3757131,15.2413996 36.7524839,16.4513688 C36.7524839,16.4513688 36.9887916,14.3878943 36.298046,13.6900282 L35.329444,14.2322551 C35.329444,14.2322551 36.2772717,15.9568378 35.6280747,17.3626112 C35.6280747,17.3626112 35.7994627,15.196214 35.108717,14.3502396 L34.2258091,15.0154717 C34.2258091,15.0154717 35.1294913,16.7249926 34.5685851,17.8897763 C34.5685851,17.8897763 34.5036654,15.3794666 34.03105,15.1836625 C34.03105,15.1836625 33.2520135,15.8488945 33.148142,16.120008 C33.148142,16.120008 33.7505968,17.3751628 33.3844497,18.0152917 C33.3844497,18.0152917 33.148142,16.3283637 32.9533829,16.3283637 C32.9533829,16.3283637 32.1743464,17.4529824 32.1120235,18.203565 C32.1471011,17.4971359 32.3785463,16.8129152 32.7819949,16.2229307 C32.3377006,16.3070073 31.9266176,16.5096169 31.5952627,16.8078328 C31.5952627,16.8078328 31.7043278,16.0145749 32.9533829,15.9543275 C32.9533829,15.9543275 33.5999831,15.0983119 33.7505968,15.058147 C33.7505968,15.058147 32.5015417,14.952714 31.7666507,15.2865851 C31.7666507,15.2865851 32.436622,14.5334923 33.9869046,14.8698737 L34.8490382,14.1845592 C34.8490382,14.1845592 33.2130617,13.9762035 32.5119289,14.2046417 C32.5119289,14.2046417 33.3091429,13.5394096 35.0775556,14.0188788 L36.0253832,13.4766519 C36.0253832,13.4766519 34.6231177,13.185456 33.8051294,13.2883787 C33.8051294,13.2883787 34.6880374,12.8315023 36.3058364,13.3310539 L36.9939852,13.039858 C36.9939852,13.039858 35.9812378,12.8515848 35.6800104,12.8089095 C35.378783,12.7662343 35.3554119,12.7059868 35.3554119,12.7059868 C36.0025058,12.5956457 36.6687866,12.6679862 37.2744383,12.9143425 C37.2692448,12.9143425 38.713059,12.3921981 38.6922847,12.3093579 Z" id="Path" fill="#297373"></path>
                    <g id="Group" opacity="0.1" transform="translate(27.638554, 18.087558)" fill="#297373">
                        <ellipse id="Oval" cx="5.61458879" cy="1.12866359" rx="5.43920901" ry="1"></ellipse>
                    </g>
                    <path d="M78.2826461,130.240784 C78.2826461,130.240784 70.0923763,129.76117 71.040204,135.325694 C70.9357504,135.902118 71.2329451,136.476886 71.7724983,136.741935 C71.7724983,136.741935 71.7958693,136.325098 72.6138576,136.47074 C72.9057031,136.515754 73.2017323,136.530067 73.4967656,136.513428 C73.9025213,136.482906 74.287905,136.329095 74.5978037,136.073992 L74.5978037,136.073992 C74.5978037,136.073992 76.9037516,135.157452 77.7866596,131.511384 C77.7866596,131.511384 78.4540341,130.717886 78.4332598,130.506957 L77.0543653,131.071947 C77.0543653,131.071947 77.5269808,132.028663 77.1608336,132.829694 C77.1608336,132.829694 77.119285,131.099569 76.8596062,131.142257 C76.8154608,131.142257 76.1480863,131.476229 76.1480863,131.476229 C76.1480863,131.476229 76.9660745,133.163665 76.3428454,134.371489 C76.3428454,134.371489 76.5791531,132.307392 75.8884074,131.609315 L74.9198055,132.146683 C74.9198055,132.146683 75.8676331,133.876808 75.2210329,135.29305 C75.2210329,135.29305 75.3950177,133.125999 74.7016753,132.27977 L73.8187673,132.945203 C73.8187673,132.945203 74.7224496,134.655239 74.1641401,135.822885 C74.1641401,135.822885 74.0992204,133.311818 73.6240082,133.113444 C73.6240082,133.113444 72.8449718,133.778877 72.7411002,134.050072 C72.7411002,134.050072 73.3435551,135.305605 72.9774079,135.948438 C72.9774079,135.948438 72.7411002,134.258491 72.5463411,134.258491 C72.5463411,134.258491 71.7673047,135.385959 71.7049818,136.134257 C71.7404024,135.428079 71.9728076,134.744334 72.3775499,134.155537 C71.9330781,134.237632 71.521673,134.439591 71.1908177,134.738104 C71.1908177,134.738104 71.2998828,133.947118 72.5489379,133.884342 C72.5489379,133.884342 73.1955381,133.030579 73.3461519,132.987891 C73.3461519,132.987891 72.0970968,132.884937 71.3648025,133.216398 C71.3648025,133.216398 72.0321771,132.463078 73.5824596,132.799561 L74.4445932,132.111529 C74.4445932,132.111529 72.8086167,131.90311 72.1074839,132.134128 C72.1074839,132.134128 72.9046979,131.466184 74.6731106,131.945798 L75.6209383,131.403408 C75.6209383,131.403408 74.2186727,131.112124 73.4006844,131.217589 C73.4006844,131.217589 74.2835924,130.758064 75.9013914,131.257766 L76.5895402,130.966482 C76.5895402,130.966482 75.5767929,130.778152 75.2755654,130.737975 C74.974338,130.697798 74.9535637,130.63251 74.9535637,130.63251 C75.5998802,130.524612 76.2646076,130.596903 76.8699934,130.840929 C76.8596062,130.84344 78.3034204,130.323649 78.2826461,130.240784 Z" id="Path" fill="#297373"></path>
                    <g id="Group" opacity="0.1" transform="translate(66.481928, 136.741935)" fill="#297373">
                        <ellipse id="Oval" cx="5.57502008" cy="1.14222926" rx="5.56008032" ry="1.01199885"></ellipse>
                    </g>
                    <path d="M147.156627,4.44908196 L146.144225,6.51152074 C145.820997,6.48913455 145.502214,6.42074791 145.19672,6.30825805 C144.208416,5.99629887 143.393855,5.26019143 142.956457,4.28376163 C142.050487,2.16982964 143.558706,0.820165364 144.254408,0.41635015 C144.95011,0.0125349352 145.612065,-0.440063325 146.149416,0.866238241 C146.473904,1.76601442 146.754262,2.68747196 146.990489,3.6089295 C147.070962,4.11302097 147.156627,4.44908196 147.156627,4.44908196 Z" id="Path" fill="#CC818C"></path>
                    <path d="M180.024096,15.2342195 L178.356467,17.4696082 C178.356467,17.4696082 170.496676,20.8512891 171.997806,16.8762055 C172.655872,15.1150623 172.743086,13.849613 172.610944,12.9607004 L172.610944,12.9392521 C172.457659,11.843006 171.997806,11.3663773 171.997806,11.3663773 C171.997806,11.3663773 179.662028,7.82740896 178.533537,10.2582155 C178.292128,10.762977 178.201031,11.3158227 178.269254,11.8620712 C178.355588,12.6480529 178.64134,13.4055789 179.10439,14.0760117 C179.368869,14.487894 179.67687,14.875766 180.024096,15.2342195 L180.024096,15.2342195 Z" id="Path" fill="#CC818C"></path>
                    <path d="M177.437569,62.365938 C177.437569,62.365938 178.53012,66.9863119 178.066983,67.7572337 C177.603734,68.5281555 177.646534,70.216964 177.646534,70.216964 C177.646534,70.216964 176.762837,76.8510166 176.425471,77.0882233 C176.154381,77.3430686 175.914308,77.6304814 175.710456,77.94423 C175.710456,77.94423 176.299588,79.4422419 175.942081,80.061042 C175.881576,80.1493128 175.802402,80.2224634 175.710456,80.2750437 C175.143983,80.5122504 173.082023,79.4422419 171.903759,78.8002368 C171.756646,78.7145292 171.644842,78.5771314 171.589052,78.4134868 C171.496986,78.1545478 171.572366,77.8642855 171.777877,77.6863967 C171.633104,77.391498 171.712202,77.032918 171.966701,76.8303899 L172.281408,76.5957615 L172.218466,76.5106765 C172.032107,76.2797375 172.006943,75.9539993 172.155525,75.6959231 C172.357601,75.2770257 172.458615,74.8146005 172.450091,74.3474546 C172.535691,72.6998994 172.953622,72.0578943 172.953622,72.0578943 L172.701857,64.505955 C172.724519,64.0920277 172.724519,63.6771253 172.701857,63.2631981 C172.661574,62.7939414 171.883618,63.1136548 171.755218,62.9847381 C171.626817,62.8558214 171.609194,62.257648 171.271828,62.087478 C171.123875,61.9509669 171.02095,61.7707868 170.977262,61.5718112 C170.833695,61.0942904 170.805188,60.5882654 170.894179,60.0970044 C170.932435,59.8573416 170.879252,59.6117901 170.745637,59.4111676 C170.367989,58.8955009 170.493872,57.165439 170.493872,57.165439 L169.927399,53.5274102 C169.000901,56.6085189 167.842779,60.3316327 167.465131,60.6100928 C167.084445,60.8429191 166.85845,61.2701972 166.875999,61.7239329 C167.422331,62.4071913 167.213365,65.3336001 167.213365,65.3336001 C167.213365,65.3336001 167.213365,73.4450378 166.813058,74.0019579 C166.41275,74.5588779 165.654936,76.2476865 165.654936,76.2476865 C165.654936,76.2476865 167.885579,78.2794134 166.138326,79.2875419 L166.118184,79.2875419 C164.330648,80.3188754 160.607034,77.4672383 160.607034,77.4672383 L160.984683,77.0830666 L161.090424,76.9747766 L160.669976,76.2915182 C160.249527,75.5180181 161.928804,74.0870429 161.928804,74.0870429 C161.928804,74.0870429 161.488214,72.310571 161.656897,72.225486 C161.82558,72.140401 161.928804,70.5340991 161.928804,70.5340991 C161.928804,70.5340991 161.508355,64.6709683 161.677038,64.1346749 C161.723648,63.8755802 161.654349,63.6087349 161.488214,63.4075848 C161.26041,63.077073 161.149405,62.6769186 161.173507,62.273118 C161.208977,61.9216959 161.110675,61.5698094 160.899082,61.2907729 C160.395551,60.7338528 160.899082,58.3592075 160.899082,58.3592075 L161.324566,55.2162187 L161.324566,50.2116731 C161.322517,49.253679 161.493223,48.303533 161.828098,47.4090244 C162.0758,46.6760062 162.230642,45.9134694 162.288829,45.1400908 C162.43737,43.5363672 163.278268,41.973897 163.847258,41.0740586 C164.007725,40.8141488 164.183444,40.5644509 164.373448,40.3263418 L177.732134,39.7926267 C177.732134,39.7926267 177.9411,40.3908001 178.152583,41.2468069 C178.192866,41.4401819 178.235666,41.6309786 178.278466,41.8243537 C178.550373,43.1289905 178.719056,44.755919 178.152583,45.6557575 C178.073046,45.7783687 178.002363,45.9067678 177.9411,46.0399292 C177.185803,47.6874844 177.689334,49.763043 177.689334,49.763043 C177.689334,49.763043 177.014602,54.4710803 176.720037,55.2420021 C176.511071,55.7757171 176.699895,56.5466389 176.825778,56.9308106 C176.881601,57.1196521 176.91706,57.314187 176.93152,57.5109357 L176.93152,59.1791176 C176.93152,59.1791176 177.268886,60.5688394 177.100203,60.9555895 C176.93152,61.3423395 177.437569,62.365938 177.437569,62.365938 Z" id="Path" fill="#444053"></path>
                    <g id="Group" opacity="0.1" transform="translate(171.060241, 78.138249)" fill="#000000">
                        <path d="M5.0778581,1.79338134 C5.00836865,1.88554317 4.91814512,1.96240108 4.81350736,2.01857143 C4.1598929,2.26546659 1.798166,1.13951613 0.456077644,0.463945853 C0.287963402,0.37392272 0.160113987,0.230441394 0.0958634538,0.0596889401 C0.865676037,-0.0759677419 1.37404284,0.735259217 1.37404284,0.735259217 C1.62977846,0.586129985 1.9385036,0.538078803 2.23219894,0.60169246 C2.52589428,0.665306117 2.78046116,0.835364903 2.93981258,1.07440092 C2.93981258,1.0863883 2.95021732,1.09610599 2.96305221,1.09610599 C3.61666667,1.99686636 5.03718876,1.61431452 5.03718876,1.61431452 C5.03718876,1.61431452 5.05171352,1.68214286 5.0778581,1.79338134 Z" id="Path"></path>
                    </g>
                    <path d="M176.228404,81.6151239 C176.106214,82.0066876 175.194678,82.0066876 175.194678,82.0066876 C174.393312,82.2502774 173.60725,82.5487199 172.841303,82.9001886 C172.108165,83.2943802 171.619406,83.0762608 171.619406,83.0762608 C169.955181,83.488848 167.826635,82.7714193 167.176586,82.6400221 C166.526536,82.5086249 166.284601,81.5888445 167.07639,81.4390517 C167.180122,81.4126803 167.281516,81.3766284 167.379421,81.331306 C167.773554,81.1344304 168.115514,80.8344653 168.374046,80.4588286 C168.921456,79.9122162 169.468866,79.3682318 170.057821,78.8820622 C170.466759,78.5647701 170.82638,78.1798245 171.123315,77.7415345 C172.076395,76.8480335 172.745995,78.0700275 172.745995,78.0700275 C173.19414,77.7684893 173.784723,77.9143237 174.065645,78.3958925 C174.065645,78.3958925 174.065645,78.419544 174.085195,78.419544 C174.632605,79.2920214 175.830065,78.9214813 175.830065,78.9214813 C175.830065,78.9214813 176.0329,79.5101408 176.133096,79.922728 C176.15509,80.0331016 176.17464,80.1644988 176.216185,80.3169196 C176.309169,80.7433989 176.313342,81.1867081 176.228404,81.6151239 Z" id="Path" fill="#FF6978"></path>
                    <ellipse id="Oval" fill="#FF6978" cx="173.301205" cy="79.5852535" rx="1" ry="1"></ellipse>
                    <path d="M176.251508,82.3283143 C176.129025,82.7224213 175.215307,82.7224213 175.215307,82.7224213 C174.412023,82.9675932 173.624079,83.2679741 172.856298,83.6217256 C172.121404,84.0184775 171.631475,83.7989415 171.631475,83.7989415 C169.963266,84.2142085 167.829624,83.49212 167.178018,83.3598693 C166.526412,83.2276187 166.283897,82.3018642 167.077583,82.1510985 C167.181563,82.1245558 167.2832,82.0882697 167.381339,82.042653 C168.08221,82.3048655 168.815356,82.4528479 169.556625,82.4817251 C171.205237,82.5478504 172.4962,82.4817251 172.4962,82.4817251 L174.161959,81.9104023 C174.478272,81.7007552 174.832371,81.566395 175.200609,81.5162954 C175.566504,81.4314999 175.912464,81.2667771 176.217213,81.0322581 C176.299766,81.4586585 176.311379,81.89752 176.251508,82.3283143 L176.251508,82.3283143 Z" id="Path" fill="#DCE6F2"></path>
                    <g id="Group" opacity="0.1" transform="translate(172.554217, 7.958525)" fill="#000000">
                        <path d="M6.38416126,1.08014638 C6.14886006,1.65213879 5.91097312,1.69554893 5.97561631,2.24711304 C5.689193,2.54276499 5.36496988,2.80028791 5.01113994,3.0131743 C4.25869323,3.46004337 3.42350324,4.32824614 2.4797127,4.32824614 C1.84784667,4.33416666 1.22083192,4.21882381 0.633503244,3.98862564 C0.483531047,2.8088913 0.0310287303,2.29818379 0.0310287303,2.29818379 C0.0310287303,2.29818379 7.477924,-1.53212253 6.38416126,1.08014638 Z" id="Path"></path>
                    </g>
                    <path d="M179.277108,6.88286444 C179.271598,9.48012176 177.093333,11.5813211 174.411774,11.5760369 C171.730216,11.5707327 169.560813,9.46094968 169.566265,6.86369235 C169.571738,4.26643502 171.749997,2.16522984 174.431555,2.17050691 C175.720101,2.17050691 176.955584,2.66759531 177.864865,3.55188718 C178.774146,4.43617904 179.28233,5.63483782 179.277108,6.88286444 Z" id="Path" fill="#CC818C"></path>
                    <g id="Group" opacity="0.1" transform="translate(171.807229, 11.576037)" fill="#000000">
                        <path d="M8.04482681,2.58707728 L6.41942771,4.93623361 C6.41942771,4.93623361 -1.22482681,8.49002127 0.256777108,4.31263027 C0.896152108,2.46185572 0.980888554,1.13200284 0.8525,0.197850053 L0.873042169,0.197850053 C0.968559053,0.507619264 1.02039046,0.828629943 1.02710843,1.15203828 C1.0476506,1.7981815 1.06819277,2.60711273 2.68845633,2.87759128 C5.41542922,3.31336228 6.86621988,1.67295994 7.12042922,1.33987061 C7.39848829,1.7760415 7.70736878,2.1927862 8.04482681,2.58707728 L8.04482681,2.58707728 Z" id="Path"></path>
                    </g>
                    <g id="Group" opacity="0.1" transform="translate(145.662651, 3.617512)" fill="#000000">
                        <path d="M2.01437751,0.891881022 L1.04329317,2.89400922 C0.733256826,2.87227765 0.42748408,2.8058908 0.134457831,2.69669041 L0.0522891566,2.58882279 C0.445702811,2.741416 1.79526104,0.0552492669 1.79526104,0.0552492669 L1.83759036,0.0973439464 C1.93220884,0.565647256 2.01437751,0.891881022 2.01437751,0.891881022 Z" id="Path"></path>
                    </g>
                    <g id="Group" opacity="0.1" transform="translate(164.337349, 39.792627)" fill="#000000">
                        <path d="M13.9945617,1.4011828 C10.8868342,2.72278034 0.124798504,1.60135177 0.124798504,1.60135177 C0.164023581,1.49208937 0.184692938,1.3771985 0.185974242,1.26130568 C0.34015332,1.01742057 0.509313759,0.783051171 0.692509348,0.559508449 L13.5883548,0.0602918587 C13.5687786,0.0602918587 13.7914582,0.619800307 13.9945617,1.4011828 Z" id="Path"></path>
                    </g>
                    <path d="M172.295434,12.1462199 L170.799039,12.7801448 C170.337102,12.7729289 169.919818,12.5020659 169.724378,12.0825728 C169.386483,11.3646338 168.164469,12.0825728 168.164469,12.0825728 C168.164469,12.0825728 164.432373,11.8101633 163.057926,12.4848223 C163.057926,12.4848223 160.824766,11.5352079 160.517357,11.4664691 C160.209948,11.3977303 159.737402,11.1482337 159.501129,11.2118808 C159.264856,11.2755279 158.993015,10.8096313 158.848203,10.8325442 C158.703391,10.8554572 158.637336,10.5143088 158.129222,10.3870147 C157.621108,10.2597205 157.435647,10.4099276 156.858938,9.86001687 C156.282228,9.31010612 151.714286,7.05954547 151.714286,7.05954547 L149.648803,5.36907909 L147.456292,3.61751152 C147.456292,3.61751152 146.084385,6.21431228 145.662651,6.06665106 L149.839346,11.0973161 C149.839346,11.0973161 152.855001,13.7373968 154.920484,14.58263 C156.985966,15.4278632 156.838613,15.6824515 156.838613,15.6824515 C156.838613,15.6824515 163.12144,18.8928101 164.091937,18.829163 C165.062434,18.7655159 164.871892,25.4000873 164.473023,26.4795417 C164.074153,27.5589962 163.418686,35.2679302 163.418686,35.2679302 C163.418686,35.2679302 162.786085,36.8947495 163.439011,38.037851 C163.439011,38.037851 163.606689,40.3622422 163.439011,40.7619459 C163.439011,40.7619459 174.678488,41.9661486 177.86182,40.5506376 C177.86182,40.5506376 178.324204,35.3315773 177.86182,34.6772853 C177.399437,34.0229933 178.303879,32.5438353 178.303879,32.5438353 L180.285523,28.0427139 L185.178659,23.098609 C185.178659,23.098609 185.940829,18.9768242 182.584738,16.3367435 L180.349037,14.3509547 C180.349037,14.3509547 179.106699,13.2715002 178.745938,13.210399 C178.385178,13.1492978 178.514747,13.210399 178.514747,13.210399 C178.514747,13.210399 177.059001,15.323482 174.086535,14.8372183 C172.463112,14.562263 172.463112,13.7373968 172.442787,13.0831049 C172.436185,12.7655684 172.386615,12.4503981 172.295434,12.1462199 Z" id="Path" fill="#B1EDE8"></path>
                    <g id="Group" opacity="0.1" transform="translate(162.843373, 15.917051)" fill="#000000">
                        <path d="M0.164337349,0.179428571 C0.164337349,0.179428571 1.01803787,2.50910599 1.42141136,2.67695853 L0.164337349,0.179428571 Z" id="Path"></path>
                    </g>
                    <g id="Group" opacity="0.1" transform="translate(159.108434, 15.193548)" fill="#000000">
                        <path d="M0.0942354032,0.0376221198 C0.0942354032,0.0376221198 2.36278035,2.6075023 2.78339203,2.87375115 C2.80177943,2.87375115 0.436700649,0.0376221198 0.0942354032,0.0376221198 Z" id="Path"></path>
                    </g>
                    <path d="M176.289157,41.2848936 L175.513911,42.054375 L175.401634,42.1695163 L174.514112,43.0569474 L174.316291,43.1945553 C170.653925,45.9467148 169.921452,41.7735424 169.921452,41.7735424 C169.921452,41.7735424 168.317496,42.8968728 168.082249,41.9841668 C167.847002,41.0714609 171.851545,39.7936725 172.428969,39.8638807 L172.597385,39.8638807 C172.884977,39.8109326 173.162271,39.7084541 173.418076,39.5605815 C173.484907,39.5353065 173.530352,39.4903733 173.597184,39.4650984 C173.797678,39.349957 173.9955,39.2095407 174.195994,39.0691244 L176.289157,41.2848936 Z" id="Path" fill="#CC818C"></path>
                    <g id="Group" opacity="0.1" transform="translate(171.060241, 2.170507)" fill="#000000">
                        <path d="M8.12063987,4.64945428 C8.12336029,6.23011589 7.26704808,7.69435757 5.86919105,8.49924812 C5.81049914,8.38501091 5.75180723,8.28905166 5.69311532,8.17481446 C5.53816867,7.79554693 5.42078485,7.39800146 5.26583821,7.01873393 C5.07682142,6.60935522 4.81269302,6.23694514 4.48640964,5.91977201 C4.4351328,5.85908838 4.36773567,5.81325407 4.2915525,5.78725685 C4.13857932,5.76482682 3.98291656,5.80538973 3.86192771,5.89920931 C3.66862699,6.03681421 3.44526379,6.12908158 3.20927367,6.16880912 C2.97537328,6.22409977 2.72906597,6.15148848 2.56601033,5.97917536 C2.41738784,5.74601464 2.3821603,5.46087855 2.46975559,5.20007761 C2.62375418,4.62936764 2.72123648,4.0456162 2.76086747,3.45681785 C2.76086747,2.86963861 2.52609983,2.22305603 2.00256799,1.9214698 C1.5330327,1.65415474 0.948461274,1.73183604 0.443710843,1.57875819 C0.363889845,1.56048023 0.286416523,1.52163958 0.208943201,1.50336163 C1.52037774,0.194762917 3.5163778,-0.208862388 5.25492693,0.482977529 C6.99347607,1.17481745 8.12703284,2.82382161 8.12063987,4.65173902 L8.12063987,4.64945428 Z" id="Path"></path>
                    </g>
                    <path d="M171.217714,2.74795623 C171.140168,2.78985489 171.043822,2.87888955 171.062622,2.98625487 C171.081726,3.03442009 171.107937,3.07867737 171.140168,3.11718818 C171.354648,3.30530893 171.599556,3.44576991 171.861584,3.53093747 C172.387959,3.68282011 172.973081,3.61735346 173.440709,3.90016942 C173.969434,4.24845204 174.202073,4.96334796 174.202073,5.6599132 C174.202073,6.35647845 174.007032,7.00852637 173.910686,7.66057429 C173.821407,7.95844523 173.85677,8.28523974 174.007032,8.55092085 C174.17106,8.74695919 174.416826,8.82992188 174.650901,8.76827015 C174.877565,8.7022063 175.094442,8.599888 175.294771,8.46450486 C175.415504,8.35604385 175.571351,8.30859233 175.7248,8.33357154 C175.806643,8.36279671 175.88031,8.41511932 175.93864,8.48545419 C176.267753,8.8483263 176.534545,9.2752068 176.725853,9.7450327 C176.899745,10.1797313 176.99844,10.6379979 177.153533,11.0726965 C177.298995,11.5147128 177.573825,11.8892417 177.933696,12.1358751 C178.306146,12.3949352 178.788406,12.342268 179.10864,12.0075604 C179.383577,11.6802271 179.362428,11.1800619 179.498721,10.7453632 C179.73371,10.0068993 180.37758,9.55125139 180.767661,8.9122968 C181.21649,8.19478222 181.352783,7.30443567 181.472628,6.43503844 C181.526058,6.16304756 181.532439,5.88219517 181.491427,5.60753988 C181.432679,5.4347079 181.373932,5.26187592 181.296386,5.08380661 C180.847557,4.03634007 180.866356,2.7270069 180.144941,1.91260167 C179.599766,1.30245241 178.800804,1.10605243 178.030041,0.998687112 C177.259278,0.891321792 176.448566,0.825855133 175.785897,0.39115652 C175.594755,0.235320106 175.383106,0.113416383 175.158477,0.0297805647 C174.936846,-0.0548854317 174.692344,0.0457852319 174.573355,0.270697868 C174.559623,0.334125015 174.533103,0.393231662 174.495809,0.443529847 C174.422802,0.483890219 174.338656,0.491391798 174.26082,0.464479178 L173.245668,0.160713882 L173.363162,0.726345812 C172.98698,0.745650059 172.61139,0.676040433 172.261065,0.522089837 C172.261065,0.836329799 172.582999,1.04582311 172.681695,1.3338764 C172.760205,1.61571353 172.683993,1.92268668 172.486654,2.11947631 C172.096572,2.57250558 171.647744,2.48608959 171.217714,2.74795623 Z" id="Path" fill="#585268"></path>
                    <g id="Group" opacity="0.1" transform="translate(160.602410, 75.967742)" fill="#000000">
                        <path d="M5.97590361,1.96503226 L5.92972618,2.5438341 L5.90799562,2.5438341 C3.99027382,3.70143779 0,0.500663594 0,0.500663594 L0.407447974,0.0694562212 C0.54390709,0.23322301 0.609025754,0.450819006 0.586725082,0.668516129 L1.40162103,0.717714286 L2.37134721,1.84637788 C2.37134721,1.84637788 5.00889376,2.18208295 5.70698795,1.99107834 L5.97590361,1.96503226 Z" id="Path"></path>
                    </g>
                    <path d="M165.245149,81.1120054 C164.083768,81.3558229 159.965031,81.343632 159.965031,81.343632 L157.661871,81.6996056 C157.661871,81.6996056 153.712196,82.0799609 153.268715,80.8608733 C152.825234,79.6417857 153.606838,79.7051783 153.606838,79.7051783 L153.62644,79.7051783 L155.275404,79.5783932 C155.275404,79.5783932 157.3654,78.7786717 158.127403,78.2105769 C158.737954,77.7520932 159.31142,77.2466531 159.842523,76.6989082 C159.842523,76.6989082 160.51877,76.5721231 160.51877,77.349901 L161.278323,77.39135 L162.187336,78.3666201 C162.187336,78.3666201 164.657108,78.6592011 165.313754,78.4934052 L165.54407,78.4934052 L165.438712,79.7124928 L165.460764,79.7539418 C165.644527,79.9563103 166.301173,80.8803787 165.245149,81.1120054 Z" id="Path" fill="#FF6978"></path>
                    <ellipse id="Oval" fill="#FF6978" cx="160.60241" cy="77.4147465" rx="1" ry="1"></ellipse>
                    <path d="M165.278024,81.0756783 C164.1851,81.3436335 160.304741,81.3195175 160.304741,81.3195175 L158.147655,81.6973344 C158.147655,81.6973344 154.427879,82.0965876 154.008446,80.8077231 C153.589012,79.5188586 154.327215,79.5858474 154.327215,79.5858474 L154.348786,79.5858474 C154.588462,79.9181119 155.067815,80.3173651 155.997759,80.3414811 L158.665356,80.4513427 L161.428823,80.2289399 C161.428823,80.2289399 164.01493,80.1405147 164.453538,80.0520895 C164.808059,79.9442186 165.153658,79.8025772 165.486542,79.6287202 C165.656713,79.8511231 166.272681,80.8291595 165.278024,81.0756783 Z" id="Path" fill="#DCE6F2"></path>
                    <path d="M158.817385,81.0322581 C158.663275,81.0323506 158.509873,81.0176864 158.361446,80.9886732 L158.403801,80.9171947 C158.780338,80.9719097 159.170241,80.9617383 159.539911,80.8875573 L159.953495,80.8003884 C160.591644,80.6330157 161.288723,80.6098464 161.946671,80.73414 L162.028889,80.73414 C163.274624,80.6853254 164.490462,80.641741 165.711282,80.5249346 C165.998935,80.5126391 166.273652,80.4369676 166.496095,80.3087558 L166.578313,80.3662872 C166.335559,80.5124402 166.030959,80.5987989 165.711282,80.6121035 C164.479108,80.7370513 163.232498,80.7779221 161.989026,80.73414 L161.906807,80.73414 C161.499957,80.7092559 161.09038,80.7168595 160.685987,80.7568039 C160.440086,80.7853289 160.198294,80.8290854 159.963461,80.8875573 L159.549877,80.9747262 C159.308548,81.0086831 159.063466,81.0279324 158.817385,81.0322581 L158.817385,81.0322581 Z" id="Path" fill="#DCE6F2"></path>
                    <g id="Group" opacity="0.1" transform="translate(173.301205, 39.069124)" fill="#000000">
                        <path d="M2.93634173,2.14419774 L2.14860898,2.86506912 L0.187426068,0.439363217 C0.391150055,0.331495601 0.592157722,0.199949728 0.795881709,0.0684038542 L2.93634173,2.14419774 Z" id="Path"></path>
                    </g>
                    <path d="M184.267484,20.9815668 L185.703168,23.0237705 L185.703168,25.167836 C185.703168,25.167836 186.371041,27.4361231 185.703168,29.7044102 L185.783605,31.6919563 C185.783605,31.6919563 185.076732,33.5080767 185.339981,33.9602434 C185.339981,33.9602434 185.218107,35.3018371 183.519174,36.2285305 C181.820242,37.1552239 179.91656,39.3440092 179.91656,39.3440092 C179.91656,39.3440092 179.185312,40.7452292 177.267005,40.4346751 L175.426698,41.2396313 L173.301205,38.4570667 L176.175009,36.8695142 C176.175009,36.8695142 177.186568,35.4881696 177.774004,35.5701558 L180.211497,32.6608851 C180.211497,32.6608851 180.272434,31.7341917 180.898869,31.7341917 C180.898869,31.7341917 179.745935,30.7851384 180.150559,30.20875 C180.555183,29.6323616 180.211497,27.0733959 180.211497,27.0733959 L184.267484,20.9815668 Z" id="Path" fill="#B1EDE8"></path>
                    <g id="Group" opacity="0.1" transform="translate(172.554217, 39.069124)" fill="#000000">
                        <path d="M2.86096386,2.42631666 C2.86419309,2.48394165 2.85744659,2.5417009 2.84104418,2.59685648 C2.76293898,3.1254836 2.34180462,3.52707778 1.82763052,3.56324885 L1.76787149,3.56324885 C1.17549406,3.55902371 0.696280302,3.0617233 0.692208835,2.44698815 C0.690276128,2.32252626 0.711408979,2.19883849 0.754457831,2.08265306 C0.236546185,1.65371955 0.216626506,0.881122449 0.236546185,0.496115866 C0.504714483,0.448577279 0.763179951,0.354219556 1.00096386,0.217050691 C1.13041224,0.61929413 1.3113045,1.00168584 1.53879518,1.35398288 C1.61853808,1.32438563 1.70423722,1.3163816 1.78779116,1.33072745 C2.07220931,1.32076813 2.3481008,1.43238869 2.55096995,1.63949538 C2.75383909,1.84660207 2.86590285,2.1310404 2.86096386,2.42631666 L2.86096386,2.42631666 Z" id="Path"></path>
                    </g>
                    <path d="M173.353318,39.7926267 C173.353318,39.7926267 172.569185,39.9554678 172.569185,40.0769909 C172.569185,40.1985141 172.39134,41.3870106 173.261701,41.8512291 C174.132062,42.3154476 174.045835,41.1852822 174.045835,41.1852822 C174.045835,41.1852822 173.285953,40.1571962 173.353318,39.7926267 Z" id="Path" fill="#575988"></path>
                    <ellipse id="Oval" fill="#E4AAB4" cx="174.421687" cy="41.6013825" rx="1.12048193" ry="1.08525346"></ellipse>
                    <ellipse id="Oval" fill="#DCE6F2" cx="174.421687" cy="41.6013825" rx="1.12048193" ry="1.08525346"></ellipse>
                    <g id="Group" opacity="0.1" transform="translate(169.566265, 41.963134)" fill="#000000">
                        <path d="M0.249901424,0.0789275241 C0.249901424,0.0789275241 2.75163198,2.08631755 5.97590361,0.820846251 L5.97590361,1.80217847 C5.97590361,1.80217847 3.83544359,3.2228739 1.87154436,2.37045664 C-0.092354874,1.51803938 0.249901424,0.0789275241 0.249901424,0.0789275241 Z" id="Path"></path>
                    </g>
                    <g id="Group" opacity="0.1" transform="translate(169.566265, 41.239631)" fill="#000000">
                        <path d="M0.257710843,0.0999748638 C0.257710843,0.0999748638 2.83762048,2.10999581 6.1626506,0.844524508 L6.1626506,1.82585672 C6.1626506,1.82585672 3.9553012,3.24655216 1.93003012,2.3941349 C-0.0672289157,1.49962296 0.257710843,0.0999748638 0.257710843,0.0999748638 Z" id="Path"></path>
                    </g>
                    <path d="M170.330538,41.2396313 C170.330538,41.2396313 172.607536,43.5061231 175.542169,42.0791826 L175.542169,43.185729 C175.542169,43.185729 173.593988,44.7876996 171.806508,43.8265172 C170.04375,42.817869 170.330538,41.2396313 170.330538,41.2396313 Z" id="Path" fill="#444053"></path>
                    <g id="Group" opacity="0.05" transform="translate(169.566265, 41.239631)" fill="#000000">
                        <path d="M0.249901424,0.0999748638 C0.249901424,0.0999748638 2.75163198,2.10999581 5.97590361,0.844524508 L5.97590361,1.82585672 C5.97590361,1.82585672 3.83544359,3.24655216 1.90142388,2.3941349 C-0.0325958379,1.54171764 0.249901424,0.0999748638 0.249901424,0.0999748638 Z" id="Path"></path>
                    </g>
                    <g id="Group" opacity="0.1" transform="translate(165.831325, 63.668203)" fill="#000000">
                        <path d="M0.0575,0.116666667 C0.0575,0.116666667 0.41,1.14 0.9275,0.806666667" id="Path"></path>
                    </g>
                    <g id="Group" opacity="0.1" transform="translate(170.313253, 0.723502)" fill="#000000">
                        <path d="M2.80172597,0.394610215 L2.78226954,0.307488479 L2.4320538,0.222929147 L2.47096666,0.394610215 C2.58028304,0.416024593 2.69240959,0.416024593 2.80172597,0.394610215 Z" id="Path"></path>
                        <path d="M1.85322499,1.81930684 L1.89456991,1.77574597 C2.09826999,1.5828325 2.17705193,1.2828166 2.09643037,1.00702477 C2.05680284,0.909582937 2.00617549,0.817527021 1.94564304,0.732847542 C1.77514126,0.694045291 1.60702269,0.644414892 1.4422079,0.584228111 C1.42275147,0.90452861 1.76567106,1.09670891 1.86538526,1.39394777 C1.9223995,1.53041576 1.91793156,1.68670164 1.85322499,1.81930684 L1.85322499,1.81930684 Z" id="Path"></path>
                        <path d="M7.52477445,11.5590044 C7.15512041,11.3085947 6.87196141,10.9392699 6.71733259,10.5058564 C6.55681704,10.0804973 6.43521435,9.63463902 6.2746988,9.20927995 C6.07890706,8.74937997 5.80530095,8.33086675 5.46725693,7.97420123 C5.41275409,7.90773823 5.34337132,7.85665528 5.26539647,7.8255818 C5.10665541,7.80238566 4.94582261,7.84868427 4.82033062,7.953702 C4.62257259,8.10493144 4.39465373,8.20659425 4.15394788,8.25094086 C3.91161164,8.31409883 3.65590087,8.2324874 3.48756514,8.03826133 C3.33204907,7.77828841 3.29544977,7.45851512 3.38785094,7.16704397 C3.54738436,6.52697688 3.64837025,5.87228342 3.68942561,5.21192972 C3.68942561,4.55082949 3.44622023,3.82823157 2.90387223,3.51049347 C2.41746147,3.2106922 1.81431213,3.29781394 1.28898851,3.1466321 C1.01630464,3.06858459 0.762029517,2.93157859 0.542347997,2.74433468 L0.501003082,2.70077381 C0.455588012,2.7258535 0.408433089,2.74726827 0.359943962,2.76483391 C0.279686187,2.80839478 0.177539927,2.89295411 0.199428411,2.99801267 C0.217732042,3.04597087 0.245028959,3.08954654 0.279686187,3.12613287 C0.501062059,3.31119938 0.754725529,3.44874636 1.0263267,3.5309927 C1.57110675,3.67961214 2.17668815,3.61555204 2.64121042,3.9127909 C3.18599047,4.2330914 3.42919585,4.95568932 3.42919585,5.61422715 C3.42919585,6.27276498 3.22733539,6.93386521 3.12518913,7.5719038 C3.03350778,7.86375389 3.07100244,8.18355018 3.22733539,8.44312116 C3.39605352,8.63498145 3.64976066,8.71625001 3.89128607,8.65580069 C4.12623945,8.59228773 4.35085279,8.49209934 4.55766881,8.35856183 C4.68289507,8.25299276 4.84395633,8.20662838 5.00273466,8.23044163 C5.07732015,8.2679498 5.14552248,8.31816365 5.20459512,8.37906106 C5.54318708,8.73524592 5.81686681,9.15387174 6.01203699,9.61413978 C6.19444102,10.0394988 6.29415523,10.4853571 6.45467078,10.9107162 C6.59918013,11.3527918 6.88448096,11.7285318 7.26211264,11.9741139 C7.65022231,12.2171802 8.14339866,12.1652193 8.47813953,11.8459937 C8.56267177,11.7573772 8.62530026,11.6482817 8.66054357,11.5282556 C8.31481881,11.753198 7.88100785,11.7649426 7.52477445,11.5590044 L7.52477445,11.5590044 Z" id="Path"></path>
                        <path d="M9.26126086,9.9421275 C9.56526758,9.53726767 9.94710003,9.19903034 10.2340824,8.77367127 C10.2948837,8.68654954 10.3362286,8.60199021 10.39703,8.51743088 C10.0273578,9.00685004 9.52392267,9.41170987 9.26126086,9.9421275 Z" id="Path"></path>
                    </g>
                    <g id="Group" opacity="0.1" transform="translate(108.313253, 4.341014)" fill="#000000">
                        <path d="M55.2771084,2.8293196 C55.2729113,1.37988797 54.101813,0.205936841 52.6559036,0.201729466 L2.62120482,0.201729466 C1.17504973,0.210122804 0.00556486023,1.38473516 0,2.83442667 L0,34.5927731 C0.00555237686,36.042886 1.17463817,37.2182364 2.62120482,37.2280239 L41.8704991,37.2280239 C41.8704991,37.2280239 42.889432,42.644077 39.5447849,43.2390512 C39.5447849,43.2390512 47.0288468,43.770187 45.7195181,37.2280239 L52.6559036,37.2280239 C54.1024703,37.2182364 55.2715561,36.042886 55.2771084,34.5927731 L55.2771084,2.8293196 Z" id="Path"></path>
                        <g opacity="0.2" transform="translate(7.132530, 8.171320)" id="Path">
                            <path d="M1.45962134,0.201729466 L39.5524269,0.201729466 C39.8767233,0.206435734 40.1858683,0.340107112 40.411836,0.573329852 C40.6378038,0.806552591 40.7620788,1.12021683 40.7574872,1.44530225 L40.7574872,1.50914069 C40.7627618,1.83466476 40.6387901,2.1489867 40.412749,2.38276422 C40.1867079,2.61654173 39.8771717,2.75056491 39.5524269,2.75526701 L1.45962134,2.75526701 C0.783895233,2.7440725 0.244805753,2.18653228 0.254733219,1.50914069 L0.254733219,1.44530225 C0.245802464,1.11902062 0.368709593,0.802953604 0.595569683,0.568809846 C0.822429773,0.334666087 1.1340106,0.202295287 1.45962134,0.201729466 Z"></path>
                            <path d="M1.45707401,11.4372947 L32.4224441,11.4372947 C32.7465133,11.4419967 33.0554017,11.5757508 33.2809651,11.8090495 C33.5065284,12.0423481 33.6302318,12.3560206 33.6249577,12.6808674 L33.6249577,12.7447059 C33.6302349,13.0697943 33.5066113,13.3837336 33.2811191,13.6174376 C33.0556268,13.8511416 32.746744,13.9854592 32.4224441,13.9908322 L1.45707401,13.9908322 C1.13277409,13.9854592 0.823891236,13.8511416 0.598398997,13.6174376 C0.372906757,13.3837336 0.249283191,13.0697943 0.254733219,12.7447059 L0.254733219,12.6808674 C0.245812637,12.3550274 0.36837393,12.0393537 0.594680172,11.8052868 C0.820986414,11.5712198 1.13190582,11.4385473 1.45707401,11.4372947 L1.45707401,11.4372947 Z"></path>
                            <path d="M0.254634467,7.02733532 C0.254634467,6.70700068 0.381676424,6.3997861 0.60763678,6.1732753 C0.833597135,5.94676451 1.14006514,5.81951206 1.45962134,5.81951206 L23.2444062,5.81951206 C23.5693752,5.82355026 23.8794311,5.95684402 24.1063523,6.19006472 C24.3332735,6.42328542 24.4584679,6.73732483 24.4544877,7.06308485 L24.4544877,7.12692329 C24.4628895,7.80571558 23.9215317,8.36324433 23.2444062,8.37304961 L1.46471601,8.37304961 C0.787590544,8.36324433 0.246232746,7.80571558 0.254634467,7.12692329 L0.254634467,7.02733532 Z"></path>
                        </g>
                    </g>
                    <path d="M161.716145,3.61751152 L111.681446,3.61751152 C110.235291,3.62597553 109.065806,4.81047786 109.060241,6.27237546 L109.060241,38.2981202 C109.065793,39.7604427 110.234879,40.9456894 111.681446,40.9555592 L150.93074,40.9555592 C150.93074,40.9555592 151.949673,46.4172143 148.605026,47.0171981 C148.605026,47.0171981 156.089088,47.552806 154.779759,40.9555592 L161.716145,40.9555592 C163.162711,40.9456894 164.331797,39.7604427 164.337349,38.2981202 L164.337349,6.27237546 C164.324939,4.81336556 163.15943,3.63288999 161.716145,3.61751152 L161.716145,3.61751152 Z" id="Path" fill="#FFFFFF"></path>
                    <g id="Group" opacity="0.2" transform="translate(116.530120, 11.576037)" fill="#297373">
                        <path d="M1.46219412,0.201106844 L39.6221432,0.201106844 C39.9470113,0.205798586 40.2567012,0.339057399 40.4830672,0.571560315 C40.7094333,0.804063231 40.8339273,1.11675937 40.8293276,1.44084144 L40.8293276,1.50448285 C40.8346116,1.82900222 40.7104213,2.14235403 40.4839818,2.37541001 C40.2575423,2.60846598 39.9474605,2.74207551 39.6221432,2.7467631 L1.46219412,2.7467631 C0.785276952,2.73560314 0.245237255,2.17978373 0.255047042,1.50448285 L0.255047042,1.44084144 C0.26019447,0.771986723 0.792150623,0.225608972 1.46219412,0.201106844 Z" id="Path"></path>
                        <path d="M1.4596423,11.1474287 L32.4795929,11.1474287 C32.8042334,11.1521163 33.1136662,11.2854576 33.3396272,11.5180362 C33.5655881,11.7506147 33.6895095,12.0633191 33.6842261,12.3871633 L33.6842261,12.4508047 C33.6895126,12.7748898 33.5656711,13.0878602 33.3397814,13.3208429 C33.1138917,13.5538255 32.8044644,13.6877286 32.4795929,13.693085 L1.4596423,13.693085 C1.13477076,13.6877286 0.825343453,13.5538255 0.599453754,13.3208429 C0.373564055,13.0878602 0.249722586,12.7748898 0.255009066,12.4508047 L0.255009066,12.3871633 C0.258832775,11.7187256 0.790027474,11.171974 1.4596423,11.1474287 L1.4596423,11.1474287 Z" id="Path"></path>
                        <path d="M1.21211554,5.54698498 L23.0301953,5.54698498 C23.3557371,5.55101071 23.6663396,5.68389307 23.8936608,5.91639395 C24.1209819,6.14889484 24.246397,6.46196499 24.2424098,6.78671958 L24.2424098,6.85036098 C24.2508263,7.52705823 23.7085143,8.08286623 23.0301953,8.09264124 L1.21211554,8.09264124 C0.533796557,8.08286623 -0.00851545574,7.52705823 -9.89252227e-05,6.85036098 L-9.89252227e-05,6.78671958 C0.00642787332,6.11649784 0.540639815,5.57011343 1.21211554,5.54698498 L1.21211554,5.54698498 Z" id="Path"></path>
                    </g>
                    <g id="Group" opacity="0.1" transform="translate(87.397590, 66.562212)" fill="#000000">
                        <path d="M56.7204411,0.198805841 L2.81576475,0.198805841 C1.26066082,0.198805841 -1.14045254e-06,1.45168374 -1.14045254e-06,2.99718694 L-1.14045254e-06,36.9074254 C-0.000671966232,37.6500381 0.295691438,38.3624639 0.823822612,38.8878066 C1.35195379,39.4131493 2.06853858,39.7083233 2.81576475,39.708323 L45.0876863,39.708323 C45.0876863,39.708323 46.1790484,45.4963414 42.5859097,46.1103747 C42.5859097,46.1103747 50.6356545,46.6967261 49.2277721,39.708323 L56.6900551,39.708323 C57.4372813,39.7083233 58.1538661,39.4131493 58.6819973,38.8878066 C59.2101285,38.3624639 59.5060458,37.6500381 59.5060458,36.9074254 L59.5060458,3.00222 C59.5153006,2.26196704 59.2260326,1.54878402 58.7026416,1.0220041 C58.1792507,0.495224175 57.4653529,0.198805841 56.7204411,0.198805841 Z" id="Path"></path>
                        <g opacity="0.2" transform="translate(7.596488, 14.847526)" id="Path">
                            <path d="M0.5061078,7.42879583 C0.5061078,6.77140104 1.04266683,6.23847726 1.7041454,6.23847726 L42.8644476,6.23847726 C43.1886163,6.24507716 43.4968198,6.37959834 43.7210474,6.61235624 C43.9452749,6.84511414 44.067096,7.15697695 44.0599525,7.47912643 L44.0599525,7.76349429 C44.0737813,8.43431272 43.5393777,8.99017192 42.8644476,9.00665999 L1.70161323,9.00665999 C1.37721661,8.99940133 1.06901809,8.86432656 0.844860403,8.63116922 C0.620702715,8.39801189 0.498960512,8.08588438 0.5061078,7.76349429 L0.5061078,7.42879583 Z"></path>
                            <path d="M0.253216255,1.38912442 C0.253216255,0.731729628 0.789450579,0.198805851 1.45092914,0.198805851 L18.0441903,0.198805851 C18.3690251,0.204751976 18.6781309,0.338902034 18.9033054,0.57165665 C19.1284799,0.804411265 19.251217,1.11664126 19.2444354,1.43945502 L19.2444354,1.72382288 C19.2571601,2.39601662 18.7205081,2.9518592 18.0441903,2.96698858 L1.4534613,2.96698858 C1.12839811,2.96038284 0.819297467,2.82567859 0.594193126,2.59252454 C0.369088786,2.35937049 0.246430721,2.04687638 0.253216255,1.72382288 L0.253216255,1.38912442 Z"></path>
                        </g>
                    </g>
                    <path d="M143.617238,66.562212 L90.1899913,66.562212 C88.6477915,66.562212 87.3975904,67.8254698 87.3975904,69.3837773 L87.3975904,103.574958 C87.3969251,104.323723 87.6908293,105.042051 88.2145781,105.571746 C88.7383269,106.101441 89.4489655,106.399061 90.1899913,106.39906 L132.096077,106.39906 C132.096077,106.39906 133.180895,112.235032 129.617571,112.854152 C129.617571,112.854152 137.598009,113.445361 136.201809,106.39906 L143.619749,106.39906 C144.360339,106.398388 145.070333,106.100471 145.593538,105.570849 C146.116744,105.041227 146.410304,104.323283 146.409639,103.574958 L146.409639,69.388852 C146.404147,67.8320234 145.157962,66.5705572 143.617238,66.562212 Z" id="Path" fill="#FFFFFF"></path>
                    <g id="Group" opacity="0.2" transform="translate(95.614458, 81.755760)" fill="#297373">
                        <path d="M1.44881318,5.97854071 L42.623476,5.97854071 C42.9477378,5.98486561 43.2560299,6.11378174 43.4803219,6.3368414 C43.7046139,6.55990105 43.8264699,6.85876958 43.8193244,7.16749616 L43.8193244,7.44001536 C43.8331571,8.08288302 43.2986,8.61558142 42.623476,8.63138249 L1.44881318,8.63138249 C1.12432335,8.62442628 0.816036261,8.49497962 0.59181416,8.27153717 C0.367592059,8.04809473 0.245814873,7.74897253 0.252964215,7.44001536 L0.252964215,7.16749616 C0.252964215,6.53013444 0.7800236,6.00568974 1.44881318,5.97854071 Z" id="Path"></path>
                        <path d="M1.45387896,0.190522273 L18.0493754,0.190522273 C18.3743036,0.196220644 18.6834982,0.324781116 18.9087374,0.547837623 C19.1339766,0.770894129 19.2567489,1.07011454 19.2499654,1.37947773 L19.2499654,1.65199693 C19.2626938,2.29618259 18.7258876,2.82886506 18.0493754,2.84336406 L1.45387896,2.84336406 C1.12872237,2.83703356 0.819532897,2.70794199 0.594363871,2.48450269 C0.369194846,2.26106339 0.246501535,1.96158987 0.253289018,1.65199693 L0.253289018,1.37947773 C0.254096898,0.740823103 0.783673651,0.216378291 1.45387896,0.190522273 L1.45387896,0.190522273 Z" id="Path"></path>
                    </g>
                    <path d="M116.246656,156.830716 L113.325107,155.821793 C112.506745,155.182897 112.779532,154.453491 113.188713,153.921077 C113.471833,153.57669 113.893334,153.368114 114.34533,153.348733 C114.758363,153.289688 115.127282,153.064797 115.362826,152.728472 C115.57849,152.397854 115.696482,152.01557 115.70381,151.623714 C115.70381,151.623714 118.917242,150.697315 119.776522,151.623714 C119.933259,151.788365 120.063828,151.975008 120.163879,152.177424 C120.452995,152.808877 120.591948,153.495987 120.570332,154.187284 C120.570332,154.187284 120.728549,155.182897 121.001336,156.316937 C121.274123,157.450977 116.246656,156.830716 116.246656,156.830716 Z" id="Path" fill="#2D293D"></path>
                    <path d="M128.945452,155.368071 L126.023902,154.477103 C125.205541,153.915 125.478328,153.275929 125.887508,152.844439 C126.166528,152.538097 126.590259,152.35353 127.044126,152.340646 C127.161379,152.332617 127.275971,152.306542 127.382382,152.263677 C127.462003,152.238567 127.537975,152.205697 127.608795,152.165717 C128.427156,151.778543 128.402605,150.850257 128.402605,150.850257 C128.402605,150.850257 131.616037,150.036257 132.475317,150.850257 C132.588442,150.956292 132.687266,151.072866 132.769927,151.197781 C133.112686,151.786202 133.283953,152.436762 133.269127,153.094003 C133.269127,153.094003 133.427344,153.966312 133.700131,154.973899 C133.972918,155.981486 128.945452,155.368071 128.945452,155.368071 Z" id="Path" fill="#2D293D"></path>
                    <g id="Group" opacity="0.1" transform="translate(115.036145, 151.211982)" fill="#000000">
                        <path d="M4.62346227,0.473377222 C4.78212406,0.600141175 4.91392476,0.74445687 5.01425491,0.901277156 L5.01425491,0.901277156 L0.170627774,1.33124424 C0.386912434,1.07406884 0.505839342,0.777495536 0.514635384,0.473377222 C0.489866836,0.473377222 3.73454661,-0.231520737 4.62346227,0.473377222 Z" id="Path"></path>
                    </g>
                    <g id="Group" opacity="0.1" transform="translate(127.734940, 149.764977)" fill="#000000">
                        <path d="M5.22891566,0.933975702 L5.22891566,1.8074403 C4.51255422,2.98609133 1.04578313,2.7256305 0.0418313253,2.13630499 C0.118378175,2.10852947 0.191254533,2.07142011 0.258831325,2.02580645 C1.04316867,1.58907415 1.01963855,0.541968999 1.01963855,0.541968999 C1.01963855,0.541968999 4.09946988,-0.376221198 4.92563855,0.541968999 C5.03872112,0.662780296 5.14026068,0.794027227 5.22891566,0.933975702 Z" id="Path"></path>
                    </g>
                    <path d="M133.545548,146.677049 C133.342183,147.036383 133.170137,147.412925 133.031358,147.802415 L133.031358,150.762177 C132.282537,152.023797 128.41363,151.594846 127.89944,150.908525 C127.38525,150.222203 126.82613,148.46855 127.425187,148.158192 C128.024243,147.847833 128.496,146.343981 128.496,146.343981 C128.496,146.343981 127.857007,146.490329 126.868563,145.301883 C125.88012,144.113436 126.167168,141.426184 126.351877,140.780235 C126.536586,140.134285 126.351877,138.004669 126.351877,138.004669 C126.351877,138.004669 126.39431,136.490725 126.084798,136.003739 C125.775285,135.516753 125.158756,132.723525 125.158756,132.723525 C125.158756,132.723525 125.158756,131.78488 124.64207,131.285278 C124.125384,130.785676 123.775934,128.888199 123.775934,128.888199 C123.468852,128.406774 123.338156,127.831877 123.406516,127.263232 C123.508855,126.327109 122.767522,125.305196 122.767522,125.305196 L121.519487,121.242778 L120.32387,118.242644 L119.664908,120.008913 C119.664908,120.008913 119.477703,124.136936 119.622475,125.009977 C119.767247,125.883019 119.994389,128.179168 119.994389,128.179168 C119.994389,128.179168 119.245569,129.677973 119.582538,130.954733 C119.919507,132.231493 119.807184,134.97678 119.807184,134.97678 C119.807184,134.97678 120.139161,140.64398 119.849617,141.100686 C119.560073,141.557393 119.582538,142.685282 119.582538,142.685282 C119.582538,142.685282 121.107636,145.998297 120.613414,146.434818 C120.119193,146.871339 120.281437,148.122866 120.281437,148.122866 C120.281437,148.122866 121.312314,148.122866 120.880494,148.582096 C120.448674,149.041326 120.116697,151.415696 120.116697,151.415696 L115.623772,151.935484 C115.218157,151.338687 114.883066,150.695931 114.625345,150.020344 C114.026288,148.622468 114.727684,148.758723 115.346709,148.622468 C115.965734,148.486213 115.571355,148.102681 114.847495,147.643451 C114.123635,147.184221 114.537982,146.185017 114.537982,146.185017 C114.537982,146.185017 115.611292,144.353144 115.239378,144.18661 C114.867463,144.020076 114.810054,141.438801 114.810054,141.438801 C114.810054,141.438801 114.061233,138.3554 114.25343,137.52273 C114.445628,136.690061 113.65687,134.709316 113.65687,134.709316 L113.387295,132.334946 C112.585782,130.990993 112.293153,129.398972 112.563592,127.85367 L112.563592,124.220203 C112.563592,124.220203 111.532715,117.155127 111.367975,113.594834 C111.265636,111.301208 111.305573,108.177435 111.328038,106.239586 C111.348006,105.154592 111.367975,104.425376 111.367975,104.425376 L127.445155,102.737327 C127.468643,103.550315 127.565561,104.359433 127.734699,105.154592 C127.89944,106.050343 128.146551,107.198418 128.558402,108.656851 C129.711586,112.78235 129.012687,115.865751 129.012687,115.865751 L128.867915,121.09643 C128.867915,121.09643 130.290674,124.596166 129.981162,125.784612 C129.801093,126.500019 129.703926,127.234166 129.691618,127.972262 C129.691618,127.972262 132.846649,135.597497 132.517168,137.828042 C132.187687,140.058588 133.545548,143.535614 133.545548,143.535614 C133.545548,143.535614 133.917462,146.003344 133.545548,146.677049 Z" id="Path" fill="#297373"></path>
                    <path d="M129.166046,68.1402812 L128.874707,69.6003522 L128.8948,70.2397994 L128.914892,70.7273778 L127.352713,70.9032258 L127.18444,70.5488655 L127.18444,70.5488655 C126.852917,69.9307332 126.179824,68.6491745 125.976389,68.4706622 C125.68505,68.2042259 125.162649,64.1597225 125.788023,64.4021796 C126.165262,64.5633509 126.476022,64.8618476 126.664551,65.2441184 C126.616832,65.2547758 129.703516,65.630451 129.166046,68.1402812 Z" id="Path" fill="#FFCDD3"></path>
                    <path d="M129.228916,71.2222944 L127.15451,71.6267281 L127.111609,71.3620463 L126.987952,70.6590515 C127.217951,70.4022521 127.561005,70.2334977 127.940408,70.1905216 C128.319811,70.1475455 128.703916,70.2339325 129.006838,70.4303665 L129.11283,70.7818639 L129.228916,71.2222944 Z" id="Path" fill="#DCE6F2"></path>
                    <path d="M95.6144578,68.240848 L93.300881,69.4562212 L93.0824204,69.0296843 C92.8639598,68.5825914 92.5349528,67.8991046 92.448095,67.6652801 C92.3164922,67.2824247 91.355792,66.8122063 91.355792,66.8122063 C88.9316688,64.5510469 91.8137696,62.6110749 91.8137696,62.6110749 C93.3429939,59.6047606 95.0459338,63.6388746 95.0459338,63.6388746 C95.0459338,63.6388746 95.2880829,65.7484336 95.1117352,65.8974646 C94.9353875,66.0464955 94.9380196,66.6220634 94.9380196,66.6220634 C95.1593999,67.042384 95.3494019,67.4777615 95.5065436,67.9247996 L95.6144578,68.240848 Z" id="Path" fill="#FFCDD3"></path>
                    <path d="M95.6144578,68.9137433 L92.7260069,70.1797235 L92.6762564,69.6231064 L92.626506,69.2347689 C92.626506,69.2347689 94.3033879,67.9687887 94.7891861,68.0102114 C95.0374217,68.0542171 95.2930598,68.0542171 95.5412954,68.0102114 L95.5676339,68.4632718 L95.6144578,68.9137433 Z" id="Path" fill="#DCE6F2"></path>
                    <path d="M122.506024,76.6942622 C122.506024,76.6942622 112.677449,77.8589472 114.519023,77.2266896 C115.806071,76.7940923 116.298983,75.9455361 116.413083,74.9971497 C116.506646,74.2080162 116.298983,73.35946 116.052527,72.6202416 C115.820848,71.9740453 115.528875,71.3530764 115.180803,70.7662532 C115.180803,70.7662532 122.699994,66.4664262 121.205284,70.3716864 C120.973126,70.9628902 120.832183,71.5886136 120.787678,72.2256748 C120.736345,72.8576531 120.800617,73.4940375 120.977084,74.1010554 C121.228641,75.1042221 121.760828,76.0068545 122.506024,76.6942622 Z" id="Path" fill="#FFCDD3"></path>
                    <g id="Group" opacity="0.1" transform="translate(115.036145, 68.009217)" fill="#000000">
                        <path d="M7.00108018,2.10843803 C6.73956666,2.77239525 6.58133948,3.47502978 6.53228085,4.19022071 C5.74150395,4.87526316 4.86314915,4.82994907 3.72978812,4.82994907 C2.87719152,4.82994907 1.91383465,5.05118846 1.20805983,4.60870968 C0.946550079,3.88404617 0.616984517,3.18767333 0.22405892,2.52959253 C0.203489821,2.52959253 8.69081845,-2.29235993 7.00108018,2.10843803 Z" id="Path"></path>
                    </g>
                    <ellipse id="Oval" fill="#FFCDD3" cx="118.39759" cy="68.7327189" rx="4.10843373" ry="4.34101382"></ellipse>
                    <g id="Group" opacity="0.1" transform="translate(110.554217, 102.737327)" fill="#000000">
                        <path d="M16.4337349,2.71313364 C12.340018,3.43211406 6.51953246,4.35729263 5.58256429,4.04256912 C4.80993347,3.77125576 2.36694839,3.81737903 0.228110052,3.88249424 C0.250185218,2.71313364 0.269807589,1.92361175 0.269807589,1.92361175 L16.1271354,0.100385945 C16.167624,0.978809114 16.2701362,1.8523866 16.4337349,2.71313364 Z" id="Path"></path>
                    </g>
                    <path d="M131.46988,104.265921 C131.46988,104.265921 117.398331,106.689629 115.88719,106.220772 C114.376048,105.751915 106.62056,106.264327 106.62056,106.264327 C103.134689,108.603487 104.571555,105.157517 104.571555,105.157517 C104.571555,105.157517 104.274449,103.364076 104.676566,101.906264 C104.958781,100.83861 105.158297,99.7507822 105.273339,98.6524485 C105.273339,98.6524485 105.188818,96.346595 105.613986,95.8341831 C106.039155,95.3217713 106.528355,91.4530616 106.528355,91.4530616 C106.528355,91.4530616 106.909983,88.8371989 106.866441,88.2632976 C106.866441,87.5407969 106.909983,86.7977997 106.974014,86.0727369 L107.473459,83.3851366 C104.60229,83.0008277 95.8453507,77.6205029 95.8453507,77.6205029 C95.4201819,75.8142511 92.1673851,71.6047875 92.1673851,71.6047875 C92.1272741,71.2454236 92.0340527,70.8940071 91.8907693,70.5620293 C91.6576949,69.944573 95.1230761,68.7327189 95.1230761,68.7327189 C95.1230761,68.7327189 97.6843335,71.8814899 98.2247588,72.7320936 C98.7651841,73.5826973 100.606728,75.1558018 100.606728,75.1558018 C100.894468,75.1260637 101.185203,75.161979 101.457066,75.2608462 L101.500607,75.2813427 L101.500607,75.2813427 C102.117281,75.5254142 102.696655,75.8548637 103.221772,76.2600494 C104.084431,76.2403866 104.92164,76.553177 105.5602,77.1337116 C105.5602,77.1337116 107.132812,76.8980022 107.409428,77.1747046 C107.686044,77.451407 109.025581,77.1747046 109.025581,77.1747046 C109.025581,77.1747046 110.362557,74.3256945 111.256436,75.1558018 C112.150315,75.985909 115.889751,75.942354 115.889751,75.942354 C116.378951,75.2813427 117.613477,74.7945514 118.356242,74.558842 C119.002996,74.3393763 119.702905,74.3321955 120.354023,74.5383455 C120.635131,74.6219822 120.900719,74.750924 121.140329,74.9200923 L123.414725,77.1542081 C123.414725,77.1542081 124.075529,76.3036044 123.988447,76.1114499 C123.901364,75.9192955 124.756824,75.770696 124.756824,75.770696 L126.293578,75.3044012 C126.718747,75.1762983 127.100374,75.6451551 127.143916,75.6861481 C126.969995,75.1492028 126.900443,74.583916 126.939015,74.0208095 C127.046588,73.3188052 126.472866,72.6372974 126.472866,72.6372974 C127.809843,69.342489 130.850055,72.1069511 130.850055,72.1069511 C130.850055,72.1069511 131.190702,73.9003927 130.893597,74.5947108 C130.596491,75.2890289 131.190702,76.7417166 131.126671,77.1234634 C131.06264,77.5052103 131.275224,78.1662216 131.275224,78.8887223 C131.275224,79.6112231 130.893597,80.9947351 130.660522,81.6096294 C130.427448,82.2245237 128.596149,83.6105978 128.596149,83.6105978 C128.596149,83.6105978 128.491137,85.7985965 127.684341,87.0540056 C126.877545,88.3094147 127.343694,92.6469813 127.343694,92.6469813 C127.343694,92.6469813 128.112071,96.0288997 129.085349,97.1126508 C130.058627,98.1964019 131.46988,104.265921 131.46988,104.265921 Z" id="Path" fill="#297373"></path>
                    <g id="Group" opacity="0.1" transform="translate(106.072289, 94.055300)" fill="#000000">
                        <path d="M0.239036145,0.204131007 C0.239036145,0.204131007 5.42248298,0.353999342 5.97590361,1.85526662 L5.97590361,3.41854839 C5.68000371,3.59158053 5.31306073,3.59158053 5.01716082,3.41854839 C4.48192771,3.14206715 1.34847564,1.53227452 0.259821896,2.30487163 L0.259821896,0.204131007 L0.239036145,0.204131007 Z" id="Path"></path>
                    </g>
                    <path d="M106.819277,94.7788018 C106.819277,94.7788018 111.550201,94.8964151 112.048193,96.2189644 L112.048193,97.5703169 C111.774114,97.7069758 111.448296,97.7069758 111.174217,97.5703169 C110.706104,97.3134879 107.837671,95.9213308 106.819277,96.5886061 L106.819277,94.7788018 Z" id="Path" fill="#297373"></path>
                    <path d="M116.38,72.363583 C116.420536,72.5838253 116.541605,72.7827191 116.721202,72.9241107 C116.845564,72.9860337 116.982989,73.0195921 117.122901,73.022203 C118.427211,73.0992756 119.813798,73.1576639 121.018894,72.6718732 C121.249486,72.5919791 121.456341,72.4588819 121.621442,72.2841749 C121.84165,72.0319374 121.882788,71.6839431 121.962643,71.349962 C122.122355,70.7287105 122.504695,70.1681827 122.766041,69.5866352 C123.206228,68.5845197 123.351909,67.4847429 123.187098,66.4079759 C123.151837,66.0776147 123.041978,65.758728 122.865256,65.4737631 C122.524054,64.9903079 121.882788,64.7964587 121.413333,64.4087604 C120.943878,64.0210621 120.651073,63.4395145 120.106602,63.147573 C119.622628,62.8953355 119.0225,62.9140198 118.480448,63.0121122 C117.39765,63.1821025 116.360508,63.5575748 115.42899,64.1168189 C115.126507,64.310668 114.765946,64.5045172 114.424744,64.4461289 C114.113891,64.3542345 113.849266,64.1545716 113.681843,63.8856012 C113.423989,64.4589246 113.313571,65.0839169 113.36,65.7073163 C113.379383,65.7966548 113.379383,65.8888995 113.36,65.978238 C113.316838,66.0883075 113.248132,66.1873751 113.159151,66.267844 C112.837308,66.6368581 112.636459,67.2020569 112.958302,67.5687354 C113.098654,67.7228805 113.318863,67.8186374 113.442276,67.975118 C113.684263,68.264724 113.601988,68.6921264 113.601988,69.0611405 C113.571079,69.2238945 113.636561,69.3897276 113.77186,69.4913474 C113.90716,69.5929673 114.089802,69.613493 114.245673,69.5445956 C114.426501,69.4873703 114.617775,69.4674773 114.807084,69.4862073 C115.013637,69.5500582 115.191283,69.6802972 115.310417,69.8552214 C115.896026,70.6376247 116.121074,71.4503899 116.38,72.363583 Z" id="Path" fill="#2D293D"></path>
                    <g id="Group" opacity="0.1" transform="translate(113.542169, 64.391705)" fill="#000000">
                        <path d="M8.78693722,8.08640438 C8.62862623,8.26532403 8.42614292,8.39988218 8.1995688,8.47673387 C7.02011414,8.96347005 5.67317692,8.90468548 4.40172479,8.82708986 C4.26448567,8.83447812 4.12815287,8.800913 4.01014585,8.73068318 C3.83459004,8.58774513 3.71652298,8.38658648 3.67753963,8.164 C3.42277743,7.26577189 3.20575777,6.42632834 2.59951807,5.68564286 C2.49198966,5.50754789 2.32232197,5.37526097 2.12301839,5.31412442 C1.93770153,5.29514535 1.75045173,5.31517242 1.57339252,5.37290899 C1.39532898,5.42427721 1.20327937,5.37975702 1.06622701,5.25533986 C0.994322569,5.14606723 0.959587122,5.01663713 0.967152822,4.88617281 C0.967152822,4.51465438 1.04499683,4.08435138 0.811464807,3.79277995 C0.674648066,3.61642627 0.478858592,3.53883065 0.339682942,3.38128802 C0.158630186,3.13892496 0.127722766,2.8163387 0.259480025,2.54419585 C0.0448192771,2.89455184 -0.0518960051,3.36247696 0.200507292,3.67521083 C0.339682942,3.83040207 0.554343691,3.92916014 0.672289157,4.08435138 C0.908180089,4.37827419 0.827977172,4.80622581 0.827977172,5.17774424 C0.797847569,5.34160283 0.86167917,5.50856134 0.993570198,5.61087084 C1.12546123,5.71318035 1.30350217,5.73384538 1.45544705,5.66448041 C1.63182981,5.60738164 1.81834055,5.58814899 2.00271401,5.60804724 C2.20389204,5.67138269 2.37711937,5.80171881 2.49336715,5.97721429 C3.08073557,6.72025115 3.3142676,7.5596947 3.5690298,8.45557143 C3.56776867,8.63203187 3.63737223,8.80166324 3.76232945,8.92666344 C3.88728666,9.05166364 4.05721358,9.12164514 4.23424223,9.12101267 L4.29321497,9.12101267 C5.567026,9.19860829 6.91632213,9.25739286 8.09105897,8.7683053 C8.31614767,8.68847594 8.5179303,8.55438342 8.67842739,8.37797581 C8.75606088,8.27840689 8.81590858,8.16625223 8.85534559,8.04643088 C8.82703868,8.04643088 8.8058085,8.06524194 8.78693722,8.08640438 Z" id="Path"></path>
                        <path d="M0.707672796,2.09273041 C0.764512895,2.02919391 0.810710621,1.95694255 0.844489537,1.87875461 C0.863383521,1.78880981 0.863383521,1.69593903 0.844489537,1.60599424 C0.811511182,1.09106364 0.877976354,0.574608798 1.04027901,0.0846497696 L1.02140774,0.0634873272 C0.768868434,0.640350814 0.661182625,1.26987652 0.707672796,1.89756567 L0.707672796,2.09273041 Z" id="Path"></path>
                    </g>
                    <path d="M166.666787,127.012293 C165.562387,127.61677 161.349398,127.190398 161.349398,127.190398 C161.349398,127.190398 163.568058,123.226214 164.662597,122.621737 C165.730678,121.922752 167.114163,122.303935 167.752698,123.473132 C168.391232,124.64233 168.043015,126.156792 166.974934,126.855777 C166.871396,126.898953 166.790046,126.966417 166.666787,127.012293 Z" id="Path" fill="#297373"></path>
                    <g id="Group" opacity="0.1" transform="translate(160.602410, 122.271889)" fill="#297373">
                        <path d="M5.94655766,4.59858065 C4.75137694,5.16580645 0.192082616,4.76570968 0.192082616,4.76570968 C0.192082616,4.76570968 2.59311532,1.04582258 3.77762478,0.478596774 C4.93350163,-0.177312629 6.43070844,0.180379361 7.12172978,1.27752419 C7.81275112,2.37466903 7.43591127,3.79580027 6.28003442,4.45170968 C6.16798623,4.49222581 6.07994836,4.55553226 5.94655766,4.59858065 Z" id="Path"></path>
                    </g>
                    <path d="M154.2754,129.172121 C155.436396,129.796514 159.855422,129.356094 159.855422,129.356094 C159.855422,129.356094 157.559287,125.261301 156.400877,124.636908 C155.258513,124.126666 153.944412,124.65196 153.386808,125.841741 C152.829205,127.031522 153.216621,128.483532 154.2754,129.172121 L154.2754,129.172121 Z" id="Path" fill="#297373"></path>
                    <g id="Group" opacity="0.1" transform="translate(153.132530, 124.442396)" fill="#297373">
                        <path d="M1.24497992,4.56606112 C2.36297189,5.16314092 6.61831325,4.74198642 6.61831325,4.74198642 C6.61831325,4.74198642 4.40722892,0.826315789 3.29172691,0.229235993 C2.19167754,-0.258686531 0.926251639,0.243629188 0.389301918,1.38136485 C-0.147647804,2.51910052 0.225418549,3.90759364 1.24497992,4.56606112 L1.24497992,4.56606112 Z" id="Path"></path>
                    </g>
                    <path d="M163.496685,135.666181 C162.365808,136.413233 157.614458,136.741935 157.614458,136.741935 C157.614458,136.741935 159.367734,132.757658 160.498611,132.010606 C161.072603,131.695379 161.763361,131.59881 162.417212,131.742384 C163.071062,131.885957 163.633772,132.257765 163.980155,132.775089 C164.599371,133.720474 164.397938,134.925019 163.496685,135.666181 L163.496685,135.666181 Z" id="Path" fill="#297373"></path>
                    <path d="M153.463051,139.321017 C154.548394,140.043822 159.108434,140.359447 159.108434,140.359447 C159.108434,140.359447 157.425752,136.504485 156.340409,135.78168 C155.326222,135.042343 153.847032,135.157682 152.988041,136.04308 C152.12905,136.928477 152.196268,138.268516 153.140381,139.080082 L153.471051,139.321017 L153.463051,139.321017 Z" id="Path" fill="#297373"></path>
                    <g id="Group" opacity="0.1" transform="translate(157.614458, 131.677419)" fill="#297373">
                        <path d="M5.84891566,4.4725597 C4.75442892,5.26183494 0.155971084,5.60911605 0.155971084,5.60911605 C0.155971084,5.60911605 1.85282892,1.39964809 2.94731566,0.610372853 C3.50283788,0.277328888 4.17136842,0.175302048 4.80417878,0.326990322 C5.43698914,0.478678597 5.98159192,0.871500454 6.31682892,1.41806452 C6.91611962,2.41688195 6.72116816,3.68950735 5.84891566,4.4725597 L5.84891566,4.4725597 Z" id="Path"></path>
                    </g>
                    <g id="Group" opacity="0.1" transform="translate(153.132530, 134.571429)" fill="#297373">
                        <path d="M1.11962002,4.57253456 C2.17201112,5.3618098 6.59360519,5.70645999 6.59360519,5.70645999 C6.59360519,5.70645999 4.96201112,1.49699204 3.90962002,0.707716799 C2.92622437,-0.0996106263 1.49194343,0.0263354223 0.659032019,0.993155101 C-0.173879395,1.95997478 -0.108702029,3.42324488 0.806746988,4.30944282 L1.1273772,4.57253456 L1.11962002,4.57253456 Z" id="Path"></path>
                    </g>
                    <path d="M160.284996,146.870968 C160.255248,146.762376 157.310121,136.079055 160.852702,128.304431 C162.347679,125.081495 162.79751,121.439034 162.134377,117.9262 C161.8096,116.252107 161.337403,114.612841 160.72379,113.029246 L161.105566,112.866359 C161.729184,114.474707 162.208052,116.140049 162.535986,117.840878 C163.218185,121.445158 162.757893,125.183064 161.224561,128.490588 C157.738999,136.117838 160.651898,146.643443 160.681646,146.749449 L160.284996,146.870968 Z" id="Path" fill="#535461"></path>
                    <path d="M163.590361,107.322662 C163.590361,108.570155 160.979367,112.142857 160.979367,112.142857 C160.979367,112.142857 158.368373,108.54801 158.368373,107.322662 C158.264132,106.08197 159.348609,105.003483 160.790621,104.913795 C162.232633,104.824106 163.486119,105.757179 163.590361,106.997871 L163.590361,107.322662 Z" id="Path" fill="#297373"></path>
                    <path d="M157.644044,117.583097 C158.573861,118.457865 162.843373,119.37788 162.843373,119.37788 C162.843373,119.37788 161.788733,115.182511 160.879296,114.307743 C160.016601,113.406991 158.584614,113.345878 157.646329,114.16977 C156.708043,114.993662 156.603224,116.404217 157.40968,117.35435 C157.47743,117.440294 157.556211,117.517187 157.644044,117.583097 Z" id="Path" fill="#297373"></path>
                    <g id="Group" opacity="0.1" transform="translate(158.361446, 104.907834)" fill="#297373">
                        <path d="M5.22891566,2.72900401 C5.22891566,4.030608 2.71628408,7.75827858 2.71628408,7.75827858 C2.71628408,7.75827858 0.203652505,4.0075026 0.203652505,2.72900401 C0.103337821,1.43449608 1.14696006,0.309229442 2.53464808,0.215650556 C3.9223361,0.122071669 5.12860075,1.09561695 5.22891566,2.39012487 L5.22891566,2.72900401 Z" id="Path"></path>
                    </g>
                    <g id="Group" opacity="0.1" transform="translate(156.120482, 112.866359)" fill="#297373">
                        <path d="M0.988825301,4.34101382 C2.01126506,5.28518433 6.70608434,6.27819124 6.70608434,6.27819124 C6.70608434,6.27819124 5.54638554,1.7499712 4.54635542,0.805800691 C3.59772411,-0.16641467 2.02309009,-0.232375873 0.991337364,0.656881472 C-0.0404153676,1.54613882 -0.155676622,3.06860383 0.731114458,4.09411866 C0.805613684,4.18688171 0.892242612,4.26987497 0.988825301,4.34101382 Z" id="Path"></path>
                    </g>
                    <path d="M166.844202,113.616039 C166.13177,114.667246 162.096386,116.483871 162.096386,116.483871 C162.096386,116.483871 162.161389,112.21443 162.876421,111.160737 C163.280289,110.444661 164.055434,109.991083 164.906354,109.972916 C165.757275,109.95475 166.552837,110.374795 166.989756,111.072921 C167.426674,111.771047 167.437616,112.639668 167.01841,113.347646 C166.975237,113.444644 166.91742,113.53507 166.846802,113.616039 L166.844202,113.616039 Z" id="Path" fill="#297373"></path>
                    <g id="Group" opacity="0.1" transform="translate(162.096386, 109.972350)" fill="#297373">
                        <path d="M4.73092369,4.01026991 C4.0486747,5.10327518 0.184257028,6.99213298 0.184257028,6.99213298 C0.184257028,6.99213298 0.246506024,2.55292956 0.93124498,1.45734036 C1.31800204,0.712791379 2.06030659,0.241178022 2.87517644,0.222289277 C3.69004629,0.203400532 4.45190296,0.640147319 4.87031057,1.36603252 C5.28871818,2.09191771 5.29919652,2.99507616 4.897751,3.73120474 C4.85640737,3.83206046 4.8010396,3.9260818 4.73341365,4.01026991 L4.73092369,4.01026991 Z" id="Path"></path>
                    </g>
                </g>
                <text id="Collaboration" font-family="CenturyGothic, Century Gothic" font-size="25" font-weight="normal" letter-spacing="0.303571432" fill="#393939">
                    <tspan x="94" y="243">Collaboration</tspan>
                </text>
                <rect id="Rectangle-Copy" stroke="#297373" x="0" y="0" width="359" height="260"></rect>
            </g>
        </g>
    </g>
</svg>