<?xml version="1.0" encoding="UTF-8"?>
<svg width="361px" height="262px" viewBox="0 0 361 262" version="1.1" xmlns="http://www.w3.org/2000/svg" xmlns:xlink="http://www.w3.org/1999/xlink">
    <!-- Generator: Sketch 57.1 (83088) - https://sketch.com -->
    <title>Values / Community</title>
    <desc>Created with Sketch.</desc>
    <g id="Symbols" stroke="none" stroke-width="1" fill="none" fill-rule="evenodd">
        <g id="Values" transform="translate(1.000000, 1.000000)">
            <g id="Values-/-Community">
                <g id="Community" transform="translate(60.000000, 32.000000)" fill-rule="nonzero">
                    <path d="M111.31173,115.124338 L106.893131,119.309697 C105.880271,123.574824 103.401298,124.295234 103.401298,124.295234 C96.6860401,125.469329 99.7195539,119.232421 99.7195539,119.232421 L103.996353,112.115567 L104.502782,111.235619 C104.502782,111.235619 107.541361,110.330744 109.567079,110.864197 C109.818403,110.935299 110.049734,111.062387 110.243163,111.235619 C111.526962,112.327452 111.31173,115.124338 111.31173,115.124338 Z" id="Path" fill="#535461"></path>
                    <path d="M138.439322,119.220822 C135.179094,120.121017 132.902193,116.893669 133.099384,116.075085 C133.296575,115.256501 130.120482,108.883415 130.120482,108.883415 L130.383404,107.19184 L130.606887,105.631336 L135.949455,105.999823 L136.454264,107.00636 L139.575144,113.218696 C139.564627,113.193965 141.673258,118.335465 138.439322,119.220822 Z" id="Path" fill="#535461"></path>
                    <path d="M137.559638,97.2065374 C136.638045,98.6683325 137.559638,105.493421 137.559638,105.493421 C134.52142,108.257404 130.926194,106.225585 130.926194,106.225585 L130.38691,89.5403469 C130.38691,89.5403469 124.404151,75.8065669 120.153177,76.1865829 C115.902202,76.566599 108.919363,91.3872249 108.919363,91.3872249 C108.919363,91.3872249 110.841036,104.092428 110.489109,105.202075 C110.137182,106.311722 110.489109,111.649681 110.489109,111.649681 C109.840956,112.759328 103.126493,111.649681 103.126493,111.649681 L101.204819,87.6757349 L103.782242,82.3276423 C105.270969,77.1011549 107.759776,71.492118 109.248503,68.350652 C110.008058,66.779919 110.494173,65.8324123 110.494173,65.8324123 L115.393301,64.8038355 L131.311035,61.4976959 L137.022886,82.2997745 C138.131836,84.3265267 138.795181,88.9373881 138.795181,88.9373881 C138.795181,88.9373881 138.468572,95.7168745 137.559638,97.2065374 Z" id="Path" fill="#B1EDE8"></path>
                    <g id="Group" opacity="0.1" transform="translate(101.204819, 61.497696)" fill="#B1EDE8">
                        <path d="M31.0028082,44.6811266 L30.4677598,28.0866474 C30.4677598,28.0866474 24.5597246,14.4275718 20.3643446,14.8055208 C20.1798329,14.821209 19.9991034,14.8671681 19.8292961,14.9415824 C23.9196666,16.314797 29.0251291,28.1143637 29.0251291,28.1143637 L29.5576773,44.7088429 C30.6724746,45.2765479 31.9254803,45.5100332 33.1680043,45.381592 C32.4152773,45.2597858 31.6852405,45.0236106 31.0028082,44.6811266 Z" id="Path"></path>
                        <path d="M3.54532113,50.0958755 L1.64764924,26.2548548 L4.18787934,20.9131761 C5.6580125,15.715118 8.11823535,10.1365912 9.58836851,7.01221313 C10.3384365,5.45002407 10.8184799,4.50767132 10.8184799,4.50767132 L15.6564182,3.48468946 L29.9852161,0.503931953 L29.9027086,0.206612101 L14.186285,3.4947681 L9.34834677,4.51774996 C9.34834677,4.51774996 8.86580306,5.46010271 8.11823535,7.02229177 C6.61809947,10.1466699 4.16037685,15.7251966 2.71774617,20.9232547 L0.177516079,26.2296582 L2.07518797,50.0731985 C2.07518797,50.0731985 5.71051726,50.6653186 7.85071112,50.5292569 C6.40857462,50.4673725 4.9711121,50.3226772 3.54532113,50.0958755 L3.54532113,50.0958755 Z" id="Path"></path>
                    </g>
                    <path d="M93.0112477,37.6221198 C93.0112477,37.6221198 88.3250856,37.8842095 88.9780754,43.2264305 L90.2817955,43.4101382 L92.2633597,41.1052185 L93.253012,39.1456693 L93.253012,38.6998719 L93.0112477,37.6221198 Z" id="Path" fill="#CED2DF"></path>
                    <path d="M150.627978,39.7926267 C150.627978,39.7926267 154.889997,41.9034223 153.796469,44.3602119 L152.4389,44.8571429 L150.627978,43.9282999 L150.361446,41.7431969 L150.548267,40.2291829 L150.627978,39.7926267 Z" id="Path" fill="#CED2DF"></path>
                    <path d="M119.957494,16.640553 L123.656991,16.640553 C126.827437,16.640553 129.39759,19.231959 129.39759,22.4285855 L129.39759,22.4285855 C129.396182,25.6246239 126.826853,28.2151703 123.656991,28.2165899 L119.957494,28.2165899 C116.787632,28.2151703 114.218303,25.6246239 114.216867,22.4285855 L114.216867,22.4285855 C114.212132,20.892044 114.815414,19.4170503 115.893019,18.3305461 C116.970624,17.2440419 118.433538,16.6357784 119.957494,16.640553 L119.957494,16.640553 Z" id="Path" fill="#88455E"></path>
                    <path d="M93.253012,38.972483 L90.0447544,44.1336406 L89.769833,43.2035649 L85.4064008,28.8839574 C85.2497885,28.39501 85.2685341,27.8661828 85.4593673,27.3897375 C86.5666197,24.7011581 90.4483088,15.700262 91.8506604,19.9186379 C93.4976669,24.8104293 89.0131684,30.0783169 89.0131684,30.0783169 C89.5176114,34.3703873 91.9238047,37.4680983 92.841891,38.5277747 C93.0915903,38.8022232 93.253012,38.972483 93.253012,38.972483 Z" id="Path" fill="#F8B9BF"></path>
                    <path d="M150.361446,41.3695685 C150.361446,41.3695685 155.486856,36.4612284 155.292091,34.492185 C155.292091,34.492185 150.443452,26.5589377 152.880585,24.7818695 C154.800051,23.3679978 157.703596,30.5255614 158.854251,33.5478744 C159.151918,34.3684543 159.081748,35.2795891 158.662048,36.0435526 L152.511555,47.0276498 L150.361446,41.3695685 Z" id="Path" fill="#F8B9BF"></path>
                    <path d="M117.244423,28.2414403 C117.244423,28.2414403 118.207932,34.0340737 115.404756,36.1935754 C112.601581,38.3530771 123.388115,38.3456221 123.388115,38.3456221 L127.228916,34.9908149 C127.228916,34.9908149 122.784599,31.111664 124.142511,28.2165899 L117.244423,28.2414403 Z" id="Path" fill="#F8B9BF"></path>
                    <path d="M117.622546,34.3772357 C117.622546,34.3772357 121.654702,37.2932325 125.715271,34.0046083 L132.289157,47.1841137 L131.901698,63.279616 C131.901698,63.279616 118.286392,70.1019482 112.65274,65.9405256 C107.019088,61.779103 111.712506,59.5758499 111.712506,59.5758499 L110.387397,47.1841137 L111.795164,39.181378 C111.795164,39.181378 114.336895,35.3575708 114.530624,35.3575708 C114.724354,35.3575708 117.622546,34.3772357 117.622546,34.3772357 Z" id="Path" fill="#EBF1F6"></path>
                    <path d="M117.731799,32.5576037 C117.731799,32.5576037 113.748177,34.7056125 109.657372,34.593631 C108.879892,34.5719255 108.124889,34.8551962 107.554551,35.3825916 C106.383198,36.5024066 104.336519,38.2839305 103.05288,38.2839305 C102.779819,38.2839305 94.8865827,39.8618517 94.8865827,39.8618517 L92.7863132,37.7672886 C92.7863132,37.7672886 89.6754644,43.8346499 88.1927711,43.5623313 L90.892753,47.0719334 C90.892753,47.0719334 95.9966887,49.3039283 102.680292,46.6112822 L106.595011,46.6112822 L108.636585,52.8949715 C108.636585,52.8949715 107.615798,61.4132007 106.781305,63.2634405 C105.946811,65.1136804 107.054365,68.7327189 107.054365,68.7327189 L114.393825,68.4604002 C114.393825,68.4604002 114.77662,64.8413617 115.320189,64.3883456 C115.863758,63.9353295 113.383245,48.0085059 113.383245,48.0085059 C113.383245,48.0085059 111.719362,39.0296255 117.831325,35.7923421 L117.731799,32.5576037 Z" id="Path" fill="#CACFD6"></path>
                    <path d="M153.975904,45.2428089 L149.919506,49.8574468 C149.692847,50.107967 149.423937,50.318058 149.124636,50.4784538 L149.124636,50.4784538 C148.748186,50.6878123 148.323659,50.7990361 147.891307,50.8015794 C146.383619,50.8571167 143.724653,50.8823609 141.504147,50.4506852 C138.488771,49.8852154 136.211855,48.5346512 134.48622,49.2894525 C134.288575,49.3718763 134.103825,49.4815214 133.937503,49.6151025 C133.937503,49.6151025 131.606741,56.7667814 133.19648,59.3568353 C134.786219,61.9468891 137.583646,66.2409258 136.273394,67.3466213 C136.102114,67.4884313 135.918502,67.6151402 135.724677,67.7252841 C134.516989,68.3740598 133.037506,67.9953969 130.763154,65.7057489 C128.158034,63.0349137 127.883676,58.55407 127.883676,58.55407 L128.55034,46.9695115 C128.55034,46.9695115 126.027271,38.2526928 123.614458,36.4982217 L124.737531,32.5576037 L124.875992,32.6383851 C125.617016,33.1230735 129.288799,35.445539 133.811863,35.740896 C134.370246,35.7772072 134.905368,35.9747728 135.350319,36.3088902 C136.630598,37.3822179 137.715402,38.6628157 138.558002,40.0955187 C140.609278,43.3772633 145.632339,43.0364668 145.632339,43.0364668 C146.84129,42.6573262 148.022646,42.1976625 149.168226,41.6606584 L149.168226,41.6606584 C150.016941,41.2289828 150.706683,40.7695385 150.811811,40.3378629 L150.811811,40.5903048 C150.857964,41.6783294 151.263091,46.6186172 153.975904,45.2428089 Z" id="Path" fill="#CACFD6"></path>
                    <g id="Group" opacity="0.1" transform="translate(117.108434, 28.216590)" fill="#000000">
                        <path d="M6.68051516,0.153077856 L0.0174491068,0.153077856 C0.155600998,1.12471105 0.200642222,2.10556757 0.152056502,3.08440456 C2.22234499,4.42227322 4.93108121,4.59822842 7.18653926,3.54135338 C6.5484005,2.47209314 6.17449107,1.22690759 6.68051516,0.153077856 Z" id="Path"></path>
                    </g>
                    <ellipse id="Oval" fill="#F8B9BF" cx="121.084337" cy="25.6843318" rx="6.86746988" ry="6.87327189"></ellipse>
                    <path d="M120.78853,24.0314477 C121.528223,23.9494834 122.238328,23.6754153 122.975555,23.81373 C123.636347,23.9494834 124.188651,24.4156554 124.846978,24.5514087 C126.114318,24.8254769 127.27317,23.8675191 128.222443,22.9633504 L130.278789,21.0192596 C130.727536,20.5812628 131.200939,20.1432661 131.437641,19.5413407 C131.674343,18.9394154 131.597908,18.171 131.094917,17.7867924 C130.355224,17.2386561 129.038571,17.7867924 128.513389,17.018377 C128.266824,16.6623446 128.301343,16.1961726 128.170664,15.7863511 C127.906841,14.9359715 127.009347,14.5056589 126.138975,14.4723609 C125.268603,14.4390629 124.479597,14.7720429 123.661004,15.0179358 C121.950147,15.5297911 120.162017,15.7035576 118.389459,15.5302127 C117.908124,15.439181 117.413519,15.4575313 116.939661,15.5840017 C116.351897,15.8482031 115.920558,16.3876213 115.778343,17.0363067 C115.383841,18.5142256 116.069289,20.9244883 116.764601,22.2666538 C117.459912,23.6088193 119.39051,24.1953763 120.78853,24.0314477 Z" id="Path" fill="#88455E"></path>
                    <path d="M109.156627,52.8156682 C109.156627,52.8156682 110.649855,52.9947529 111.423642,53.861523 C112.197429,54.7282931 113.493976,54.9861751 113.493976,54.9861751" id="Path" fill="#CACFD6"></path>
                    <path d="M96.19201,40.516129 C96.19201,40.516129 97.3455001,43.1426337 96.6377323,43.4080124 C95.9299644,43.673391 96.19201,45.5806452 96.19201,45.5806452" id="Path" fill="#CACFD6"></path>
                    <path d="M96.2245489,39.7926267 C96.2245489,39.7926267 103.946704,38.2469376 104.221603,38.2469376 C105.471142,38.2469376 107.470406,36.5142699 108.629978,35.4223153 C108.984856,35.0948176 109.413386,34.8571303 109.879518,34.7292482 L109.772058,34.7292482 C109.01069,34.7079862 108.271335,34.9854705 107.712816,35.5020928 C106.565739,36.5940474 104.561477,38.3267151 103.30444,38.3267151 C103.092019,38.3267151 98.1488399,39.3239339 96.1445783,39.7128492 L96.2245489,39.7926267 Z" id="Path" fill="#CACFD6"></path>
                    <path d="M117.831325,32.9572069 L117.831325,32.5576037 C116.011628,33.634013 114.060173,34.3664268 112.048193,34.7281106 C114.046846,34.5285059 116.002323,33.9297023 117.831325,32.9572069 Z" id="Path" fill="#CACFD6"></path>
                    <path d="M108.623838,68.6511419 C108.623838,68.6511419 107.528244,65.0260648 108.356193,63.1727377 C109.184141,61.3194107 110.174678,52.7869682 110.174678,52.7869682 L108.173594,46.3041475 L104.346521,46.3041475 L104.096386,46.5590755 L107.255597,46.5590755 L109.256681,52.8685452 C109.256681,52.8685452 108.256139,61.4009877 107.438196,63.2543147 C106.620253,65.1076418 107.705841,68.7327189 107.705841,68.7327189 L114.939759,68.4599459 L114.939759,68.4038617 L108.623838,68.6511419 Z" id="Path" fill="#CACFD6"></path>
                    <path d="M137.01364,65.7951185 C136.842715,65.9422167 136.660231,66.0743567 136.468078,66.1901689 C135.269881,66.8643883 133.796354,66.4693379 131.535076,64.0832332 C129.46245,61.8867527 128.863351,58.4498138 128.730785,57.156682 L128.674699,58.1416745 C128.674699,58.1416745 128.94748,62.8427748 131.537625,65.6028606 C133.77341,67.9968663 135.272431,68.3919167 136.470628,67.7097963 C136.663338,67.5948856 136.845895,67.4626931 137.01619,67.3147459 C137.398593,66.9776361 137.424087,66.3297534 137.232885,65.5133158 C137.166784,65.6128248 137.093493,65.7070276 137.01364,65.7951185 L137.01364,65.7951185 Z" id="Path" fill="#CACFD6"></path>
                    <path d="M153.250403,45.0161356 L150.575045,48.0600766 C150.344769,48.3145643 150.071567,48.5279826 149.767489,48.6909187 L149.767489,48.6909187 C149.38525,48.904125 148.953803,49.0171478 148.514473,49.0191617 C146.98272,49.0755784 144.281312,49.1012224 142.025363,48.6627103 C138.961857,48.088285 136.651203,46.7163318 134.895418,47.4830869 C134.694619,47.5668161 134.50692,47.6781977 134.337943,47.8138944 C134.337943,47.8138944 132.806191,52.5016149 133.035432,55.7096774 C133.228204,52.7221531 134.337943,49.2986811 134.337943,49.2986811 C134.506999,49.1637727 134.694708,49.053249 134.895418,48.9704381 C136.651203,48.2011185 138.933202,49.5448634 142.025363,50.1500614 C144.281312,50.5885736 146.974905,50.5603652 148.514473,50.5065128 C148.950607,50.4810029 149.376917,50.3684533 149.767489,50.1757054 L149.767489,50.1757054 C150.072125,50.0136012 150.345465,49.8000754 150.575045,49.5448634 L154.698795,44.8571429 C154.266602,45.1268004 153.732321,45.1854494 153.250403,45.0161356 Z" id="Path" fill="#CACFD6"></path>
                    <g id="Group" transform="translate(36.144578, 78.138249)" fill="#808080">
                        <polygon id="Path" points="0.38 0.335 0.88 0.335 0.88 0.335 0.38 0.335"></polygon>
                        <rect id="Rectangle" x="0.38" y="0.335" width="1" height="1"></rect>
                        <rect id="Rectangle" x="0.38" y="0.335" width="1" height="1"></rect>
                    </g>
                    <path d="M45.5421687,81.7557604 L45.2869804,83.0885873 L45.0955893,84.1060124 L44.7408776,85.9551825 L41.4234305,88.2672811 L40.632347,87.6135855 C39.2670899,86.499505 36.4038779,84.212842 34.275608,82.9893883 C33.7359513,82.6360438 33.1481005,82.3619225 32.5301205,82.1754482 L45.5421687,81.7557604 Z" id="Path" fill="#FFBDC6"></path>
                    <path d="M43.5829023,83.059698 C43.5829023,83.059698 47.479436,83.80225 47.6960517,81.9039752 C47.9126674,80.0057003 45.7082843,79.0320038 43.8275506,78.8788705 C41.9468168,78.7257373 30.6139943,79.6503156 30.6139943,79.6503156 C30.6139943,79.6503156 28.6236785,82.7014239 35.8178674,83.1839382 L43.5829023,83.059698 Z" id="Path" fill="#7679B4"></path>
                    <g id="Group" opacity="0.1" transform="translate(30.361446, 78.861751)" fill="#000000">
                        <path d="M13.1251964,4.13481567 C13.1251964,4.13481567 16.9697224,4.83209101 17.1834468,3.04956221 C17.3971713,1.26703341 15.2222106,0.352707373 13.3665794,0.20891129 C11.5109481,0.0651152074 0.329387114,0.933317972 0.329387114,0.933317972 C0.329387114,0.933317972 -1.63436354,3.7983871 5.46380304,4.25148041 L13.1251964,4.13481567 Z" id="Path"></path>
                    </g>
                    <rect id="Rectangle" fill="#A66477" x="31.0843373" y="28.2165899" width="20.2409639" height="23.875576"></rect>
                    <path d="M7.22891566,69.969115 C6.9238243,70.0484029 6.51385778,70.3680323 6.08243953,70.8189824 C4.17085146,72.7788808 1.4250292,77.4147465 1.4250292,77.4147465 C-2.09305557,73.0687772 1.8063934,69.6519633 3.46294416,68.4601667 C3.87052715,68.1677924 4.12556446,68.0092166 4.12556446,68.0092166 L7.22891566,69.969115 Z" id="Path" fill="#F8B9BF"></path>
                    <path d="M44.6286566,35.4516129 C44.6286566,35.4516129 45.6376789,42.6169206 49.0254713,44.3169864 C52.4132637,46.0170521 44.6286566,49.1981567 44.6286566,49.1981567 L33.9759036,45.0992252 C33.9759036,45.0992252 40.0300374,43.0654042 38.8040753,37.0421652 L44.6286566,35.4516129 Z" id="Path" fill="#F8B9BF"></path>
                    <path d="M33.9759036,78.1382488 L33.7207654,79.4715966 L33.5294118,80.4894193 L33.1747697,82.3393121 L29.8579731,84.6497696 C29.8579731,84.6497696 29.55691,84.3953139 29.0670446,83.9983631 C27.7020553,82.8813026 24.8394047,80.5962907 22.7115521,79.3723589 C22.1711061,79.0188418 21.5825245,78.7446194 20.9638554,78.5581007 L33.9759036,78.1382488 Z" id="Path" fill="#F8B9BF"></path>
                    <path d="M31.2979115,79.4430203 C31.2979115,79.4430203 35.1878263,80.1832162 35.4066181,78.2864641 C35.6254099,76.3897119 33.4196832,75.3806166 31.5167033,75.2562868 C29.6137233,75.131957 18.3230483,76.0109397 18.3230483,76.0109397 C18.3230483,76.0109397 16.3412015,79.0526825 23.5206258,79.5355448 L31.2979115,79.4430203 Z" id="Path" fill="#535461"></path>
                    <path d="M54.741296,105.308402 C54.5801211,105.227848 54.4441298,105.147294 54.2829549,105.056671 L53.8800177,104.553211 L48.5738384,97.8244568 L48.5738384,97.9327009 C48.5486549,99.0629704 48.1709012,107.944019 45.1816109,108.779764 C42.0034437,109.665855 38.1553934,109.882343 36.4051349,103.961644 C34.6548765,98.040945 31.4767093,85.1221407 28.1927711,84.3417764 L33.0657929,80.3291938 C33.0657929,80.3291938 36.2968456,84.1051498 37.6164649,87.732585 C37.561061,87.4808546 35.3272779,77.0743197 37.1858258,75.2442396 L53.2050979,75.2442396 C53.2050979,75.2442396 55.6831617,82.2675179 57.3780163,85.7665705 C58.6976356,88.4852589 60.6644729,94.8641073 61.9563903,99.1963875 C63.1954222,103.506012 58.7782231,107.274416 54.741296,105.308402 Z" id="Path" fill="#FF6978"></path>
                    <path d="M54.2168675,76.4513981 C51.7269301,77.9321227 40.825863,77.3290546 37.2807387,77.0826949 L36.3065255,77.000575 L36.1445783,77.000575 L36.3065255,76.9441175 L37.1719305,76.6874928 L39.0393835,69.0888347 L53.1895153,60.7741935 C52.8909252,61.6518501 52.8099517,62.9965637 52.8377863,64.5337458 C52.9465946,69.4814705 54.2168675,76.4513981 54.2168675,76.4513981 Z" id="Path" fill="#F2F1F2"></path>
                    <g id="Group" opacity="0.1" transform="translate(36.144578, 77.414747)" fill="#000000">
                        <path d="M0.63,0.54 C0.469569222,0.634533915 0.266045948,0.612146355 0.13,0.485 C0.292382592,0.531347186 0.461425606,0.549941917 0.63,0.54 Z" id="Path"></path>
                    </g>
                    <path d="M43.8183859,44.2995011 C43.8183859,44.2995011 40.888143,44.6223619 38.8349796,42.4380073 C38.8349796,42.4380073 30.1513941,44.9603567 27.2211512,50.6633885 C24.2909083,56.3664203 4.3373494,67.563129 4.3373494,67.563129 C4.3373494,67.563129 7.79832508,69.5305615 7.47938708,70.5294118 L20.6131544,62.8488581 C20.6131544,62.8488581 25.275131,59.4512536 26.593242,58.6693253 C27.911353,57.887397 35.0650327,53.1680814 36.5824799,66.032063 C38.0999272,78.8960445 36.5824799,77.3574114 36.5824799,77.3574114 C36.5824799,77.3574114 38.7402949,78.1393397 41.912233,71.9646286 C45.0841711,65.7899174 54.8317139,64.3849688 54.8317139,64.3849688 L55.3649383,57.9126205 C55.3649383,57.9126205 57.3109585,53.6246266 55.8184283,51.8186245 C55.3684866,51.2873179 55.0650739,50.6451858 54.9388571,49.9571307 C54.6896868,48.3125589 54.9388571,45.5631982 58.4023245,43.2956061 C63.7295858,39.7920629 65.7831325,36.9317187 65.7831325,36.9317187 C65.7831325,36.9317187 65.8874008,34.8558252 62.6382199,33.8569749 C59.3890389,32.8581246 46.1481284,27.4930876 46.1481284,27.4930876 L45.7220471,29.3545814 L56.1373663,36.8232577 C56.1373663,36.8232577 50.9421652,41.1112516 46.8134131,41.0053129 C46.7486288,41.0103576 47.5210568,44.1834731 43.8183859,44.2995011 Z" id="Path" fill="#297373"></path>
                    <g id="Group" opacity="0.1" transform="translate(38.313253, 36.898618)" fill="#000000">
                        <path d="M6.47951807,2.6890169 C6.22618603,1.84433109 6.03689373,0.981718827 5.91325301,0.108525346 L0.34939759,1.5796467 C0.589447312,2.64644984 0.544569006,3.75771042 0.219277108,4.80164363 C2.54211194,5.42297468 5.01078565,4.59051883 6.48433735,2.6890169 L6.47951807,2.6890169 Z" id="Path"></path>
                    </g>
                    <ellipse id="Oval" fill="#F8B9BF" cx="40.4819277" cy="35.4516129" rx="6.5060241" ry="6.51152074"></ellipse>
                    <g id="Group" opacity="0.1" transform="translate(48.433735, 96.225806)" fill="#FF6978">
                        <path d="M5.26024096,8.48029818 L0.18313253,1.65469233 L0.18313253,1.76194091 C0.18313253,1.76194091 -0.0987951807,-0.449422608 0.853012048,0.288549742 C2.96626506,1.89983193 6.36626506,4.57593928 6.41927711,5.03812957 C6.47228916,5.50031987 5.72289157,7.3592952 5.26024096,8.48029818 Z" id="Path"></path>
                    </g>
                    <path d="M43.7741872,21.0375338 C45.5047495,21.2256517 47.1797317,21.9781231 48.8799775,22.3794411 C49.3081007,22.516829 49.7659705,22.535047 50.2037945,22.4321141 C50.8783349,22.2189139 51.4189777,21.5467061 52.093518,21.5467061 C52.5280533,21.5467061 52.9044822,21.8426782 53.2556474,22.1110597 C53.8185975,22.5390902 54.3512335,23.0050495 54.8497858,23.50564 C56.0371789,24.7923661 56.7672993,26.4829185 57.8485849,27.8774989 C58.9298706,29.2720792 60.62759,30.3430968 62.1686747,29.7009879 C61.1151791,33.7141687 57.7121611,36.8068262 54.0388216,37.0476171 C52.553317,37.1554713 51.0678125,36.8344168 49.637888,37.2633255 C49.2830995,37.4052112 48.9095694,37.4956005 48.5288124,37.531707 C47.7178481,37.531707 47.0433078,36.7792356 46.530455,36.056863 C45.343062,34.33872 44.3704102,32.409885 43.0188031,30.8547774 C42.5867942,30.3531298 42.0461513,29.8339245 41.4246647,29.7536609 C40.8031782,29.6733973 40.2094816,29.9693694 39.656207,30.2377508 C38.7366089,30.7193325 37.7917472,31.2034225 37.0616267,32.0336493 C36.3315063,32.863876 35.8994973,34.0728468 36.1976088,35.171455 C36.3592963,35.7608909 36.7382516,36.2976539 36.7382516,36.9146804 C36.7382516,37.9179756 35.8742336,38.6303152 35.684756,39.5959869 C35.656966,39.997305 35.6317023,40.4011313 35.6317023,40.83004 C35.5483321,42.1443567 34.6843142,43.2429649 33.7672425,44.0757 C33.4160773,44.3967544 33.009332,44.7453995 32.9284882,45.2545718 C32.8476444,45.6032169 32.9284882,45.951862 32.8754345,46.3005071 C32.741537,47.1583245 31.8648872,47.5872332 31.1069767,47.6950874 C30.2114669,47.8305194 29.2956956,47.7194721 28.4593427,47.374033 C29.5406284,46.8723854 30.189905,45.4426897 29.9448473,44.1559636 C29.5936821,42.3851475 27.8125925,41.0984214 27.97428,39.3000148 C28.0535619,38.7429089 28.2170916,38.200876 28.4593427,37.6922342 C28.8494178,36.7156514 29.1306768,35.6996196 29.298097,34.6622827 C29.4834194,33.8652032 29.4643091,33.0346951 29.2425169,32.2468495 C28.9898801,31.5495593 28.5401865,31.0153046 28.1359676,30.4233605 C27.5973392,29.6275094 27.172245,28.7614759 26.8727835,27.8499083 C26.756755,27.579595 26.7199744,27.2822451 26.766676,26.9920909 C26.8491249,26.648652 27.0371948,26.3392049 27.3047924,26.1066828 C28.2774442,25.0883382 29.3258871,24.0148123 30.6547568,23.7213485 C31.2793702,23.6137522 31.9152823,23.5859358 32.5470066,23.6385766 C33.6435692,23.6744735 34.7413053,23.6300409 35.8312854,23.50564 C36.7230934,23.3977858 38.2616517,23.4253764 39.0195621,22.8359405 C39.7218925,22.2991775 40.1261115,21.629478 41.0179195,21.2808329 C41.9068607,20.9964644 42.8486576,20.9133309 43.7741872,21.0375338 L43.7741872,21.0375338 Z" id="Path" fill="#A66477"></path>
                    <path d="M178.450109,89.4190654 C178.450109,89.4190654 176.933113,86.9795432 174.643919,89.2012057 C172.354725,91.4228681 170.728127,98.7895665 170.728127,98.7895665 C170.728127,98.7895665 169.841344,104.75031 172.778188,103.205026 C172.778188,103.205026 176.240626,98.2474505 177.227047,98.032124 C178.213468,97.8167976 179.277108,95.053019 179.277108,95.053019 L178.450109,89.4190654 Z" id="Path" fill="#493545"></path>
                    <path d="M195.297043,95.3054972 C195.297043,95.3054972 193.148076,94.2842053 192.450902,95.0859194 C191.753728,95.8876336 189.489871,103.63158 189.489871,103.63158 C189.489871,103.63158 188.82142,108.73804 191.082666,108.518462 C193.343911,108.298884 197.349398,100.274083 197.349398,100.274083 L195.297043,95.3054972 Z" id="Path" fill="#493545"></path>
                    <g id="Group" opacity="0.05" transform="translate(189.397590, 94.778802)" fill="#000000">
                        <path d="M5.87151185,0.749811479 C5.87151185,0.749811479 3.76043529,-0.24993716 3.07555383,0.534865522 C2.39067237,1.3196682 0.166731442,8.90026225 0.166731442,8.90026225 C0.166731442,8.90026225 -0.489933929,13.8990054 1.7314419,13.6840595 C3.95281772,13.4691135 7.88767975,5.6135886 7.88767975,5.6135886 L5.87151185,0.749811479 Z" id="Path"></path>
                    </g>
                    <path d="M201.594816,80.1108462 L206.426692,87.5633598 C206.426692,87.5633598 206.096131,89.2257064 203.170147,88.8968065 L193.144844,95.084713 C193.144844,95.084713 192.261625,102.664707 195.050736,101.968663 C195.492345,101.85903 198.640425,98.6414207 200.905286,98.8606873 L214.187135,93.7614648 C214.187135,93.7614648 217.332632,91.9767369 215.648835,86.099883 C213.965039,80.2230291 208.39973,66.562212 208.39973,66.562212 L199.593371,71.4421679 L201.594816,80.1108462 Z" id="Path" fill="#3E3D77"></path>
                    <path d="M201.594816,80.1108462 L206.426692,87.5633598 C206.426692,87.5633598 206.096131,89.2257064 203.170147,88.8968065 L193.144844,95.084713 C193.144844,95.084713 192.261625,102.664707 195.050736,101.968663 C195.492345,101.85903 198.640425,98.6414207 200.905286,98.8606873 L214.187135,93.7614648 C214.187135,93.7614648 217.332632,91.9767369 215.648835,86.099883 C213.965039,80.2230291 208.39973,66.562212 208.39973,66.562212 L199.593371,71.4421679 L201.594816,80.1108462 Z" id="Path" fill="#297373"></path>
                    <path d="M205.292096,91.7587367 C205.940407,95.971154 202.217033,96.2963587 202.217033,96.2963587 C202.217033,96.2963587 185.413921,96.6215634 183.418536,96.1871102 C181.423151,95.7526571 178.807203,96.9493088 178.807203,96.9493088 C175.409246,94.8558034 178.158892,89.6398248 178.158892,89.6398248 C178.158892,89.6398248 185.199499,89.4238685 186.844242,89.0986638 C188.488984,88.7734591 196.851439,88.3110587 196.851439,88.3110587 C196.851439,88.3110587 196.203128,84.2078899 191.806217,73.8038798 C188.814401,66.74084 190.998982,62.586858 192.724448,60.6559551 C193.163101,60.1422322 193.672843,59.6947278 194.238014,59.3271889 L207.749119,59.9775984 C207.721877,60.6671844 207.748869,61.3578603 207.829842,62.0431564 C208.065386,64.3902713 208.676171,66.6835917 209.638554,68.8343454 C208.881771,68.8343454 203.919795,73.4786751 203.919795,73.4786751 C203.919795,73.4786751 204.618558,87.5488601 205.292096,91.7587367 Z" id="Path" fill="#297373"></path>
                    <rect id="Rectangle" fill="#493545" x="192.289157" y="18.8110599" width="6.5060241" height="17.3640553"></rect>
                    <g id="Group" opacity="0.1" transform="translate(191.566265, 18.811060)" fill="#000000">
                        <rect id="Rectangle" x="0.196213425" y="0.168607493" width="6.9707401" height="17.1124023"></rect>
                    </g>
                    <path d="M202.616007,16.0107838 C202.887843,16.018092 203.13483,16.1749437 203.262544,16.4213724 C203.366803,16.683839 203.421443,16.964276 203.423549,17.2477143 L203.853735,22.7144823 C203.861549,23.0729111 203.925249,23.4277409 204.042412,23.7654859 C204.228575,24.1244281 204.525428,24.1786568 204.766936,24.4265594 C205.252467,24.8965413 205.3858,26.110231 205.252467,27.0786003 C205.119135,28.0469697 204.794609,28.8862232 204.553101,29.7822877 C204.175745,31.0527883 203.934237,32.4885573 203.423549,33.5369786 C202.91286,34.5853998 201.969471,35.194827 201.37828,34.2832686 C200.787089,33.3717102 200.875138,31.5769989 200.731743,30.0870012 C200.545581,27.602811 199.602191,25.4388282 199.521689,22.9623849 C199.468859,20.9481765 200.00722,19.0424256 200.32923,17.139257 C200.580801,15.8119453 200.580801,14.2109079 200.920421,13.0230415 C201.217274,14.4381519 201.780793,15.7628813 202.616007,16.0107838 Z" id="Path" fill="#493545"></path>
                    <g id="Group" opacity="0.1" transform="translate(199.518072, 12.299539)" fill="#000000">
                        <path d="M3.09879518,3.16894009 C3.35916955,3.17616685 3.59574366,3.33127033 3.71807229,3.57495256 C3.81793576,3.8344938 3.8702726,4.11180531 3.87228916,4.39208458 L4.28433735,9.79792356 C4.29182277,10.1523575 4.3528367,10.5032326 4.46506024,10.8372133 C4.64337349,11.1921551 4.92771084,11.2457793 5.15903614,11.4909189 C5.62409639,11.9556628 5.75180723,13.1558254 5.62409639,14.113402 C5.49638554,15.0709786 5.18554217,15.9008783 4.95421687,16.7869558 C4.59277108,18.0432963 4.36144578,19.4630632 3.87228916,20.4997994 C3.38313253,21.5365356 2.47951807,22.1391705 1.91325301,21.2377718 C1.34698795,20.336373 1.4313253,18.5616644 1.2939759,17.0882732 C1.11566265,14.6317701 0.212048193,12.4919057 0.134939759,10.0430632 C0.0843373494,8.05130388 0.6,6.16679317 0.908433735,4.284836 C1.14939759,2.9723177 1.14939759,1.38912442 1.4746988,0.214497154 C1.75903614,1.61383573 2.29879518,2.92380049 3.09879518,3.16894009 Z" id="Path"></path>
                    </g>
                    <path d="M173.493976,8.56966556 L170.95928,10.8525346 C170.95928,10.8525346 170.646982,10.4557439 170.208797,9.83410517 C168.448793,7.374003 164.398605,1.23697394 167.257703,0.13389587 C170.116802,-0.969182199 172.390039,5.03293804 173.157469,7.52213819 C173.392298,8.17287489 173.493976,8.56966556 173.493976,8.56966556 Z" id="Path" fill="#F8B9BF"></path>
                    <path d="M221.044791,7.95808686 C219.964208,9.58695364 218.465175,7.95808686 218.465175,7.95808686 C218.465175,7.95808686 218.280565,7.66623783 217.990112,7.18481166 C217.123676,5.66570007 215.385881,2.33063899 216.513233,0.998610105 C217.827655,-0.522995924 221.091559,4.65295901 221.190018,7.08004535 C221.232878,7.38090883 221.182114,7.68782913 221.044791,7.95808686 L221.044791,7.95808686 Z" id="Path" fill="#F8B9BF"></path>
                    <path d="M194.457831,26.4236906 C194.457831,26.4236906 196.60382,33.33345 195.949734,35.3709749 C195.295649,37.4084998 200.533233,39.7926267 200.533233,39.7926267 L206.505745,39.7926267 C206.505745,39.7926267 208.651734,35.3709749 208.102988,34.0736929 C207.554242,32.776411 202.995241,31.8257311 202.995241,31.8257311 C202.995241,31.8257311 200.322554,31.8257311 200.427894,24.5990783 L194.457831,26.4236906 Z" id="Path" fill="#F8B9BF"></path>
                    <path d="M195.775124,31.5686871 C195.775124,31.5686871 193.174986,32.4545057 189.51544,29.0592858 C189.51544,29.0592858 181.293246,20.8761283 180.762302,18.8911919 L174.395932,7.60892383 C174.395932,7.60892383 171.689109,10.5624891 170.60241,10.1333815 L177.737904,22.6803878 C177.737904,22.6803878 179.037973,25.0944318 180.218952,25.7393479 C180.218952,25.7393479 189.078775,37.2223681 189.18546,39.5034138 C189.292146,41.7844596 193.155138,47.9550773 193.155138,47.9550773 C193.155138,47.9550773 194.455207,57.9073627 192.162718,59.6513966 C192.162718,59.6513966 204.816064,62.9261652 207.495596,60.7530237 C207.495596,60.7530237 206.302212,48.4117883 207.495596,47.0968621 C207.495596,47.0968621 211.155142,42.7229757 208.68898,37.9199817 C208.68898,37.9199817 208.158036,35.2901291 209.56479,33.9752029 C210.971545,32.6602766 217.261002,22.9564219 217.261002,22.9564219 C217.261002,22.9564219 218.774441,20.7832804 218.774441,19.3604499 C218.774441,19.3604499 221.585469,9.75697131 221.161209,7.23502304 C221.161209,7.23502304 218.680161,7.77203491 217.935847,7.23502304 C217.935847,7.23502304 214.27382,18.5022347 213.82475,18.9313423 C213.37568,19.3604499 210.376093,28.216127 206.381605,29.2198875 C202.387118,30.223648 201.717235,30.6201334 201.717235,30.6201334 C201.717235,30.6201334 209.495321,35.5410693 205.724128,37.7393048 C201.952934,39.9375403 195.775124,31.5686871 195.775124,31.5686871 Z" id="Path" fill="#FF6978"></path>
                    <g id="Group" opacity="0.1" transform="translate(194.457831, 23.875576)" fill="#000000">
                        <path d="M6.37590361,3.20979669 C6.24203455,2.16017902 6.18848983,1.10151467 6.21575533,0.0434101382 L0.11510658,1.92536731 C0.279669421,2.33782804 0.405353018,2.76534887 0.490454124,3.20213608 C1.18609824,3.50089997 2.12196478,4.26696124 2.95273401,4.26696124 C4.1763746,4.30604823 5.37883224,3.93469778 6.37590361,3.20979669 L6.37590361,3.20979669 Z" id="Path"></path>
                    </g>
                    <ellipse id="Oval" fill="#F8B9BF" cx="197.349398" cy="22.4285714" rx="5.78313253" ry="5.78801843"></ellipse>
                    <path d="M190.711376,13.82185 C189.425031,13.9311378 187.986897,14.8003572 188.069223,16.0762289 C188.097523,16.7827874 188.583761,17.3470175 188.812731,18.0332434 C189.30926,19.6649359 188.179849,21.2661295 187.189363,22.6538306 C186.198877,24.0415318 185.264991,25.8587594 186.116551,27.327791 C186.358825,27.6840909 186.625281,28.0237473 186.914085,28.3444219 C187.96117,29.7575388 187.96117,31.6332228 188.426827,33.3437042 C189.661437,37.8259385 194.228496,40.5718797 198.825641,39.595984 C197.99982,38.5422758 197.589344,37.2281983 197.670503,35.8979892 C197.724529,34.9220236 198.053834,33.9155591 197.670503,33.0183823 C197.173974,31.8772142 195.743558,31.4146471 195.002623,30.4107241 C194.261688,29.4068012 194.313142,28.0191 194.670746,26.8220172 C195.02835,25.6249343 195.635505,24.5142651 195.93651,23.2917665 C196.018836,22.9384873 196.101162,22.5852081 196.211787,22.2319288 C196.726325,20.7908546 198.26994,19.9445094 199.787827,19.568356 C201.305714,19.1922025 202.895636,19.1871194 204.382651,18.6991366 C205.869666,18.2111538 207.297509,17.0954014 207.46988,15.5729967 C206.232416,16.0635211 205.077278,14.7851077 203.868113,14.1878371 C201.889715,13.2093299 199.633465,14.1319224 197.598467,14.3504981 C195.249601,14.5817816 193.049951,13.6312317 190.711376,13.82185 Z" id="Path" fill="#493545"></path>
                    <g id="Group" opacity="0.1" transform="translate(198.072289, 47.027650)" fill="#FF6978">
                        <path d="M9.23835341,0.156666667 C9.23835341,0.156666667 6.27811245,0.156666667 4.91024096,0.586666667 C3.54236948,1.01666667 0.25060241,0.586666667 0.25060241,0.586666667" id="Path"></path>
                    </g>
                    <g id="Group" opacity="0.1" transform="translate(170.602410, 6.511521)" fill="#FF6978">
                        <path d="M35.5020864,30.7720797 C35.2590696,30.9086844 34.9976187,31.0089448 34.7259477,31.0697112 C35.4315074,31.2284375 36.1703041,31.1226223 36.8039965,30.7720797 C40.6321128,28.5877665 32.7630679,23.6263992 32.7630679,23.6263992 L31.4511431,23.6263992 C31.4586541,23.6516222 39.3076697,28.5877665 35.5020864,30.7720797 Z" id="Path"></path>
                        <path d="M51.1074816,0.365733734 C51.1074816,0.285020082 51.0799412,0.232051748 51.0799412,0.176561113 C50.6242727,0.257274764 50.1711078,0.337988416 49.7154393,0.393479051 C50.1783951,0.451104053 50.6471505,0.441761114 51.1074816,0.365733734 L51.1074816,0.365733734 Z" id="Path"></path>
                        <path d="M23.161481,52.8977094 C25.43732,51.1447098 24.1629503,41.1412616 24.1629503,41.1412616 C24.1629503,41.1412616 20.2296797,34.9918902 20.1220217,32.6738951 C20.0143638,30.3558999 11.0737467,18.8390707 11.0737467,18.8390707 C9.86947987,18.1908392 8.57007346,15.7643851 8.57007346,15.7643851 C8.57007346,15.7643851 1.15419336,3.57410138 0.0575844843,3.15287701 L7.25814869,15.7643851 C7.25814869,15.7643851 8.57007346,18.1908392 9.77434029,18.8390707 C9.77434029,18.8390707 18.7149574,30.3811229 18.8226153,32.6738951 C18.9302733,34.9666672 22.8635439,41.1412616 22.8635439,41.1412616 C22.8635439,41.1412616 24.1754687,51.1447098 21.8620746,52.8977094 C21.8620746,52.8977094 29.7035792,54.9155507 34.3804408,54.7314227 C29.6910608,54.5977407 23.161481,52.8977094 23.161481,52.8977094 Z" id="Path"></path>
                        <path d="M25.5174376,24.7715241 L25.4623567,24.6908105 C25.3822392,24.7185558 25.3021217,24.7185558 25.2495445,24.7437788 C25.3397237,24.7392258 25.430064,24.7485823 25.5174376,24.7715241 L25.5174376,24.7715241 Z" id="Path"></path>
                    </g>
                    <g id="Group" opacity="0.1" transform="translate(207.469880, 6.511521)" fill="#FF6978">
                        <path d="M14.2625238,0.177258065 L14.2067216,0.205112903 C14.1001902,3.58820968 11.7387445,11.549629 11.7387445,11.549629 C11.7387445,12.9828871 10.1940393,15.1758226 10.1940393,15.1758226 C10.1940393,15.1758226 3.79454661,24.9781935 2.35637286,26.3050968 C0.918199112,27.632 1.4610019,30.2832742 1.4610019,30.2832742 L1.4610019,30.311129 C1.40773621,29.4172419 1.51680406,28.0320968 2.43753963,27.1964516 C3.87571338,25.8720806 10.2752061,16.0697097 10.2752061,16.0697097 C10.2752061,16.0697097 11.8199112,13.8767742 11.8199112,12.4409839 C11.8199112,12.4080645 14.6962587,2.72217742 14.2625238,0.177258065 Z" id="Path"></path>
                        <path d="M0.190234623,39.5437419 C0.352568167,40.4908065 0.243500317,39.4880323 0.296766011,40.437629 C0.296766011,40.437629 3.0082435,37.2697742 2.27774255,33.3473065 C2.49334179,36.8367581 0.190234623,39.5437419 0.190234623,39.5437419 Z" id="Path"></path>
                    </g>
                    <g id="Group" opacity="0.1" transform="translate(9.397590, 134.571429)" fill="#297373">
                        <ellipse id="Oval" cx="115.278547" cy="11.2219318" rx="115.119945" ry="11.1989935"></ellipse>
                    </g>
                    <path d="M80.1633654,134.571429 C80.1299148,134.440154 76.70458,121.253298 80.8212259,111.66038 C82.5553266,107.682556 83.0759005,103.185682 82.3041996,98.8500076 C81.9299336,96.7836356 81.3834516,94.7604022 80.6718135,92.8064445 L81.1178206,92.6082949 C81.8407155,94.5927429 82.3961485,96.6474573 82.7769672,98.7459791 C83.566661,103.194817 83.032878,107.808215 81.2560828,111.890729 C77.2197182,121.302835 80.5870721,134.291542 80.6249827,134.430247 L80.1633654,134.571429 Z" id="Path" fill="#535461"></path>
                    <path d="M83.8554217,86.3423373 C83.8554217,87.9634428 80.9677303,92.6082949 80.9677303,92.6082949 C80.9677303,92.6082949 78.0800388,87.9361348 78.0800388,86.3423373 C77.9640884,84.7299534 79.1629554,83.3278269 80.7577833,83.2106 C82.3526112,83.0933731 83.7394711,84.3054373 83.8554217,85.9178212 L83.8554217,86.3423373 Z" id="Path" fill="#297373"></path>
                    <path d="M88.3601315,95.2587285 C87.4670516,96.6748069 82.4096386,99.1198157 82.4096386,99.1198157 C82.4096386,99.1198157 82.4905976,93.3697579 83.3836776,91.9510812 C84.1956627,90.5206483 85.9711064,90.0176478 87.3823464,90.8182193 C88.7935864,91.6187909 89.3243379,93.4300552 88.5777091,94.8975636 C88.5202935,95.026888 88.447188,95.1482385 88.3601315,95.2587285 Z" id="Path" fill="#297373"></path>
                    <path d="M87.8277005,111.048539 C86.4006133,111.740372 80.9638554,111.252019 80.9638554,111.252019 C80.9638554,111.252019 83.8155608,106.722789 85.240179,106.030956 C86.6180928,105.232404 88.402782,105.668082 89.226394,107.00407 C90.0500059,108.340059 89.6006556,110.070445 88.2227419,110.868998 C88.0918844,110.919269 87.975841,110.995874 87.8277005,111.048539 L87.8277005,111.048539 Z" id="Path" fill="#297373"></path>
                    <path d="M85.7453527,121.613949 C84.4119191,122.570524 78.7951807,122.995392 78.7951807,122.995392 C78.7951807,122.995392 80.8679943,117.867158 82.2039775,116.910583 C82.8835391,116.505325 83.7013998,116.38233 84.4747116,116.569096 C85.2480234,116.755863 85.9122926,117.236815 86.3190096,117.904427 C87.0598306,119.121936 86.8201275,120.679231 85.7453527,121.631341 L85.7453527,121.613949 Z" id="Path" fill="#297373"></path>
                    <path d="M76.1250844,99.7764779 C77.2505692,100.869589 82.4096386,102.013825 82.4096386,102.013825 C82.4096386,102.013825 81.1336112,96.7819873 80.0344116,95.6840074 C78.9942193,94.5515799 77.2573828,94.4710093 76.1204855,95.5024431 C74.9835882,96.5338768 74.8615635,98.3008726 75.8455054,99.4843324 C75.9260147,99.5935274 76.0199791,99.6917153 76.1250844,99.7764779 L76.1250844,99.7764779 Z" id="Path" fill="#297373"></path>
                    <path d="M73.1048521,113.208916 C74.5859804,113.919648 80.2409639,113.417955 80.2409639,113.417955 C80.2409639,113.417955 77.3043769,108.765 75.8206817,108.054268 C74.3470544,107.423397 72.6160913,108.013637 71.8898724,109.394632 C71.1636534,110.775627 71.6986794,112.459609 73.1048521,113.218754 L73.1048521,113.208916 Z" id="Path" fill="#297373"></path>
                    <path d="M71.6784581,126.61032 C73.0459545,127.614082 78.7951807,128.059908 78.7951807,128.059908 C78.7951807,128.059908 76.6734735,122.678706 75.3059772,121.677552 C74.492399,120.897419 73.3156118,120.626841 72.2425187,120.973173 C71.1694255,121.319506 70.3735177,122.226755 70.1705802,123.33496 C69.9676428,124.443165 70.3904855,125.573158 71.2713409,126.276603 L71.688897,126.61032 L71.6784581,126.61032 Z" id="Path" fill="#297373"></path>
                    <g id="Group" opacity="0.1" transform="translate(78.072289, 83.202765)" fill="#297373">
                        <path d="M5.7253012,3.41270471 C5.7253012,5.10866832 2.89156627,9.96800662 2.89156627,9.96800662 C2.89156627,9.96800662 0.0578313253,5.08009926 0.0578313253,3.41270471 C-0.0559525463,1.72586544 1.12051365,0.258992633 2.68554218,0.136352534 C4.25057071,0.0137124337 5.61151715,1.28174635 5.7253012,2.96858561 L5.7253012,3.41270471 Z" id="Path"></path>
                    </g>
                    <g id="Group" opacity="0.1" transform="translate(82.409639, 90.437788)" fill="#297373">
                        <path d="M5.95050973,4.8695961 C5.06719184,6.26127406 0.065060241,8.66415289 0.065060241,8.66415289 C0.065060241,8.66415289 0.145134384,3.0131743 1.02845227,1.6189428 C1.83156171,0.213157668 3.58759845,-0.281175658 4.98341254,0.505601256 C6.37922662,1.29237817 6.90417652,3.07243261 6.16570899,4.51465438 C6.10892098,4.64175036 6.03661458,4.76100987 5.95050973,4.8695961 Z" id="Path"></path>
                    </g>
                    <g id="Group" opacity="0.1" transform="translate(80.963855, 105.631336)" fill="#297373">
                        <path d="M7.29096386,5.42684608 C5.78212851,6.09594101 0.033935743,5.62363871 0.033935743,5.62363871 C0.033935743,5.62363871 3.04899598,1.24326636 4.55522088,0.574171429 C6.01206598,-0.198135339 7.89898789,0.22322374 8.769779,1.51530329 C9.64057011,2.80738284 9.16547956,4.48089865 7.70863454,5.25320553 C7.57028112,5.30182488 7.44759036,5.37591152 7.29096386,5.42684608 L7.29096386,5.42684608 Z" id="Path"></path>
                    </g>
                    <g id="Group" opacity="0.1" transform="translate(78.795181, 116.483871)" fill="#297373">
                        <path d="M6.93546687,5.5890553 C5.63584337,6.58387097 0.161521084,7.02572416 0.161521084,7.02572416 C0.161521084,7.02572416 2.18177711,1.6924786 3.48388554,0.697662936 C4.14621645,0.276202972 4.94333979,0.148290985 5.69704371,0.342524093 C6.45074763,0.5367572 7.09817392,1.03693654 7.49457831,1.73123766 C8.21661535,2.99741905 7.98299005,4.61697007 6.93546687,5.60714286 L6.93546687,5.5890553 Z" id="Path"></path>
                    </g>
                    <g id="Group" opacity="0.1" transform="translate(75.180723, 94.055300)" fill="#297373">
                        <path d="M1.16968519,5.41949903 C2.37784687,6.57220158 7.91589584,7.77881671 7.91589584,7.77881671 C7.91589584,7.77881671 6.54613292,2.26176156 5.36618733,1.10392448 C4.24958366,-0.0902381091 2.38516101,-0.175201133 1.16474845,0.912462021 C-0.055664114,2.00012517 -0.186652571,3.86345005 0.869568597,5.11142708 C0.955992102,5.22657493 1.056859,5.33011556 1.16968519,5.41949903 L1.16968519,5.41949903 Z" id="Path"></path>
                    </g>
                    <g id="Group" opacity="0.1" transform="translate(71.566265, 107.801843)" fill="#297373">
                        <path d="M1.55401033,5.40697389 C2.98409639,6.10394777 8.44419966,5.61196621 8.44419966,5.61196621 C8.44419966,5.61196621 5.60881239,1.04907834 4.17624785,0.352104455 C2.75340424,-0.266554834 1.08209304,0.312259669 0.380900822,1.66652268 C-0.320291394,3.0207857 0.196296691,4.67217108 1.55401033,5.41662058 L1.55401033,5.40697389 Z" id="Path"></path>
                    </g>
                    <g id="Group" opacity="0.1" transform="translate(70.120482, 120.824885)" fill="#297373">
                        <path d="M1.67370659,5.69820435 C3.01063076,6.65871603 8.6313253,7.08533291 8.6313253,7.08533291 C8.6313253,7.08533291 6.55705174,1.93599237 5.22012757,0.977975528 C4.42473804,0.231456361 3.27425953,-0.0274628994 2.2251568,0.303946751 C1.17605406,0.635356401 0.397939853,1.5035146 0.199539362,2.56397023 C0.00113887101,3.62442586 0.414528322,4.7057307 1.275691,5.37886541 L1.68391212,5.69820435 L1.67370659,5.69820435 Z" id="Path"></path>
                    </g>
                    <path d="M158.961708,134.571429 C158.925974,134.43767 155.497797,121.252512 159.61831,111.659028 C161.354476,107.680831 161.876552,103.184146 161.105714,98.8478991 C160.731173,96.782697 160.185408,94.7602886 159.475376,92.8064562 L159.922044,92.6082949 C160.641486,94.5952581 161.193977,96.6516536 161.572482,98.7512954 C162.361986,103.194757 161.827398,107.80246 160.049344,111.879482 C156.004766,121.292144 159.379342,134.281618 159.419542,134.420331 L158.961708,134.571429 Z" id="Path" fill="#535461"></path>
                    <path d="M162.650602,86.7681139 C162.650602,88.4643174 159.759036,93.3317972 159.759036,93.3317972 C159.759036,93.3317972 156.86747,88.4383021 156.86747,86.7681139 C156.921544,85.9565745 157.279144,85.2013206 157.861091,84.6695785 C158.443039,84.1378364 159.201319,83.8734783 159.968035,83.9350377 C161.393916,84.0667355 162.524822,85.2621901 162.650602,86.7707154 L162.650602,86.7681139 Z" id="Path" fill="#297373"></path>
                    <path d="M167.880519,95.2587285 C166.987091,96.6748069 161.927711,99.1198157 161.927711,99.1198157 C161.927711,99.1198157 162.008701,93.3697579 162.899598,91.9510812 C163.711899,90.5206483 165.488033,90.0176478 166.899822,90.8182193 C168.311611,91.6187909 168.842569,93.4300552 168.09565,94.8975636 C168.014659,95.0456672 167.961509,95.1470012 167.880519,95.2587285 Z" id="Path" fill="#297373"></path>
                    <path d="M168.061938,111.05002 C166.638716,111.738599 161.204819,111.253247 161.204819,111.253247 C161.204819,111.253247 164.05373,106.729666 165.476952,106.038696 C166.362586,105.518069 167.467489,105.494972 168.375455,105.978104 C169.283421,106.461237 169.856509,107.377199 169.878841,108.380958 C169.901174,109.384717 169.369358,110.323777 168.483725,110.844403 C168.348533,110.922896 168.207555,110.991621 168.061938,111.05002 L168.061938,111.05002 Z" id="Path" fill="#297373"></path>
                    <path d="M164.540533,122.336959 C163.20455,123.293874 157.590361,123.718894 157.590361,123.718894 C157.590361,123.718894 159.660625,118.591319 160.996609,117.634404 C161.676564,117.228886 162.49481,117.105784 163.268535,117.292601 C164.04226,117.479418 164.706983,117.960586 165.11419,118.628602 C165.855011,119.846544 165.615308,121.404394 164.540533,122.356843 L164.540533,122.336959 Z" id="Path" fill="#297373"></path>
                    <path d="M155.059726,99.7902978 C156.258359,100.875476 161.927711,102.013825 161.927711,102.013825 C161.927711,102.013825 160.530611,96.8199557 159.331978,95.7299441 C158.6038,94.9726835 157.494426,94.6324864 156.421747,94.8375018 C155.349068,95.0425172 154.47605,95.7615985 154.131549,96.7238745 C153.787048,97.6861505 154.023403,98.7454288 154.751581,99.5026894 C154.839628,99.6097192 154.943337,99.7048899 155.059726,99.7854641 L155.059726,99.7902978 Z" id="Path" fill="#297373"></path>
                    <path d="M152.664581,113.210884 C154.139615,113.917442 159.759036,113.419417 159.759036,113.419417 C159.759036,113.419417 156.81152,108.777722 155.339037,108.068711 C153.868597,107.414619 152.123662,108.002859 151.400181,109.396549 C150.6767,110.79024 151.236836,112.484359 152.664581,113.220697 L152.664581,113.210884 Z" id="Path" fill="#297373"></path>
                    <path d="M151.368681,126.6785 C152.703588,127.63505 158.313253,128.059908 158.313253,128.059908 C158.313253,128.059908 156.244657,122.931805 154.909751,121.975255 C154.230344,121.569892 153.412756,121.446836 152.639655,121.633582 C151.866554,121.820328 151.202366,122.301313 150.795487,122.969073 C150.045909,124.184752 150.286372,125.748203 151.368681,126.695892 L151.368681,126.6785 Z" id="Path" fill="#297373"></path>
                    <g id="Group" opacity="0.1" transform="translate(156.867470, 83.926267)" fill="#297373">
                        <path d="M5.6466506,2.94294082 C5.6466506,4.55673175 2.92626506,9.18771768 2.92626506,9.18771768 C2.92626506,9.18771768 0.205879518,4.53198035 0.205879518,2.94294082 C0.256752391,2.17083129 0.593182624,1.45227252 1.14067871,0.946365917 C1.6881748,0.44045931 2.40156473,0.188945474 3.12289157,0.247513946 C4.46435963,0.372812982 5.52831666,1.51018456 5.6466506,2.94541596 L5.6466506,2.94294082 Z" id="Path"></path>
                    </g>
                    <g id="Group" opacity="0.1" transform="translate(161.927711, 90.437788)" fill="#297373">
                        <path d="M5.75180723,4.80575766 C4.90120482,6.19743562 0.0843373494,8.60031445 0.0843373494,8.60031445 C0.0843373494,8.60031445 0.161445783,2.94933586 1.00963855,1.55510436 C1.7830032,0.14931923 3.47400155,-0.345014097 4.81811881,0.441762818 C6.16223607,1.22853973 6.66774339,3.00859417 5.95662651,4.45081594 C5.87951807,4.59636758 5.82891566,4.69595554 5.75180723,4.80575766 Z" id="Path"></path>
                    </g>
                    <g id="Group" opacity="0.1" transform="translate(160.481928, 105.631336)" fill="#297373">
                        <path d="M7.30923695,5.3689659 C5.80301205,6.03574562 0.0522088353,5.56575853 0.0522088353,5.56575853 C0.0522088353,5.56575853 3.06726908,1.18538618 4.57349398,0.516291244 C5.5107781,0.0121469854 6.68011951,-0.010219097 7.64103859,0.457618084 C8.60195767,0.925455266 9.20846795,1.81242011 9.23210287,2.78440153 C9.25573779,3.75638296 8.69290665,4.66571386 7.75562249,5.16985806 C7.61254601,5.24586556 7.46334652,5.31241518 7.30923695,5.3689659 L7.30923695,5.3689659 Z" id="Path"></path>
                    </g>
                    <g id="Group" opacity="0.1" transform="translate(157.590361, 116.483871)" fill="#297373">
                        <path d="M6.93049699,5.15374808 C5.62838855,6.0822427 0.156551205,6.49463902 0.156551205,6.49463902 C0.156551205,6.49463902 2.17432229,1.51935484 3.47643072,0.590860215 C4.13914493,0.197385954 4.93664429,0.0779398335 5.69075084,0.2592086 C6.4448574,0.440477366 7.09272568,0.907354506 7.48960843,1.55552995 C8.21164547,2.73729925 7.97802017,4.24888021 6.93049699,5.17304147 L6.93049699,5.15374808 Z" id="Path"></path>
                    </g>
                    <g id="Group" opacity="0.1" transform="translate(153.975904, 94.778802)" fill="#297373">
                        <path d="M1.19277108,5.35275011 C2.37015157,6.50545265 7.93898173,7.71463505 7.93898173,7.71463505 C7.93898173,7.71463505 6.56665371,2.1975799 5.38927322,1.03974283 C4.67400613,0.235362034 3.58430228,-0.126003631 2.53064257,0.0917687825 C1.47698286,0.309541196 0.61944327,1.07336688 0.281050656,2.09552008 C-0.0573419582,3.11767329 0.174822296,4.24286464 0.89008939,5.04724543 C0.976574847,5.16093508 1.07844549,5.26202774 1.19277108,5.34761558 L1.19277108,5.35275011 Z" id="Path"></path>
                    </g>
                    <g id="Group" opacity="0.1" transform="translate(151.084337, 107.801843)" fill="#297373">
                        <path d="M1.57383821,5.34668203 C3.00640275,6.04124424 8.46402754,5.55167435 8.46402754,5.55167435 C8.46402754,5.55167435 5.60137694,0.988786482 4.17129088,0.291812596 C2.74318817,-0.351174041 1.04849403,0.227078692 0.345843571,1.59710735 C-0.356806889,2.967136 0.187201471,4.63249169 1.57383821,5.35632873 L1.57383821,5.34668203 Z" id="Path"></path>
                    </g>
                    <g id="Group" opacity="0.1" transform="translate(150.361446, 121.548387)" fill="#297373">
                        <path d="M1.15549699,5.57871955 C2.45760542,6.57353522 7.92944277,7.01538841 7.92944277,7.01538841 C7.92944277,7.01538841 5.91167169,1.68214286 4.60956325,0.687327189 C3.94684904,0.265747624 3.14934969,0.137769637 2.39524314,0.331986173 C1.64113658,0.526202708 0.9932683,1.02642821 0.596385542,1.72090191 C-0.134774973,2.98521234 0.099779757,4.61120641 1.15549699,5.59680711 L1.15549699,5.57871955 Z" id="Path"></path>
                    </g>
                </g>
                <text id="Community" font-family="CenturyGothic, Century Gothic" font-size="25" font-weight="normal" letter-spacing="0.303571432" fill="#393939">
                    <tspan x="108" y="243">Community</tspan>
                </text>
                <rect id="Rectangle" stroke="#297373" x="0" y="0" width="359" height="260"></rect>
            </g>
        </g>
    </g>
</svg>