<?xml version="1.0" encoding="UTF-8"?>
<svg width="62px" height="32px" viewBox="0 0 62 32" version="1.1" xmlns="http://www.w3.org/2000/svg" xmlns:xlink="http://www.w3.org/1999/xlink">
    <!-- Generator: Sketch 57.1 (83088) - https://sketch.com -->
    <title>Icon/desk</title>
    <desc>Created with Sketch.</desc>
    <g id="Symbols" stroke="none" stroke-width="1" fill="none" fill-rule="evenodd">
        <g id="Web/Amenities" transform="translate(-801.000000, -448.000000)">
            <g id="Desks" transform="translate(791.000000, 424.000000)">
                <g id="Icon/desk">
                    <g>
                        <rect id="Rectangle-Copy-23" x="0" y="0" width="80" height="80"></rect>
                        <g id="Icon-desk" transform="translate(10.000000, 24.000000)" fill-rule="nonzero">
                            <rect id="Rectangle" fill="#CAE5E3" x="33.5" y="9.52" width="22.04" height="10.66" rx="0.99"></rect>
                            <path d="M38.42,1.6 L4,1.6 C3.33681749,1.57294129 2.69009552,1.81071528 2.20238128,2.26091305 C1.71466703,2.71111082 1.42599759,3.33677504 1.4,4 L1.4,30.42 C1.4,31.2594728 2.08052718,31.94 2.92,31.94 L4.46,31.94 C4.86658314,31.9453502 5.25835902,31.7875729 5.54775466,31.5019356 C5.83715029,31.2162984 6.0000352,30.8266183 6,30.42 L6,12 C5.97840169,11.3638022 6.2147245,10.7458585 6.65533033,10.2864233 C7.09593616,9.82698821 7.70345553,9.5650281 8.34,9.56 L54.1,9.56 C54.7434847,9.55417579 55.3614419,9.81137249 55.8107738,10.2720321 C56.2601057,10.7326917 56.5018403,11.3568597 56.48,12 L56.48,30.5 C56.4909437,31.331652 57.168276,32 58,32 L59.52,32 C60.3594728,32 61.04,31.3194728 61.04,30.48 L61.04,4 C60.9862971,2.6584902 59.8825838,1.59892552 58.54,1.6 L38.42,1.6" id="Path" fill="#CAE5E3"></path>
                            <path d="M58.54,31.2 L57.02,31.2 C55.9154305,31.2 55.02,30.3045695 55.02,29.2 L55.02,10.76 C55.02,9.6554305 54.1245695,8.76 53.02,8.76 L7.36,8.76 C6.2554305,8.76 5.36,9.6554305 5.36,10.76 L5.36,29.26 C5.36,30.3645695 4.4645695,31.26 3.36,31.26 L2,31.26 C0.8954305,31.26 0,30.3645695 0,29.26 L0,2.92 C0.0109029761,1.31186634 1.31186634,0.0109029761 2.92,0 L57.56,0 C59.1759386,0 60.4890072,1.30409875 60.5,2.92 L60.5,29.26 C60.4682178,30.3257295 59.6059994,31.1791497 58.54,31.2 Z M7.36,8 L53.14,8 C53.8860601,7.98393559 54.6076677,8.26634626 55.1446382,8.78454155 C55.6816087,9.30273685 55.9895125,10.0138407 56,10.76 L56,29.26 C56,29.8564675 56.4835325,30.34 57.08,30.34 L58.6,30.34 C59.1964675,30.34 59.68,29.8564675 59.68,29.26 L59.68,2.92 C59.68,1.8154305 58.7845695,0.92 57.68,0.92 L2.91999998,0.92 C1.8154305,0.92 0.919999984,1.8154305 0.919999984,2.92 L0.919999984,29.26 C0.919999984,29.8487435 1.39135741,30.3290974 1.98,30.34 L3.52,30.34 C4.11646753,30.34 4.6,29.8564675 4.6,29.26 L4.6,10.76 C4.62149702,9.24468777 5.84468777,8.02149702 7.36,8 Z" id="Shape" fill="#297373"></path>
                            <path d="M53.08,19.64 L35.08,19.64 C33.7434709,19.64 32.6599996,18.5565291 32.6599996,17.22 L32.6599996,10.54 C32.6592863,9.2340996 33.6948132,8.16317007 35,8.12 L53,8.12 C54.328712,8.13098147 55.4000009,9.21124259 55.4000009,10.54 L55.4000009,17.22 C55.401109,18.518431 54.3773225,19.5863463 53.08,19.64 L53.08,19.64 Z M35.08,9 C34.6681124,8.99465036 34.2712497,9.15453516 33.9781035,9.44392304 C33.6849573,9.73331093 33.52,10.1280776 33.52,10.54 L33.52,17.22 C33.52,18.0815642 34.2184358,18.78 35.08,18.78 L53.08,18.78 C53.9337436,18.7690537 54.62,18.0738138 54.62,17.22 L54.62,10.54 C54.62,9.68948149 53.9305185,9 53.08,9 L35.08,9 Z" id="Shape" fill="#297373"></path>
                            <path d="M44,15.66 C43.0169331,15.66 42.22,14.8630669 42.22,13.88 C42.22,12.8969331 43.0169331,12.1 44,12.1 C44.9830669,12.1 45.78,12.8969331 45.78,13.88 C45.78,14.8630669 44.9830669,15.66 44,15.66 L44,15.66 Z M44,12.98 C43.757859,12.9746178 43.5237686,13.0670575 43.3506352,13.2364271 C43.1775018,13.4057967 43.0799402,13.6377992 43.08,13.88 C43.0268826,14.2373162 43.1877935,14.5926518 43.4913789,14.7884379 C43.7949643,14.984224 44.1850357,14.984224 44.4886211,14.7884379 C44.7922065,14.5926518 44.9531174,14.2373162 44.9,13.88 C44.9,13.6413052 44.8051788,13.4123866 44.6363961,13.2436039 C44.4676134,13.0748212 44.2386948,12.98 44,12.98 L44,12.98 Z" id="Shape" fill="#297373"></path>
                        </g>
                    </g>
                </g>
            </g>
        </g>
    </g>
</svg>