<?xml version="1.0" encoding="UTF-8"?>
<svg width="65px" height="49px" viewBox="0 0 65 49" version="1.1" xmlns="http://www.w3.org/2000/svg" xmlns:xlink="http://www.w3.org/1999/xlink">
    <!-- Generator: Sketch 57.1 (83088) - https://sketch.com -->
    <title>Icon/dog</title>
    <desc>Created with Sketch.</desc>
    <g id="Symbols" stroke="none" stroke-width="1" fill="none" fill-rule="evenodd">
        <g id="Web/Amenities" transform="translate(-425.000000, -298.000000)">
            <g id="Dog-friendly" transform="translate(417.000000, 282.000000)">
                <g id="Icon/dog">
                    <g>
                        <g id="Icon-dog" transform="translate(8.000000, 16.000000)" fill-rule="nonzero">
                            <path d="M63.84,14.36 C63.6238591,19.1669015 59.6106642,22.9226127 54.8,22.82 L54.12,22.82 C53.5284858,22.8224319 52.9587051,23.0432219 52.52,23.44 C52.2029565,23.7356085 51.9803058,24.1182895 51.88,24.54 C51.8606809,24.712795 51.8606809,24.887205 51.88,25.06 L51.88,33.4 C51.8741541,35.0433539 51.3722522,36.6466515 50.44,38 C49.1689657,39.9027318 48.474475,42.1320472 48.44,44.42 L48.44,44.42 C48.385442,46.6608573 46.5414081,48.4425326 44.3,48.42 L44.3,48.42 C42.0683938,48.3444922 40.2987229,46.5128829 40.3,44.28 L40.3,42.28 L39.18,42.4 L39.18,44.4 C39.1147272,46.6440381 37.2648719,48.4227451 35.02,48.4 L35.02,48.4 C32.7883938,48.3244922 31.0187229,46.4928829 31.02,44.26 L31.02,43.2 C27.9430992,43.6509161 24.8169008,43.6509161 21.74,43.2 L21.26,43.2 L21.26,44.4 C21.1948714,46.6362043 19.3571214,48.4118082 17.12,48.4 L17.12,48.4 C14.8883938,48.3244922 13.1187229,46.4928829 13.12,44.26 L13.12,42.54 L12.76,42.54 L12.76,44.44 C12.760487,45.5219884 12.3226271,46.5580211 11.5463239,47.3117136 C10.7700206,48.0654061 9.7215015,48.4724598 8.64,48.44 L8.64,48.44 C6.61209444,48.3816684 4.92201501,46.8690473 4.64,44.86 C4.64,44.66 4.64,44.48 4.64,44.3 L4.64,35.5 C4.64704897,32.4915547 5.68466634,29.576344 7.58,27.24 C8.24021873,26.3786244 8.24021873,25.1813756 7.58,24.32 C5.58,21.34 2.38,16.32 2.48,12.7 C2.30029982,11.7716114 2.47132992,10.8095672 2.96,10 L3.08,10 C4.42472656,8.53606605 6.55511615,8.09639919 8.36953721,8.90835261 C10.1839583,9.72030603 11.2756117,11.6018372 11.08,13.58 C10.9256127,14.9943657 11.0341034,16.4250871 11.4,17.8 C11.5902806,18.5536202 11.8445367,19.2896247 12.16,20 C12.9088973,21.4890956 14.5026918,22.3577136 16.16,22.18 C16.769482,22.0856172 17.3837817,22.0255227 18,22 L35.38,22 C37.4277725,22.031321 39.2754287,20.7755546 40,18.86 C40.1844356,18.3749933 40.272743,17.8587346 40.26,17.34 L40.26,4.2 C40.2811303,2.80273991 41.4029486,1.67208839 42.8,1.64 L42.8,1.64 C43.492117,1.65805935 44.147933,1.9535369 44.62,2.46 C45.0767247,2.96638275 45.3389492,3.61840055 45.36,4.3 C45.3599606,4.66418654 45.5059881,5.01317367 45.7653797,5.26880594 C46.0247712,5.52443821 46.3758528,5.66535569 46.74,5.66 L54.94,5.66 C59.7373665,5.59320923 63.6832584,9.42278234 63.76,14.22 L63.76,14.36 L63.84,14.36 Z" id="Path" fill="#CAE5E3"></path>
                            <g id="Group" opacity="0.1" transform="translate(36.000000, 18.000000)" fill="#CAE5E3">
                                <path d="M16.18,6 C15.86,6.3 15.98,6.58 15.88,7.02 L1.88,3.46 C2.7303461,2.95245319 3.42280634,2.21844534 3.88,1.34 C7.53161001,3.88647996 11.7577532,5.48760415 16.18,6 L16.18,6 Z" id="Path"></path>
                            </g>
                            <path d="M52.52,23.44 C52.2029565,23.7356085 51.9803058,24.1182895 51.88,24.54 L38.26,21.1 C39.0568395,20.5503386 39.6645192,19.7680382 40,18.86 C41.58,20.14 45.22,22.14 52.52,23.44 Z" id="Path" fill="#CAE5E3"></path>
                            <g id="Group" opacity="0.1" transform="translate(40.000000, 18.000000)" fill="#CAE5E3">
                                <path d="M0.4,1.6 C3.84509004,3.78555317 7.74460873,5.15380534 11.8,5.6" id="Path"></path>
                            </g>
                            <ellipse id="Oval" fill="#CAE5E3" cx="63.84" cy="13.5" rx="1" ry="1.28"></ellipse>
                            <path d="M6.76,47.7 L6.76,47.7 C4.4843743,47.644694 2.58172212,45.9534476 2.26,43.7 C2.26,43.5 2.26,43.28 2.26,43.08 L2.26,34.34 C2.27355195,31.2245313 3.34549726,28.206159 5.3,25.78 C5.80391122,25.0813867 5.80391122,24.1386133 5.3,23.44 C2.78,20 -0.000204833231,15.12 -0.000204833231,11.52 C-0.0105809279,10.4278803 0.389107074,9.37156202 1.12,8.56 L1.26,8.42 C2.77545709,6.87722348 5.09682044,6.45297432 7.06,7.36 C9.04703716,8.20462955 10.2428537,10.2546008 10,12.4 C9.86050851,13.7416756 9.96897969,15.0975653 10.32,16.4 C10.5219993,17.1515365 10.7966259,17.8816412 11.14,18.58 C11.7720879,19.9339827 13.1940509,20.7373516 14.68,20.58 C15.2662867,20.5501387 15.8537133,20.5501387 16.44,20.58 L33.82,20.58 C35.7306068,20.5972665 37.4277531,19.3629783 38,17.54 C38.1582443,17.1040099 38.2394544,16.6438193 38.24,16.18 L38.24,3.04 C38.2212802,2.23501419 38.5404089,1.45895143 39.12,0.9 C40.0224052,0.0138857228 41.3683457,-0.244342619 42.5346193,0.244880773 C43.7008929,0.734104164 44.4598202,1.87527329 44.46,3.14 C44.4708744,3.62922857 44.8706506,4.02012084 45.36,4.02 L53.56,4.02 C56.0134385,4.00953337 58.3741557,4.95669042 60.14,6.66 C61.8863809,8.33145749 62.8758586,10.6426462 62.88,13.06 L62.88,13.68 C62.401336,18.5445168 58.2672531,22.2260265 53.38,22.14 L52.68,22.14 C52.2219961,22.1436096 51.7810631,22.3142933 51.44,22.62 C51.1878529,22.8557651 51.0134551,23.1627053 50.94,23.5 C50.9221425,23.6327354 50.9221425,23.7672646 50.94,23.9 L50.94,32.24 C50.9372621,33.9397936 50.4366487,35.6015519 49.5,37.02 C48.2396556,38.838277 47.5439323,40.9880621 47.5,43.2 C47.4997425,44.4012023 47.0083992,45.5500784 46.14,46.38 C45.2578294,47.2265617 44.0826575,47.6994967 42.86,47.7 C40.3097642,47.6781318 38.2508519,45.6103065 38.24,43.06 L38.24,41.52 L38,41.52 L38,43.16 C38.0028704,44.36767 37.5114634,45.5239218 36.64,46.36 C35.7578294,47.2065617 34.5826575,47.6794967 33.36,47.68 C30.8097642,47.6581318 28.7508519,45.5903065 28.74,43.04 L28.74,42.6 C25.8239478,42.9525059 22.8760522,42.9525059 19.96,42.6 L19.96,43.26 C19.9441908,44.4747248 19.4464279,45.6334054 18.5762363,46.4810921 C17.7060446,47.3287788 16.5347221,47.7960176 15.32,47.7803987 C13.437212,47.7519111 11.7529257,46.6028186 11.04,44.86 C10.7989693,45.4597734 10.4383057,46.0041712 9.98,46.46 C9.10372216,47.3156374 7.9246941,47.7901243 6.7,47.7803987 L6.76,47.7 Z M4.86,7.86 C3.77820787,7.86957063 2.74642345,8.31691772 2,9.1 L1.9,9.1 C1.27346139,9.76071755 0.947766198,10.6509511 1,11.56 C1,15.06 4.12,20.16 6.02,22.88 C6.81719894,23.9104825 6.81719894,25.3495175 6.02,26.38 C4.19234942,28.6454618 3.19697311,31.4692244 3.2,34.38 L3.2,43.12 C3.19043556,43.2865294 3.19043556,43.4534706 3.2,43.62 C3.46779217,45.3868978 4.95415402,46.7137067 6.74,46.78 C7.72324056,46.7979446 8.67317578,46.4237277 9.38,45.74 C10.0612045,45.0872803 10.4444364,44.1834314 10.44,43.24 L10.44,40.76 L11.82,40.88 L11.82,43.06 C11.8192597,45.0429451 13.397795,46.6658213 15.38,46.72 C16.3416646,46.7468508 17.2740694,46.3876764 17.9691977,45.7226077 C18.664326,45.0575391 19.0643408,44.1419119 19.08,43.18 L19.08,41.46 L20.1,41.46 C23.1059824,41.8715 26.1540176,41.8715 29.16,41.46 L29.86,41.18 L29.86,42.96 C29.8297437,44.4270368 30.6833064,45.768791 32.0249065,46.3631155 C33.3665066,46.95744 34.9337759,46.6881065 36,45.68 C36.6812045,45.0272803 37.0644364,44.1234314 37.06,43.18 L37.06,40.66 L39.2,40.42 L39.2,43.06 C39.1886015,45.0472547 40.7731919,46.676356 42.76,46.72 C43.7428422,46.7357439 44.6919661,46.3618466 45.4,45.68 C46.0812045,45.0272803 46.4644364,44.1234314 46.46,43.18 C46.4863291,40.7950264 47.2169276,38.4710274 48.56,36.5 C49.3953771,35.2363356 49.8405251,33.7548275 49.84,32.24 L49.84,24 C49.8106885,23.7876735 49.8106885,23.5723265 49.84,23.36 C49.9711337,22.8452278 50.2490764,22.3796738 50.64,22.02 C51.1821021,21.5156325 51.8997502,21.2429262 52.64,21.26 L53.34,21.26 C57.8860016,21.3618736 61.6757662,17.8034092 61.86,13.26 L61.86,12.78 C61.7729226,10.7270179 60.8992233,8.7862596 59.42,7.36 C57.8438484,5.82011051 55.7234704,4.96477159 53.52,4.98 L45.36,4.98 C44.3293603,4.99119693 43.481869,4.17046853 43.46,3.14 C43.4594878,2.58160979 43.2447258,2.04470477 42.86,1.64 C42.4865722,1.22615475 41.9573762,0.986929181 41.4,0.98 L41.4,0.98 C40.8137009,0.957101757 40.2433141,1.17370433 39.82,1.58 C39.4209316,1.96040774 39.1965969,2.48867971 39.2,3.04 L39.2,16.18 C39.1981966,16.7514625 39.1036333,17.3188425 38.92,17.86 C38.140947,20.0007616 36.0980323,21.4187848 33.82,21.4 L16.44,21.4 C15.8919196,21.4034258 15.3444362,21.4368089 14.8,21.5 C12.9095322,21.7438332 11.07437,20.7538115 10.24,19.04 C9.86096166,18.2857937 9.55941773,17.4950785 9.34,16.68 C8.96233419,15.2457121 8.85383435,13.7538393 9.02,12.28 C9.16395072,10.5748409 8.20727376,8.96698049 6.64,8.28 C6.08185918,8.01909214 5.47590133,7.87611333 4.86,7.86 Z" id="Shape" fill="#297373"></path>
                            <g id="Group" opacity="0.1" transform="translate(34.000000, 16.000000)" fill="#297373">
                                <path d="M16.78,8.36 L1.32,4.36 L2.24,3.68 C2.96121674,3.28045152 3.56735663,2.70186344 4,2 L4.22,1.36 L4.78,1.78 C8.35111791,4.25395521 12.4686625,5.82548473 16.78,6.36 L17.76,6.52 L17.04,7.18 C17.04,7.18 17.04,7.18 16.94,7.5 C16.9484097,7.64654612 16.9484097,7.79345388 16.94,7.94 L16.78,8.36 Z M15.34,6.98 L15.98,7.14 L15.98,7.14 L15.34,6.98 Z M3.52,4 L11.14,6 C8.81880615,5.31168841 6.61907356,4.26580329 4.62,2.9 C4.30730163,3.31693116 3.93693116,3.68730163 3.52,4 Z" id="Shape"></path>
                            </g>
                            <path d="M50.78,24 L35.68,20.18 L36.48,19.58 C37.1604976,19.0745981 37.6755999,18.378514 37.96,17.58 L38.18,16.92 L38.74,17.34 C40.22,18.46 43.78,20.52 51.14,21.82 L52.12,22 L51.4,22.66 C51.1439488,22.8844211 50.9683503,23.1864504 50.9,23.52 L50.78,24 Z M37.8,19.68 L50,22.8 C50.0256376,22.7360365 50.0592358,22.6755598 50.1,22.62 C46.0134462,22.0205965 42.0890599,20.605913 38.56,18.46 C38.3701569,18.902936 38.1138777,19.3143315 37.8,19.68 L37.8,19.68 Z" id="Shape" fill="#297373"></path>
                            <g id="Group" opacity="0.1" transform="translate(38.000000, 18.000000)" fill="#297373">
                                <path d="M12.26,5 C8.11576414,4.52304063 4.13841159,3.09228903 0.64,0.82 L1.24,0.06 C4.61713575,2.20485171 8.42929165,3.57121583 12.4,4.06 L12.26,5 Z" id="Path"></path>
                            </g>
                            <path d="M62.36,14.12 C61.66,14.12 61.12,13.36 61.12,12.34 C61.12,11.32 61.66,10.58 62.36,10.58 C63.06,10.58 63.62,11.34 63.62,12.34 C63.62,13.34 63.08,14.12 62.36,14.12 Z M62.36,11.56 C62.1829448,11.7796081 62.0970259,12.0588445 62.12,12.34 C62.12,12.84 62.3,13.12 62.38,13.14 C62.5532158,12.9106758 62.6383779,12.6268022 62.62,12.34 C62.6491698,12.0547485 62.5544867,11.7706993 62.36,11.56 L62.36,11.56 Z" id="Shape" fill="#297373"></path>
                        </g>
                        <rect id="Rectangle-Copy-10" x="0" y="0" width="80" height="80"></rect>
                    </g>
                </g>
            </g>
        </g>
    </g>
</svg>