<?xml version="1.0" encoding="UTF-8"?>
<svg width="50px" height="50px" viewBox="0 0 50 50" version="1.1" xmlns="http://www.w3.org/2000/svg" xmlns:xlink="http://www.w3.org/1999/xlink">
    <!-- Generator: Sketch 57.1 (83088) - https://sketch.com -->
    <title>Icon / Facebook</title>
    <desc>Created with Sketch.</desc>
    <g id="Symbols" stroke="none" stroke-width="1" fill="none" fill-rule="evenodd">
        <g id="Web-/-Footer" transform="translate(-1039.000000, -146.000000)" fill="#DAEFEC">
            <g id="Group-17" transform="translate(1039.000000, 146.000000)">
                <path d="M33.347687,48.4621063 L41.232468,48.4621063 C45.9276575,48.4621063 48.4621063,43.5008612 48.4621063,41.4739173 L48.4621063,8.30923967 C48.4621063,4.44605069 44.3713091,1.5378937 41.7199803,1.5378937 L8.28463337,1.5378937 C5.13195128,1.5378937 1.5378937,5.19808071 1.5378937,8.40920276 L1.5378937,41.9891117 C1.78088091,45.0418307 5.31342274,48.4621063 8.28463337,48.4621063 L24.2310531,48.4621063 L24.2310531,31.6898376 L18.2717151,31.6898376 L18.2717151,22.179503 L24.2310531,22.179503 L24.2310531,19.3159449 C24.2725763,16.2709154 25.5290354,13.4150468 27.7666708,11.2635335 C29.5214075,9.57492618 31.6729208,8.59528789 33.3953617,8.59682579 L41.3647269,8.59682579 L41.3647269,18.2517224 L40.5911663,18.2486467 C38.2627953,18.2348056 34.5011073,18.2240404 33.955155,18.2409572 C33.6198942,18.3424582 33.3830586,18.8991757 33.3461491,19.3989911 C33.3138533,19.8326772 33.3215428,21.0845226 33.3353839,21.9934178 L41.3647269,21.9934178 L41.3647269,31.6667692 L33.347687,31.6667692 L33.347687,48.4621063 Z M41.232468,50 L31.8097933,50 L31.8097933,30.1288755 L39.8268332,30.1288755 L39.8268332,23.5313115 L31.8251722,23.5313115 L31.8097933,22.7792815 C31.8082554,22.6685531 31.7544291,20.052596 31.8113312,19.2836491 C31.8943775,18.1871309 32.5018455,16.970657 33.6737205,16.7261319 L33.679872,16.7584277 C34.2058317,16.6799951 35.5853223,16.681533 39.8268332,16.7061393 L39.8268332,10.1347195 L33.3753691,10.1347195 C33.3507628,10.1347195 33.3276944,10.1331816 33.3030881,10.1331816 C31.9897269,10.1331816 30.251907,11.0051673 28.8324311,12.3708169 C27.7082308,13.4504183 25.8181594,15.7910925 25.7689469,19.3267101 L25.7689469,23.7173967 L19.8096088,23.7173967 L19.8096088,30.1519439 L25.7689469,30.1519439 L25.7689469,50 L8.28463337,50 C4.4921875,50 0.312192421,45.9876353 0.0015378937,42.0490896 L0,8.40920276 C0,4.32301919 4.25842766,0 8.28463337,0 L41.7199803,0 C45.0541339,0 50,3.48948081 50,8.30923967 L50,41.4739173 C50,44.4789616 46.6704601,50 41.232468,50 L41.232468,50 Z" id="Icon-/-Facebook"></path>
            </g>
        </g>
    </g>
</svg>