<?xml version="1.0" encoding="UTF-8"?>
<svg width="64px" height="34px" viewBox="0 0 64 34" version="1.1" xmlns="http://www.w3.org/2000/svg" xmlns:xlink="http://www.w3.org/1999/xlink">
    <!-- Generator: Sketch 57.1 (83088) - https://sketch.com -->
    <title>Icon/gym</title>
    <desc>Created with Sketch.</desc>
    <g id="Symbols" stroke="none" stroke-width="1" fill="none" fill-rule="evenodd">
        <g id="Web/Amenities" transform="translate(-798.000000, -304.000000)">
            <g id="Gym-&amp;-showers" transform="translate(790.000000, 282.000000)">
                <g id="Icon/gym">
                    <g>
                        <rect id="Rectangle-Copy-22" x="0" y="0" width="80" height="80"></rect>
                        <g id="Icon-gym" transform="translate(8.000000, 22.000000)" fill-rule="nonzero">
                            <path d="M3.12,13.1399993 L7.64,13.1399993 L7.64,22 L3.12,22 C2.0154305,22 1.12,21.1045695 1.12,20 L1.12,15.06 C1.16296235,13.9867922 2.04593292,13.1391404 3.12,13.1399993 Z" id="Path" fill="#CAE5E3"></path>
                            <path d="M61.56,13.14 L56.86,13.14 L56.86,22 L61.56,22 C62.5209755,22 63.3,21.2209755 63.3,20.26 L63.3,14.88 C63.3,13.9190245 62.5209755,13.14 61.56,13.14 Z" id="Path" fill="#CAE5E3"></path>
                            <path d="M9.8,5.14 L13.8,5.14 C13.8,5.14 13.92,5.14 13.92,5.3 L13.92,29.76 C13.92,29.76 14,30 13.84,30 L9.84,30 C8.59863501,29.8142993 7.71981598,28.6894109 7.84,27.44 L7.84,7.7 C7.72780651,6.46669825 8.58013905,5.35344757 9.8,5.14 Z" id="Path" fill="#CAE5E3"></path>
                            <path d="M54.78,5.14 L50.78,5.14 C50.78,5.14 50.6599925,5.14 50.6599925,5.3 L50.6599925,29.76 C50.6592811,29.8301384 50.7105768,29.8899834 50.78,29.9 L54.78,29.9 C56.0269017,29.7238361 56.9107771,28.5924755 56.78,27.34 L56.78,7.7 C56.900184,6.4505891 56.021365,5.32570074 54.78,5.14 L54.78,5.14 Z" id="Path" fill="#CAE5E3"></path>
                            <path d="M18.22,1.69991796 C19.6071275,1.7327298 20.7113114,2.87253256 20.7,4.26 L20.7,30.78 C20.7106933,31.44837 20.455396,32.0936047 19.9902878,32.5737163 C19.5251796,33.053828 18.8883727,33.3294751 18.22,33.340082 L16.54,33.340082 C15.8612048,33.3454733 15.2089083,33.0768644 14.730798,32.5949895 C14.2526877,32.1131146 13.9892031,31.4587314 14,30.78 L14,4.26 C13.9892031,3.58126863 14.2526877,2.92688543 14.730798,2.44501052 C15.2089083,1.96313561 15.8612048,1.69452669 16.54,1.69991796 L18.22,1.69991796 Z" id="Path" fill="#CAE5E3"></path>
                            <path d="M48.14,1.7 C48.8083727,1.71052487 49.4451796,1.986172 49.9102878,2.46628367 C50.375396,2.94639535 50.6306933,3.59162997 50.62,4.26 L50.62,30.78 C50.6306933,31.44837 50.375396,32.0936047 49.9102878,32.5737163 C49.4451796,33.053828 48.8083727,33.3294751 48.14,33.34 L46.46,33.34 C45.0760325,33.3072198 43.9776379,32.1641751 44,30.78 L44,4.26 C43.9884512,2.88010139 45.0807362,1.74341457 46.46,1.7 L48.14,1.7 Z" id="Path" fill="#CAE5E3"></path>
                            <rect id="Rectangle" fill="#CAE5E3" x="20.7" y="13.14" width="23.28" height="8.78"></rect>
                            <path d="M7.16,20.94 L2.28,20.94 C1.6753064,20.94 1.09537948,20.6997864 0.667796539,20.2722035 C0.240213596,19.8446205 0,19.2646936 0,18.66 L0,13.7 C0,12.4407908 1.02079077,11.42 2.28,11.42 L7.16,11.42 L7.16,20.94 Z M2.28,12.16 C1.42618622,12.16 0.730946328,12.8462564 0.72,13.7 L0.72,18.66 C0.730946328,19.5137436 1.42618622,20.2 2.28,20.2 L6.44,20.2 L6.44,12.2 L2.28,12.16 Z" id="Shape" fill="#297373"></path>
                            <path d="M60.72,20.94 L55.66,20.94 L55.66,11.42 L60.72,11.42 C61.8863198,11.4308502 62.8291498,12.3736802 62.84,13.54 L62.84,18.82 C62.8291498,19.9863198 61.8863198,20.9291498 60.72,20.94 L60.72,20.94 Z M56.4,20.2 L60.72,20.2 C61.482153,20.2 62.1,19.582153 62.1,18.82 L62.1,13.54 C62.1,12.777847 61.482153,12.16 60.72,12.16 L56.4,12.16 L56.4,20.2 Z" id="Shape" fill="#297373"></path>
                            <path d="M13.02,28.92 L9.02,28.92 C7.5238157,28.8030219 6.40508476,27.4963442 6.52,26 L6.52,6.36 C6.40431537,4.87797746 7.49985012,3.57758662 8.98,3.44 L12.98,3.44 C13.12713,3.43302374 13.2698507,3.49127627 13.3700779,3.59921334 C13.4703052,3.7071504 13.5178407,3.85378911 13.5,4 L13.5,28.4 C13.5054117,28.5326365 13.4578569,28.6619809 13.3678174,28.7595237 C13.2777778,28.8570666 13.152645,28.9148005 13.02,28.92 Z M9.02,4.16 C7.94485445,4.30542387 7.18171599,5.2815312 7.3,6.36 L7.3,26 C7.18171599,27.0784688 7.94485445,28.0545761 9.02,28.2 L12.82,28.2 L12.82,4.2 L9.02,4.16 Z" id="Shape" fill="#297373"></path>
                            <path d="M54,28.9200002 L50,28.9200002 C49.8638527,28.9200002 49.7335482,28.864694 49.6391833,28.7665545 C49.5448184,28.668415 49.4945541,28.5360384 49.5,28.4 L49.5,4 C49.482753,3.85734513 49.5277143,3.71416557 49.6234165,3.60697905 C49.7191188,3.49979253 49.8563101,3.4389612 50,3.43998691 L54,3.43998691 C55.4560681,3.60772552 56.5174002,4.89901291 56.4,6.36 L56.4,26 C56.5174002,27.4609871 55.4560681,28.7522745 54,28.9200002 Z M50.2,28.2 L54,28.2 C55.0670748,28.0448478 55.8190501,27.0717033 55.7,26 L55.7,6.36 C55.8190501,5.28829674 55.0670748,4.31515224 54,4.16 L50.2,4.16 L50.2,28.2 Z" id="Shape" fill="#297373"></path>
                            <path d="M17.38,32.36 L15.7,32.36 C14.1140436,32.3272202 12.8487213,31.026255 12.86,29.44 L12.86,2.92 C12.8487213,1.33374498 14.1140436,0.0327798023 15.7,0 L17.38,0 C18.1438471,0.0105352998 18.8722152,0.324114092 19.4048343,0.871736511 C19.9374534,1.41935893 20.2306826,2.15615495 20.22,2.92 L20.22,29.44 C20.2306826,30.2038451 19.9374534,30.9406411 19.4048343,31.4882635 C18.8722152,32.0358859 18.1438471,32.3494647 17.38,32.36 L17.38,32.36 Z M15.7,0.72 C14.5117034,0.752663533 13.5686452,1.7313088 13.58,2.92 L13.58,29.44 C13.5688226,30.6252597 14.5148899,31.5981025 15.7,31.62 L17.38,31.62 C17.9510864,31.6147627 18.4963869,31.3814698 18.8945493,30.9720387 C19.2927116,30.5626076 19.510699,30.0110101 19.5,29.44 L19.5,2.92 C19.5107075,2.34710409 19.2933434,1.79342887 18.8957454,1.38082715 C18.4981474,0.968225427 17.9528995,0.730510984 17.38,0.72 L15.7,0.72 Z" id="Shape" fill="#297373"></path>
                            <path d="M47.32,32.36 L45.62,32.36 C44.0340436,32.3272202 42.7687213,31.026255 42.78,29.44 L42.78,2.92 C42.7687213,1.33374498 44.0340436,0.0327798023 45.62,0 L47.32,0 C48.9059564,0.0327798023 50.1712787,1.33374498 50.16,2.92 L50.16,29.44 C50.1712787,31.026255 48.9059564,32.3272202 47.32,32.36 L47.32,32.36 Z M45.62,0.72 C44.4743878,0.804833139 43.5955902,1.77151048 43.62,2.92 L43.62,29.44 C43.596163,30.5846795 44.4775088,31.5453464 45.62,31.62 L47.32,31.62 C47.8875955,31.6094899 48.4277568,31.3738829 48.8216043,30.9650317 C49.2154518,30.5561805 49.4307084,30.0075918 49.42,29.44 L49.42,2.92 C49.4424072,1.73461061 48.5051495,0.752721605 47.32,0.72 L45.62,0.72 Z" id="Shape" fill="#297373"></path>
                            <path d="M43.52,20.94 L19.52,20.94 L19.52,11.42 L43.52,11.42 L43.52,20.94 Z M20.22,20.2 L42.78,20.2 L42.78,12.2 L20.22,12.2 L20.22,20.2 Z" id="Shape" fill="#297373"></path>
                        </g>
                    </g>
                </g>
            </g>
        </g>
    </g>
</svg>