<?xml version="1.0" encoding="UTF-8"?>
<svg width="50px" height="50px" viewBox="0 0 50 50" version="1.1" xmlns="http://www.w3.org/2000/svg" xmlns:xlink="http://www.w3.org/1999/xlink">
    <!-- Generator: Sketch 57.1 (83088) - https://sketch.com -->
    <title>Icon / LinkedIn</title>
    <desc>Created with Sketch.</desc>
    <g id="Symbols" stroke="none" stroke-width="1" fill="none" fill-rule="evenodd">
        <g id="Web-/-Footer" transform="translate(-1102.000000, -146.000000)" fill="#DAEFEC">
            <g id="Group-17" transform="translate(1039.000000, 146.000000)">
                <path d="M76.2143956,9.44171024 C76.0083051,9.44171024 74.6394955,9.60781298 73.7751461,10.4475546 C73.2829898,10.927407 73.0430637,11.5272224 73.0430637,12.2900646 C73.0430637,15.4829283 76.1405721,15.5183021 76.2728391,15.5183021 C76.3051369,15.5183021 79.5026146,15.4860043 79.5026146,12.6745617 C79.5026146,9.95078437 77.207936,9.50630575 76.2220855,9.44171024 L76.2143956,9.44171024 Z M76.2728391,17.0562904 C74.6241157,17.0562904 71.5050754,16.0612119 71.5050754,12.2900646 C71.5050754,11.0981237 71.9372501,10.0630575 72.7539219,9.29560135 C73.9827745,8.14211012 75.8022147,7.88372808 76.3205168,7.90679791 C78.4998462,8.04983082 81.0406029,9.38480468 81.0406029,12.6745617 C81.0406029,15.8889572 78.1891726,17.0562904 76.2728391,17.0562904 L76.2728391,17.0562904 Z M73.3814211,40.3429714 L79.1642572,40.3429714 L79.1642572,19.9646263 L73.3814211,19.9646263 L73.3814211,40.3429714 Z M71.8434328,41.8809597 L80.7022455,41.8809597 L80.7022455,18.426638 L71.8434328,18.426638 L71.8434328,41.8809597 Z M99.5579822,40.3429714 L105.248539,40.3429714 L105.248539,27.8545063 C105.248539,21.2119348 100.511535,19.4401723 97.7123962,19.4401723 C95.1854814,19.4401723 92.9538604,20.4967702 91.8895724,22.2008613 L90.5438327,24.3540449 L90.4131037,19.9646263 L84.6241157,19.9646263 L84.6241157,40.3429714 L90.3869579,40.3429714 C90.373116,37.9529376 90.3300523,30.7151646 90.3300523,28.3774223 C90.3300523,25.2553061 93.26761,23.5927407 95.3900338,23.5927407 C97.4109505,23.5927407 99.5579822,25.3445094 99.5579822,28.5912027 L99.5579822,40.3429714 Z M106.786527,41.8809597 L98.0199938,41.8809597 L98.0199938,28.5912027 C98.0199938,26.053522 96.4466318,25.130729 95.3900338,25.130729 C94.448785,25.130729 91.8680406,25.8997232 91.8680406,28.3774223 C91.8680406,31.190403 91.9295601,41.1073516 91.9295601,41.1073516 L91.9341741,41.8809597 L83.0861273,41.8809597 L83.0861273,18.426638 L91.9064903,18.426638 L91.948016,19.8400492 C93.4198708,18.6158105 95.4792372,17.9021839 97.7123962,17.9021839 C101.082129,17.9021839 106.786527,19.998462 106.786527,27.8545063 L106.786527,41.8809597 Z M71.2743771,1.53798831 C68.126115,1.53798831 64.5379883,5.19993848 64.5379883,8.41279606 L64.5379883,41.9870809 C64.7748385,45.0415257 68.3014457,48.4620117 71.2743771,48.4620117 L104.233467,48.4620117 C108.928945,48.4620117 111.462012,43.5050754 111.462012,41.4795448 L111.462012,8.30667487 C111.462012,4.44478622 107.366349,1.53798831 104.710243,1.53798831 L71.2743771,1.53798831 Z M104.233467,50 L71.2743771,50 C67.48016,50 63.3045217,45.9858505 63.001538,42.0455245 L63,8.41279606 C63,4.32482313 67.2525377,0 71.2743771,0 L104.710243,0 C108.047678,0 113,3.48815749 113,8.30667487 L113,41.4795448 C113,44.4832359 109.671793,50 104.233467,50 L104.233467,50 Z" id="Icon-/-LinkedIn"></path>
            </g>
        </g>
    </g>
</svg>