<?xml version="1.0" encoding="UTF-8"?>
<svg width="360px" height="262px" viewBox="0 0 360 262" version="1.1" xmlns="http://www.w3.org/2000/svg" xmlns:xlink="http://www.w3.org/1999/xlink">
    <!-- Generator: Sketch 57.1 (83088) - https://sketch.com -->
    <title>Values / Mission Driven</title>
    <desc>Created with Sketch.</desc>
    <g id="Symbols" stroke="none" stroke-width="1" fill="none" fill-rule="evenodd">
        <g id="Values" transform="translate(-780.000000, 1.000000)">
            <g id="Values-/-Mission-Driven" transform="translate(781.000000, 0.000000)">
                <g id="Mission-Driven" transform="translate(86.000000, 32.000000)" fill-rule="nonzero">
                    <g id="Group" opacity="0.9" transform="translate(0.000000, 75.244240)" fill="#DAEFEC">
                        <path d="M186.374582,81.7557604 C186.311956,81.7332588 184.783885,81.7182577 182.053397,81.7007565 L175.933597,81.6807551 C162.288673,81.6457526 136.892631,81.6457526 109.562703,81.6607537 C108.560689,81.6607537 107.54114,81.6607537 106.524096,81.6457526 L106.524096,81.6457526 L30.4411817,81.7207579 L26.200158,81.7207579 C14.584312,81.7207579 5.92941714,81.7432595 2.17186509,81.7482598 L0.107716492,81.7482598 C0.538582461,80.9998738 0.965273372,80.260655 1.38778923,79.5306036 C2.38980311,77.805482 3.36676664,76.111196 4.31867983,74.4477455 C24.5017444,39.342772 35.8495516,17.9862673 54.6097565,7.68054116 C54.9571213,7.48552742 55.3086612,7.29634742 55.6643761,7.11300117 C64.5597544,2.4851751 75.141021,0.26001832 89.0614988,0.165011626 C89.0614988,0.165011626 89.0614988,0.165011626 89.0614988,0.165011626 C89.0931798,0.163136169 89.1250092,0.163136169 89.1566901,0.165011626 C89.8906653,0.165011626 90.6296505,0.165011626 91.3811609,0.165011626 L91.7243507,0.165011626 L92.3330741,0.165011626 C94.414758,0.197513916 98.3977632,0.375026424 98.3977632,0.375026424 L98.3977632,0.375026424 L98.6482666,0.387527304 L98.6482666,0.387527304 C99.1492736,0.412529066 99.6628057,0.44253118 100.163813,0.480033822 L100.163813,0.480033822 C100.455852,0.483249891 100.745655,0.531316134 101.02304,0.622543863 L101.02304,0.622543863 C114.550227,1.51510675 125.194119,4.32280458 134.122063,9.06313857 C134.588,9.31315619 135.051431,9.5631738 135.504842,9.81319142 C152.288575,19.2838587 162.947497,35.8825282 175.617963,60.3717537 C177.794838,64.5820503 182.28887,73.702693 182.28887,73.702693 L182.28887,73.702693 C182.28887,73.702693 183.175653,75.3153066 183.541388,76.1353644 L183.541388,76.1353644 C183.630765,76.2444988 183.705697,76.3646611 183.764336,76.4928896 L186.194219,81.3782338 L186.374582,81.7557604 Z" id="Path"></path>
                    </g>
                    <g id="Group" transform="translate(89.875969, 34.728111)" fill="#808080">
                        <rect id="Rectangle" x="0.38" y="0.516666667" width="1" height="1"></rect>
                        <polygon id="Path" points="0.88 0.516666667 0.38 0.516666667 0.38 0.516666667 0.88 0.516666667"></polygon>
                        <rect id="Rectangle" x="0.38" y="0.183333333" width="1" height="1"></rect>
                    </g>
                    <path d="M105.022775,28.7969848 C105.022775,28.7969848 105.400569,28.4690784 105.022775,28.2764985 C104.717607,28.0770752 104.497453,27.7170831 104.421179,27.2927794 C104.406806,27.0975971 104.121407,24.9219644 105.109011,25.3877996 C106.096614,25.8536348 106.558591,26.3585065 106.546272,26.7540761 C106.533952,27.1496457 106.375854,29.6635945 106.375854,29.6635945 L105.022775,28.7969848 Z" id="Path" fill="#FBBEBE"></path>
                    <path d="M107.996124,29.8502537 C107.994611,29.8986956 107.988372,29.9468918 107.977491,29.9942028 C107.940223,30.2512547 107.847056,30.7653586 107.711297,30.8347626 C107.524962,30.9350128 107.298698,30.6753904 106.947323,30.5957043 C106.883436,30.5957043 106.830198,30.6342621 106.779621,30.7345123 C106.758725,30.7772791 106.740067,30.8210332 106.72372,30.8656088 C106.529399,31.4362641 106.425584,32.7343763 106.348388,33.2330571 C106.276516,33.6726158 105.414049,35.1660875 104.84972,36.1068976 C104.764538,36.2482761 104.687342,36.3768021 104.618132,36.4821934 C104.46374,36.7392453 104.351938,36.8986175 104.351938,36.8986175 L102.922481,34.3126751 L102.922481,30.4980246 C103.026776,30.3292156 103.115836,30.1520531 103.188674,29.9684976 L103.188674,29.9684976 C103.244036,29.8356614 103.266813,29.6922554 103.255222,29.549503 C103.249386,29.5022486 103.227913,29.4580745 103.193998,29.4235475 C103.183026,29.4121675 103.174037,29.3991462 103.167378,29.3849897 C103.161349,29.374505 103.156869,29.363257 103.154069,29.351573 C103.145114,29.3339143 103.14403,29.3134867 103.151069,29.2950367 C103.158108,29.2765867 103.172657,29.2617207 103.191336,29.2538932 L103.191336,29.1716366 C103.135435,28.6266865 103.521415,27.4930876 103.521415,27.4930876 C104.007049,27.6925642 104.523157,27.8141213 105.049365,27.8529603 C106.108814,27.9789157 107.996124,29.8502537 107.996124,29.8502537 Z" id="Path" fill="#297373"></path>
                    <path d="M107.271318,30.2456104 C107.271318,30.2456104 107.178266,31.0076007 107.011249,31.091774 C106.844233,31.1759474 106.641427,30.9544386 106.326481,30.8879859 C106.269218,30.8746954 106.221499,30.9189972 106.176166,31.0053856 C105.548661,30.7218544 104.377159,30.1769427 104.312738,30.0263167 C104.248317,29.8756907 103.358357,29.8424644 102.952746,29.8380343 C102.800045,29.5412125 103.274849,28.2165899 103.274849,28.2165899 C103.710134,28.3884844 104.172733,28.4932336 104.644385,28.5267022 C105.589222,28.6308113 107.271318,30.2456104 107.271318,30.2456104 Z" id="Path" fill="#297373"></path>
                    <path d="M104.72653,42.6493606 C104.431083,42.9239801 102.514744,41.5937134 101.991613,41.5156106 C101.468482,41.4375078 99.5521422,34.0051464 99.5521422,34.0051464 L99.8394576,29.8153101 L98.7200116,25.9630794 L98.5736434,25.4591905 C98.5736434,25.4591905 98.6847749,25.1518183 99.1347217,25.4591905 C99.5846685,25.7665628 100.677009,27.0766739 100.972456,27.1749323 C101.39896,27.3340667 101.772889,27.5947433 102.056665,27.9307656 C102.231971,28.1525474 102.454284,28.3386096 102.709901,28.4774851 C102.709901,28.4774851 103.214059,29.6717018 103.195085,29.9639574 C103.176111,30.2562129 103.363137,32.2541325 103.590821,32.4304936 C103.818505,32.6068547 104.200689,34.2117409 104.200689,34.2117409 C104.200689,34.2117409 104.897293,36.4641243 105.043662,37.1065826 C105.043662,37.1443743 105.059925,37.1771271 105.062635,37.204841 C105.168346,37.681016 105.021977,42.3747412 104.72653,42.6493606 Z" id="Path" fill="#297373"></path>
                    <path d="M92.0162057,69.2022351 C91.9329123,69.4452905 91.8707898,69.6953151 91.8305549,69.9494245 C91.6624064,71.1033542 91.5643776,72.2667204 91.537026,73.4329083 C91.537026,73.4329083 91.7879054,74.5422168 91.7051152,74.7283766 C91.6349627,75.0231392 91.5896406,75.3234407 91.5696403,75.6260239 C91.54957,75.8198341 91.537026,75.9677419 91.537026,75.9677419 L89.1586892,75.8096336 C89.1586892,75.8096336 89.1586892,75.6668261 89.1586892,75.4475145 C89.1601726,74.8393448 89.2360178,74.2337205 89.3844806,73.6445694 C89.5450435,73.1906455 89.3694279,71.2015406 89.246497,70.0488798 C89.1938123,69.5516036 89.1511628,69.2098855 89.1511628,69.2098855 C89.1511628,69.2098855 92.4176128,68.1413792 92.0162057,69.2022351 Z" id="Path" fill="#FBBEBE"></path>
                    <path d="M101.417323,69.0828533 L101.121923,71.8562109 C101.16314,72.276731 101.16314,72.7000876 101.121923,73.1206077 C101.076477,73.3358242 101.031031,73.7980504 100.998209,74.1551141 C100.975486,74.4265803 100.962862,74.6442425 100.962862,74.6442425 C100.962862,74.6442425 99.1323948,75.8866284 98.7132809,74.7958722 C98.6648885,74.6633907 98.6302126,74.5265772 98.6097648,74.3874501 C98.4355548,73.2502267 98.9480857,71.5798534 98.9480857,71.5798534 L98.9480857,68.0092166 L101.472868,68.4103018 L101.417323,69.0828533 Z" id="Path" fill="#FBBEBE"></path>
                    <path d="M90.9598546,36.8986175 C90.9598546,36.8986175 90.7491479,38.4519229 90.5108485,38.7660746 C90.2725492,39.0802262 90.380411,39.5290143 90.1370949,39.5813729 C89.8937787,39.6337315 89.8185263,40.7906074 89.8185263,40.7906074 L89.6178532,43.3412197 C89.6178532,43.3412197 89.5626681,43.8648057 89.2742005,43.9969489 C88.9857329,44.1290921 89.2742005,44.8396732 89.2742005,44.8396732 C89.2742005,44.8396732 88.9606488,45.4430438 89.1487798,45.7846214 C89.3369108,46.126199 88.7750261,47.7044371 88.7750261,47.7044371 C88.7750261,47.7044371 88.5367268,50.7537027 88.7750261,51.1725716 C88.9901152,51.589771 89.117294,52.0462076 89.1487798,52.5139493 C89.1487798,52.7757423 89.2817257,57.692465 89.2817257,57.692465 C89.2817257,57.692465 88.9631572,59.6870787 88.8578038,60.0585755 C88.7524504,60.4300723 89.1487798,61.2403841 88.8853963,61.6617462 C88.6220129,62.0831083 88.6721812,63.0255633 88.6721812,63.0255633 C88.6721812,63.0255633 88.2633097,66.7355447 88.501609,68.0993618 C88.7399083,69.4631789 88.4263566,69.7548912 88.4263566,69.7548912 C89.605882,70.3730981 91.0287419,70.3130989 92.1513512,69.5978153 C92.1513512,69.5978153 92.1513512,66.9150599 92.4674114,66.4413392 C92.7834715,65.9676185 92.7333033,64.628734 92.7333033,64.628734 C92.7333033,64.628734 92.8135725,63.4469254 93.0518718,63.2100651 C93.2901711,62.9732047 93.2324776,61.9235392 93.2324776,61.9235392 C93.2324776,61.9235392 93.4431844,61.2403841 93.6814837,60.6769057 C93.919783,60.1134273 94.0552374,58.5725883 94.0552374,58.5725883 C94.1376197,58.2991344 94.263824,58.0406729 94.4289911,57.8071553 C94.6948829,57.4356585 94.4289911,56.6253467 94.4289911,56.6253467 C94.2602827,56.3007801 94.2225995,55.9244393 94.3236377,55.573188 C94.5092603,55.0496019 95.5402184,50.7911017 95.5402184,50.7911017 L95.9390562,49.2652223 L96.5184998,51.2124638 C96.4785288,51.8068604 96.4785288,52.4032465 96.5184998,52.9976431 C96.5962607,53.3915793 97.1531286,54.2442766 97.1531286,54.2442766 L97.1531286,58.3731269 C97.1531286,58.3731269 97.2058052,61.1581062 97.4190204,61.6143741 C97.6322356,62.070642 97.7350806,63.7211848 97.7350806,63.7211848 C97.7350806,63.7211848 98.4499785,68.5855489 98.0009725,69.29613 C98.0009725,69.29613 100.037805,70.7422249 101.650715,69.5604163 C101.650715,69.5604163 101.307062,68.5880422 101.650715,68.2439713 C101.994367,67.8999004 102.230158,63.6089878 102.230158,63.6089878 C102.230158,63.6089878 102.443373,61.8986066 102.415781,61.5021771 C102.388188,61.1057476 102.127313,59.2407839 102.285343,58.8468477 C102.443373,58.4529115 102.659097,51.0404284 102.659097,51.0404284 L102.922481,47.7567957 L102.922481,45.0690537 C102.922633,43.6133727 102.721757,42.1645597 102.325478,40.7631815 C101.876472,39.1949165 101.256894,37.3972709 100.735144,37.2850739 C100.72511,37.2850739 92.5200881,38.1876366 90.9598546,36.8986175 Z" id="Path" fill="#FF6978"></path>
                    <path d="M91.3255814,75.817974 L91.3255814,77.2403862 C91.1413863,77.6414335 90.934625,78.0305079 90.7064041,78.4055274 C90.6172801,78.5193203 90.5680274,78.9547022 90.539883,79.318345 C90.5187747,79.6077749 90.5117386,79.8526772 90.5117386,79.8526772 C90.5117386,79.8526772 90.8049096,81.0895574 88.5205208,81.0301871 C86.236132,80.9708169 87.1625525,79.1996045 87.1625525,79.1996045 L87.1742794,79.1773406 C87.2892024,78.9522284 88.2132776,77.1983323 88.3188191,77.1117507 C88.4243607,77.0251691 88.5134847,76.3696226 88.5134847,76.3696226 L88.9379964,75.6448108 C89.9840307,74.6553066 91.0277196,75.8105527 91.0277196,75.8105527 L91.3255814,75.817974 Z" id="Path" fill="#3F3D56"></path>
                    <path d="M100.397362,81.0245149 C98.8062818,81.1334817 98.5337249,80.0691549 98.5779862,79.2937167 C98.5891862,79.0803287 98.6276032,78.8696704 98.692134,78.6677912 C98.8854864,78.0925479 98.8645205,77.0003458 98.8645205,77.0003458 L98.7876455,75.0338753 C98.8482137,75.0592164 98.9949751,74.9021015 98.9949751,74.9021015 C99.2698617,74.4560979 100.742135,74.4434273 100.812022,74.6486904 C100.881908,74.8539534 101.224352,74.7171114 101.224352,74.7171114 C101.193735,75.5470336 101.342125,76.3732299 101.657647,77.1295855 C101.953748,77.8013447 102.130778,78.5278048 102.179466,79.2709097 C102.179466,79.3697401 102.179466,79.4254905 102.179466,79.4254905 C102.179466,79.4254905 102.505602,80.8775364 100.397362,81.0245149 Z" id="Path" fill="#3F3D56"></path>
                    <path d="M99.101419,12.7961383 C99.3943705,13.1208782 99.664425,13.4650334 99.909686,13.8261868 C100.188312,14.1654095 100.582405,14.4625389 101.024191,14.4402542 C101.152991,14.4208298 101.282982,14.4100753 101.413263,14.4080652 C101.567208,14.4290685 101.712277,14.4916211 101.832458,14.5888189 C102.364609,14.9800392 102.615623,15.6411521 102.743641,16.2874085 C102.871658,16.9336649 102.866638,17.5972539 103.042348,18.2286538 C103.083015,18.4465183 103.198195,18.6440364 103.368667,18.7882475 C103.619682,18.9516687 103.925919,18.9021471 104.214586,18.8971949 C104.603049,18.8720781 104.986281,18.9963137 105.283908,19.2438459 C105.578328,19.5078472 105.647214,19.9382067 105.449578,20.2788466 C105.386877,20.3460877 105.340522,20.4265306 105.31403,20.514074 C105.310448,20.6290147 105.353867,20.7405492 105.434517,20.8235838 L106.237764,21.8982017 C106.42367,22.0968804 106.532944,22.3536488 106.546512,22.6236926 C106.536244,22.7740207 106.465485,22.9140632 106.349982,23.0126522 C106.234479,23.1112413 106.083816,23.1601961 105.931526,23.1486212 C105.776151,23.1388879 105.63174,23.0663186 105.532413,22.9480589 C105.620268,23.2154753 105.351682,23.4927961 105.070546,23.5299373 C104.784692,23.5373637 104.502602,23.464363 104.257259,23.3194706 L104.237177,23.775069 C104.001224,23.8963968 103.752719,23.6537412 103.566968,23.4655592 C103.381218,23.2773773 102.992145,23.1684298 102.90429,23.4135616 C102.874556,23.5195486 102.903111,23.6331573 102.979594,23.7131671 C103.305913,24.1167678 104.074018,24.0127725 104.299931,24.4807513 C104.356748,24.6383225 104.347332,24.8117621 104.273782,24.9624471 C104.200232,25.1131322 104.068654,25.2285508 103.908348,25.2830006 C103.575875,25.3755679 103.218543,25.303595 102.949473,25.0898665 C102.675867,24.8967324 102.409791,24.5599858 102.053351,24.5624619 C101.609055,24.5624619 101.342979,25.0576775 100.926295,25.2285269 C100.509611,25.3993763 100.090416,25.1839575 99.7841787,24.9016846 C99.4779409,24.6194117 99.2670886,24.2529521 98.9859523,23.9459184 C98.2605201,23.1560495 97.1610762,22.8440636 96.1369367,22.5048409 C95.1127972,22.1656182 94.0284142,21.7100198 93.4987734,20.7715861 C93.3650559,20.4721916 93.2098702,20.1825817 93.0343964,19.9049588 C92.6879963,19.4592647 92.1081526,19.2512741 91.7291206,18.835293 C91.3036008,18.3454474 91.2056113,17.6562644 91.478106,17.0698492 C91.6939433,16.7150517 91.9462923,16.3831529 92.2311498,16.079418 C92.6583708,15.5120001 92.8913526,14.8251427 92.8963384,14.118364 C92.8725767,13.8529024 92.892068,13.5853999 92.9540718,13.326019 C93.1126958,12.9446207 93.4533689,12.6661267 93.8627446,12.5831955 C94.2669573,12.5142284 94.6798789,12.5108829 95.0851856,12.5732912 C95.5290593,12.6407074 95.9767044,12.6812259 96.4256035,12.6946191 C96.7218007,12.6946191 96.950224,12.4470112 97.2363806,12.375205 C97.8900924,12.1903606 98.5942302,12.3492823 99.101419,12.7961383 L99.101419,12.7961383 Z" id="Path" fill="#3F3D56"></path>
                    <path d="M94.8375567,19.5345622 C94.8375567,19.5345622 95.1421264,22.5071823 93.7688913,23.4062645 C92.3956562,24.3053468 96.7290946,26.7695853 96.7290946,26.7695853 L100.023256,26.1364619 C100.023256,26.1364619 98.4202576,24.8207892 98.4202576,24.2535672 C98.4202576,23.6863451 98.687424,20.5489718 99.1389352,20.1841609 C99.5904463,19.81935 94.8375567,19.5345622 94.8375567,19.5345622 Z" id="Path" fill="#FBBEBE"></path>
                    <path d="M94.2248062,19.424489 L93.5532329,20.9327086 C93.5532329,20.9327086 92.5494579,21.5433536 92.4753698,21.5997585 C92.4012816,21.6561635 91.6030415,22.5807144 91.6030415,22.5807144 L89.6361205,23.875576 L89.5190134,23.6524086 C89.3842653,23.3962417 89.2317111,23.1503666 89.0625348,22.9166917 C88.895239,22.7254053 89.0625348,20.7095411 89.0625348,20.7095411 C89.3205532,20.3410659 89.4119441,19.876637 89.3134786,19.4342986 C89.174862,18.6152005 89.1557425,15.3976654 89.1557425,15.3976654 C89.1557425,15.3976654 89.0075662,12.7000369 89.2107111,12.121273 C89.4138561,11.542509 88.7446727,9.7424551 88.7446727,9.7424551 C88.7446727,9.7424551 86.8518399,7.81242453 86.9832866,7.41268504 C87.1147333,7.01294554 88.5606473,7.41268504 88.5606473,7.41268504 C88.8339666,7.56346251 89.1269196,7.67329997 89.4305856,7.73885285 C89.6122211,7.73885285 90.5705872,7.75356719 91.3066889,7.75356719 L92.1790172,7.75356719 C92.1790172,7.75356719 92.7908419,9.94355105 92.7167538,10.1716233 L92.6737348,10.3040523 C92.6139863,10.4806244 92.5685775,10.6375773 92.6426656,10.74303 C92.7167538,10.8484828 92.9390182,12.4964886 92.9390182,12.4964886 L93.1445531,14.2474947 C93.2701615,14.7624812 93.3690844,15.2839365 93.4409057,15.8096668 C93.4217862,16.0009532 92.9629176,16.3982403 93.1612827,16.761194 C93.3596478,17.1241476 93.4409057,18.2326277 93.4409057,18.2326277 C93.4409057,18.2326277 93.7826672,19.0419162 94.1196488,19.3509173 C94.1520035,19.3792737 94.1872625,19.4039421 94.2248062,19.424489 L94.2248062,19.424489 Z" id="Path" fill="#297373"></path>
                    <g id="Group" opacity="0.1" transform="translate(94.224806, 13.746544)" fill="#000000">
                        <ellipse id="Oval" cx="3.67780695" cy="3.7061989" rx="3.48608402" ry="3.4798127"></ellipse>
                    </g>
                    <ellipse id="Oval" fill="#FBBEBE" cx="97.8488372" cy="17.3640553" rx="3.62403101" ry="3.61751152"></ellipse>
                    <path d="M101.117401,32.6427216 C100.786554,33.008228 100.713033,36.5531389 100.906639,36.8660724 C101.100246,37.1790059 99.9263532,37.7998661 99.2401528,37.7748314 C98.5539525,37.7497967 96.6791552,38.3456221 96.6791552,38.3456221 C96.6791552,38.3456221 92.9222083,37.3066828 92.1330779,37.8274042 C91.3439476,38.3481256 90.2313227,36.8936106 90.5621693,36.3753927 C90.8930159,35.8571747 90.2019142,35.1236586 90.1038855,34.8457736 C90.0810234,34.725243 90.0679087,34.6029951 90.0646741,34.4802672 L90.0646741,34.4802672 C89.9715469,33.1759603 89.875969,28.9951685 89.875969,28.9951685 L89.875969,24.1935165 L93.3290271,21.7050691 C93.8788236,21.9907156 94.4130475,22.3066167 94.9293443,22.6513801 C95.2961572,22.8940134 95.6428705,23.166972 95.965997,23.4675107 C96.904621,24.3737662 99.2377021,25.3325945 99.2377021,25.3325945 C99.2377021,25.3325945 101.801151,28.4694401 102.131997,28.7823737 C102.462844,29.0953072 101.453149,32.2797187 101.117401,32.6427216 Z" id="Path" fill="#EBF1F6"></path>
                    <g id="Group" opacity="0.1" transform="translate(89.875969, 24.599078)" fill="#000000">
                        <path d="M0.38,4.39703888 L0.38,0.116873449 C0.38,0.116873449 0.595,7.90843672 0.765,10.0874773 C0.575,8.73434243 0.38,4.39703888 0.38,4.39703888 Z" id="Path"></path>
                    </g>
                    <g id="Group" opacity="0.1" transform="translate(89.875969, 34.728111)" fill="#000000">
                        <path d="M0.225,0.04 C0.285102185,0.176605846 0.304210337,0.32773395 0.28,0.475 C0.265,0.55 0.245,0.39 0.225,0.04 Z" id="Path"></path>
                    </g>
                    <g id="Group" opacity="0.1" transform="translate(89.875969, 34.728111)" fill="#000000">
                        <path d="M0.225,0.42 C0.285670607,0.556447856 0.304800193,0.707745492 0.28,0.855 C0.265,0.93 0.245,0.77 0.225,0.42 Z" id="Path"></path>
                    </g>
                    <path d="M94.0435898,19.5345622 C93.4955462,19.8919173 92.9674227,20.2808082 92.4617232,20.6993911 C92.0797245,21.0733492 90.6692676,21.6014387 90.6545753,21.7100887 C90.6398831,21.8187387 91.3010347,21.8667468 90.6545753,22.3771491 C90.0081159,22.8875513 88.4286981,25.2803778 87.8581487,25.4623033 C87.2875993,25.6442289 83.3917019,27.3118798 83.3917019,27.3118798 C83.3917019,27.3118798 82.1183728,28.5449309 81.922476,28.5449309 C81.7265792,28.5449309 83.0807158,29.8790516 83.0807158,29.8790516 C83.0807158,29.8790516 84.3050707,30.8897492 84.4324036,31.0363003 C84.5597365,31.1828515 87.8948793,33.0576954 87.8948793,33.0576954 C87.8948793,33.0576954 88.4678774,33.2345675 88.5241978,33.4114395 C88.5805181,33.5883116 89.3396182,34.0784999 89.3396182,34.0784999 C89.3396182,34.0784999 90.1893205,35.0891975 90.108513,35.4429416 C90.0277056,35.7966858 89.8783343,25.2096289 89.8783343,25.2096289 C89.8783343,25.2096289 94.210102,25.5608463 94.3986527,25.1287731 C94.5409991,24.8331912 94.7268555,24.5621433 94.9496124,24.3252686 C94.9496124,24.3252686 94.9373689,20.6968644 94.7047414,20.4265028 C94.472114,20.1561412 94.0484872,19.8655657 94.0435898,19.5345622 Z" id="Path" fill="#297373"></path>
                    <path d="M92.0503876,7.78515124 L89.5716763,7.95852535 C89.5716763,7.95852535 89.5716763,7.87926861 89.5716763,7.7430461 C89.53623,6.94304845 89.4121678,4.15420215 89.3463389,3.84212877 C89.2653188,3.47804315 89.1868304,2.82169833 89.1868304,2.82169833 C89.1868304,2.82169833 87.8499974,2.63098681 87.8702524,2.41798434 C87.8905075,2.20498187 86.1536373,-0.0439279295 87.4702153,0.00065398287 C88.4981589,0.0303752578 90.2552841,1.21922626 90.9768702,1.73439502 C91.1659179,1.8735411 91.2628653,2.10209896 91.2300582,2.33129729 C91.2093657,2.48313632 91.202587,2.63648066 91.2098032,2.78950028 C91.2246322,3.10758924 91.2153231,3.42631606 91.1819525,3.74305785 C91.1400164,4.01789944 91.1786461,4.29873989 91.2933552,4.55296259 C91.4756507,4.8724663 91.7465619,6.20001658 91.9111342,7.04954969 C91.9972181,7.4780314 92.0503876,7.78515124 92.0503876,7.78515124 Z" id="Path" fill="#FBBEBE"></path>
                    <g id="Group" opacity="0.1" transform="translate(89.875969, 7.235023)" fill="#000000">
                        <path d="M2.04790698,1.01579724 L0.112674419,1.21837788 C0.112674419,1.21837788 0.112674419,1.12576959 0.112674419,0.969493088 C0.612450751,0.62510742 1.13419833,0.353687516 1.67034884,0.159170507 L1.95104651,0.159170507 C2.00639535,0.656940092 2.04790698,1.01579724 2.04790698,1.01579724 Z" id="Path"></path>
                    </g>
                    <path d="M92.7693452,10.0164411 L92.72892,10.1290323 C92.2505553,9.68909282 89.2658287,9.4097 89.2658287,9.4097 C89.0030649,9.12613713 89.2366327,9.00312089 89.5173632,8.6570074 C89.6790639,8.44850529 90.6582519,8.16285741 91.4442973,7.95852535 L92.2640303,7.95852535 C92.2640303,7.95852535 92.8389664,9.82253416 92.7693452,10.0164411 Z" id="Path" fill="#297373"></path>
                    <g id="Group" opacity="0.1" transform="translate(102.922481, 29.663594)" fill="#000000">
                        <path d="M0.38,0.415 L0.38,0.255 C0.408339961,0.369459125 0.421784414,0.487098089 0.42,0.605 C0.399049571,0.54351252 0.385618565,0.479715241 0.38,0.415 L0.38,0.415 Z" id="Path"></path>
                    </g>
                    <path d="M105.096899,36.8986175 C104.975755,36.8824895 104.860148,36.8419361 104.758596,36.7799453 C104.398466,36.5673242 103.994685,34.3076071 103.465403,33.9960925 C102.936122,33.6845779 101.029072,30.6757423 101.029072,30.6757423 C100.715293,30.1524599 100.369164,29.6456483 99.9923356,29.1577266 C99.6949559,28.8486843 99.8450099,27.4691196 99.8450099,27.4691196 C99.4034345,27.0065357 99.0259516,26.4967456 98.7209691,25.951104 C98.6365131,25.796645 98.586452,25.6286255 98.5736434,25.4566363 C98.5736434,25.4566363 98.6855018,25.1550111 99.138392,25.4566363 C99.5912822,25.7582616 100.690769,27.0463498 100.988148,27.1402986 C101.417126,27.2969658 101.793368,27.5526774 102.07945,27.8820001 C102.257292,28.0984918 102.480779,28.2808468 102.736959,28.4184975 C102.736959,28.4184975 103.244415,29.5903858 103.225317,29.877177 C103.206219,30.1639683 103.394469,32.1245324 103.623642,32.2951238 C103.852815,32.4657151 104.237499,34.0430669 104.237499,34.0430669 C104.237499,34.0430669 104.949573,36.2632266 105.096899,36.8986175 Z" id="Path" fill="#297373"></path>
                    <ellipse id="Oval" fill="#3F3D56" cx="101.110465" cy="29.3018433" rx="1" ry="1"></ellipse>
                    <ellipse id="Oval" fill="#3F3D56" cx="102.560078" cy="31.4723502" rx="1" ry="1"></ellipse>
                    <g id="Group" opacity="0.1" transform="translate(93.500000, 13.023041)" fill="#000000">
                        <path d="M2.00543522,3.4998472 C2.2887309,3.39589134 2.53723588,3.21196944 2.81059136,3.0786927 C3.07421964,2.92271268 3.38606321,2.88993822 3.67290365,2.98806452 C3.81281797,3.05976968 3.94050484,3.1561827 4.05063123,3.27327674 C4.29913621,3.50251273 4.53521595,3.73174873 4.76384053,3.97964346 C4.98568022,4.2471845 5.23587846,4.48603355 5.50935548,4.69134126 C6.14801329,5.10716469 6.95565449,5.01387097 7.69371429,4.88859083 C7.8426448,4.87182523 7.98793483,4.82858578 8.12362791,4.76064516 C8.43978892,4.53558285 8.58918894,4.12106772 8.49638538,3.72641766 C8.39837223,3.34379317 8.2110699,2.99427215 7.95215947,2.7108489 C7.24465462,1.86340315 6.3828668,1.18032499 5.41989369,0.703701188 C4.39853821,0.19991511 3.18334884,-0.0506451613 2.16696346,0.455806452 C1.852805,0.612107135 1.56216355,0.817844326 1.30465116,1.06621392 C0.949289037,1.40473684 0.0347906977,2.26303905 0.236079734,2.84679117 C0.459734219,3.51050934 1.4910299,3.68910017 2.00543522,3.4998472 Z" id="Path"></path>
                    </g>
                    <path d="M95.9466125,16.0048734 C96.2103273,15.8927926 96.4680516,15.7668949 96.7187312,15.6276953 C96.9715422,15.4871127 97.2705901,15.4575736 97.5456608,15.5460134 C97.6799193,15.6135514 97.8022852,15.7028239 97.9078893,15.8102783 C98.1461975,16.0192879 98.3725903,16.225895 98.5918339,16.4469166 C98.8032943,16.6893305 99.043387,16.904746 99.3067586,17.0883597 C99.9192107,17.4655378 100.693712,17.3814535 101.401488,17.2685403 C101.54465,17.2537324 101.68416,17.2138976 101.813761,17.1508223 C102.117537,16.9484531 102.260972,16.5744262 102.171224,16.2186878 C102.074421,15.8735825 101.891451,15.559267 101.639796,15.3057725 C100.961825,14.5414248 100.135276,13.9256848 99.2114353,13.4967589 C98.2319885,13.0427037 97.0666612,12.8168773 96.0919806,13.2709325 C95.7946918,13.4174633 95.5201425,13.6068362 95.2769664,13.8330961 C94.9361856,14.138202 94.0592114,14.91418 94.252241,15.437905 C94.4643354,16.0168855 95.4533145,16.1778468 95.9466125,16.0048734 Z" id="Path" fill="#3F3D56"></path>
                    <g id="Group" opacity="0.1" transform="translate(93.500000, 15.917051)" fill="#000000">
                        <path d="M8.12362791,1.71470046 C7.98805347,1.77069723 7.84277218,1.80663786 7.69371429,1.8210553 C6.94819934,1.92523963 6.15049834,1.99686636 5.51184053,1.65826728 C5.23734158,1.49055635 4.98702586,1.29451611 4.76632558,1.07440092 C4.537701,0.872543779 4.29416611,0.685880184 4.05311628,0.49921659 C3.94306013,0.403221497 3.81538782,0.32398907 3.6753887,0.264801843 C3.38724529,0.186736408 3.07516547,0.214150922 2.81059136,0.340769585 C2.54979951,0.466786637 2.28190276,0.581245144 2.00792027,0.683709677 C1.4810897,0.837815668 0.462219269,0.683709677 0.233594684,0.160617512 C0.223526683,0.135195665 0.216042599,0.109048493 0.211229236,0.0824792627 C0.197432397,0.155313532 0.205130111,0.230017783 0.233594684,0.299529954 C0.462219269,0.829133641 1.4761196,0.976728111 2.00792027,0.82262212 C2.28190276,0.720157587 2.54979951,0.605699079 2.81059136,0.479682028 C3.07516657,0.35280541 3.38770038,0.326135426 3.6753887,0.405884793 C3.81530302,0.464273283 3.94298989,0.542781027 4.05311628,0.638129032 C4.30162126,0.824792627 4.537701,1.01145622 4.76632558,1.21331336 C4.98816527,1.43116821 5.23836351,1.62565957 5.51184053,1.79283871 C6.15049834,2.13143779 6.95813953,2.05547005 7.69619934,1.95345622 C7.84542117,1.93977649 7.99084185,1.90380137 8.12611296,1.84710138 C8.40565256,1.6916242 8.55756482,1.40935357 8.51626578,1.12215207 C8.50984872,1.36527714 8.36178862,1.58872164 8.12362791,1.71470046 L8.12362791,1.71470046 Z" id="Path"></path>
                    </g>
                    <g id="Group" opacity="0.1" transform="translate(90.600775, 48.474654)" fill="#000000">
                        <path d="M0.825,0.05 C0.770263815,0.362994633 0.680005058,0.6727716 0.555,0.976666667 C0.66370682,0.667857376 0.745510297,0.355112111 0.8,0.04 L0.825,0.05 Z" id="Path"></path>
                    </g>
                    <path d="M153.658915,64.4196814 C153.658915,77.8083764 145.87106,82.4792627 136.263566,82.4792627 C126.656072,82.4792627 118.868217,77.7932194 118.868217,64.4196814 C118.868217,51.0461435 136.263566,34.0046083 136.263566,34.0046083 C136.263566,34.0046083 153.658915,51.0309865 153.658915,64.4196814 Z" id="Path" fill="#297373"></path>
                    <polygon id="Path" fill="#3F3D56" points="135.453488 80.7138435 135.453488 69.619016 143.511628 55.8893546 135.711514 67.8774734 135.711514 62.8880539 141.21778 52.956757 135.96954 61.5668836 135.96954 61.5668836 135.96954 52.5939357 141.767375 44.6869318 136.227565 51.1826856 136.227565 34.7281106 135.585081 56.5124065 135.634106 55.6116086 129.82853 46.9939754 135.541217 57.3381379 134.999363 67.3595146 134.983882 67.0942797 128.290698 58.0237452 134.96324 68.0326108 134.896153 69.2862212 134.883252 69.306239 134.888412 69.4088298 133.515716 94.7788018 135.453488 94.7788018 135.453488 81.702219 142.22666 71.7158733"></polygon>
                    <path d="M67.4069767,66.5481718 C67.4069767,75.1370027 62.2160319,78.1382488 55.8100775,78.1382488 C49.4041232,78.1382488 44.2131783,75.1370027 44.2131783,66.5481718 C44.2131783,57.9593409 55.8100775,47.0276498 55.8100775,47.0276498 C55.8100775,47.0276498 67.4069767,57.9568564 67.4069767,66.5481718 Z" id="Path" fill="#297373"></path>
                    <polygon id="Path" fill="#3F3D56" points="56.0366148 76.8871966 56.0366148 69.6818661 60.8837209 60.7685686 56.2814181 68.5515206 56.2814181 65.3123585 59.4663096 58.8639114 56.0366148 64.4558852 56.0366148 64.4558852 56.0366148 58.6273853 59.8065862 53.4935251 56.2814181 57.7111581 56.2814181 47.0276498 55.977862 61.1719077 56.0096864 60.5893067 52.4135253 54.9923534 55.9509336 61.7072035 55.615553 68.2154046 55.6057609 68.043612 51.4612403 62.1528684 55.5935207 68.6536002 55.5519041 69.4652581 55.54456 69.4801965 55.5470081 69.54493 54.6975405 86.0967742 55.7918114 86.0967742 55.7918114 77.5270618 60.0905581 71.0437582"></polygon>
                    <path d="M15.1700249,132.797905 C13.9726198,133.406294 9.42248062,132.977988 9.42248062,132.977988 C9.42248062,132.977988 11.8172907,129.001558 13.0146958,128.393169 C14.1675119,127.715175 15.6424717,128.104012 16.3255473,129.265993 C17.0086229,130.427973 16.6464087,131.93203 15.5124827,132.642158 C15.4023215,132.685962 15.3137135,132.754101 15.1819989,132.797905 L15.1700249,132.797905 Z" id="Path" fill="#297373"></path>
                    <g id="Group" opacity="0.1" transform="translate(9.422481, 127.336406)" fill="#297373">
                        <path d="M5.71427857,5.21184751 C4.54523631,5.86957687 0.102875719,5.4065354 0.102875719,5.4065354 C0.102875719,5.4065354 2.44096024,1.10761625 3.6100025,0.449886887 C4.73551204,-0.283092198 6.17553457,0.137278816 6.84243027,1.39349639 C7.50932596,2.64971396 7.15569147,4.27574952 6.04862466,5.04346879 C5.94107277,5.0908253 5.85456364,5.16449099 5.72596899,5.21184751 L5.71427857,5.21184751 Z" id="Path"></path>
                    </g>
                    <path d="M1.97460938,134.959451 C3.22424664,135.584537 7.97286822,135.144477 7.97286822,135.144477 C7.97286822,135.144477 5.49608717,131.06642 4.25894629,130.433834 C3.02767463,129.909525 1.60099473,130.431142 0.99780063,131.626161 C0.394606531,132.82118 0.821938996,134.279422 1.97460938,134.959451 Z" id="Path" fill="#297373"></path>
                    <g id="Group" opacity="0.1" transform="translate(0.724806, 130.230415)" fill="#297373">
                        <path d="M1.42786822,4.7196467 C2.63587855,5.32256528 7.22631783,4.8981106 7.22631783,4.8981106 C7.22631783,4.8981106 4.83204134,0.964669739 3.63611111,0.354516129 C2.4458546,-0.151199702 1.06669912,0.351919818 0.483598143,1.50456109 C-0.0995028344,2.65720236 0.313594673,4.063732 1.42786822,4.7196467 Z" id="Path"></path>
                    </g>
                    <path d="M12.9538145,142.749747 C11.8562749,143.598568 7.24806202,143.976959 7.24806202,143.976959 C7.24806202,143.976959 8.94403941,139.420935 10.0440019,138.569557 C10.6013048,138.209345 11.2719085,138.099081 11.9066461,138.263293 C12.5413836,138.427504 13.0876166,138.852571 13.4238426,139.443945 C14.0261861,140.524831 13.8302355,141.902991 12.9538145,142.749747 L12.9538145,142.749747 Z" id="Path" fill="#297373"></path>
                    <path d="M1.11220238,146.4209 C2.15119819,147.232619 6.52325581,147.59447 6.52325581,147.59447 C6.52325581,147.59447 4.9141915,143.23759 3.87059835,142.423426 C2.90322663,141.519398 1.43000326,141.620652 0.580061847,142.649582 C-0.26987957,143.678513 -0.17468352,145.245484 0.792688177,146.149512 L1.11220238,146.4209 L1.11220238,146.4209 Z" id="Path" fill="#297373"></path>
                    <g id="Group" opacity="0.1" transform="translate(7.248062, 138.188940)" fill="#297373">
                        <path d="M5.57505399,5.07627304 C4.51968439,5.97703341 0.0885299003,6.37857719 0.0885299003,6.37857719 C0.0885299003,6.37857719 1.71934385,1.54377304 2.77704319,0.640299539 C3.31293321,0.258046829 3.95777078,0.141036239 4.56812019,0.315295249 C5.17846961,0.489554258 5.70371502,0.940631686 6.02702243,1.56819124 C6.6062225,2.71521618 6.41780076,4.17770518 5.57505399,5.07627304 L5.57505399,5.07627304 Z" id="Path"></path>
                    </g>
                    <g id="Group" opacity="0.1" transform="translate(0.000000, 141.806452)" fill="#297373">
                        <path d="M1.21217589,5.09982304 C2.34187383,5.964553 7.09560278,6.35003502 7.09560278,6.35003502 C7.09560278,6.35003502 5.34607057,1.70862304 4.21137396,0.841288479 C3.15955275,-0.121777497 1.55772012,-0.0139111216 0.633580622,1.08221477 C-0.290558872,2.17834067 -0.18705241,3.84764551 0.864768778,4.81071152 L1.21217589,5.09982304 L1.21217589,5.09982304 Z" id="Path"></path>
                    </g>
                    <path d="M7.89340774,154.105991 C7.85977485,153.990005 4.42922018,142.396466 8.55312979,133.959759 C10.2935753,130.463323 10.8193649,126.509879 10.0510869,122.696528 C9.67429234,120.880256 9.12607343,119.101808 8.41342395,117.383873 L8.85841294,117.207373 C9.58001864,118.953637 10.1359902,120.760646 10.5193602,122.605756 C11.3069282,126.518145 10.7675456,130.574038 8.98259591,134.161474 C4.93630066,142.434288 8.31769957,153.856369 8.3539196,153.972355 L7.89340774,154.105991 Z" id="Path" fill="#535461"></path>
                    <path d="M11.5968992,111.94758 C11.5968992,113.306581 9.06609921,117.207373 9.06609921,117.207373 C9.06609921,117.207373 6.53529919,113.284857 6.53529919,111.94758 C6.44573656,111.058597 6.86052517,110.192429 7.618911,109.684766 C8.37729683,109.177102 9.36007719,109.107737 10.1863692,109.503553 C11.0126612,109.899369 11.5525887,110.698153 11.5968992,111.590329 L11.5968992,111.94758 L11.5968992,111.94758 Z" id="Path" fill="#297373"></path>
                    <path d="M4.49785904,123.158886 C5.50739587,124.139643 10.1472868,125.165899 10.1472868,125.165899 C10.1472868,125.165899 8.99850353,120.464331 8.0113456,119.493685 C7.08177047,118.453878 5.5019822,118.368674 4.46939387,119.302655 C3.43680553,120.236636 3.3363782,121.841603 4.24423156,122.901058 C4.31720711,122.998005 4.40249098,123.084701 4.49785904,123.158886 L4.49785904,123.158886 Z" id="Path" fill="#297373"></path>
                    <g id="Group" opacity="0.1" transform="translate(6.523256, 108.525346)" fill="#297373">
                        <path d="M5.01565891,3.00806723 C5.01565891,4.44570886 2.56098191,8.57222554 2.56098191,8.57222554 C2.56098191,8.57222554 0.10630491,4.42272703 0.10630491,3.00806723 C0.0194362041,2.06764196 0.421748539,1.15135211 1.15732315,0.614311753 C1.89289777,0.0772713991 2.84611744,0.00389226034 3.6475557,0.422612898 C4.44899395,0.841333536 4.97268115,1.68633967 5.01565891,2.63014367 L5.01565891,3.00806723 L5.01565891,3.00806723 Z" id="Path"></path>
                    </g>
                    <g id="Group" opacity="0.1" transform="translate(3.624031, 117.930876)" fill="#297373">
                        <path d="M0.852855297,5.00020481 C1.83375969,6.03990442 6.34205426,7.12783751 6.34205426,7.12783751 C6.34205426,7.12783751 5.22585271,2.14371053 4.26669251,1.11472948 C3.36348195,0.0124304628 1.82849956,-0.0778938741 0.82519745,0.912218515 C-0.178104663,1.9023309 -0.275683681,3.60375448 0.606421189,4.72688172 C0.677327003,4.82965565 0.760192059,4.9215623 0.852855297,5.00020481 L0.852855297,5.00020481 Z" id="Path"></path>
                    </g>
                    <path d="M15.4544313,119.775524 C14.6708962,120.957564 10.1472868,122.995392 10.1472868,122.995392 C10.1472868,122.995392 10.2204168,118.19947 11.0170108,117.01743 C11.7425509,115.828071 13.3224231,115.411114 14.5784102,116.077511 C15.8343974,116.743909 16.3087464,118.250788 15.6477033,119.474367 C15.5973326,119.582478 15.5323487,119.683736 15.4544313,119.775524 L15.4544313,119.775524 Z" id="Path" fill="#297373"></path>
                    <g id="Group" opacity="0.1" transform="translate(10.147287, 115.760369)" fill="#297373">
                        <path d="M5.75677326,4.05402458 C4.94136628,5.1899232 0.23375,7.14820276 0.23375,7.14820276 C0.23375,7.14820276 0.309854651,2.53949309 1.13885174,1.40359447 C1.89390468,0.260663147 3.53804132,-0.140017793 4.84511827,0.500366408 C6.15219522,1.14075061 6.64583934,2.58880754 5.95790698,3.76462366 C5.90548738,3.86851427 5.83786013,3.96581961 5.75677326,4.05402458 L5.75677326,4.05402458 Z" id="Path"></path>
                    </g>
                    <path d="M181.814329,125.566888 C180.629658,126.167316 176.127907,125.745328 176.127907,125.745328 C176.127907,125.745328 178.49725,121.802757 179.681921,121.202329 C180.421496,120.72813 181.355402,120.698739 182.122352,121.125526 C182.889302,121.552312 183.369009,122.368339 183.375894,123.257921 C183.382779,124.147503 182.915763,124.97112 182.155515,125.410149 C182.048389,125.467987 181.93847,125.520299 181.826176,125.566888 L181.814329,125.566888 Z" id="Path" fill="#297373"></path>
                    <g id="Group" opacity="0.1" transform="translate(176.127907, 120.101382)" fill="#297373">
                        <path d="M5.62776944,5.41179724 C4.45872718,6.06689568 0.0163665916,5.60648513 0.0163665916,5.60648513 C0.0163665916,5.60648513 2.35445111,1.30493506 3.52349337,0.649836615 C4.25331107,0.132461685 5.17489641,0.10039451 5.93172841,0.566040475 C6.68856042,1.03168644 7.16193822,1.92201405 7.16873269,2.89259456 C7.17552717,3.86317506 6.71467267,4.76178349 5.96445361,5.2407876 C5.85874127,5.30389139 5.75027275,5.36096684 5.63945986,5.41179724 L5.62776944,5.41179724 Z" id="Path"></path>
                    </g>
                    <path d="M168.662812,127.00126 C169.916037,127.625205 174.678295,127.18669 174.678295,127.18669 C174.678295,127.18669 172.201921,123.089702 170.953708,122.465758 C169.722084,121.956615 168.306044,122.481936 167.704763,123.671048 C167.103482,124.86016 167.519951,126.311619 168.660305,127.00126 L168.662812,127.00126 Z" id="Path" fill="#297373"></path>
                    <g id="Group" opacity="0.1" transform="translate(167.430233, 122.271889)" fill="#297373">
                        <path d="M1.33847545,4.66176651 C2.54648579,5.26227343 7.13692506,4.84023041 7.13692506,4.84023041 C7.13692506,4.84023041 4.74989664,0.897142857 3.54671835,0.296635945 C2.35953,-0.193381351 0.99458012,0.312206159 0.414992492,1.45665031 C-0.164595136,2.60109447 0.236848116,3.99803123 1.33605943,4.66176651 L1.33847545,4.66176651 Z" id="Path"></path>
                    </g>
                    <path d="M178.934435,135.515101 C177.839318,136.363661 173.228682,136.741935 173.228682,136.741935 C173.228682,136.741935 174.92466,132.184755 176.027045,131.336194 C176.583633,130.974812 177.254305,130.86385 177.889042,131.028128 C178.52378,131.192406 179.069618,131.618217 179.404463,132.210314 C180.006806,133.290868 179.810856,134.668605 178.934435,135.515101 L178.934435,135.515101 Z" id="Path" fill="#297373"></path>
                    <path d="M167.817257,139.183434 C168.855883,139.997597 173.228682,140.359447 173.228682,140.359447 C173.228682,140.359447 171.620191,136.00013 170.574671,135.188412 C169.949114,134.60361 169.077857,134.418324 168.289094,134.702349 C167.50033,134.986375 166.913893,135.696561 166.750686,136.565389 C166.58748,137.434216 166.8723,138.329689 167.497857,138.914491 C167.605855,139.002509 167.711556,139.092971 167.817257,139.183434 L167.817257,139.183434 Z" id="Path" fill="#297373"></path>
                    <g id="Group" opacity="0.1" transform="translate(173.228682, 130.953917)" fill="#297373">
                        <path d="M5.6921447,5.01115783 C4.60010336,5.9119182 0.00241602067,6.31346198 0.00241602067,6.31346198 C0.00241602067,6.31346198 1.69363049,1.4759447 2.7929199,0.575184332 C3.34794529,0.19157126 4.01673317,0.0737832916 4.64968834,0.248167368 C5.28264351,0.422551444 5.82694855,0.874555953 6.16085271,1.50307604 C6.76150464,2.65010098 6.56610432,4.11258998 5.6921447,5.01115783 L5.6921447,5.01115783 Z" id="Path"></path>
                    </g>
                    <g id="Group" opacity="0.1" transform="translate(166.705426, 134.571429)" fill="#297373">
                        <path d="M1.32397933,5.03470783 C2.41602067,5.9020424 7.01370801,6.28752442 7.01370801,6.28752442 C7.01370801,6.28752442 5.32249354,1.64350783 4.22320413,0.77877788 C3.56547541,0.155783413 2.64941033,-0.0416033356 1.82008173,0.260971312 C0.990753136,0.56354596 0.374155769,1.32011372 0.202555893,2.24568283 C0.0309560167,3.17125195 0.330423734,4.12520645 0.988152455,4.74820092 C1.10170543,4.84196682 1.21284238,4.93833733 1.32397933,5.03470783 L1.32397933,5.03470783 Z" id="Path"></path>
                    </g>
                    <path d="M174.603266,146.147465 C174.566994,146.031472 171.131488,134.437141 175.261349,126.002379 C177.000796,122.504566 177.5237,118.550899 176.751104,114.738378 C176.374273,112.921326 175.826142,111.141952 175.113669,109.422839 L175.556709,109.248848 C176.281343,110.993686 176.838175,112.800163 177.220054,114.645078 C178.013539,118.557175 177.477913,122.614323 175.694026,126.204107 C171.641891,134.480008 175.02817,145.90287 175.061851,146.016342 L174.603266,146.147465 Z" id="Path" fill="#535461"></path>
                    <path d="M177.577519,103.988237 C177.577519,105.349239 175.046719,109.248848 175.046719,109.248848 C175.046719,109.248848 172.515919,105.325108 172.515919,103.988237 C172.426357,103.099523 172.841145,102.233618 173.599531,101.726108 C174.357917,101.218598 175.340697,101.149254 176.166989,101.54495 C176.993281,101.940647 177.533209,102.739188 177.577519,103.631094 L177.577519,103.988237 L177.577519,103.988237 Z" id="Path" fill="#297373"></path>
                    <path d="M171.23738,115.936015 C172.243296,116.909607 176.852713,117.930876 176.852713,117.930876 C176.852713,117.930876 175.710863,113.271182 174.729662,112.297589 C174.137919,111.604255 173.224362,111.288024 172.338686,111.469944 C171.45301,111.651864 170.732376,112.303762 170.452629,113.176102 C170.172882,114.048442 170.377345,115.00613 170.987754,115.68258 C171.058159,115.779127 171.142284,115.864535 171.23738,115.936015 Z" id="Path" fill="#297373"></path>
                    <g id="Group" opacity="0.1" transform="translate(172.503876, 101.290323)" fill="#297373">
                        <path d="M5.01565891,2.94422879 C5.01565891,4.38442396 2.56098191,8.51094063 2.56098191,8.51094063 C2.56098191,8.51094063 0.10630491,4.35888859 0.10630491,2.94422879 C0.0194362041,2.00380352 0.421748539,1.08751367 1.15732315,0.550473314 C1.89289777,0.0134329605 2.84611744,-0.0599461783 3.6475557,0.35877446 C4.44899395,0.777495098 4.97268115,1.62250123 5.01565891,2.56630523 L5.01565891,2.94422879 L5.01565891,2.94422879 Z" id="Path"></path>
                    </g>
                    <g id="Group" opacity="0.1" transform="translate(170.329457, 110.695853)" fill="#297373">
                        <path d="M1.0050646,4.93321386 C1.98838501,5.97291347 6.49426357,7.0635262 6.49426357,7.0635262 C6.49426357,7.0635262 5.37806202,2.08743813 4.41890181,1.04773852 C3.84045008,0.307326876 2.94741391,-0.0303764975 2.08163279,0.163895676 C1.21585167,0.35816785 0.511404087,1.05432977 0.237940952,1.98590215 C-0.0355221832,2.91747453 0.164348771,3.94019016 0.761046512,4.6625704 C0.829869955,4.76567348 0.9121046,4.85688093 1.0050646,4.93321386 Z" id="Path"></path>
                    </g>
                    <path d="M182.159636,112.539109 C181.375748,113.720739 176.852713,115.760369 176.852713,115.760369 C176.852713,115.760369 176.923263,110.963601 177.720216,109.781971 C178.446083,108.593024 180.026667,108.176212 181.28322,108.842378 C182.539774,109.508545 183.014336,111.014901 182.352995,112.238056 C182.303675,112.346671 182.238575,112.44803 182.159636,112.539109 L182.159636,112.539109 Z" id="Path" fill="#297373"></path>
                    <g id="Group" opacity="0.1" transform="translate(176.127907, 108.525346)" fill="#297373">
                        <path d="M5.24633637,3.99373272 C4.49001685,5.12963134 0.126053252,7.09032258 0.126053252,7.09032258 C0.126053252,7.09032258 0.194122009,2.47920123 0.963046849,1.34330261 C1.6633858,0.200371288 3.18838211,-0.200309651 4.40074334,0.440074549 C5.61310457,1.08045875 6.07097738,2.52851568 5.43289518,3.7043318 C5.3853094,3.80874344 5.3224989,3.90617875 5.24633637,3.99373272 L5.24633637,3.99373272 Z" id="Path"></path>
                    </g>
                </g>
                <text id="Mission-Driven" font-family="CenturyGothic, Century Gothic" font-size="25" font-weight="normal" letter-spacing="0.303571432" fill="#393939">
                    <tspan x="93" y="243">Mission Driven</tspan>
                </text>
                <rect id="Rectangle-Copy-2" stroke="#297373" x="0" y="0" width="358" height="260"></rect>
            </g>
        </g>
    </g>
</svg>