<svg xmlns="http://www.w3.org/2000/svg" viewBox="0 0 100 125" x="0px" y="0px"><title>Email</title><g data-name="Layer 7"><path d="M9.86,23.86a6.71,6.71,0,0,0-1,3.57V72.57a6.68,6.68,0,0,0,1.08,3.64L39.26,52.13a1.05,1.05,0,0,0,0-1.6Z"/><path d="M60.74,52.13,90.09,76.21a6.68,6.68,0,0,0,1.08-3.64V27.43a6.71,6.71,0,0,0-1-3.57L60.7,50.53A1.05,1.05,0,0,0,60.74,52.13Z"/><path d="M58.25,54a1.06,1.06,0,0,0-1.38,0l-1,.91a8.7,8.7,0,0,1-11.72,0l-1-.91a1.06,1.06,0,0,0-1.38,0L12.06,78.32l-.15.12h.36a6.61,6.61,0,0,0,3.3.88H84.43a6.61,6.61,0,0,0,3.3-.88h.36l-.15-.12Z"/><path d="M42.55,49.43l1.13,1,1.12,1,1.35,1.23a5.73,5.73,0,0,0,7.7,0l1.35-1.23,1.12-1,1.13-1L88,21.73l.2-.17h-.49a6.61,6.61,0,0,0-3.3-.88H15.57a7.05,7.05,0,0,0-3.42.65l-.37.23.2.17Z"/></g><text x="0" y="115" fill="#000000" font-size="5px" font-weight="bold" font-family="'Helvetica Neue', Helvetica, Arial-Unicode, Arial, Sans-serif">Created by Syawaluddin</text><text x="0" y="120" fill="#000000" font-size="5px" font-weight="bold" font-family="'Helvetica Neue', Helvetica, Arial-Unicode, Arial, Sans-serif">from the Noun Project</text></svg>