<svg xmlns="http://www.w3.org/2000/svg" xmlns:xlink="http://www.w3.org/1999/xlink" xml:space="preserve" version="1.1" style="shape-rendering:geometricPrecision;text-rendering:geometricPrecision;image-rendering:optimizeQuality;" viewBox="0 0 333 416.25" x="0px" y="0px" fill-rule="evenodd" clip-rule="evenodd"><defs><style type="text/css">
   
    .fil0 {fill:black}
   
  </style></defs><g><path class="fil0" d="M210 93c13,2 16,5 20,10 4,5 19,38 19,38 0,0 15,5 33,7 17,1 15,1 18,-2 3,-3 10,-11 8,-30 -2,-18 -21,-32 -52,-40 -53,-13 -125,-13 -179,0 -30,8 -49,22 -52,40 -2,19 5,27 8,30 3,3 1,3 19,2 18,-2 32,-7 32,-7 0,0 15,-33 19,-38 4,-5 8,-8 20,-10 4,-1 83,-1 87,0zm-76 23c14,9 52,9 65,0 34,7 44,40 51,69 9,29 7,43 7,49 -1,5 -7,13 -14,23 -7,11 -20,9 -20,9 -39,1 -74,1 -112,0 0,0 -14,2 -21,-9 -7,-10 -13,-18 -13,-23 -1,-6 -2,-20 6,-49 8,-29 17,-62 51,-69zm33 26c25,0 46,14 46,32 0,18 -21,33 -46,33 -26,0 -46,-15 -46,-33 0,-18 20,-32 46,-32zm0 13c15,0 27,8 27,19 0,11 -12,20 -27,20 -16,0 -28,-9 -28,-20 0,-11 12,-19 28,-19z"/></g><text x="0" y="348" fill="#000000" font-size="5px" font-weight="bold" font-family="'Helvetica Neue', Helvetica, Arial-Unicode, Arial, Sans-serif">Created by NOVITA ASTRI</text><text x="0" y="353" fill="#000000" font-size="5px" font-weight="bold" font-family="'Helvetica Neue', Helvetica, Arial-Unicode, Arial, Sans-serif">from the Noun Project</text></svg>