<?xml version="1.0" encoding="UTF-8"?>
<svg width="62px" height="39px" viewBox="0 0 62 39" version="1.1" xmlns="http://www.w3.org/2000/svg" xmlns:xlink="http://www.w3.org/1999/xlink">
    <!-- Generator: Sketch 57.1 (83088) - https://sketch.com -->
    <title>Icon/people</title>
    <desc>Created with Sketch.</desc>
    <g id="Symbols" stroke="none" stroke-width="1" fill="none" fill-rule="evenodd">
        <g id="Web-/-Non-M-Amenities" transform="translate(-12.000000, -166.000000)">
            <g id="30-people-capacity" transform="translate(0.000000, 146.000000)">
                <g id="Icon/people">
                    <g>
                        <rect id="Rectangle-Copy-19" x="0" y="0" width="80" height="80"></rect>
                        <g id="Icon-people" transform="translate(12.000000, 18.000000)" fill-rule="nonzero">
                            <path d="M19.84,27.68 C19.8325656,27.8065576 19.8325656,27.9334424 19.84,28.06" id="Path" fill="#CAE5E3"></path>
                            <path d="M20,27.46 C20.0465594,27.2702191 20.1206803,27.088286 20.22,26.92 C20.4665721,26.4031248 20.8831248,25.9865721 21.4,25.74" id="Path" fill="#CAE5E3"></path>
                            <path d="M18,39.12 L17,39.12 L17,27.12 C17.0465912,25.7622498 17.8071328,24.5301724 19,23.88 C21.3100063,22.9677561 23.4942826,21.7647239 25.5,20.3 L25.5,18.3 L26.5,18.3 L26.5,20.3 C26.32,21.48 20.5,24.3 19.38,24.68 C18.26,25.06 18,27.12 18,27.14 L18,39.12 Z" id="Path" fill="#297373"></path>
                            <path d="M2.94,31.46 C2.94,31.46 6,33.72 6.5,35.02 C6.5,35.3 6.5,40.86 6.5,40.86" id="Path" fill="#CAE5E3"></path>
                            <path d="M11.2,40.88 L11.2,40.52" id="Path" fill="#CAE5E3"></path>
                            <path d="M44.46,28.78 L44.46,41 L39.36,41 L32.04,41 L24.62,41 L19.7,41 L19.7,28.52 C19.6950179,28.4534264 19.6950179,28.3865736 19.7,28.32 C19.6902881,28.2738386 19.6902881,28.2261614 19.7,28.18 C19.690643,28.1405472 19.690643,28.0994528 19.7,28.06 C19.6927161,27.9334424 19.6927161,27.8065576 19.7,27.68 C19.694686,27.6067629 19.694686,27.5332371 19.7,27.46 C19.7587772,27.277638 19.8393605,27.1030409 19.94,26.94 C20.1935597,26.4298723 20.5987581,26.0107016 21.1,25.74 L21.1,25.74 C23.198104,24.8845071 25.2076423,23.8261503 27.1,22.58 C27.4273782,22.4328752 27.7307705,22.2373557 28,22 L28,22 C28,22 28,22 28,22 L28,19.64 C26.290726,17.8871786 25.2382255,15.5985197 25.02,13.16 L24.8,13.16 C24.6251562,13.0994836 24.50066,12.9438634 24.48,12.76 C24.48,12.14 24.48,10.46 24.48,9.6 C24.478713,9.28015347 24.5541564,8.96466313 24.7,8.68 C25.9005863,5.68847427 28.8826024,3.80255056 32.1,4 C35.178225,3.71861976 38.0895029,5.44441885 39.32,8.28 C39.4583436,8.55181824 39.5592596,8.84111089 39.62,9.14 C39.7842684,9.79654763 39.7842684,10.4834524 39.62,11.14 C39.5347989,11.420986 39.2915282,11.6250195 39,11.66 C39,15.66 38.22,18.56 36.1,20.02 L36.1,21.72 C36.102715,21.986194 36.2376635,22.2335995 36.46,22.38 L37,22.68 C37.84,23.14 39.48,24.06 42.9,26.02 C43.3188495,26.2351847 43.6713961,26.5600807 43.92,26.96 C44.2605042,27.507017 44.447064,28.1357924 44.46,28.78 Z" id="Path" fill="#CAE5E3"></path>
                            <path d="M19.74,28.18 C19.7302881,28.2261614 19.7302881,28.2738386 19.74,28.32" id="Path" fill="#CAE5E3"></path>
                            <path d="M28.14,21.68 C28.1286427,21.7988645 28.0795892,21.910987 28,22" id="Path" fill="#CAE5E3"></path>
                            <path d="M20.16,26.94 L20.14,26.92" id="Path" fill="#CAE5E3"></path>
                            <path d="M61.48,30.48 L61.48,40.76 L46.82,40.76 L46.82,26.3 C47.1964472,26.0517757 47.5392797,25.7559986 47.84,25.42 C48.0464022,25.2256175 48.1744672,24.962373 48.2,24.68 L48.2,22.68 C47.1739871,22.1215583 46.4433567,21.1425136 46.2,20 L46.2,16.76 L45.64,16.94 C45.545258,16.9736854 45.4399406,16.9576664 45.3594987,16.897335 C45.2790569,16.8370036 45.2341898,16.7403843 45.24,16.64 C45.24,16.08 45.24,15.08 45.24,14.5 C45.2405406,14.2640697 45.2952821,14.031418 45.4,13.82 C45.8,12.98 46.98,10.48 49.2,10.44 C50.1792855,10.387076 51.1607145,10.387076 52.14,10.44 C53.2,10.44 56.14,11.26 56.58,13.74 C56.7612988,14.7634934 56.8549716,15.8005854 56.86,16.84 C56.8601187,16.9655452 56.8089189,17.0856841 56.7182767,17.1725496 C56.6276345,17.259415 56.5054265,17.3054585 56.38,17.3 L55.8,17.3 C55.8925358,18.2043056 55.8925358,19.1156944 55.8,20.02 C55.7006338,21.1886817 55.0256894,22.2310959 54,22.8 L54,24.62 C53.9991536,24.7847574 54.0639203,24.9430761 54.18,25.06 L54.3,25.16 C55.6,26.32 59.32,27.52 60.86,29.16 C61.2254374,29.5062834 61.4468362,29.9776487 61.48,30.48 L61.48,30.48 Z" id="Path" fill="#CAE5E3"></path>
                            <path d="M60.66,29.06 L58.18,31.52 C57.8610459,31.9620361 57.692756,32.494954 57.7,33.04 C57.7,33.48 57.7,41.04 57.7,41.04" id="Path" fill="#CAE5E3"></path>
                            <path d="M16.74,17.26 L16.74,20.8 C16.4501954,22.4044939 15.5552487,23.8364087 14.24,24.8 C14.24,24.8 14.24,27.76 14.24,27.96 C14.8682351,28.527478 15.5366411,29.0488346 16.24,29.52 L16.24,40.6 L2.68,40.6 C2.68,40.6 2.68,33.7 2.68,32.82 C2.63949147,31.8472929 3.14997417,30.9346117 4,30.46 C5.50223549,29.8189279 6.93612933,29.0282761 8.28,28.1 L8.28,24.72 C6.96475131,23.7564087 6.06980456,22.3244939 5.78,20.72 L5.78,17.26 C6.13627173,15.6147656 7.12832552,14.1770065 8.54,13.26 C7.90617635,12.6026112 7.5730916,11.7119715 7.62,10.8 C7.62,8.8 9.5,8.2 11.2,8.2 C12.9,8.2 14.24,9.08 14.24,10.42 C14.2094336,11.2909204 13.9693141,12.1416294 13.54,12.9 L14.12,13.24 C15.4800985,14.1909914 16.4190866,15.6317288 16.74,17.26 Z" id="Path" fill="#CAE5E3"></path>
                            <path d="M4,19.4 L3,19.4 L3,15.86 C3.22928508,14.4360571 3.93428025,13.131816 5,12.16 C6.04065254,11.0593492 7.48531502,10.430921 9,10.42 L9,11.42 L9,11.42 C7.74854541,11.4246573 6.5545147,11.9456888 5.7,12.86 C4.83297562,13.6571591 4.23830981,14.7065693 4,15.86 L4,19.4 Z" id="Path" fill="#297373"></path>
                            <path d="M15.12,19.4 L14.12,19.4 L14.12,15.86 C13.8888996,14.7128812 13.309146,13.6651336 12.46,12.86 C11.5712986,11.9592345 10.365176,11.4423248 9.1,11.42 L9.1,10.42 L9.1,10.42 C10.6127373,10.4400468 12.0539992,11.0669957 13.1,12.16 C14.1657198,13.131816 14.8707149,14.4360571 15.1,15.86 L15.12,19.4 Z" id="Path" fill="#297373"></path>
                            <path d="M9.04,24.82 C7.52726268,24.7999532 6.08600079,24.1730043 5.04,23.08 C3.97945698,22.1123717 3.27505125,20.8162651 3.04,19.4 L4,19.4 C4.2379772,20.5433073 4.82498742,21.5845516 5.68,22.38 C6.56255654,23.2777636 7.76133387,23.7946017 9.02,23.82 L9.02,24.82 L9.04,24.82 Z" id="Path" fill="#297373"></path>
                            <path d="M9.14,24.82 L9.14,24.82 L9.14,23.82 L9.14,23.82 C10.3964373,23.8114278 11.5951886,23.2914875 12.46,22.38 C13.3035388,21.5786177 13.882629,20.5390462 14.12,19.4 L15.12,19.4 C14.8849487,20.8162651 14.180543,22.1123717 13.12,23.08 C12.0788451,24.1681039 10.6457656,24.7946262 9.14,24.82 L9.14,24.82 Z" id="Path" fill="#297373"></path>
                            <path d="M6,11.7 C5.81562881,10.8431389 5.81562881,9.95686107 6,9.1 C6.65495805,7.83058228 7.88538079,6.9581007 9.3,6.76 L9.3,7.76 C8.32835508,7.9779536 7.49344071,8.59506423 7,9.46 C6.86852564,10.1201846 6.86852564,10.7998154 7,11.46 L6,11.7 Z" id="Path" fill="#297373"></path>
                            <path d="M12.48,12 L11.5,11.78 C11.6933957,11.0426849 11.7342294,10.2736492 11.62,9.52 C11.1220881,8.65055243 10.2790627,8.03281824 9.3,7.82 L9.3,6.82 C10.6841204,7.01396312 11.8901262,7.86263385 12.54,9.1 C12.7480708,10.0579599 12.7275155,11.0514661 12.48,12 Z" id="Path" fill="#297373"></path>
                            <path d="M14,28.44 C11.86,27.02 11.78,26.8 11.72,26.66 C11.6169628,25.5423698 11.6169628,24.4176302 11.72,23.3 L12.72,23.3 C12.72,24.48 12.72,25.82 12.72,26.22 C12.72,26.62 13.86,27.08 14.6,27.58 L14,28.44 Z" id="Path" fill="#297373"></path>
                            <path d="M4.88,39.48 L3.88,39.48 C4,36.92 4,34 4,33.72 C3.04685595,32.4316779 1.8677366,31.3271006 0.52,30.46 L1.1,29.66 C1.44,30 4.34,32 4.86,33.44 C4.99898264,35.450721 5.00566371,37.4684027 4.88,39.48 L4.88,39.48 Z" id="Path" fill="#297373"></path>
                            <polygon id="Path" fill="#297373" points="9.1 30.18 5.72 27.06 6.4 26.32 9.08 28.8 11.76 26.12 12.48 26.84"></polygon>
                            <rect id="Rectangle" fill="#297373" x="8.58" y="29.48" width="1" height="9.98"></rect>
                            <path d="M12.78,18.54 C10.6496705,18.4974884 8.63108993,17.5786363 7.2,16 C6.17418856,16.9407871 4.94071964,17.6260476 3.6,18 L3.6,17 C4.85342888,16.5755037 6.00458787,15.8943446 6.98,15 L7.4,14.64 L7.72,15.08 C9.36913125,17.0567199 11.997844,17.9252032 14.5,17.32 L14.74,18.28 C14.1003827,18.4496692 13.441732,18.5370413 12.78,18.54 L12.78,18.54 Z" id="Path" fill="#297373"></path>
                            <path d="M22.84,12.26 L22.7,12.26 C22.2806556,12.1809598 21.9826921,11.8063771 22,11.38 C22,10.76 22,9.08 22,8.2 C22.012333,7.80456603 22.107733,7.41615193 22.28,7.06 C23.5227033,3.90913973 26.6149759,1.88233931 30,2 L30,2 C33.259611,1.72769582 36.3340064,3.54985706 37.66,6.54 C37.8205724,6.85535853 37.9350721,7.19212232 38,7.54 C38.1765525,8.29650228 38.1765525,9.08349772 38,9.84 C37.8607439,10.3036508 37.4605153,10.6410985 36.98,10.7 C34.4122735,10.8778519 31.8326551,10.6414994 29.34,10 L27.64,9.4 C26.4666937,10.9344223 24.7479328,11.9585173 22.84,12.26 L22.84,12.26 Z M30,3 L30,3 C26.9837759,2.85207315 24.2181085,4.6715912 23.16,7.5 C23.0398221,7.72081672 22.9778744,7.96860742 22.9799471,8.22 C22.9799471,9.04 22.9799471,10.58 22.9799471,11.26 C24.6130248,10.925386 26.0494025,9.9630129 26.98,8.58 C27.0373865,8.44948655 27.1458436,8.34825997 27.28,8.3 C27.4157364,8.25113651 27.5642636,8.25113651 27.7,8.3 C28.3448644,8.60735956 29.0137546,8.86153782 29.7,9.06 C32.0228092,9.61726227 34.4166147,9.81955569 36.8,9.66 C36.8833331,9.65545965 36.9550866,9.59965139 36.98,9.52 C37.1229833,8.91499991 37.1229833,8.28500009 36.98,7.68 C36.9200741,7.43116908 36.8328801,7.18970858 36.72,6.96 C35.5632534,4.3334839 32.8580979,2.73937439 30,3 Z" id="Shape" fill="#297373"></path>
                            <path d="M30,20.16 L30,20.16 C25.28,20.16 23.06,15.86 22.58,11.86 L23.56,11.74 C23.78,13.48 24.86,19.14 30,19.16 L30,19.16 C31.9320884,19.3262916 33.8041601,18.439923 34.9,16.84 C35.9952786,14.8067894 36.4878827,12.5033445 36.32,10.2 L37.32,10.2 C37.490599,12.6951679 36.9422704,15.1869398 35.74,17.38 C34.4603263,19.2651278 32.272472,20.3247506 30,20.16 L30,20.16 Z" id="Path" fill="#297373"></path>
                            <path d="M18,39.34 L17,39.34 L17,27.1 C17.1088022,25.8142429 17.8311747,24.6599362 18.94,24 C24.42,21.5 25.34,20.82 25.52,20.44 L25.52,18.44 L26.52,18.44 L26.52,20.44 C26.5518539,20.6051447 26.5518539,20.7748553 26.52,20.94 C26.2,21.58 25.56,22.2 19.56,24.94 C18.7151954,25.3683057 18.1327903,26.1821795 18,27.12 L18,39.34 Z" id="Path" fill="#297373"></path>
                            <path d="M42.84,39.6 L41.84,39.6 L41.84,27.36 C41.8029167,26.3922568 41.285204,25.5068929 40.46,25 L35.5,22.2 L34,21.36 C33.617181,21.1250625 33.3827593,20.709153 33.38,20.26 L33.38,18.56 L34.38,18.56 L34.38,20.26 C34.3765667,20.355205 34.421776,20.4456237 34.5,20.5 L35.98,21.34 L40.94,24.14 C42.077892,24.8194208 42.7876662,26.035098 42.82,27.36 L42.84,39.6 Z" id="Path" fill="#297373"></path>
                            <path d="M23,39.34 L22,39.34 L22,30.84 C22.0033446,30.3278246 21.8100639,29.8338851 21.46,29.46 L17.68,25.88 L18.38,25.16 L22.14,28.72 C22.6530493,29.2647185 22.9575733,29.9729137 23,30.72 C23.02,31.32 23,39.02 23,39.34 Z" id="Path" fill="#297373"></path>
                            <path d="M36.74,39.34 L36.74,30.8 C36.7824267,30.0529137 37.0869507,29.3447185 37.6,28.8 L41.38,25.24 L42.06,25.96 L38.28,29.52 C37.9369277,29.9061963 37.7451283,30.4034539 37.74,30.92 L37.74,39.42 L36.74,39.34 Z" id="Path" fill="#297373"></path>
                            <polygon id="Path" fill="#297373" points="29.92 26.62 24.96 21.58 25.66 20.88 29.94 25.22 34.44 20.88 35.14 21.58"></polygon>
                            <rect id="Rectangle" fill="#297373" x="29.42" y="25.92" width="1" height="13.68"></rect>
                            <path d="M54.26,16.38 L54.26,16.38 C51.7616743,16.3775394 49.3024712,15.759304 47.1,14.58 C46.045375,15.2232887 44.898883,15.7021177 43.7,16 C43.4575133,16.0762607 43.193216,16.0327432 42.9879805,15.8827635 C42.7827451,15.7327838 42.6610007,15.4941938 42.66,15.24 C42.66,14.68 42.66,13.66 42.66,13.08 C42.6618772,12.7669155 42.7372323,12.4586446 42.88,12.18 C43.32,11.26 44.62,8.58 47.12,8.52 C48.1190998,8.45999399 49.1209002,8.45999399 50.12,8.52 L50.12,8.52 C52.3721844,8.56539395 54.3368455,10.0611236 54.98,12.22 C55.154126,13.2780506 55.247728,14.3477872 55.26,15.42 C55.2531659,15.6772651 55.1454076,15.9215173 54.96,16.1 C54.7804875,16.2936204 54.5235232,16.3964061 54.26,16.38 L54.26,16.38 Z M47.06,13.54 C47.2414898,13.5457106 47.4165152,13.6087198 47.56,13.72 C49.6257251,14.8083356 51.9251144,15.3780351 54.26,15.38 C54.2239559,14.3828984 54.1371769,13.388278 54,12.4 C53.64,10.22 50.82,9.52 50,9.52 C50,9.52 49.48,9.52 47.08,9.52 C45.2,9.52 44.14,11.76 43.74,12.58 C43.6501744,12.7387315 43.6020105,12.917626 43.6,13.1 C43.6,13.6 43.6,14.42 43.6,14.98 C44.6157187,14.7199723 45.5865699,14.308709 46.48,13.76 C46.6392323,13.6170661 46.84603,13.5386256 47.06,13.54 L47.06,13.54 Z" id="Shape" fill="#297373"></path>
                            <path d="M48.84,22.84 C47.3267442,22.6894475 45.9128015,22.0178247 44.84,20.94 C44.1140241,20.3508567 43.6591212,19.4915957 43.58,18.56 L43.58,15.36 L44.58,15.36 L44.58,18.56 C44.6716875,19.2124477 45.0076567,19.805755 45.52,20.22 C46.4180887,21.1335256 47.6059505,21.7062447 48.88,21.84 C50.38,21.84 53.1,20.64 53.16,18.54 C53.2285132,17.6947194 53.2285132,16.8452806 53.16,16 L54.12,15.7 C54.2527928,16.6554078 54.2527928,17.6245922 54.12,18.58 C54.12,21.2 50.96,22.76 48.88,22.84 L48.84,22.84 Z" id="Path" fill="#297373"></path>
                            <path d="M44.98,25.32 L44.44,24.48 C45.02,24.08 45.58,23.52 45.58,23.28 L45.58,21.28 L46.58,21.28 L46.58,23.28 C46.6,24.2 45.36,25.06 44.98,25.32 Z" id="Path" fill="#297373"></path>
                            <polygon id="Path" fill="#297373" points="48.8 27.8 45.38 24.38 46.08 23.66 48.8 26.38 51.74 23.4 52.46 24.12"></polygon>
                            <rect id="Rectangle" fill="#297373" x="48.3" y="27.08" width="1" height="12.26"></rect>
                            <path d="M58.86,39.34 L58.86,29.08 C58.8219911,28.6763311 58.6283119,28.3033193 58.32,28.04 C57.190202,27.1186542 55.9383256,26.3581056 54.6,25.78 C53.5294205,25.3267595 52.5266038,24.7277616 51.62,24 C51.4139744,23.7928179 51.2988412,23.5121808 51.2999913,23.22 L51.2999913,21.4 L52.2999913,21.4 L52.2999913,23.22 C53.1280285,23.913563 54.0592355,24.4736368 55.06,24.88 C56.5098207,25.4934731 57.8584297,26.3228677 59.06,27.34 C59.565588,27.7811651 59.8690243,28.4097118 59.9,29.08 L59.9,39.34 L58.86,39.34 Z" id="Path" fill="#297373"></path>
                            <path d="M55.0799926,39.6 C55.0799926,39.3 55.0799926,32.06 55.0799926,31.6 C55.0785541,30.9445125 55.2890149,30.3061146 55.68,29.78 L58.18,27.28 L58.88,27.98 L56.42,30.46 C56.2005781,30.8073351 56.0827984,31.2091718 56.0799926,31.62 L56.0799926,39.62 L55.0799926,39.6 Z" id="Path" fill="#297373"></path>
                            <path d="M2.18791998e-16,39.12 C2.18791998e-16,39.12 2.18791998e-16,32.2 2.18791998e-16,31.34 C-0.0139291529,30.2064793 0.591967476,29.1557472 1.58,28.6 C2.95492948,27.982265 4.29076034,27.2809537 5.58,26.5 L5.58,23.32 L6.58,23.32 L6.58,26.68 C6.58,27.54 2.04,29.5 1.98,29.52 C1.37019601,29.9229212 1.00820232,30.609201 1.02,31.34 C1.02,32.2 1.02,39.12 1.02,39.12 L2.18791998e-16,39.12 Z" id="Path" fill="#297373"></path>
                        </g>
                    </g>
                </g>
            </g>
        </g>
    </g>
</svg>