<?xml version="1.0" encoding="UTF-8"?>
<svg width="49px" height="60px" viewBox="0 0 49 60" version="1.1" xmlns="http://www.w3.org/2000/svg" xmlns:xlink="http://www.w3.org/1999/xlink">
    <!-- Generator: Sketch 57.1 (83088) - https://sketch.com -->
    <title>Icon/phone</title>
    <desc>Created with Sketch.</desc>
    <g id="Symbols" stroke="none" stroke-width="1" fill="none" fill-rule="evenodd">
        <g id="Web/Amenities" transform="translate(-806.000000, -153.000000)">
            <g id="Phone-booths" transform="translate(790.000000, 141.000000)">
                <g id="Icon/phone">
                    <g>
                        <rect id="Rectangle-Copy-11" x="0" y="0" width="80" height="80"></rect>
                        <g id="Icon-Phone" transform="translate(14.000000, 10.000000)" fill-rule="nonzero">
                            <path d="M48.4,46.22 C45.016162,45.7571596 41.7200528,44.7932667 38.62,43.36 C37.6879896,42.8667159 36.5503372,42.9852213 35.74,43.66 L28.64,48.96 C21.2414316,43.7729162 15.6809405,36.3706 12.76,27.82 L19.86,22.52 C20.6683081,21.8677987 21.0962952,20.8541449 21,19.82 C20.3297911,16.417754 20.2688457,12.9235488 20.82,9.5 C21.0140829,7.9852674 19.9838991,6.58527413 18.48,6.32 L18.48,6.32 L8.6,4.96 C7.06332143,4.76615808 5.64554826,5.81407738 5.38,7.34 C3.49908908,20.0014712 6.76853027,32.8887621 14.4577973,43.1223271 C22.1470642,53.3558922 33.6152879,60.0828052 46.3,61.8 L46.3,61.8 C47.8339192,61.9833484 49.2452297,60.9402059 49.52,59.42 L49.52,59.42 L51.02,49.58 C51.0753012,47.9733996 49.9716188,46.5579902 48.4,46.22 L48.4,46.22 Z" id="Path" fill="#CAE5E3"></path>
                            <path d="M44.28,59.8600002 L43.86,59.8600002 C31.0443056,58.1180455 19.4596507,51.3172155 11.6923143,40.9757981 C3.92497792,30.6343807 0.621722073,17.6134737 2.52,4.82 C2.81728064,3.02559365 4.47413132,1.78295563 6.28,2 L16.18,3.4 C17.9413603,3.69690389 19.157374,5.32706725 18.94,7.1 C18.3849556,10.4763749 18.4459395,13.9253578 19.12,17.28 C19.2288116,18.496704 18.7267755,19.6881031 17.78,20.46 L10.96,25.54 C13.8386234,33.768985 19.1804987,40.9124339 26.26,46 L33.08,40.92 C34.0408076,40.1307638 35.3819339,39.9966512 36.48,40.58 C39.5255749,41.9972287 42.7695767,42.9414289 46.1,43.38 L46.1,43.38 C47.9050904,43.7576113 49.1784861,45.3767634 49.12,47.22 L47.6,57.12 C47.2931824,58.7110682 45.9003811,59.8600002 44.28,59.8600002 L44.28,59.8600002 Z M5.88,2.97980178 C4.70070658,2.96488578 3.68820916,3.81572395 3.5,4.98 C1.64765926,17.5077451 4.88762427,30.2556536 12.4968103,40.3786893 C20.1059964,50.501725 31.451043,57.1572838 44,58.86 C45.2828745,59.0270922 46.4642772,58.1388195 46.66,56.86 L48.16,47.04 C48.1990866,45.6978473 47.273295,44.5195672 45.96,44.24 C42.4993517,43.7724476 39.1284734,42.7881512 35.96,41.32 C35.1929759,40.9223143 34.2620533,41.0248736 33.6,41.58 L26.2,47.1 L26,46.9 C18.5541244,41.63006 12.9562065,34.1498421 10,25.52 L9.88,25.18 L17.2,19.68 C17.8647308,19.1262083 18.2159235,18.2818514 18.14,17.42 C17.4594371,13.9774077 17.4119953,10.4396037 18,6.98 C18.1438092,5.71164055 17.2613982,4.55568205 16,4.36 L6.16,3 L5.88,2.97980178 Z" id="Shape" fill="#297373"></path>
                        </g>
                    </g>
                </g>
            </g>
        </g>
    </g>
</svg>