<?xml version="1.0" encoding="UTF-8"?>
<svg width="15px" height="19px" viewBox="0 0 15 19" version="1.1" xmlns="http://www.w3.org/2000/svg" xmlns:xlink="http://www.w3.org/1999/xlink">
    <!-- Generator: Sketch 57.1 (83088) - https://sketch.com -->
    <title>Phone footer</title>
    <desc>Created with Sketch.</desc>
    <g id="Symbols" stroke="none" stroke-width="1" fill="none" fill-rule="evenodd">
        <g id="Mobile/Footer" transform="translate(-226.000000, -110.000000)" fill="#DAEFEC" fill-rule="nonzero">
            <g id="Contact" transform="translate(226.000000, 106.000000)">
                <g id="Phone-footer" transform="translate(0.000000, 4.000000)">
                    <path d="M13.2592864,18.9998935 L13.1033088,18.9998935 C9.09024673,18.4316924 5.46356661,16.2215857 3.03268522,12.8627245 C0.601803842,9.50386318 -0.430933876,5.27583662 0.164962559,1.1222725 C0.272961661,0.426413661 0.884396999,-0.0623090655 1.56096254,0.00644409729 L4.68051558,0.451158317 C5.3407177,0.582219351 5.78839275,1.22351179 5.7021692,1.91467239 C5.53697715,2.96847951 5.55281881,4.04426997 5.7489625,5.09235763 C5.80515858,5.57241834 5.61961439,6.04875868 5.25763289,6.35372887 L3.29231448,7.87384293 C4.16247075,10.3156435 5.70222362,12.4404062 7.72207979,13.986642 L9.6873982,12.466528 C10.0555182,12.1522002 10.5708228,12.1010139 10.9898116,12.3371566 C11.9033049,12.7785204 12.8763354,13.072986 13.8753982,13.2104136 L13.8753982,13.2104136 C14.5533575,13.3497321 15.030932,13.9824096 14.9984372,14.6981848 L14.5305043,17.8920414 C14.4300642,18.5368631 13.8892403,19.0081385 13.2592864,18.9998935 Z M1.43618042,0.815015406 C1.1894975,0.815261225 0.978798181,0.999577153 0.937051936,1.25164391 C0.377513886,5.1964926 1.36612775,9.2092877 3.6818263,12.3927148 C5.99752485,15.5761419 9.44713804,17.6646471 13.2592864,18.1912128 C13.5237196,18.22111 13.7654669,18.0340138 13.8130071,17.76267 L14.2731412,14.6254134 C14.263496,14.3311851 14.0656822,14.0797856 13.7896104,14.0108992 C12.7092204,13.858173 11.6574137,13.5364783 10.6700574,13.056785 C10.5123451,12.9743986 10.3225512,12.996615 10.1865267,13.113385 L7.72987867,14.9811847 L7.50371108,14.8194705 C5.15769621,13.1065099 3.39209731,10.6705122 2.45783404,7.8576715 L2.3408508,7.57467155 L4.75850441,5.70687182 C4.90070893,5.5839007 4.97634369,5.39690752 4.96127535,5.20555761 C4.74647625,4.08614705 4.7279834,2.93576819 4.90668318,1.80955812 C4.93931621,1.54047116 4.75962695,1.29326811 4.50114128,1.25164391 L1.4907726,0.815015406 L1.43618042,0.815015406 Z" id="Shape"></path>
                </g>
            </g>
        </g>
    </g>
</svg>