<?xml version="1.0" encoding="UTF-8"?>
<svg width="50px" height="50px" viewBox="0 0 50 50" version="1.1" xmlns="http://www.w3.org/2000/svg" xmlns:xlink="http://www.w3.org/1999/xlink">
    <!-- Generator: Sketch 57.1 (83088) - https://sketch.com -->
    <title>Icon/printer</title>
    <desc>Created with Sketch.</desc>
    <g id="Symbols" stroke="none" stroke-width="1" fill="none" fill-rule="evenodd">
        <g id="Web/Amenities" transform="translate(-32.000000, -440.000000)">
            <g id="Printer" transform="translate(18.000000, 424.000000)">
                <g id="Icon/printer">
                    <g>
                        <rect id="Rectangle-Copy-12" x="0" y="0" width="80" height="80"></rect>
                        <g id="Icon-printer" transform="translate(14.000000, 16.000000)" fill-rule="nonzero">
                            <path d="M26,19.1437549 L10.2247191,19.1437549 C9.55246238,19.1437549 9.00749064,18.6162036 9.00749064,17.965436 L9.00749064,11.1783189 C9.00749064,10.5275514 8.46251889,10 7.79026217,10 L4.86891386,10 C2.09363296,10 0,11.7674784 0,15.8444619 L0,34.1555381 C0,38.2089552 2.09363296,40 4.86891386,40 L7.79026217,40 C8.46251889,40 9.00749064,39.4724486 9.00749064,38.8216811 L9.00749064,32.034564 C9.00749064,31.3837964 9.55246238,30.8562451 10.2247191,30.8562451 L25.9269663,30.8562451" id="Path" fill="#CAE5E3"></path>
                            <path d="M24,19.1437549 L39.6875585,19.1437549 C40.3591863,19.1437549 40.9036483,18.6162036 40.9036483,17.965436 L40.9036483,11.1783189 C40.9036483,10.5275514 41.4481102,10 42.1197381,10 L45.1356408,10 C47.8840037,10 50,11.7674784 50,15.8444619 L50,34.1555381 C50,38.2089552 47.9083255,40 45.1356408,40 L42.0710945,40 C41.3994666,40 40.8550047,39.4724486 40.8550047,38.8216811 L40.8550047,32.034564 C40.8550047,31.3837964 40.3105427,30.8562451 39.6389149,30.8562451 L24,30.8562451" id="Path" fill="#CAE5E3"></path>
                            <path d="M16.0002247,12.8658048 L16.0002247,3.2478291 C15.9937033,2.91507285 16.1293914,2.59410956 16.3760752,2.35877424 C16.6227589,2.12343891 16.9591997,1.99399295 17.3080023,2.00021433 L32.6922224,2.00021433 C33.414488,2.00021433 34,2.55879049 34,3.2478291 L34,12.8658048 C33.98735,13.4871361 33.4624046,13.9879319 32.8111113,14 L17.1891134,14 C16.5325083,14 16.0002247,13.4922035 16.0002247,12.8658048 Z" id="Path" fill="#CAE5E3"></path>
                            <path d="M16,48.8677192 L16,39.2452595 C16,38.5575217 16.5855193,38 17.3077939,38 L32.6922061,38 C33.4144807,38 34,38.5575217 34,39.2452595 L34,48.8677192 C34,49.4929354 33.4677097,49.9997733 32.8110964,49.9997733 L17.2126817,49.9997733 C16.8932653,50.0058573 16.5847183,49.889279 16.3565862,49.6763147 C16.128454,49.4633504 16,49.1719229 16,48.8677192 Z" id="Path" fill="#CAE5E3"></path>
                            <path d="M16,44.8615005 L16,35.2525646 C16,34.9204209 16.1377833,34.6018809 16.3830392,34.3670198 C16.6282951,34.1321587 16.9609334,34.0002151 17.3077776,34.0002151 L32.6919977,34.0002151 C33.0408003,33.9939702 33.3772411,34.1239074 33.6239248,34.3601358 C33.8706086,34.5963642 34.0062967,34.9185455 33.9997753,35.2525646 L33.9997753,44.8615005 C33.9997753,45.4902764 33.4674917,46 32.8108866,46 L17.2126665,46 C16.5521063,46.0001216 16.0129521,45.4939423 16,44.8615005 L16,44.8615005 Z" id="Path" fill="#CAE5E3"></path>
                            <path d="M8.26190476,38 L5.30952381,38 C2,38 0,35.5775927 0,31.4110522 L0,12.5889478 C0,8.47085541 2,6 5.30952381,6 L8.26190476,6 C9.23497789,6 10.0238095,6.80256602 10.0238095,7.79258138 L10.0238095,14.7691143 C10.0238095,15.1169575 10.3009666,15.3989402 10.6428571,15.3989402 L26,15.3989402 L26,16.5616957 L10.6428571,16.5616957 C9.66978401,16.5616957 8.88095238,15.7591297 8.88095238,14.7691143 L8.88095238,7.79258138 C8.88095238,7.44473814 8.60379532,7.16275549 8.26190476,7.16275549 L5.30952381,7.16275549 C2.64285714,7.16275549 1.14285714,9.1006813 1.14285714,12.5889478 L1.14285714,31.4110522 C1.14285714,34.8993187 2.64285714,36.8372445 5.30952381,36.8372445 L8.26190476,36.8372445 C8.4260864,36.8372445 8.58354358,36.770888 8.69963753,36.6527728 C8.81573148,36.5346575 8.88095238,36.3744588 8.88095238,36.2074186 L8.88095238,29.2308857 C8.88095238,28.2408703 9.66978401,27.4383043 10.6428571,27.4383043 L26,27.4383043 L26,28.6010598 L10.6428571,28.6010598 C10.3009666,28.6010598 10.0238095,28.8830425 10.0238095,29.2308857 L10.0238095,36.2074186 C10.0238095,37.197434 9.23497789,38 8.26190476,38 Z" id="Path" fill="#297373"></path>
                            <path d="M44.6666667,38 L41.7380952,38 C40.7650221,38 39.9761905,37.197434 39.9761905,36.2074186 L39.9761905,29.2308857 C39.9761905,28.8830425 39.6990334,28.6010598 39.3571429,28.6010598 L24,28.6010598 L24,27.4383043 L39.3571429,27.4383043 C40.330216,27.4383043 41.1190476,28.2408703 41.1190476,29.2308857 L41.1190476,36.2074186 C41.1190476,36.5552619 41.3962047,36.8372445 41.7380952,36.8372445 L44.6666667,36.8372445 C47.3571429,36.8372445 48.8571429,34.8993187 48.8571429,31.4110522 L48.8571429,12.5889478 C48.8571429,9.1006813 47.3571429,7.16275549 44.6666667,7.16275549 L41.7380952,7.16275549 C41.3962047,7.16275549 41.1190476,7.44473814 41.1190476,7.79258138 L41.1190476,14.7691143 C41.1190476,15.7591297 40.330216,16.5616957 39.3571429,16.5616957 L24,16.5616957 L24,15.3989402 L39.3571429,15.3989402 C39.6990334,15.3989402 39.9761905,15.1169575 39.9761905,14.7691143 L39.9761905,7.79258138 C39.9761905,6.80256602 40.7650221,6 41.7380952,6 L44.6666667,6 C48,6 50,8.42240727 50,12.5889478 L50,31.4110522 C50,35.5533687 48,38 44.6666667,38 Z" id="Path" fill="#297373"></path>
                            <path d="M32.1602558,14 L15.8397442,14 C15.339024,14.0004009 14.8598043,13.8012742 14.5128444,13.448642 C14.1658845,13.0960097 13.9812134,12.6203916 14.001513,12.1317147 L14.001513,1.91681093 C14.001513,1.40844106 14.2082691,0.920892701 14.5762972,0.561420922 C14.9443253,0.201949143 15.4434786,0 15.963949,0 L32.036051,0 C33.1198745,0 33.998487,0.858185483 33.998487,1.91681093 L33.998487,12.1317147 C34.0187866,12.6203916 33.8341155,13.0960097 33.4871556,13.448642 C33.1401957,13.8012742 32.660976,14.0004009 32.1602558,14 L32.1602558,14 Z M15.963949,1.16464461 C15.5386512,1.16464461 15.1938792,1.50140094 15.1938792,1.91681093 L15.1938792,12.1317147 C15.1938792,12.4801231 15.4830428,12.7625639 15.8397442,12.7625639 L32.1602558,12.7625639 C32.4974225,12.7371572 32.7574408,12.4620197 32.7564418,12.1317147 L32.7564418,1.91681093 C32.7564418,1.50140094 32.4116669,1.16464461 31.9863691,1.16464461 L15.963949,1.16464461 Z" id="Shape" fill="#297373"></path>
                            <path d="M32.1614907,50 L15.8385093,50 C14.8191228,49.986748 14,49.177293 14,48.183391 L14,37.9134948 C14.0133977,36.8621586 14.8843437,36.0130616 15.9627329,36 L32.0372671,36 C33.1212545,36 34,36.8567008 34,37.9134948 L34,48.183391 C34,49.177293 33.1808772,49.986748 32.1614907,50 Z M15.9627329,37.1626298 C15.5373708,37.1626298 15.1925466,37.4988035 15.1925466,37.9134948 L15.1925466,48.183391 C15.1925466,48.3504132 15.2606032,48.5105945 15.3817447,48.628697 C15.5028862,48.7467995 15.6671893,48.8131488 15.8385093,48.8131488 L32.1614907,48.8131488 C32.3328107,48.8131488 32.4971138,48.7467995 32.6182553,48.628697 C32.7393968,48.5105945 32.8074534,48.3504132 32.8074534,48.183391 L32.8074534,37.9134948 C32.8074534,37.4988035 32.4626292,37.1626298 32.0372671,37.1626298 L15.9627329,37.1626298 Z" id="Shape" fill="#297373"></path>
                            <path d="M32.1614907,46 L15.8385093,46 C14.8231287,46 14,45.19613 14,44.2045061 L14,33.9168111 C14,32.8581856 14.8787455,32 15.9627329,32 L32.0372671,32 C33.1212545,32 34,32.8581856 34,33.9168111 L34,44.2045061 C34,44.6807007 33.8063005,45.1373916 33.4615131,45.474112 C33.1167257,45.8108324 32.6490937,46 32.1614907,46 Z M15.9627329,33.1646447 C15.5373708,33.1646447 15.1925466,33.5014011 15.1925466,33.9168111 L15.1925466,44.2045061 C15.1925466,44.5529145 15.481754,44.8353553 15.8385093,44.8353553 L32.1614907,44.8353553 C32.518246,44.8353553 32.8074534,44.5529145 32.8074534,44.2045061 L32.8074534,33.9168111 C32.8074534,33.5014011 32.4626292,33.1646447 32.0372671,33.1646447 L15.9627329,33.1646447 Z" id="Shape" fill="#297373"></path>
                        </g>
                    </g>
                </g>
            </g>
        </g>
    </g>
</svg>