<?xml version="1.0" encoding="UTF-8"?>
<svg width="51px" height="53px" viewBox="0 0 51 53" version="1.1" xmlns="http://www.w3.org/2000/svg" xmlns:xlink="http://www.w3.org/1999/xlink">
    <!-- Generator: Sketch 57.1 (83088) - https://sketch.com -->
    <title>Icon/projector</title>
    <desc>Created with Sketch.</desc>
    <g id="Symbols" stroke="none" stroke-width="1" fill="none" fill-rule="evenodd">
        <g id="Web-/-Non-M-Amenities" transform="translate(-416.000000, -159.000000)">
            <g id="Projector" transform="translate(401.000000, 146.000000)">
                <g id="Icon/projector">
                    <g>
                        <rect id="Rectangle-Copy-14" x="0" y="0" width="80" height="80"></rect>
                        <g id="Icon-projector" transform="translate(16.000000, 14.000000)">
                            <polyline id="Path" fill="#CAE5E3" fill-rule="nonzero" points="6 38 6 4 48 4 48 38"></polyline>
                            <path d="M4,36 L4,2.79786669 C4.0192829,2.36508563 4.38175444,2.01844096 4.83429514,2 L49.1467436,2 C49.6106775,2 49.9896904,2.35429945 50,2.79786669 L50,36" id="Path" fill="#CAE5E3" fill-rule="nonzero"></path>
                            <path d="M49.2354949,37.84 L2.76450512,37.84 C2.3422806,37.84 2,37.4639192 2,37 C2,36.5360808 2.3422806,36.16 2.76450512,36.16 L49.2354949,36.16 C49.6577194,36.16 50,36.5360808 50,37 C50,37.4639192 49.6577194,37.84 49.2354949,37.84 Z" id="Path" fill="#CAE5E3" fill-rule="nonzero"></path>
                            <path d="M26.12,38 L26.12,49.2083958 C26.12,49.4183423 26.212714,49.6196899 26.377746,49.7681445 C26.542778,49.9165991 26.7666095,50 27,50 C27.4860106,50 27.88,49.6455867 27.88,49.2083958 L27.88,38.053973" id="Path" fill="#CAE5E3" fill-rule="nonzero"></path>
                            <path d="M26,46.5186386 L21.3827111,51.7387202 C21.067113,52.0870933 20.5620233,52.0870933 20.2464252,51.7387202 C20.0894276,51.5771036 20,51.3486003 20,51.1090606 C20,50.8695209 20.0894276,50.6410175 20.2464252,50.4794009 L26,44" id="Path" fill="#CAE5E3" fill-rule="nonzero"></path>
                            <path d="M28,44 L33.7841764,50.4885552 C34.0719412,50.8424494 34.0719412,51.3840101 33.7841764,51.7379043 C33.6356904,51.902639 33.4361318,51.9965159 33.2273147,51.9998646 C33.0118862,52.0040853 32.8042592,51.9094651 32.6524897,51.7379043 L28,46.5188491" id="Path" fill="#CAE5E3" fill-rule="nonzero"></path>
                            <polyline id="Path" stroke="#297373" stroke-width="0.5" points="4 36 4 2 46 2 46 36"></polyline>
                            <path d="M2,34 L2,0.797866667 C2,0.357217074 2.37368069,0 2.83463918,0 L47.1653608,0 C47.3867209,0 47.5990146,0.084060711 47.7555398,0.233689736 C47.9120651,0.383318761 48,0.58625927 48,0.797866667 L48,34" id="Path" stroke="#297373" stroke-width="0.5"></path>
                            <path d="M47.2352049,37.84 L0.764795144,37.84 C0.342410449,37.84 0,37.4639192 0,37 C0,36.5360808 0.342410449,36.16 0.764795144,36.16 L47.2352049,36.16 C47.6575896,36.16 48,36.5360808 48,37 C48,37.4639192 47.6575896,37.84 47.2352049,37.84 Z" id="Path" stroke="#297373" stroke-width="0.5"></path>
                            <path d="M24.1198862,38 L24.1198862,49.1879699 C24.1197654,49.6294882 24.5106576,49.9901885 24.9998862,50 C25.2367836,50 25.4637002,49.9139309 25.6293194,49.7611039 C25.7949386,49.6082769 25.8852703,49.4016567 25.8798862,49.1879699 L25.8798862,38" id="Path" stroke="#297373" stroke-width="0.5"></path>
                            <path d="M24,44.5194949 L19.3691576,49.7210328 C19.2219902,49.898929 19.0155455,50 18.7993469,50 C18.5831483,50 18.3767036,49.898929 18.2295362,49.7210328 C18.082616,49.5570296 18,49.3339785 18,49.1013184 C18,48.8686582 18.082616,48.6456071 18.2295362,48.4816039 L24,42" id="Path" stroke="#297373" stroke-width="0.5"></path>
                            <path d="M26,42 L31.7695138,48.4842691 C32.0768287,48.8377316 32.0768287,49.4034201 31.7695138,49.7568826 C31.6218121,49.9203637 31.4209043,50.0080413 31.2140637,49.9992852 C31.001777,50.0088838 30.7950396,49.9214815 30.6406959,49.7568826 L26,44.5250269" id="Path" stroke="#297373" stroke-width="0.5"></path>
                        </g>
                    </g>
                </g>
            </g>
        </g>
    </g>
</svg>