<?xml version="1.0" encoding="UTF-8"?>
<svg width="64px" height="39px" viewBox="0 0 64 39" version="1.1" xmlns="http://www.w3.org/2000/svg" xmlns:xlink="http://www.w3.org/1999/xlink">
    <!-- Generator: Sketch 57.1 (83088) - https://sketch.com -->
    <title>Icon/reception</title>
    <desc>Created with Sketch.</desc>
    <g id="Symbols" stroke="none" stroke-width="1" fill="none" fill-rule="evenodd">
        <g id="Web/Amenities" transform="translate(-26.000000, -163.000000)">
            <g id="Reception" transform="translate(18.000000, 141.333333)">
                <g id="Icon/reception">
                    <g>
                        <rect id="Rectangle-Copy-13" x="0" y="0" width="80" height="80"></rect>
                        <g id="Icon-reception" transform="translate(8.000000, 22.000000)" fill-rule="nonzero">
                            <path d="M4.84,30.32 C4.84,22.1 16.7,6.18 33.74,6.18 C50.78,6.18 60.72,24.18 60.96,30.32 L4.84,30.32 Z" id="Path" fill="#CAE5E3"></path>
                            <path d="M4.84,32.36 L60.96,32.36 C60.96,32.36 61.34,35.16 63.16,35.3 L63.16,37.68 L2.7,37.68 L2.7,35.02 C3.9043109,34.6754596 4.7613601,33.6101554 4.84,32.36 Z" id="Path" fill="#CAE5E3"></path>
                            <path d="M33.72,6.18 L33.72,4.66" id="Path" fill="#CAE5E3"></path>
                            <path d="M30.2,4.9 L37.26,4.9 C37.26,3.48 35.04,2.1 33.8,2.18 C32.56,2.26 30.44,3.14 30.2,4.9 Z" id="Path" fill="#CAE5E3"></path>
                            <path d="M59.28,29.16 L2.14,29.16 L2.14,28.66 C2.14,24.2 5.44,17.96 10.34,13.14 C15.9237433,7.42719747 23.5329044,4.1435463 31.52,4 L31.52,4 C48.78,4 59,22.48 59.24,28.62 L59.28,29.16 Z M3.16,28.16 L58.22,28.16 C57.48,21.8 47.72,5.02 31.54,5.02 L31.54,5.02 C23.8170791,5.18858676 16.4636992,8.35950769 11.04,13.86 C6.5,18.32 3.38,24 3.16,28.16 Z" id="Shape" fill="#297373"></path>
                            <path d="M61.46,36.5 L0,36.5 L0,32.98 L0.36,32.98 C1.34812894,32.692968 2.05637184,31.8255694 2.14,30.8 L2.14,30.2 L59.18,30.2 L59.18,30.62 C59.18,30.62 59.54,33.02 60.94,33.14 L61.4,33.14 L61.46,36.5 Z M1,35.5 L60.46,35.5 L60.46,34 C59.08,33.6 58.46,32 58.34,31.16 L3.1,31.16 C2.88863276,32.2731902 2.1396415,33.2094292 1.1,33.66 L1,35.5 Z" id="Shape" fill="#297373"></path>
                            <rect id="Rectangle" fill="#297373" x="31.02" y="2.98" width="1" height="1.52"></rect>
                            <path d="M35.54,3.74 L27.42,3.74 L27.42,3.16 C27.9290941,1.35209907 29.5433594,0.0768294177 31.42,0 C32.547714,0.0585791562 33.6149244,0.528151752 34.42,1.32 C35.0076456,1.82151599 35.3562652,2.5478068 35.38,3.32 L35.54,3.74 Z M28.66,2.74 L34.42,2.74 C34.2883341,2.46145274 34.1051055,2.2103616 33.88,2 C33.2672961,1.41187699 32.4673146,1.05790284 31.62,1 C30.4164282,1.08811574 29.3223811,1.73123802 28.66,2.74 L28.66,2.74 Z" id="Shape" fill="#297373"></path>
                        </g>
                    </g>
                </g>
            </g>
        </g>
    </g>
</svg>