<?xml version="1.0" encoding="UTF-8"?>
<svg width="65px" height="34px" viewBox="0 0 65 34" version="1.1" xmlns="http://www.w3.org/2000/svg" xmlns:xlink="http://www.w3.org/1999/xlink">
    <!-- Generator: Sketch 57.1 (83088) - https://sketch.com -->
    <title>Icon/sofa</title>
    <desc>Created with Sketch.</desc>
    <g id="Symbols" stroke="none" stroke-width="1" fill="none" fill-rule="evenodd">
        <g id="Web/Amenities" transform="translate(-798.000000, -26.000000)">
            <g id="Kitchen-&amp;-loiunge" transform="translate(790.000000, 0.000000)">
                <g id="Icon/sofa">
                    <g>
                        <rect id="Rectangle-Copy-17" x="0" y="0" width="80" height="80"></rect>
                        <g id="Icon-sofa" transform="translate(8.000000, 26.000000)" fill-rule="nonzero">
                            <circle id="Oval" fill="#CAE5E3" cx="15.88" cy="4.84" r="1.5"></circle>
                            <path d="M21.06,18.26 C21.06,18.26 18.72,15.02 22.46,11.24 L21.06,18.26 Z" id="Path" fill="#CAE5E3"></path>
                            <path d="M19.24,18.64 C19.24,18.64 17.64,14.96 12.48,16.26 L19.24,18.64 Z" id="Path" fill="#CAE5E3"></path>
                            <path d="M49.8,30.88 C49.8,30.88 50.28,24.88 58.2,24.22 L49.8,30.88 Z" id="Path" fill="#CAE5E3"></path>
                            <path d="M47.36,29.54 C47.36,29.54 49.1,23.8 41.96,20.28 L47.36,29.54 Z" id="Path" fill="#CAE5E3"></path>
                            <path d="M30.64,3.34 C30.64,3.34 10.64,1.34 10.24,4.96 C9.84,8.58 9.7,10.8 10.88,11.6 C10.88,11.6 14.68,15.06 12.72,18.12 L11.64,20 L54,19.56 C54,19.56 54.44,13 55.8,11.74 C57.16,10.48 57.6,3.84 55.8,3.74 C54,3.64 32.7,3.16 30.64,3.34 Z" id="Path" fill="#CAE5E3"></path>
                            <path d="M11.28,11.38 C11.28,11.38 -1.38,14.34 3.64,20 L4.44,20.82 L4,33.12 L62.4,33.12 L63.02,20.98 L63.74,19.56 C63.74,19.56 68.22,14.18 55.28,12.24 L53.04,18.12 L13.7,17.84 C13.7,17.84 13.44,11.2 11.28,11.38 Z" id="Path" fill="#CAE5E3"></path>
                            <path d="M32.92,18.16 C26.8630844,14.4240698 19.2169156,14.4240698 13.16,18.16 L10,22.88 L10.64,26.74 C10.64,26.74 33.36,27.1 33.64,24.74 C33.6738594,22.5252926 33.4320012,20.314978 32.92,18.16 L32.92,18.16 Z" id="Path" fill="#CAE5E3"></path>
                            <path d="M53.48,18.2 C53.48,18.2 38.06,13.26 33.48,18.2 L34,25.3 C34,25.3 56.54,27 56.9,25.84 C57.1673962,24.7763956 57.3479895,23.6928354 57.44,22.6 L53.48,18.2 Z" id="Path" fill="#CAE5E3"></path>
                            <path d="M53.06,18 C50.66,17.28 38.94,14 34.16,17.48 C33.6720418,17.8300764 33.0264548,17.8689672 32.5,17.58 C26.5063823,14.4839611 19.3509524,14.6421338 13.5,18 C13.2780076,18.1222917 13.0865615,18.2932257 12.94,18.5 L10.3,22.34 C10.0562016,22.6814895 9.96229715,23.1076713 10.04,23.52 L10.34,25.4 C10.4749184,26.1690651 11.1392265,26.7324656 11.92,26.74 C19.54,26.74 56.58,26.88 56.9,25.84 C57.120826,25.0205088 57.2746661,24.1844217 57.36,23.34 C57.4228846,22.8812222 57.2759888,22.4185005 56.96,22.08 L53.78,18.54 C53.603859,18.2876968 53.3515305,18.0984505 53.06,18 L53.06,18 Z" id="Path" fill="#CAE5E3"></path>
                            <path d="M53.56,10.18 L53.04,9.62 C54.1842111,7.35333215 54.5227796,4.76469387 54,2.28 C54,2.08 53.78,1.72 53.54,1.7 C51.88,1.52 30.76,1.2 28.6,1.38 C14.28,-0.1 8.72,1.38 8.6,2.66 C8.12,6.3 8,8.28 9.02,8.94 L8.58,9.58 C7.16,8.6 7.36,6 7.78,2.56 C8.26,-1.3 25.2,0.26 28.6,0.6 C30.6,0.42 51.94,0.74 53.7,0.92 C54.06,0.92 54.52,1.18 54.82,2.04 C55.52,4.12 54.76,9.06 53.56,10.18 Z" id="Path" fill="#297373"></path>
                            <path d="M60.78,31.16 L1.62,31.16 L2,18.54 L1.3,17.84 C0.243465939,16.9089306 -0.204220432,15.465528 0.14,14.1 C1.26,10.54 8.8,8.72 9.12,8.66 C9.53421287,8.60914015 9.95011805,8.74047863 10.26,9.02 C11.76,10.36 12,15.02 12.02,15.48 L11.24,15.48 C11.24,14.16 10.82,10.52 9.74,9.58 C9.61625972,9.43531138 9.42939029,9.36056361 9.24,9.38 C9.24,9.38 1.86,11.18 0.88,14.34 C0.618404205,15.4326963 0.998022213,16.5792976 1.86,17.3 L2.78,18.22 L2.42,30.38 L60,30.38 L60.64,18.38 L61.42,16.88 C62.030064,16.1540202 62.2466531,15.1756347 62,14.26 C61.52,12.98 59.66,11.28 53.6,10.26 L51.34,16 L50.6,15.7 L53.06,9.54 L53.36,9.54 C58.72,10.34 61.86,11.84 62.68,14 C63.0347467,15.1822161 62.7800069,16.4634075 62,17.42 L61.34,18.74 L60.78,31.16 Z" id="Path" fill="#297373"></path>
                            <path d="M37.58,24.8 C34.34,24.8 31.94,24.8 31.9,24.8 L31.9,24 C40.02,24.12 53.2,24 54.48,23.32 C54.7207686,22.3684474 54.881331,21.3983829 54.96,20.42 L51.2,16.2 C49.88,15.8 35.86,11.62 31.64,16.2 L31.08,15.68 C35.82,10.62 50.9,15.36 51.54,15.56 L51.64,15.56 L55.78,20.16 L55.78,20.34 C55.6943122,21.45477 55.5068651,22.5593692 55.22,23.64 C55.1,24.08 54.92,24.64 43.22,24.8 L37.58,24.8 Z" id="Path" fill="#297373"></path>
                            <path d="M25.66,24.8 L20,24.8 C8.34,24.6 8.16,24 8,23.6 C7.73390291,22.6386902 7.55978648,21.6542627 7.48,20.66 C7.43583433,20.3272664 7.53795894,19.9917141 7.76,19.74 L11.34,15.74 C11.5178457,15.5622762 11.7503184,15.4495622 12,15.42 C14.62,14.62 27.86,10.9 32.26,15.6 L31.7,16.12 C27.52,11.66 13.7,15.7 12.24,16.12 C12.137927,16.1288518 12.0474297,16.1891833 12,16.28 L8.42,20.28 C8.35476998,20.3739516 8.31987233,20.4856241 8.32,20.6 C8.40954754,21.5176978 8.5700273,22.4270831 8.8,23.32 C10.08,24.02 23.26,24.12 31.36,24 L31.36,24.78 C31.36,24.78 28.9,24.8 25.66,24.8 Z" id="Path" fill="#297373"></path>
                            <path d="M21.04,24.82 L9.84,24.82 C8.84921443,24.832752 7.99845676,24.1181156 7.84,23.14 L7.54,21.28 C7.48262849,20.7382168 7.64876221,20.1964764 8,19.78 L10.56,16 C10.5891762,15.9274091 10.6296792,15.8599042 10.68,15.8 C10.8557741,15.4424961 11.108482,15.1283186 11.42,14.88 L11.8,15.56 L11.62,15.22 L11.8,15.56 C11.6280854,15.7664487 11.4741885,15.9872574 11.34,16.22 L11.2,16.4 L8.54,20.22 C8.36697094,20.4785797 8.29573122,20.7920345 8.34,21.1 L8.66,22.98 C8.74052109,23.568547 9.24599569,24.0054826 9.84,24 C29.32,24.1 52.48,24 54.5,23.24 C54.6833927,22.489637 54.8170169,21.7279787 54.9,20.96 C54.9400942,20.6119896 54.8311154,20.2632574 54.6,20 L51.44,16.46 C51.290317,16.2904053 51.0964311,16.1657643 50.88,16.1 L51.1,15.36 C51.4541205,15.4846371 51.766012,15.7064266 52,16 L55.18,19.52 C55.5672926,19.9495899 55.749641,20.5258108 55.68,21.1 C55.5915491,21.9652084 55.4309911,22.8215179 55.2,23.66 C55.1,24 54.84,24.82 21.04,24.82 Z" id="Path" fill="#297373"></path>
                        </g>
                    </g>
                </g>
            </g>
        </g>
    </g>
</svg>