<?xml version="1.0" encoding="UTF-8"?>
<svg width="48px" height="49px" viewBox="0 0 48 49" version="1.1" xmlns="http://www.w3.org/2000/svg" xmlns:xlink="http://www.w3.org/1999/xlink">
    <!-- Generator: Sketch 57.1 (83088) - https://sketch.com -->
    <title>Icon / twitter</title>
    <desc>Created with Sketch.</desc>
    <g id="Symbols" stroke="none" stroke-width="1" fill="none" fill-rule="evenodd">
        <g id="Web-/-Footer" transform="translate(-1165.000000, -147.000000)">
            <g id="Group-17" transform="translate(1039.000000, 146.000000)">
                <g id="Icon-/-twitter" transform="translate(127.000000, 1.000000)">
                    <path d="M38.8613393,1 L7.12354603,1 C3.63507919,1 0,5.0135699 0,8.41406276 L0,40.9750945 C0.261483867,44.4651552 4.01445751,48 7.12354603,48 L38.4094105,48 C43.1690215,48 46,43.0027271 46,40.4809266 L46,8.3075078 C46,4.08700509 41.7089439,1 38.8613393,1 Z" id="Stroke-14" stroke="#DAEFEC" stroke-width="1.5"></path>
                    <path d="M7,1.03422222 C7,1.03422222 38.426993,0.880222222 39,1.03422222" id="Stroke-15" stroke="#DAEFEC" stroke-width="1.5"></path>
                    <path d="M35.0211268,17.9838168 C34.3017165,18.9234009 33.9397007,20.1234788 34.0044014,21.3627059 C34.2739877,26.5123497 32.8413292,30.5055823 29.7449384,33.2309786 C26.1278609,36.4156268 20.2924736,37.6653941 13.7376761,36.661063 C12.549956,36.478868 11.3221831,36.0723172 10.3069982,35.6642606 C12.3635563,34.9716184 13.9533451,34.3557692 16.5198063,33.1692431 L20.099912,31.5114192 L16.147007,31.2644772 C14.2522007,31.1455234 12.6747359,30.2496059 11.7057658,28.7920459 C12.2202905,28.761931 12.7163292,28.6806208 13.2108275,28.5466096 L16.9834947,27.5196923 L13.1784771,26.6102231 C11.3314261,26.1675344 10.2777289,25.0864103 9.72007042,24.2567455 C9.35189261,23.713172 9.1131162,23.154541 8.96985035,22.6395767 C9.35035211,22.7389558 9.79555458,22.8112315 10.5118838,22.8804957 L14.0319102,23.2207938 L11.243618,21.0931778 C9.23327465,19.5618363 8.42913732,17.2610598 9.01914613,15.0476164 C15.290493,21.4048667 22.6555898,20.927546 23.3965669,21.0961893 C23.2332746,19.5467789 23.2286532,19.5437674 23.1855194,19.3946988 C22.2365757,16.1166945 24.3177817,14.4498361 25.2559419,13.8866879 C27.2154489,12.7091962 30.3272447,12.5315185 32.4823944,14.4724222 C32.9460827,14.8895133 33.5761444,15.0551451 34.1646127,14.9120994 C34.6945423,14.7841112 35.1274208,14.6470885 35.5525968,14.5010314 L34.6683539,16.9674397 L35.7975352,16.9689455 C35.5849472,17.2490138 35.3292254,17.5817832 35.0211268,17.9838168 M40,14.7404446 C37.7986356,14.838318 37.8463908,14.8307893 37.596831,14.8503639 L38.9016285,11.2109812 C38.9016285,11.2109812 34.8316461,12.6745641 33.7995158,12.9350578 C31.0897887,10.5559826 27.0613996,10.4505805 24.1822183,12.1806802 C21.8252641,13.5975851 20.5589789,16.0308671 20.9810739,18.8752171 C16.3919454,18.2533449 12.5237676,16.1272347 9.47205106,12.5420587 L8.50616197,11.4082336 L7.78521127,12.7031733 C6.87323944,14.3399168 6.56976232,16.2100506 6.93177817,17.9717709 C7.07966549,18.6945279 7.33230634,19.3841585 7.68199824,20.0271112 L6.85321303,19.7139164 L6.75616197,21.0675801 C6.65602993,22.4423242 7.12433979,24.0459414 8.00704225,25.3574442 C8.25660211,25.7278572 8.57702465,26.1329023 8.98371479,26.5349359 L8.55545775,26.4701889 L9.07768486,28.0195993 C9.76320423,30.0568707 11.1897007,31.6318787 13.0398327,32.5082216 C11.1927817,33.2746452 9.70004401,33.7625062 7.24603873,34.5530217 L5,35.2727672 L7.07350352,36.3825004 C7.8653169,36.8041087 10.6582306,38.2164964 13.418794,38.6396104 C19.5545775,39.5807002 26.4636884,38.8142766 31.1144366,34.7186535 C35.0334507,31.2705002 36.3182218,26.3647868 36.0501761,21.2603153 C36.0116637,20.4878688 36.2273327,19.7500543 36.6602113,19.1838946 C37.5290493,18.0500695 39.9953785,14.7479734 40,14.7404446" id="Fill-16" fill="#DAEFEC"></path>
                </g>
            </g>
        </g>
    </g>
</svg>