<?xml version="1.0" encoding="UTF-8"?>
<svg width="64px" height="40px" viewBox="0 0 64 40" version="1.1" xmlns="http://www.w3.org/2000/svg" xmlns:xlink="http://www.w3.org/1999/xlink">
    <!-- Generator: Sketch 57.1 (83088) - https://sketch.com -->
    <title>Icon/wifi</title>
    <desc>Created with Sketch.</desc>
    <g id="Symbols" stroke="none" stroke-width="1" fill="none" fill-rule="evenodd">
        <g id="Web/Amenities" transform="translate(-26.000000, -20.000000)">
            <g id="Icons-/-Wifi" transform="translate(18.000000, 0.000000)">
                <g id="Icon/wifi">
                    <g>
                        <g id="Icon-wifi" transform="translate(6.000000, 20.000000)" fill-rule="nonzero">
                            <path d="M24.42,39.3 C23.6102869,39.3160524 22.8276394,39.0083502 22.2456635,38.4451477 C21.6636876,37.8819453 21.3304971,37.1098041 21.32,36.3 C21.324193,35.3789763 21.725032,34.5044185 22.42,33.9 C27.12,30 38.72,24.8 49.32,32.9 C50.597497,33.9119732 50.8732681,35.7403269 49.9510857,37.0840784 C49.0289033,38.4278299 47.2237063,38.8280683 45.82,38 L45.62,37.8 C36.22,30.6 26.72,38.3 26.32,38.6 C25.7805917,39.0354216 25.1129696,39.2813876 24.42,39.3 L24.42,39.3 Z" id="Path" fill="#CAE5E3"></path>
                            <path d="M17.22,29.4 C16.3962132,29.4042321 15.6046197,29.0803984 15.02,28.5 C14.4446935,27.9325002 14.1208253,27.1581049 14.1208253,26.35 C14.1208253,25.5418951 14.4446935,24.7674998 15.02,24.2 C15.22,24 32.82,6.7 55.42,22.8 C56.313164,23.4430781 56.7954035,24.513804 56.6850635,25.6088457 C56.5747236,26.7038874 55.8885674,27.6568821 54.8850635,28.1088457 C53.8815596,28.5608094 52.713164,28.4430781 51.82,27.8 C33.52,14.7 20,28 19.32,28.5 C18.7860375,29.0937 18.0181706,29.4227858 17.22,29.4 L17.22,29.4 Z" id="Path" fill="#CAE5E3"></path>
                            <path d="M62.82,18 C62.1708894,18 61.5392885,17.7894664 61.02,17.4 C33.82,-2.4 10.72,16.5 9.82,17.4 C9.17314208,17.898599 8.35286864,18.1159497 7.54398847,18.0030827 C6.7351083,17.8902157 6.00566384,17.4566253 5.52,16.8 C4.49892936,15.5058902 4.71327546,13.6303618 6,12.6 C6.3,12.4 33.7,-10.2 64.8,12.6 C65.4566253,13.0856638 65.8902157,13.8151083 66.0030827,14.6239885 C66.1159497,15.4328686 65.898599,16.2531421 65.4,16.9 C64.7799421,17.6433895 63.8678563,18.0811907 62.9,18.1 L62.82,18 Z" id="Path" fill="#CAE5E3"></path>
                            <path d="M22,37.86 C21.056114,37.8814714 20.1431688,37.5228652 19.4662323,36.8647325 C18.7892958,36.2065998 18.4051202,35.3041163 18.4,34.36 C18.405455,33.2920291 18.8721132,32.2785059 19.68,31.58 C24.48,27.58 36.38,22.3 47.22,30.56 C48.2917968,31.2745312 48.90098,32.506582 48.8180762,33.7920508 C48.7351724,35.0775196 47.9727767,36.2211132 46.8180762,36.7920508 C45.6633757,37.3629884 44.2917968,37.2745312 43.22,36.56 L43.22,36.56 L43.02,36.36 C34.62,29.94 26.06,35.9 24.42,37.16 C23.7256135,37.6804898 22.865022,37.9294213 22,37.86 L22,37.86 Z M34.62,27.2 C29.4178338,27.2943849 24.3918393,29.1009312 20.32,32.34 C19.7511893,32.8516679 19.4183923,33.5751397 19.4,34.34 C19.4051696,35.0207003 19.6833517,35.6708395 20.1721546,36.1446024 C20.6609576,36.6183652 21.3194705,36.8760996 22,36.86 C22.5819127,36.844204 23.1431368,36.6407602 23.6,36.28 C25.38,34.9 34.5,28.56 43.6,35.46 L43.8,35.66 C44.9818894,36.4608129 46.5891871,36.1518894 47.39,34.97 C48.1908129,33.7881106 47.8818894,32.1808129 46.7,31.38 C43.278073,28.6733768 39.0429569,27.2005993 34.68,27.2 L34.62,27.2 Z" id="Shape" fill="#297373"></path>
                            <path d="M14.86,28 C12.8905491,28.0111253 11.281974,26.4293598 11.26,24.46 C11.2709501,23.5314136 11.6525897,22.6457215 12.32,22 C12.5,21.82 30.5,4.26 53.36,20.54 C54.135185,21.0890113 54.6603978,21.9235961 54.82,22.86 C54.9617718,23.8025049 54.7323394,24.763253 54.18,25.54 C53.6295737,26.316853 52.7909063,26.8408572 51.8513703,26.9949411 C50.9118344,27.149025 49.9497272,26.9203478 49.18,26.36 C33.18,14.84 20.8,23.88 17.42,26.92 L17.28,27.02 C16.661826,27.6940738 15.7730159,28.0540052 14.86,28 L14.86,28 Z M33.52,14.58 C25.947827,14.6990463 18.671283,17.5386732 13.02,22.58 C12.5367973,23.0546649 12.2631969,23.702666 12.26,24.38 C12.2717621,25.0555505 12.5440489,25.7004404 13.02,26.18 C13.5102451,26.6619627 14.1725709,26.9283329 14.86,26.92 C15.5112197,26.9440793 16.140131,26.6808141 16.58,26.2 L16.74,26.06 C20.28,22.88 33.08,13.48 49.76,25.42 C50.312625,25.8253676 51.004716,25.9922195 51.6813499,25.8832062 C52.3579838,25.774193 52.9626517,25.3984189 53.36,24.84 C53.7810819,24.2646092 53.947388,23.5415389 53.82,22.84 C53.7113808,22.1690577 53.3363434,21.5704404 52.78,21.18 C47.227529,16.9784641 40.4820463,14.6529186 33.52,14.54 L33.52,14.58 Z" id="Shape" fill="#297373"></path>
                            <path d="M60.46,16.5600064 C59.7024694,16.5614517 58.9651535,16.3156797 58.36,15.86 C31.24,-3.88 8,15.54 7.8,15.74 C7.06551958,16.3450822 6.11734225,16.6270007 5.17158588,16.521498 C4.2258295,16.4159953 3.36308589,15.9320617 2.78,15.18 C1.57630125,13.6930471 1.78058824,11.5169466 3.24,10.28 L3.34,10.28 C6.28,8 32.92,-11.54 62.66,10.16 C63.4257845,10.7222243 63.9334537,11.5686518 64.0688587,12.5089644 C64.2042637,13.4492769 63.9560398,14.404553 63.38,15.16 C62.6572381,16.0299503 61.5908607,16.5412271 60.46,16.5600064 Z M33.06,6 C42.4777422,6.11369159 51.603165,9.28653089 59.06,15.04 C59.4913562,15.3671885 60.0186019,15.5429371 60.56,15.54 C61.3834452,15.533286 62.1608816,15.1592364 62.68,14.52 C63.0670723,13.9628245 63.2131362,13.2731138 63.0851557,12.6068627 C62.9571753,11.9406116 62.5659627,11.3541067 62,10.98 C32.94,-10.3 6.84,8.76 4,11 L3.88,11 C3.35899385,11.4253922 3.03137768,12.0427783 2.97116101,12.7126886 C2.91094435,13.382599 3.12320767,14.0485135 3.56,14.56 C3.97438588,15.0971199 4.58782809,15.4444802 5.26159754,15.5235258 C5.93536698,15.6025713 6.61254906,15.4066251 7.14,14.98 C14.5901577,9.27839784 23.6793623,6.1294373 33.06,6 Z" id="Shape" fill="#297373"></path>
                        </g>
                        <rect id="Rectangle-Copy-18" x="0" y="0" width="80" height="80"></rect>
                    </g>
                </g>
            </g>
        </g>
    </g>
</svg>